<svg width="196" height="202" viewBox="0 0 196 202" fill="none" xmlns="http://www.w3.org/2000/svg">
<g filter="url(#filter0_d_3263_3135)">
<path d="M78 11.5472C90.376 4.40194 105.624 4.40194 118 11.5472L162.87 37.4532C175.247 44.5986 182.87 57.8036 182.87 72.0943V123.906C182.87 138.197 175.247 151.402 162.87 158.547L118 184.453C105.624 191.599 90.376 191.599 78 184.453L33.1295 158.547C20.7535 151.402 13.1295 138.197 13.1295 123.906V72.0943C13.1295 57.8036 20.7535 44.5985 33.1295 37.4532L78 11.5472Z" fill="white"/>
</g>
<path d="M71.1226 141.22L71.6626 139.78H77.2426L77.7826 141.22H71.1226ZM74.4166 135.244L72.2926 140.248L72.1486 140.572L70.2766 145H68.5666L74.4166 131.77L80.2666 145H78.5566L76.7206 140.68L76.5766 140.32L74.4166 135.244ZM87.0194 139.96C87.0194 139.276 86.8694 138.76 86.5694 138.412C86.2694 138.064 85.8314 137.89 85.2554 137.89C84.8354 137.89 84.4634 137.98 84.1394 138.16C83.8274 138.328 83.5814 138.568 83.4014 138.88C83.2334 139.192 83.1494 139.552 83.1494 139.96V145H81.7094V136.72H83.1494V138.016C83.4254 137.512 83.7674 137.14 84.1754 136.9C84.5954 136.66 85.0754 136.54 85.6154 136.54C86.4914 136.54 87.1814 136.834 87.6854 137.422C88.2014 137.998 88.4594 138.784 88.4594 139.78V145H87.0194V139.96ZM90.6084 145.54H92.0664C92.0664 145.936 92.1744 146.302 92.3904 146.638C92.6064 146.986 92.9124 147.262 93.3084 147.466C93.7044 147.682 94.1724 147.79 94.7124 147.79C95.1324 147.79 95.5464 147.688 95.9544 147.484C96.3624 147.28 96.6984 146.956 96.9624 146.512C97.2384 146.08 97.3764 145.516 97.3764 144.82V136.72H98.8164V144.82C98.8164 145.768 98.6184 146.56 98.2224 147.196C97.8264 147.844 97.3164 148.33 96.6924 148.654C96.0684 148.978 95.4084 149.14 94.7124 149.14C93.9084 149.14 93.1944 148.99 92.5704 148.69C91.9584 148.39 91.4784 147.964 91.1304 147.412C90.7824 146.872 90.6084 146.248 90.6084 145.54ZM90.4464 140.86C90.4464 139.96 90.6324 139.192 91.0044 138.556C91.3764 137.908 91.8744 137.41 92.4984 137.062C93.1224 136.714 93.8064 136.54 94.5504 136.54C95.2464 136.54 95.8524 136.714 96.3684 137.062C96.8844 137.41 97.2864 137.908 97.5744 138.556C97.8744 139.192 98.0244 139.96 98.0244 140.86C98.0244 141.748 97.8744 142.516 97.5744 143.164C97.2864 143.812 96.8844 144.31 96.3684 144.658C95.8524 145.006 95.2464 145.18 94.5504 145.18C93.8064 145.18 93.1224 145.006 92.4984 144.658C91.8744 144.31 91.3764 143.812 91.0044 143.164C90.6324 142.516 90.4464 141.748 90.4464 140.86ZM91.9044 140.86C91.9044 141.496 92.0304 142.036 92.2824 142.48C92.5464 142.924 92.8944 143.26 93.3264 143.488C93.7584 143.716 94.2264 143.83 94.7304 143.83C95.1504 143.83 95.5644 143.716 95.9724 143.488C96.3804 143.26 96.7164 142.924 96.9804 142.48C97.2444 142.036 97.3764 141.496 97.3764 140.86C97.3764 140.38 97.2984 139.96 97.1424 139.6C96.9864 139.228 96.7764 138.916 96.5124 138.664C96.2604 138.412 95.9784 138.22 95.6664 138.088C95.3544 137.956 95.0424 137.89 94.7304 137.89C94.2264 137.89 93.7584 138.004 93.3264 138.232C92.8944 138.46 92.5464 138.796 92.2824 139.24C92.0304 139.684 91.9044 140.224 91.9044 140.86ZM102.872 141.76C102.872 142.42 103.022 142.93 103.322 143.29C103.622 143.65 104.06 143.83 104.636 143.83C105.056 143.83 105.422 143.746 105.734 143.578C106.058 143.398 106.304 143.152 106.472 142.84C106.652 142.528 106.742 142.168 106.742 141.76V136.72H108.182V145H106.742V143.704C106.466 144.196 106.124 144.568 105.716 144.82C105.308 145.06 104.828 145.18 104.276 145.18C103.412 145.18 102.722 144.886 102.206 144.298C101.69 143.71 101.432 142.924 101.432 141.94V136.72H102.872V141.76ZM110.889 130.96H112.329V145H110.889V130.96ZM115.686 142.444C115.686 142.756 115.758 143.026 115.902 143.254C116.058 143.482 116.268 143.656 116.532 143.776C116.808 143.884 117.12 143.938 117.468 143.938C117.912 143.938 118.308 143.848 118.656 143.668C119.016 143.488 119.298 143.236 119.502 142.912C119.718 142.576 119.826 142.192 119.826 141.76L120.114 142.84C120.114 143.368 119.952 143.806 119.628 144.154C119.316 144.502 118.926 144.76 118.458 144.928C118.002 145.096 117.546 145.18 117.09 145.18C116.586 145.18 116.112 145.078 115.668 144.874C115.236 144.658 114.888 144.352 114.624 143.956C114.36 143.56 114.228 143.08 114.228 142.516C114.228 141.712 114.51 141.07 115.074 140.59C115.65 140.098 116.448 139.852 117.468 139.852C118.068 139.852 118.566 139.924 118.962 140.068C119.37 140.2 119.694 140.356 119.934 140.536C120.174 140.704 120.336 140.842 120.42 140.95V141.796C120 141.508 119.568 141.304 119.124 141.184C118.68 141.052 118.206 140.986 117.702 140.986C117.234 140.986 116.85 141.046 116.55 141.166C116.262 141.286 116.046 141.454 115.902 141.67C115.758 141.886 115.686 142.144 115.686 142.444ZM115.47 138.628L114.768 137.566C115.08 137.338 115.506 137.11 116.046 136.882C116.598 136.654 117.258 136.54 118.026 136.54C118.674 136.54 119.238 136.642 119.718 136.846C120.21 137.038 120.588 137.32 120.852 137.692C121.128 138.064 121.266 138.52 121.266 139.06V145H119.826V139.258C119.826 138.97 119.778 138.736 119.682 138.556C119.586 138.364 119.448 138.214 119.268 138.106C119.1 137.998 118.902 137.92 118.674 137.872C118.446 137.824 118.206 137.8 117.954 137.8C117.546 137.8 117.174 137.848 116.838 137.944C116.514 138.04 116.238 138.154 116.01 138.286C115.782 138.418 115.602 138.532 115.47 138.628ZM125.144 136.72V145H123.704V136.72H125.144ZM127.646 138.304C127.454 138.16 127.28 138.058 127.124 137.998C126.968 137.926 126.77 137.89 126.53 137.89C126.17 137.89 125.888 137.98 125.684 138.16C125.48 138.34 125.336 138.586 125.252 138.898C125.18 139.21 125.144 139.564 125.144 139.96H124.496C124.496 139.3 124.61 138.718 124.838 138.214C125.078 137.698 125.384 137.29 125.756 136.99C126.128 136.69 126.506 136.54 126.89 136.54C127.19 136.54 127.466 136.582 127.718 136.666C127.982 136.738 128.222 136.888 128.438 137.116L127.646 138.304Z" fill="#424254"/>
<g clip-path="url(#clip0_3263_3135)">
<path fill-rule="evenodd" clip-rule="evenodd" d="M77.4141 93.084V80.7793H78.9961L86.5156 90.6816V80.7793H88.0195V93.084H86.4375L78.918 83.084V93.084H77.4141ZM100.266 92.5957C99.2695 92.9668 98.1953 93.1621 97.0625 93.1621C92.6094 93.1621 90.3828 91.0332 90.3828 86.7559C90.3828 82.7129 92.5312 80.6816 96.8281 80.6816C98.0586 80.6816 99.2109 80.8574 100.266 81.1895V82.5566C99.2109 82.1465 98.1172 81.9512 97.0039 81.9512C93.6445 81.9512 91.9648 83.5527 91.9648 86.7168C91.9648 90.1348 93.625 91.834 96.9258 91.834C97.4531 91.834 98.0391 91.7559 98.6836 91.6191V87.498H100.266V92.5957ZM102.805 88.3379V80.7793H104.387V88.3379C104.387 90.7012 105.559 91.8926 107.922 91.8926C110.266 91.8926 111.457 90.7012 111.457 88.3379V80.7793H113.039V88.3379C113.039 91.5605 111.34 93.1816 107.922 93.1816C104.504 93.1816 102.805 91.5605 102.805 88.3379ZM117.453 80.7793V91.7949H123.898V93.084H115.871V80.7793H117.453ZM126.184 93.084H124.523L130.637 79.1582L136.75 93.084H134.992L133.41 89.2168H129.348L129.777 87.9277H132.883L130.578 82.3613L126.184 93.084ZM138.449 93.084V80.7793H143.703C146.047 80.7793 147.219 81.7559 147.219 83.7285C147.219 85.3301 146.066 86.5215 143.781 87.2832L148 93.084H145.91L142.004 87.5566V86.5215C144.348 86.1504 145.539 85.252 145.539 83.8066C145.539 82.6738 144.895 82.1074 143.586 82.1074H140.07V93.084H138.449Z" fill="#B52E31"/>
<path fill-rule="evenodd" clip-rule="evenodd" d="M48 77.498L60.5977 73.0059L73.5273 77.4199L71.4375 94.0801L60.5977 100.076L49.9336 94.1582L48 77.498Z" fill="#E23237"/>
<path fill-rule="evenodd" clip-rule="evenodd" d="M73.5273 77.4199L60.5977 73.0059V100.076L71.4375 94.0801L73.5273 77.4199Z" fill="#B52E31"/>
<path fill-rule="evenodd" clip-rule="evenodd" d="M60.6172 76.1699L52.7656 93.6309L55.6953 93.5723L57.2773 89.627H64.2891L66.0078 93.6113L68.8008 93.6699L60.6172 76.1699ZM60.6367 81.7754L63.293 87.3223H58.3125L60.6367 81.7754Z" fill="white"/>
</g>
<defs>
<filter id="filter0_d_3263_3135" x="5.12988" y="2.18823" width="185.74" height="199.624" filterUnits="userSpaceOnUse" color-interpolation-filters="sRGB">
<feFlood flood-opacity="0" result="BackgroundImageFix"/>
<feColorMatrix in="SourceAlpha" type="matrix" values="0 0 0 0 0 0 0 0 0 0 0 0 0 0 0 0 0 0 127 0" result="hardAlpha"/>
<feOffset dy="4"/>
<feGaussianBlur stdDeviation="4"/>
<feColorMatrix type="matrix" values="0 0 0 0 0.0627451 0 0 0 0 0.0941176 0 0 0 0 0.156863 0 0 0 0.04 0"/>
<feBlend mode="normal" in2="BackgroundImageFix" result="effect1_dropShadow_3263_3135"/>
<feBlend mode="normal" in="SourceGraphic" in2="effect1_dropShadow_3263_3135" result="shape"/>
</filter>
<clipPath id="clip0_3263_3135">
<rect width="100" height="27.16" fill="white" transform="translate(48 73)"/>
</clipPath>
</defs>
</svg>
