<svg width="16" height="16" viewBox="0 0 16 16" fill="none" xmlns="http://www.w3.org/2000/svg">
<g clip-path="url(#clip0_3311_16)">
<path d="M8.00099 0C12.4192 0 16.001 3.58172 16.001 8C16.001 12.4182 12.4192 16 8.00099 16C3.5827 16 0.000976562 12.4182 0.000976562 8C0.000976562 3.58172 3.5827 0 8.00099 0ZM8.00099 1.2C4.24544 1.2 1.20098 4.24446 1.20098 8C1.20098 11.7555 4.24544 14.8 8.00099 14.8C11.7565 14.8 14.801 11.7555 14.801 8C14.801 4.24446 11.7565 1.2 8.00099 1.2ZM7.71859 4.44246L7.77667 4.37518C7.98971 4.16216 8.32307 4.14279 8.55795 4.31708L8.62523 4.37518L11.8259 7.57584C12.0389 7.78888 12.0583 8.12224 11.884 8.35712L11.8258 8.42448L8.62459 11.6245C8.39027 11.8587 8.01035 11.8586 7.77603 11.6242C7.56307 11.4112 7.54379 11.0779 7.71811 10.843L7.77619 10.7758L9.95379 8.5992L4.60041 8.59944C4.29666 8.59944 4.04562 8.37368 4.00589 8.08088L4.00041 7.99944C4.00041 7.69568 4.22614 7.44464 4.51899 7.40488L4.60041 7.39944L9.95219 7.3992L7.77667 5.2237C7.56371 5.01069 7.54435 4.67736 7.71859 4.44246L7.77667 4.37518L7.71859 4.44246Z" fill="white"/>
</g>
<defs>
<clipPath id="clip0_3311_16">
<rect width="16.0008" height="16" fill="white"/>
</clipPath>
</defs>
</svg>
