<svg width="196" height="202" viewBox="0 0 196 202" fill="none" xmlns="http://www.w3.org/2000/svg">
<g filter="url(#filter0_d_3263_3148)">
<path d="M78 11.5472C90.376 4.40194 105.624 4.40194 118 11.5472L162.87 37.4532C175.247 44.5986 182.87 57.8036 182.87 72.0943V123.906C182.87 138.197 175.247 151.402 162.87 158.547L118 184.453C105.624 191.599 90.376 191.599 78 184.453L33.1295 158.547C20.7535 151.402 13.1295 138.197 13.1295 123.906V72.0943C13.1295 57.8036 20.7535 44.5985 33.1295 37.4532L78 11.5472Z" fill="white"/>
</g>
<path d="M80.7583 138.22L81.2983 136.78H86.8783L87.4183 138.22H80.7583ZM84.0523 132.244L81.9283 137.248L81.7843 137.572L79.9123 142H78.2023L84.0523 128.77L89.9023 142H88.1923L86.3563 137.68L86.2123 137.32L84.0523 132.244ZM100.856 138.67L104.132 129.4H105.842L100.892 142.63L97.1121 132.838L93.3321 142.63L88.3821 129.4H90.0921L93.4401 138.67L97.1121 128.77L100.856 138.67ZM107.934 138.184C108.222 138.688 108.522 139.132 108.834 139.516C109.158 139.9 109.518 140.2 109.914 140.416C110.31 140.632 110.76 140.74 111.264 140.74C111.936 140.74 112.476 140.554 112.884 140.182C113.292 139.81 113.496 139.336 113.496 138.76C113.496 138.196 113.364 137.746 113.1 137.41C112.836 137.074 112.488 136.804 112.056 136.6C111.636 136.384 111.186 136.192 110.706 136.024C110.394 135.916 110.046 135.778 109.662 135.61C109.278 135.43 108.912 135.208 108.564 134.944C108.216 134.668 107.928 134.332 107.7 133.936C107.484 133.54 107.376 133.054 107.376 132.478C107.376 131.854 107.532 131.296 107.844 130.804C108.156 130.312 108.588 129.928 109.14 129.652C109.692 129.364 110.322 129.22 111.03 129.22C111.714 129.22 112.308 129.352 112.812 129.616C113.328 129.868 113.766 130.198 114.126 130.606C114.486 131.002 114.768 131.422 114.972 131.866L113.658 132.622C113.502 132.31 113.304 132.004 113.064 131.704C112.824 131.404 112.53 131.158 112.182 130.966C111.846 130.774 111.432 130.678 110.94 130.678C110.256 130.678 109.758 130.846 109.446 131.182C109.134 131.506 108.978 131.872 108.978 132.28C108.978 132.628 109.068 132.952 109.248 133.252C109.428 133.54 109.728 133.816 110.148 134.08C110.58 134.332 111.162 134.584 111.894 134.836C112.23 134.956 112.584 135.112 112.956 135.304C113.328 135.496 113.67 135.742 113.982 136.042C114.306 136.33 114.57 136.684 114.774 137.104C114.978 137.512 115.08 138.004 115.08 138.58C115.08 139.132 114.972 139.63 114.756 140.074C114.552 140.518 114.264 140.896 113.892 141.208C113.532 141.52 113.118 141.76 112.65 141.928C112.194 142.096 111.714 142.18 111.21 142.18C110.526 142.18 109.89 142.036 109.302 141.748C108.726 141.448 108.216 141.058 107.772 140.578C107.34 140.086 106.986 139.564 106.71 139.012L107.934 138.184Z" fill="#424254"/>
<g clip-path="url(#clip0_3263_3148)">
<path d="M75.9813 71.7909C75.9813 73.0256 76.1148 74.0267 76.3484 74.7608C76.6153 75.495 76.949 76.2959 77.4162 77.1635C77.5831 77.4305 77.6498 77.6974 77.6498 77.931C77.6498 78.2647 77.4496 78.5984 77.0158 78.9321L74.9134 80.3337C74.6131 80.5339 74.3128 80.634 74.0458 80.634C73.7121 80.634 73.3784 80.4672 73.0447 80.1669C72.5775 79.6663 72.1771 79.1324 71.8434 78.5984C71.5097 78.0311 71.176 77.3971 70.8089 76.6296C68.206 79.6997 64.9357 81.2347 60.998 81.2347C58.1949 81.2347 55.9591 80.4338 54.3239 78.832C52.6888 77.2303 51.8545 75.0946 51.8545 72.4249C51.8545 69.5884 52.8556 67.2859 54.8912 65.5506C56.9268 63.8154 59.6298 62.9477 63.0669 62.9477C64.2015 62.9477 65.3695 63.0478 66.6042 63.2147C67.8389 63.3815 69.107 63.6485 70.4418 63.9488V61.5128C70.4418 58.9766 69.9079 57.208 68.8734 56.1735C67.8055 55.139 66.0035 54.6385 63.434 54.6385C62.2661 54.6385 61.0647 54.772 59.83 55.0723C58.5953 55.3726 57.394 55.7397 56.226 56.2069C55.6921 56.4405 55.2916 56.574 55.0581 56.6407C54.8245 56.7075 54.6576 56.7408 54.5241 56.7408C54.0569 56.7408 53.8233 56.4071 53.8233 55.7063V54.0712C53.8233 53.5373 53.8901 53.1368 54.0569 52.9032C54.2238 52.6696 54.5241 52.436 54.9913 52.2024C56.1593 51.6018 57.5608 51.1012 59.196 50.7008C60.8311 50.267 62.5664 50.0667 64.4018 50.0667C68.3728 50.0667 71.2761 50.9677 73.1448 52.7697C74.9802 54.5717 75.9146 57.3081 75.9146 60.9789V71.7909H75.9813ZM62.4329 76.8632C63.5341 76.8632 64.6687 76.663 65.8701 76.2625C67.0714 75.8621 68.1393 75.1279 69.0403 74.1268C69.5742 73.4928 69.9746 72.792 70.1748 71.9911C70.3751 71.1902 70.5086 70.2225 70.5086 69.0879V67.6863C69.5408 67.4527 68.5063 67.2525 67.4385 67.119C66.3706 66.9855 65.3361 66.9188 64.3017 66.9188C62.0658 66.9188 60.4307 67.3526 59.3295 68.2536C58.2282 69.1546 57.6943 70.4227 57.6943 72.0912C57.6943 73.6596 58.0948 74.8276 58.929 75.6285C59.7299 76.4627 60.8979 76.8632 62.4329 76.8632ZM89.2294 80.4672C88.6287 80.4672 88.2282 80.3671 87.9613 80.1335C87.6943 79.9333 87.4607 79.4661 87.2605 78.832L79.4185 53.0367C79.2182 52.3693 79.1181 51.9355 79.1181 51.7019C79.1181 51.168 79.3851 50.8676 79.919 50.8676H83.1893C83.8233 50.8676 84.2572 50.9677 84.4908 51.2013C84.7577 51.4016 84.9579 51.8687 85.1582 52.5028L90.7644 74.594L95.9702 52.5028C96.137 51.8354 96.3372 51.4016 96.6042 51.2013C96.8712 51.0011 97.3384 50.8676 97.939 50.8676H100.609C101.243 50.8676 101.677 50.9677 101.943 51.2013C102.21 51.4016 102.444 51.8687 102.578 52.5028L107.85 74.861L113.623 52.5028C113.823 51.8354 114.057 51.4016 114.291 51.2013C114.557 51.0011 114.991 50.8676 115.592 50.8676H118.695C119.229 50.8676 119.53 51.1346 119.53 51.7019C119.53 51.8687 119.496 52.0356 119.463 52.2358C119.43 52.436 119.363 52.703 119.229 53.0701L111.187 78.8654C110.987 79.5328 110.753 79.9666 110.486 80.1669C110.219 80.3671 109.786 80.5006 109.218 80.5006H106.348C105.714 80.5006 105.281 80.4004 105.014 80.1669C104.747 79.9333 104.513 79.4994 104.38 78.832L99.2071 57.3081L94.0681 78.7987C93.9012 79.4661 93.701 79.8999 93.434 80.1335C93.1671 80.3671 92.6999 80.4672 92.0992 80.4672H89.2294ZM132.11 81.3682C130.375 81.3682 128.64 81.168 126.971 80.7675C125.303 80.3671 124.001 79.9333 123.134 79.4327C122.6 79.1324 122.233 78.7987 122.099 78.4983C121.966 78.198 121.899 77.8643 121.899 77.564V75.8621C121.899 75.1613 122.166 74.8276 122.667 74.8276C122.867 74.8276 123.067 74.861 123.267 74.9277C123.467 74.9944 123.768 75.1279 124.101 75.2614C125.236 75.762 126.471 76.1624 127.772 76.4294C129.107 76.6963 130.408 76.8298 131.743 76.8298C133.846 76.8298 135.481 76.4627 136.615 75.7286C137.75 74.9944 138.351 73.9266 138.351 72.5584C138.351 71.624 138.05 70.8565 137.45 70.2225C136.849 69.5884 135.714 69.0211 134.079 68.4872L129.24 66.9855C126.804 66.218 125.002 65.0834 123.901 63.5818C122.8 62.1135 122.233 60.4783 122.233 58.743C122.233 57.3415 122.533 56.1068 123.134 55.0389C123.734 53.9711 124.535 53.0367 125.536 52.3026C126.537 51.535 127.672 50.9677 129.007 50.5673C130.342 50.1669 131.743 50 133.212 50C133.946 50 134.713 50.0334 135.447 50.1335C136.215 50.2336 136.916 50.3671 137.616 50.5006C138.284 50.6674 138.918 50.8343 139.519 51.0345C140.119 51.2347 140.586 51.4349 140.92 51.6352C141.387 51.9021 141.721 52.1691 141.921 52.4694C142.121 52.7364 142.222 53.1034 142.222 53.5706V55.139C142.222 55.8398 141.955 56.2069 141.454 56.2069C141.187 56.2069 140.753 56.0734 140.186 55.8065C138.284 54.9388 136.148 54.505 133.779 54.505C131.877 54.505 130.375 54.8053 129.341 55.4394C128.306 56.0734 127.772 57.0412 127.772 58.4093C127.772 59.3437 128.106 60.1446 128.773 60.7786C129.441 61.4127 130.675 62.0467 132.444 62.614L137.183 64.1157C139.585 64.8832 141.321 65.9511 142.355 67.3192C143.39 68.6874 143.89 70.2558 143.89 71.9911C143.89 73.426 143.59 74.7275 143.022 75.8621C142.422 76.9967 141.621 77.9978 140.586 78.7987C139.552 79.6329 138.317 80.2336 136.882 80.6674C135.381 81.1346 133.812 81.3682 132.11 81.3682Z" fill="#252F3E"/>
<path fill-rule="evenodd" clip-rule="evenodd" d="M138.418 97.5864C127.439 105.695 111.488 110 97.7724 110C78.551 110 61.2318 102.892 48.1506 91.0792C47.1161 90.1448 48.0504 88.8767 49.2851 89.6109C63.4342 97.82 80.8869 102.792 98.9403 102.792C111.121 102.792 124.502 100.256 136.816 95.0502C138.651 94.216 140.22 96.2516 138.418 97.5864Z" fill="#FF9900"/>
<path fill-rule="evenodd" clip-rule="evenodd" d="M142.989 92.3805C141.588 90.5785 133.712 91.5129 130.142 91.9467C129.074 92.0802 128.907 91.1458 129.875 90.4451C136.148 86.0402 146.46 87.3082 147.661 88.7765C148.863 90.2782 147.328 100.59 141.454 105.528C140.553 106.296 139.686 105.896 140.086 104.894C141.421 101.591 144.391 94.1492 142.989 92.3805Z" fill="#FF9900"/>
</g>
<defs>
<filter id="filter0_d_3263_3148" x="5.12988" y="2.18823" width="185.74" height="199.624" filterUnits="userSpaceOnUse" color-interpolation-filters="sRGB">
<feFlood flood-opacity="0" result="BackgroundImageFix"/>
<feColorMatrix in="SourceAlpha" type="matrix" values="0 0 0 0 0 0 0 0 0 0 0 0 0 0 0 0 0 0 127 0" result="hardAlpha"/>
<feOffset dy="4"/>
<feGaussianBlur stdDeviation="4"/>
<feColorMatrix type="matrix" values="0 0 0 0 0.0627451 0 0 0 0 0.0941176 0 0 0 0 0.156863 0 0 0 0.04 0"/>
<feBlend mode="normal" in2="BackgroundImageFix" result="effect1_dropShadow_3263_3148"/>
<feBlend mode="normal" in="SourceGraphic" in2="effect1_dropShadow_3263_3148" result="shape"/>
</filter>
<clipPath id="clip0_3263_3148">
<rect width="102.389" height="60" fill="white" transform="translate(46.7949 50)"/>
</clipPath>
</defs>
</svg>
