<svg width="50" height="50" viewBox="0 0 50 50" fill="none" xmlns="http://www.w3.org/2000/svg">
<path d="M50 20.9828C50 24.9237 50 28.8647 50 32.8046C49.909 32.836 49.814 32.8582 49.7291 32.9006C45.0931 35.2151 40.4591 37.5346 35.818 39.839C35.5319 39.9814 35.4753 40.1713 35.4501 40.4441C35.3389 41.6362 34.6152 42.4424 33.4317 42.6818C33.172 42.7343 33.0517 42.8354 33.0022 43.1071C32.798 44.2214 32.0693 44.9225 30.9757 45.1266C30.8494 45.1498 30.6614 45.2721 30.6422 45.3741C30.3895 46.7147 29.58 47.4431 28.2266 47.6027C28.1225 48.8665 27.3969 49.608 26.2517 50C25.8606 50 25.4695 50 25.0793 50C24.579 49.6818 24.0585 49.3908 23.5876 49.0342C23.343 48.8483 23.1823 48.8271 22.9043 48.9564C21.6339 49.5494 20.1522 49.0009 19.5761 47.736C19.4437 47.4451 19.3831 47.1218 19.284 46.7955C18.0116 46.5793 17.1575 45.9085 16.9321 44.5649C16.916 44.4709 16.7532 44.3558 16.6411 44.3305C15.4697 44.0769 14.7511 43.391 14.5146 42.1999C14.4903 42.0787 14.3144 41.9231 14.1861 41.8978C13.0753 41.6786 12.286 40.8947 12.0889 39.7945C12.0657 39.6642 12.0222 39.4874 11.9282 39.4278C11.1904 38.9631 10.4374 38.5216 9.59653 38.0165C9.67233 38.8419 9.14475 38.757 8.69196 38.7136C8.19672 38.6671 7.69239 38.6105 7.21837 38.4691C6.08336 38.1296 4.96351 37.7407 3.83962 37.3659C2.55099 36.9365 1.26337 36.5011 0 36.0768C0 30.47 0 24.9096 0 19.3815C1.55647 19.1714 3.01085 19.2664 4.27018 20.2887C4.51982 20.4918 4.85638 20.5878 5.10198 20.7938C6.10964 21.6394 7.20018 21.7546 8.37966 21.2283C8.54036 21.1565 8.68388 21.0464 8.83548 20.9545C8.73138 20.8029 8.65355 20.6191 8.51711 20.5059C7.42556 19.5937 6.69786 18.4582 6.51796 17.0418C6.40982 16.1912 6.41689 15.3234 6.41891 14.4637C6.427 11.7572 8.32003 9.4771 10.9771 8.96187C11.3976 8.88004 11.8292 8.86085 12.2971 8.80832C12.0475 8.20318 11.7998 7.64148 11.5906 7.06464C11.5431 6.93532 11.5714 6.70196 11.6614 6.61104C13.0036 5.23811 14.363 3.88035 15.7294 2.50641C16.4955 3.00548 17.2222 3.49746 17.9732 3.94904C18.1268 4.04199 18.3987 4.04401 18.5735 3.97733C19.3457 3.68234 20.0936 3.32067 20.8698 3.04083C21.175 2.93072 21.3115 2.78423 21.3701 2.48217C21.5298 1.6568 21.7127 0.835472 21.8896 0C23.9615 0 26.0072 0 28.073 0C28.2509 0.842543 28.4308 1.66387 28.5935 2.49025C28.6481 2.76908 28.7623 2.92163 29.0544 3.02871C29.8306 3.31057 30.5937 3.63486 31.3436 3.98238C31.6155 4.10866 31.8015 4.10361 32.0481 3.93591C32.7566 3.45099 33.4853 2.99537 34.2271 2.5145C35.6017 3.89247 36.9631 5.24721 38.3053 6.62114C38.3993 6.71711 38.4094 6.97674 38.3558 7.12121C38.1446 7.692 37.8929 8.24763 37.6412 8.84468C39.7405 8.83357 41.3363 9.6741 42.4875 11.3208C43.8105 13.214 43.7357 15.3416 43.3587 17.4701C43.1364 18.7259 42.3986 19.728 41.4111 20.5403C41.2797 20.6484 41.2221 20.8474 41.1312 21.004C41.2656 21.0737 41.3929 21.1727 41.5365 21.2101C42.4471 21.4485 43.4214 21.5445 44.2583 21.9364C45.2932 22.4203 46.1098 22.1789 46.9325 21.593C47.8684 20.9272 48.9085 20.8423 50 20.9828ZM48.3586 22.7133C48.113 22.8386 47.9544 22.9174 47.7987 22.9992C43.197 25.4198 38.5923 27.8322 34.0007 30.2709C33.459 30.5589 32.9274 30.7195 32.3301 30.6346C31.9945 30.5872 31.66 30.5154 31.3335 30.4235C29.9438 30.0315 28.5581 29.6274 27.1695 29.2304C26.2285 28.9607 25.2997 28.9819 24.4123 29.4173C22.9407 30.1406 21.4742 30.8751 20.0148 31.6216C19.374 31.95 19.1577 32.6784 19.4862 33.2754C19.8045 33.8563 20.4584 33.9917 21.1255 33.5997C21.9806 33.0976 22.8295 32.5844 23.6805 32.0763C25.3179 31.0983 26.6489 31.2125 28.0841 32.4935C30.2096 34.3897 32.327 36.296 34.4333 38.2155C34.7092 38.466 34.9033 38.4852 35.2318 38.3196C39.4564 36.192 43.6882 34.0786 47.925 31.9752C48.2454 31.8166 48.3698 31.6439 48.3677 31.2782C48.3516 28.5919 48.3586 25.9057 48.3586 23.2205C48.3586 23.078 48.3586 22.9335 48.3586 22.7133ZM25.4907 39.6925C25.6463 39.8167 25.7616 39.9067 25.8727 39.9996C27.1492 41.0603 28.4227 42.1262 29.7073 43.1788C29.8902 43.3283 30.1156 43.4657 30.342 43.5142C30.7342 43.5991 31.0889 43.4708 31.3032 43.1031C31.5114 42.7464 31.4336 42.409 31.1587 42.1251C30.9666 41.9271 30.7483 41.7544 30.5371 41.5776C29.3273 40.5663 28.1165 39.5561 26.8743 38.5196C27.2362 38.0862 27.5737 37.6811 27.9204 37.2659C29.3202 38.4317 30.6695 39.5581 32.0228 40.6795C32.1845 40.8128 32.3553 40.9472 32.5433 41.0351C32.9466 41.223 33.457 41.0876 33.6773 40.7431C33.929 40.3491 33.8683 39.9723 33.5621 39.6309C33.4863 39.546 33.3973 39.4733 33.3124 39.3975C31.2072 37.5013 29.1029 35.606 26.9976 33.7108C26.1567 32.9542 25.5129 32.8956 24.5305 33.4815C23.6229 34.023 22.7234 34.5786 21.8067 35.104C20.8031 35.6798 19.6064 35.5858 18.7423 34.8958C17.2121 33.6734 17.3799 31.2216 19.097 30.2679C20.2887 29.6062 21.5278 29.0324 22.7456 28.4171C22.869 28.3545 22.9842 28.2777 23.1509 28.1787C23.0044 28.1292 22.9286 28.105 22.8538 28.0777C21.1386 27.4493 19.3912 27.2352 17.5881 27.6443C16.1165 27.9777 14.648 28.3303 13.1663 28.6131C12.5013 28.7404 12.1879 29.0172 12.0111 29.7052C11.435 31.948 10.7608 34.1654 10.116 36.4193C10.9397 36.9143 11.7432 37.3972 12.6508 37.9417C13.2512 37.3002 13.802 36.6042 14.462 36.0334C15.4343 35.1918 16.923 35.2797 17.769 36.2304C18.1611 36.6719 18.3744 37.2719 18.7271 37.9054C19.9541 38.0912 20.7697 38.8903 20.9618 40.2926C22.2585 40.5178 23.1226 41.1725 23.342 42.5232C23.3581 42.6202 23.5178 42.7464 23.628 42.7667C24.3911 42.9071 24.8964 43.3708 25.4169 43.9254C26.088 44.6396 26.8875 45.2448 27.6829 45.8267C28.071 46.1106 28.6198 45.9297 28.8533 45.5822C29.107 45.2054 29.021 44.7871 28.6127 44.4133C28.5763 44.38 28.5379 44.3507 28.5005 44.3194C27.4626 43.4546 26.4236 42.5909 25.3866 41.7261C25.0793 41.4695 24.7771 41.2078 24.4588 40.9371C24.8135 40.5057 25.1339 40.1208 25.4907 39.6925ZM16.9877 26.0643C17.11 26.0512 17.2353 26.0481 17.3566 26.0239C18.9434 25.7057 20.5181 25.6976 22.0867 26.1471C23.6896 26.6068 25.2966 27.0503 26.9026 27.4978C28.544 27.9545 30.1854 28.4111 31.8277 28.8606C32.0764 28.9283 32.3341 28.9627 32.5898 29.0021C32.9375 29.0556 33.0406 28.8849 33.0345 28.5525C33.0183 27.7059 33.0406 26.8594 33.0254 26.0128C33.0012 24.6611 32.3381 23.8468 31.0101 23.5124C29.6719 23.176 28.3358 22.8356 26.9936 22.5133C26.6732 22.4365 26.5388 22.3042 26.559 21.9536C26.5923 21.3859 26.5843 20.813 26.558 20.2443C26.5438 19.9422 26.654 19.7755 26.9107 19.629C28.073 18.9683 28.8098 17.9631 28.9473 16.6448C29.0443 15.7154 29.021 14.7475 28.8755 13.8252C28.5804 11.9572 26.941 10.5631 25.1309 10.5005C23.2368 10.4348 21.5611 11.6077 21.1265 13.4726C20.9234 14.3434 20.9739 15.282 20.9729 16.1902C20.9719 17.3752 21.3792 18.4966 22.3727 19.1057C23.3622 19.7129 23.5016 20.4716 23.3895 21.4485C23.3743 21.5768 23.3682 21.7122 23.3905 21.8384C23.4713 22.288 23.2571 22.4517 22.8386 22.5476C21.5106 22.8517 20.1896 23.1901 18.8676 23.5255C17.5941 23.8488 16.8503 24.8449 16.9877 26.0643ZM43.4831 23.4134C43.2941 23.3568 43.2395 23.3376 43.1839 23.3235C42.0974 23.0538 41.0129 22.777 39.9244 22.5183C39.6121 22.4446 39.4595 22.3234 39.4817 21.9657C39.5161 21.4141 39.505 20.8585 39.4807 20.3069C39.4666 19.9796 39.5616 19.7806 39.8638 19.6078C40.9715 18.9734 41.678 18.0096 41.8477 16.7478C41.9549 15.9487 41.9225 15.1223 41.8791 14.3121C41.781 12.4513 40.1902 10.7247 38.4468 10.5308C36.3698 10.3004 34.5859 11.4259 34.0674 13.415C33.8703 14.1697 33.9037 14.99 33.8764 15.782C33.8168 17.4924 34.5273 18.7895 36.0029 19.6765C36.1545 19.7674 36.2798 20.019 36.292 20.2039C36.3294 20.7706 36.2758 21.3444 36.3162 21.9112C36.3435 22.3042 36.1858 22.4496 35.8321 22.5284C35.0832 22.6951 34.3423 22.8921 33.5378 23.0922C34.1624 23.8064 34.5718 24.5509 34.6294 25.4167C34.686 26.2663 34.6415 27.122 34.6415 28.0686C37.62 26.4997 40.4954 24.9864 43.4831 23.4134ZM16.4268 23.0922C15.5707 22.876 14.8056 22.6668 14.0315 22.4961C13.7293 22.4294 13.6423 22.2941 13.6524 22.0001C13.6727 21.399 13.6342 20.7949 13.6706 20.1948C13.6818 20.0119 13.8152 19.7684 13.9688 19.6735C14.7046 19.2148 15.3342 18.6531 15.6758 17.85C16.3277 16.3144 16.2621 14.7263 15.786 13.1766C15.2898 11.5612 13.6565 10.4924 12.0363 10.4934C10.1939 10.4944 8.57371 11.8259 8.27151 13.3221C8.0815 14.2646 8.08352 15.2547 8.07342 16.2235C8.06129 17.4116 8.49993 18.5137 9.48839 19.129C10.4152 19.7058 10.5789 20.4079 10.4738 21.3414C10.4485 21.5667 10.4546 21.798 10.4738 22.0243C10.496 22.2981 10.4041 22.4325 10.1191 22.489C9.66526 22.5789 9.22156 22.7163 8.68893 22.8558C8.90421 22.9881 9.03762 23.075 9.17507 23.1558C10.2969 23.8125 11.4158 24.4742 12.5447 25.1187C12.7832 25.2551 12.8934 25.4036 12.8742 25.6905C12.8459 26.1199 12.8671 26.5533 12.8671 27.0139C13.6292 26.8503 14.3448 26.7058 15.0533 26.532C15.1523 26.5078 15.2898 26.3371 15.2867 26.2391C15.2433 25.0652 15.5899 24.0317 16.4268 23.0922ZM25.3098 7.26062C21.7814 7.27376 18.805 9.01643 17.2768 11.7845C17.1969 11.929 17.1697 12.1694 17.2323 12.3159C17.8428 13.7454 17.8003 15.2385 17.6811 16.7347C17.6123 17.5894 17.3516 18.4056 16.8442 19.0966C16.444 19.6412 15.9487 20.118 15.4788 20.609C15.2251 20.8747 15.2271 21.0939 15.5434 21.1757C16.4692 21.4162 17.3981 21.6475 18.3299 21.8647C18.4957 21.9031 18.6887 21.8869 18.8565 21.8455C19.6923 21.6425 20.5241 21.4273 21.3549 21.204C21.4944 21.1666 21.6177 21.0646 21.7481 20.9929C21.6662 20.8494 21.6177 20.6655 21.4985 20.5686C20.7657 19.9705 20.1916 19.2552 19.8126 18.3895C19.1344 16.8357 19.19 15.2001 19.4265 13.5918C19.75 11.3925 21.0548 9.8913 23.1449 9.16897C25.2441 8.44362 27.13 8.91742 28.7987 10.3904C30.9464 12.2866 31.0242 16.079 30.2015 18.2612C29.8437 19.2098 29.2111 19.9695 28.4187 20.6019C28.1155 20.8433 28.1215 21.0919 28.4247 21.1707C29.3819 21.4202 30.344 21.6546 31.3082 21.8778C31.4578 21.9122 31.6327 21.8829 31.7873 21.8455C32.5908 21.6505 33.3943 21.4505 34.1928 21.2333C34.3585 21.1878 34.502 21.0626 34.6557 20.9737C34.5576 20.8221 34.4758 20.6565 34.3585 20.5201C33.9472 20.0412 33.4317 19.626 33.1204 19.0916C31.8752 16.9509 31.9996 14.6869 32.6444 12.3947C32.703 12.1866 32.7505 11.8976 32.6535 11.737C30.9151 8.84266 28.3338 7.37882 25.3098 7.26062ZM16.1014 10.4914C18.2076 7.42832 21.1255 5.65838 24.9419 5.64524C28.7552 5.6311 31.6842 7.38185 33.833 10.4429C34.4222 10.0711 34.9841 9.72158 35.538 9.3589C35.6249 9.30233 35.6936 9.19524 35.7371 9.09725C35.9787 8.54767 36.2222 7.9981 36.4365 7.43843C36.483 7.31821 36.4678 7.101 36.387 7.01715C35.6098 6.21098 34.8123 5.424 34.0007 4.61176C33.3195 5.05425 32.6747 5.48967 32.0097 5.89174C31.8763 5.97256 31.6226 5.99883 31.4993 5.92508C30.2783 5.19265 28.9847 4.65015 27.602 4.30364C27.4524 4.26626 27.2816 4.05613 27.2402 3.89449C27.0775 3.26713 26.9774 2.6236 26.8187 1.99523C26.7824 1.85077 26.6045 1.63761 26.4872 1.63457C25.4159 1.60629 24.3436 1.61841 23.2328 1.61841C23.067 2.36801 22.878 3.08731 22.7598 3.81872C22.7052 4.15412 22.5617 4.28747 22.2555 4.35516C20.9436 4.6451 19.7186 5.16033 18.5856 5.87457C18.2976 6.05641 18.1056 6.02206 17.8478 5.84426C17.2353 5.42198 16.6016 5.02899 15.9508 4.60772C15.1452 5.41794 14.3589 6.19482 13.5958 6.99392C13.5059 7.08787 13.4776 7.32225 13.5251 7.45257C13.7333 8.01528 13.9749 8.56485 14.2184 9.11341C14.2669 9.22353 14.3579 9.33061 14.458 9.3983C14.9906 9.76401 15.5333 10.1166 16.1014 10.4914ZM1.60296 20.9424C1.60296 21.2424 1.60296 21.4354 1.60296 21.6293C1.60296 24.7035 1.60296 27.7787 1.60296 30.8528C1.60296 32.0732 1.59487 33.2926 1.61307 34.513C1.61509 34.6655 1.72525 34.91 1.8435 34.9524C2.88856 35.3302 3.94575 35.6717 5.03123 36.0344C6.0116 32.1106 6.98187 28.2333 7.95415 24.3438C6.05001 23.2346 4.1873 22.1425 2.31348 21.0707C2.13458 20.9676 1.88595 20.9888 1.60296 20.9424ZM9.42775 25.2076C8.46961 29.0364 7.5327 32.7834 6.58871 36.5577C7.15369 36.7416 7.67015 36.9103 8.21997 37.0891C8.65153 35.5778 9.06794 34.1159 9.48536 32.6541C10.0422 30.7064 10.6012 28.7596 11.154 26.8119C11.2227 26.5714 11.3551 26.3158 11.0226 26.133C10.5132 25.8511 10.0139 25.5491 9.42775 25.2076ZM20.796 41.9675C20.7354 41.9827 20.5535 41.9736 20.4645 42.0595C19.847 42.6515 19.2133 43.2344 18.6574 43.882C18.3896 44.1931 18.53 44.6073 18.8302 44.8902C19.1496 45.1902 19.567 45.267 19.8935 44.9801C20.4878 44.4578 21.074 43.9092 21.5641 43.292C21.9957 42.7485 21.5621 41.9908 20.796 41.9675ZM13.5948 39.4642C13.8071 39.7268 13.9577 40.0228 14.1992 40.1855C14.5206 40.4017 14.8966 40.3219 15.1826 40.0562C15.6577 39.6147 16.1236 39.1611 16.5703 38.6903C16.9726 38.267 16.9837 37.7427 16.637 37.3851C16.2641 36.9992 15.7537 37.0143 15.2989 37.4477C14.8643 37.8619 14.4337 38.2822 14.0294 38.7257C13.8647 38.9055 13.7737 39.153 13.5948 39.4642ZM19.4225 40.3673C19.2102 40.1087 19.0536 39.8188 18.812 39.648C18.4876 39.4187 18.1126 39.5086 17.8276 39.7723C17.3516 40.2128 16.8907 40.6704 16.445 41.1412C16.0427 41.5665 16.0296 42.0888 16.3763 42.4444C16.7351 42.8131 17.2818 42.7959 17.7154 42.3807C18.149 41.9655 18.5796 41.5463 18.9838 41.1028C19.1496 40.9209 19.2436 40.6724 19.4225 40.3673ZM23.3844 44.3143C23.1166 44.4093 22.9104 44.4245 22.7931 44.5346C22.2272 45.066 21.6612 45.6024 21.1437 46.1803C20.8466 46.5126 20.9213 46.9773 21.2195 47.2865C21.5328 47.6108 22.0109 47.6855 22.3636 47.3724C22.9306 46.8662 23.4855 46.3348 23.9635 45.7469C24.1222 45.5519 24.1202 45.1104 24.0161 44.8538C23.9191 44.6164 23.5865 44.476 23.3844 44.3143ZM25.6211 46.353C25.2188 46.8198 24.8651 47.2299 24.5032 47.6502C24.9166 48.0856 25.334 48.5422 25.993 48.3078C26.2204 48.227 26.4761 47.9371 26.5277 47.7017C26.6843 46.9743 26.0163 46.7511 25.6211 46.353Z" fill="#4285F4"/>
</svg>
