<svg width="50" height="45" viewBox="0 0 50 45" fill="none" xmlns="http://www.w3.org/2000/svg">
<path d="M49.9974 15.9485C49.8435 16.6749 49.7156 17.4092 49.5291 18.1278C48.976 20.2457 47.9064 22.0854 46.4846 23.7368C46.2968 23.955 46.1442 24.2621 46.1076 24.5456C45.8663 26.4244 46.3476 28.0942 47.6507 29.4948C47.9899 29.8581 48.1751 30.2435 47.9599 30.7282C47.7734 31.1476 47.4316 31.3109 46.9777 31.3057C44.2997 31.2757 41.9609 30.3559 39.9521 28.6011C39.6782 28.362 39.4656 28.3647 39.1355 28.4365C37.3798 28.8128 35.6136 29.146 33.7939 29.5066C33.6648 30.1664 33.5605 30.9725 33.3439 31.7486C32.2091 35.8159 29.6459 38.7478 26.0236 40.7861C22.6934 42.6597 19.0932 43.3495 15.3117 42.9367C13.7725 42.7681 12.2581 42.3657 10.728 42.0992C10.5323 42.0652 10.2558 42.1488 10.1032 42.2795C8.0774 44.0185 5.75163 44.9527 3.07497 44.9997C2.60668 45.0075 2.24144 44.8625 2.04578 44.4196C1.85012 43.9806 1.97143 43.5978 2.29101 43.2594C3.5889 41.8862 4.12893 40.2517 3.90457 38.3833C3.86283 38.0384 3.70891 37.6543 3.48455 37.3929C1.03878 34.5329 -0.225198 31.2495 0.0330762 27.4736C0.279611 23.8688 1.92578 20.9121 4.56331 18.5119C7.62086 15.7303 11.2537 14.2121 15.3534 13.7914C15.4017 13.7861 15.45 13.7809 15.4995 13.7744C15.7239 13.7456 15.9495 13.7182 16.1843 13.6881C16.3396 12.8898 16.4413 12.0824 16.6565 11.3076C17.7888 7.24161 20.3493 4.30187 23.973 2.26756C27.2849 0.407031 30.8616 -0.281523 34.6379 0.102604C39.1107 0.557284 43.0018 2.29108 46.1624 5.52611C48.2417 7.65448 49.5565 10.1905 49.9113 13.1825C49.9244 13.2923 49.97 13.3981 50 13.5052C49.9974 14.3192 49.9974 15.1345 49.9974 15.9485ZM5.07593 42.7511C6.76385 42.3108 8.14001 41.4955 9.28659 40.2922C9.67792 39.8806 10.0914 39.7722 10.6445 39.9642C13.5286 40.9625 16.487 41.3283 19.5197 40.8971C23.2752 40.3627 26.5101 38.7896 28.9806 35.863C31.5517 32.8187 32.4504 29.3132 31.4225 25.4262C30.5551 22.1455 28.485 19.7296 25.6205 18.0037C21.8233 15.7133 17.7157 15.141 13.4177 16.0909C9.71445 16.9088 6.57341 18.7184 4.26329 21.7901C2.37841 24.2961 1.59838 27.1078 2.13971 30.2422C2.54277 32.5718 3.61109 34.5564 5.16856 36.3111C5.44379 36.6221 5.65119 37.0454 5.74902 37.4504C6.18469 39.2613 5.90163 41.0016 5.07593 42.7511ZM28.5019 17.6117C31.5673 20.2274 33.3857 23.4024 33.7731 27.339C35.6397 27.2502 37.4059 26.9889 39.0873 26.3591C39.8386 26.0769 40.3539 26.1932 40.903 26.772C41.987 27.9126 43.3279 28.6456 44.8684 29.0454C44.6676 28.4509 44.4145 27.9021 44.2984 27.3246C43.9097 25.3831 43.8666 23.5814 45.3719 21.9103C47.2503 19.8237 48.1047 17.2315 48.0251 14.4041C47.9442 11.5467 46.7951 9.10606 44.8632 7.03779C40.4843 2.3538 33.2331 0.691859 27.1271 2.98094C23.5765 4.31232 20.8176 6.56874 19.1845 10.0638C18.6536 11.2005 18.3197 12.3973 18.2453 13.6881C18.4123 13.713 18.5362 13.7391 18.6627 13.7496C21.0015 13.9364 23.2256 14.5413 25.34 15.5644C25.5044 15.6441 25.7157 15.6532 25.9048 15.6532C28.1824 15.6584 30.4599 15.6571 32.7387 15.6571C35.5367 15.6571 38.3359 15.6545 41.1339 15.6584C41.8383 15.6597 42.2896 16.1693 42.1787 16.8173C42.0926 17.3204 41.6896 17.6104 41.0595 17.6104C37.0902 17.6117 33.1196 17.6104 29.1502 17.6104C28.9754 17.6117 28.8033 17.6117 28.5019 17.6117Z" fill="#4285F4"/>
<path d="M16.92 31.3044C19.5875 31.3044 22.255 31.307 24.9226 31.3018C25.3556 31.3005 25.7365 31.4442 25.8578 31.8531C25.9452 32.1471 25.9204 32.5312 25.8004 32.8148C25.6322 33.2146 25.2174 33.2655 24.8013 33.2642C20.4262 33.2577 16.0499 33.2603 11.6749 33.2603C10.7971 33.2603 9.91787 33.2603 9.04 33.2603C8.23256 33.259 7.81124 32.918 7.81645 32.2712C7.82167 31.6323 8.2417 31.3057 9.06348 31.3057C11.6827 31.3044 14.302 31.3044 16.92 31.3044Z" fill="#4285F4"/>
<path d="M18.8246 27.3918C16.8406 27.3918 14.8565 27.3931 12.8725 27.3918C12.1473 27.3918 11.7299 27.0377 11.7247 26.4262C11.7194 25.8082 12.1342 25.4385 12.8504 25.4385C16.851 25.4372 20.8517 25.4372 24.8523 25.4385C25.5658 25.4385 25.9832 25.8108 25.9767 26.4275C25.9702 27.0377 25.5515 27.3918 24.8262 27.3918C22.8252 27.3931 20.8243 27.3918 18.8246 27.3918Z" fill="#4285F4"/>
<path d="M9.7685 26.3981C9.77502 26.9586 9.35368 27.3898 8.7967 27.3911C8.2371 27.3924 7.81447 26.9665 7.81839 26.4047C7.8223 25.865 8.22928 25.4496 8.76539 25.4378C9.32629 25.4247 9.76197 25.8402 9.7685 26.3981Z" fill="#4285F4"/>
<path d="M35.0303 11.7429C33.0463 11.7429 31.0623 11.7442 29.0783 11.7429C28.3543 11.7429 27.9369 11.3875 27.9317 10.776C27.9265 10.1567 28.3413 9.78955 29.0587 9.78955C33.0593 9.78825 37.06 9.78825 41.0606 9.78955C41.7741 9.78955 42.1916 10.1619 42.1837 10.7799C42.1759 11.3901 41.7585 11.7415 41.0319 11.7429C39.031 11.7442 37.0313 11.7429 35.0303 11.7429Z" fill="#4285F4"/>
<path d="M24.9992 11.7426C24.4409 11.7413 24.0209 11.3127 24.0274 10.7509C24.0339 10.193 24.467 9.77755 25.0292 9.78931C25.5653 9.80106 25.9736 10.2165 25.9775 10.7562C25.9814 11.3154 25.5575 11.7426 24.9992 11.7426Z" fill="#4285F4"/>
</svg>
