<svg width="81" height="80" viewBox="0 0 81 80" fill="none" xmlns="http://www.w3.org/2000/svg">
<circle cx="40.8584" cy="40" r="40" fill="#4285F4"/>
<path d="M20.8584 51.8476C20.8584 43.323 20.8584 34.7983 20.8584 26.2737C21.2517 25.0899 22.0853 24.6302 23.3069 24.672C24.6715 24.719 26.0391 24.6793 27.4058 24.6866C27.629 24.6877 27.7594 24.649 27.8158 24.3951C27.9504 23.7829 28.2738 23.2678 28.7171 22.8269C29.2805 22.2658 29.8397 21.7027 30.402 21.1405C31.9282 19.6172 33.9146 19.6193 35.4461 21.15C36.5425 22.2449 37.6306 23.3493 38.7385 24.4338C38.8773 24.5696 39.1141 24.6678 39.3081 24.672C40.3743 24.695 41.4426 24.6751 42.5098 24.6887C42.779 24.6919 42.9689 24.6104 43.1577 24.4192C44.3918 23.1675 45.6333 21.9221 46.881 20.6829C47.7344 19.8356 48.9612 19.776 49.7875 20.5805C51.0936 21.8531 52.3612 23.1633 53.659 24.4453C53.7862 24.5717 54.0032 24.671 54.1806 24.6731C55.6766 24.6908 57.1747 24.7096 58.6707 24.6762C60.1323 24.6438 60.8615 25.8171 60.8573 26.8776C60.8281 34.9718 60.825 43.0659 60.8584 51.1601C60.8636 52.4358 59.9528 53.4284 58.5935 53.4159C54.8451 53.3824 51.0968 53.4044 47.3494 53.4044C47.1982 53.4044 47.0479 53.4044 46.881 53.4044C47.0104 54.3019 47.3766 55.0311 47.9347 55.6768C48.1757 55.9558 48.4302 56.1052 48.8298 56.1157C50.2496 56.1522 51.1552 57.4791 50.668 58.7538C50.3581 59.5656 49.6654 59.9992 48.6597 59.9992C43.5187 60.0003 38.3786 60.0003 33.2375 59.9992C33.0685 59.9992 32.8985 60.0013 32.7305 59.9898C31.9585 59.9386 31.4077 59.5489 31.0884 58.8551C30.4886 57.5491 31.4202 56.1564 32.9162 56.0979C33.0904 56.0906 33.3137 56.0937 33.4284 55.9934C34.2046 55.3164 34.6699 54.4617 34.8201 53.4033C34.6261 53.4033 34.4706 53.4033 34.3152 53.4033C30.5407 53.4033 26.7663 53.4044 22.9929 53.4023C21.983 53.4012 21.2893 52.9102 20.9408 51.9709C20.92 51.9259 20.8845 51.8883 20.8584 51.8476ZM40.8667 39.8145C40.7614 39.9702 40.6967 40.1049 40.5976 40.2042C38.6989 42.1183 36.7981 44.0293 34.8942 45.9381C33.8895 46.9443 32.742 46.9443 31.7446 45.9444C30.6044 44.8014 29.4652 43.6563 28.3259 42.5122C27.2629 41.4454 27.2587 40.3348 28.3155 39.2743C30.21 37.3759 32.1056 35.4764 34.0043 33.5811C34.1034 33.4819 34.2369 33.4171 34.4571 33.2646C34.2317 33.1057 34.1003 33.0368 34.0001 32.9365C32.4968 31.4382 30.9966 29.9358 29.4975 28.4333C28.7933 27.7281 28.0077 27.0824 27.797 26.0345C26.2134 26.0345 24.6788 26.0345 23.1431 26.0345C22.3951 26.0345 22.1906 26.2361 22.1906 26.9779C22.1906 34.0806 22.1906 41.1832 22.1906 48.2869C22.1906 48.4237 22.1906 48.5596 22.1906 48.7152C23.0868 48.7152 23.9193 48.7121 24.7518 48.7163C25.2296 48.7184 25.5436 48.9942 25.5353 49.3912C25.528 49.7883 25.215 50.0453 24.7309 50.0474C24.1978 50.0495 23.6637 50.0474 23.1306 50.0474C22.8239 50.0474 22.5182 50.0474 22.1906 50.0474C22.1906 50.3911 22.1906 50.6764 22.1906 50.9616C22.1906 51.8779 22.3419 52.0325 23.2474 52.0325C34.9849 52.0325 46.7235 52.0325 58.461 52.0325C58.5914 52.0325 58.7208 52.0315 58.8512 52.0273C59.2205 52.0148 59.4552 51.8068 59.4855 51.46C59.5262 51.0002 59.4949 50.5343 59.4949 50.0474C59.2862 50.0474 59.1182 50.0474 58.9513 50.0474C48.5794 50.0474 38.2086 50.0474 27.8366 50.0474C27.7062 50.0474 27.5758 50.0557 27.4465 50.0432C27.0991 50.0087 26.8612 49.735 26.8602 49.3829C26.8591 49.0276 27.0918 48.757 27.4433 48.7226C27.5977 48.7069 27.7553 48.7152 27.9118 48.7152C38.2701 48.7152 48.6284 48.7152 58.9868 48.7152C59.1506 48.7152 59.3154 48.7152 59.5095 48.7152C59.5095 48.5219 59.5095 48.3809 59.5095 48.2399C59.5095 41.1633 59.5095 34.0868 59.5095 27.0093C59.5095 26.9184 59.5136 26.8264 59.5074 26.7355C59.475 26.2915 59.2226 26.0386 58.7823 26.0365C57.2988 26.0313 55.8153 26.0345 54.3318 26.0365C54.2703 26.0365 54.2098 26.0585 54.1482 26.071C54.1795 26.0961 54.2098 26.1222 54.2411 26.1473C53.9897 26.5307 53.7883 26.9612 53.4785 27.2872C52.4822 28.3341 51.4483 29.3455 50.4249 30.3662C49.4662 31.3212 48.5022 32.2709 47.5299 33.2343C47.6541 33.3649 47.7396 33.4599 47.8304 33.5508C49.0812 34.8046 50.3383 36.0532 51.5777 37.3174C51.7613 37.5044 51.924 37.751 51.9981 37.9996C52.6439 40.1509 53.2625 42.3105 53.902 44.4639C54.0669 45.0187 54.0377 45.5286 53.6214 45.9517C53.1958 46.3853 52.6846 46.4334 52.1098 46.2599C49.9982 45.6247 47.8784 45.0197 45.77 44.3772C45.4633 44.2831 45.1555 44.0909 44.9249 43.8663C43.5927 42.5634 42.2855 41.2375 40.8667 39.8145ZM32.4426 37.1638C31.7957 37.8116 31.1834 38.4259 30.5553 39.0559C30.5491 39.0267 30.547 39.0434 30.5553 39.0518C30.8182 39.3224 31.0832 39.5909 31.3451 39.8625C31.6914 40.222 31.7165 40.5981 31.4171 40.8938C31.1312 41.1759 30.7316 41.1456 30.3832 40.806C30.1067 40.5364 29.8386 40.2575 29.559 39.9733C29.462 40.06 29.3921 40.1175 29.3285 40.1802C28.7244 40.7715 28.7234 41.0003 29.3191 41.598C30.4312 42.7138 31.5443 43.8297 32.6575 44.9445C33.1645 45.4523 33.467 45.4533 33.9699 44.9476C35.8727 43.0388 37.7746 41.1299 39.6774 39.22C39.7672 39.1291 39.8517 39.033 39.9163 38.965C38.3494 37.3905 36.8002 35.8348 35.3042 34.3313C34.6824 34.954 34.0439 35.5924 33.3731 36.2642C33.6319 36.5108 33.9323 36.7803 34.2119 37.0698C34.5249 37.3937 34.5301 37.8043 34.2494 38.0759C33.974 38.3423 33.563 38.3214 33.2438 38.0059C32.9558 37.7196 32.6856 37.4198 32.4426 37.1638ZM46.6171 32.2511C48.5408 30.3297 50.4865 28.3727 52.4499 26.4346C52.8473 26.0418 52.9683 25.7012 52.4259 25.1422C51.3732 24.0598 50.2966 23.0003 49.2325 21.9304C48.4553 21.1489 48.2362 21.1583 47.4965 22.0109C47.5007 22.0224 47.5028 22.038 47.5111 22.0464C47.7824 22.3264 48.0578 22.6033 48.327 22.8854C48.6587 23.2344 48.6817 23.6366 48.3906 23.9208C48.1037 24.2008 47.701 24.1684 47.3578 23.8278C47.0761 23.5488 46.8028 23.2594 46.5545 23.0045C45.9077 23.6491 45.3016 24.2541 44.6266 24.9269C44.9072 25.1819 45.2139 25.441 45.4977 25.7241C45.8315 26.0564 45.8451 26.4346 45.5603 26.7251C45.2901 27.0009 44.8738 26.9915 44.5567 26.6781C44.2708 26.396 44.0059 26.094 43.7649 25.8359C43.1347 26.4649 42.5484 27.049 41.9799 27.6153C43.5114 29.1449 45.0637 30.6974 46.6171 32.2511ZM37.254 28.5451C40.6091 31.9042 43.9631 35.2612 47.3192 38.6203C47.6123 37.7384 48.2164 37.122 49.0823 36.8535C45.7147 33.4777 42.3544 30.1103 39.0285 26.7763C38.4485 27.354 37.8434 27.9579 37.254 28.5451ZM46.254 39.6431C42.9031 36.2903 39.547 32.9323 36.2233 29.6056C35.6338 30.1928 35.0204 30.8051 34.4466 31.3776C37.7798 34.7158 41.1359 38.077 44.4837 41.4298C44.927 40.4518 44.998 40.3797 46.254 39.6431ZM35.1696 56.0707C38.943 56.0707 42.7696 56.0707 46.5284 56.0707C46.1925 55.192 45.8576 54.3165 45.5165 53.4242C42.4107 53.4242 39.2549 53.4242 36.1815 53.4242C35.8341 54.3342 35.5024 55.2004 35.1696 56.0707ZM40.849 57.3266C38.2847 57.3266 35.7215 57.3255 33.1572 57.3297C32.9777 57.3297 32.79 57.3412 32.6199 57.3945C32.2788 57.5021 32.1244 57.7654 32.1504 58.1154C32.1755 58.4498 32.3581 58.6744 32.6929 58.7434C32.8442 58.7747 33.0028 58.781 33.1582 58.781C38.2858 58.7831 43.4133 58.7831 48.5408 58.781C48.6963 58.781 48.8548 58.7747 49.0061 58.7423C49.341 58.6733 49.5236 58.4487 49.5475 58.1144C49.5726 57.7633 49.4182 57.5011 49.077 57.3945C48.908 57.3412 48.7203 57.3308 48.5398 57.3308C45.9765 57.3255 43.4122 57.3266 40.849 57.3266ZM35.6964 23.3451C35.1946 22.8373 34.721 22.317 34.2025 21.8448C33.4712 21.1782 32.3414 21.1834 31.6111 21.8656C30.8986 22.5312 30.21 23.2239 29.5434 23.9354C28.9425 24.5759 28.8309 25.581 29.3535 26.2748C29.8397 26.9194 30.4489 27.4711 30.9872 28.0457C32.5844 26.4524 34.1295 24.9102 35.6964 23.3451ZM51.7092 41.8007C51.3878 40.6953 51.0769 39.6128 50.7514 38.5346C50.7181 38.4249 50.6148 38.311 50.5136 38.2514C49.6686 37.7635 48.5982 38.3789 48.5679 39.3527C48.5554 39.7748 48.7422 40.0934 48.9957 40.4058C49.221 40.6838 49.1866 41.0557 48.9519 41.2918C48.7046 41.5416 48.3729 41.5666 48.0682 41.3535C47.9618 41.2793 47.8669 41.1884 47.7574 41.1205C47.0219 40.6691 46.0882 40.9972 45.8117 41.8017C45.5749 42.4882 45.8294 42.9918 46.5159 43.1934C47.2983 43.4233 48.0797 43.6542 48.8632 43.8819C49.4244 44.0449 49.4276 44.046 49.7176 43.5298C50.1724 42.718 50.8579 42.1674 51.7092 41.8007ZM32.0461 29.032C32.4968 29.4823 32.9464 29.9326 33.3324 30.3203C34.8827 28.7698 36.4423 27.212 37.9843 25.6698C37.5711 25.2529 37.1236 24.8005 36.699 24.3711C35.1539 25.9195 33.6037 27.4721 32.0461 29.032ZM50.7681 44.4514C51.4097 44.6384 51.9992 44.8087 52.6491 44.9978C52.4509 44.3343 52.2735 43.7388 52.0868 43.114C51.4682 43.4222 51.0436 43.8276 50.7681 44.4514ZM40.4661 26.0574C40.6226 26.2351 40.7822 26.4148 40.9293 26.583C41.0962 26.4106 41.2611 26.2413 41.4384 26.0574C41.0994 26.0574 40.7635 26.0574 40.4661 26.0574Z" fill="white"/>
</svg>
