<svg width="196" height="202" viewBox="0 0 196 202" fill="none" xmlns="http://www.w3.org/2000/svg">
<g filter="url(#filter0_d_3263_3109)">
<path d="M78 11.5472C90.376 4.40194 105.624 4.40194 118 11.5472L162.87 37.4532C175.247 44.5986 182.87 57.8036 182.87 72.0943V123.906C182.87 138.197 175.247 151.402 162.87 158.547L118 184.453C105.624 191.599 90.376 191.599 78 184.453L33.1295 158.547C20.7535 151.402 13.1295 138.197 13.1295 123.906V72.0943C13.1295 57.8036 20.7535 44.5985 33.1295 37.4532L78 11.5472Z" fill="white"/>
</g>
<path d="M68.8541 132.4H70.3841V145H68.8541V132.4ZM72.6341 145H69.7001V143.47H72.6341C73.3421 143.47 73.9901 143.362 74.5781 143.146C75.1661 142.918 75.6701 142.6 76.0901 142.192C76.5101 141.772 76.8341 141.268 77.0621 140.68C77.2901 140.092 77.4041 139.432 77.4041 138.7C77.4041 137.968 77.2901 137.308 77.0621 136.72C76.8341 136.132 76.5101 135.634 76.0901 135.226C75.6701 134.806 75.1661 134.488 74.5781 134.272C73.9901 134.044 73.3421 133.93 72.6341 133.93H69.7001V132.4H72.6341C73.8581 132.4 74.9441 132.664 75.8921 133.192C76.8401 133.72 77.5841 134.458 78.1241 135.406C78.6641 136.342 78.9341 137.44 78.9341 138.7C78.9341 139.96 78.6641 141.064 78.1241 142.012C77.5841 142.948 76.8401 143.68 75.8921 144.208C74.9441 144.736 73.8581 145 72.6341 145ZM84.2024 145.18C83.4344 145.18 82.7504 145 82.1504 144.64C81.5624 144.268 81.1004 143.758 80.7644 143.11C80.4404 142.462 80.2784 141.712 80.2784 140.86C80.2784 139.996 80.4464 139.24 80.7824 138.592C81.1304 137.944 81.6104 137.44 82.2224 137.08C82.8464 136.72 83.5664 136.54 84.3824 136.54C85.1984 136.54 85.8944 136.714 86.4704 137.062C87.0584 137.398 87.5084 137.884 87.8204 138.52C88.1324 139.156 88.2884 139.912 88.2884 140.788C88.2884 140.872 88.2824 140.962 88.2704 141.058C88.2704 141.142 88.2704 141.196 88.2704 141.22H81.1964V139.996H87.1364L86.5604 140.824C86.5964 140.764 86.6324 140.674 86.6684 140.554C86.7044 140.422 86.7224 140.314 86.7224 140.23C86.7224 139.738 86.6204 139.312 86.4164 138.952C86.2244 138.592 85.9544 138.31 85.6064 138.106C85.2584 137.902 84.8504 137.8 84.3824 137.8C83.8304 137.8 83.3564 137.92 82.9604 138.16C82.5764 138.388 82.2764 138.724 82.0604 139.168C81.8564 139.6 81.7484 140.134 81.7364 140.77C81.7364 141.418 81.8384 141.97 82.0424 142.426C82.2464 142.882 82.5464 143.23 82.9424 143.47C83.3384 143.71 83.8184 143.83 84.3824 143.83C84.9464 143.83 85.4444 143.71 85.8764 143.47C86.3084 143.218 86.6744 142.84 86.9744 142.336L88.1444 143.074C87.7124 143.77 87.1664 144.298 86.5064 144.658C85.8584 145.006 85.0904 145.18 84.2024 145.18ZM88.6484 136.72H90.2684L92.6084 142.57L94.9484 136.72H96.5684L92.6084 145.63L88.6484 136.72ZM99.1798 138.7C99.1798 139.648 99.3838 140.494 99.7918 141.238C100.212 141.982 100.782 142.57 101.502 143.002C102.222 143.434 103.038 143.65 103.95 143.65C104.874 143.65 105.69 143.434 106.398 143.002C107.118 142.57 107.682 141.982 108.09 141.238C108.51 140.494 108.72 139.648 108.72 138.7C108.72 137.752 108.51 136.906 108.09 136.162C107.682 135.418 107.118 134.83 106.398 134.398C105.69 133.966 104.874 133.75 103.95 133.75C103.038 133.75 102.222 133.966 101.502 134.398C100.782 134.83 100.212 135.418 99.7918 136.162C99.3838 136.906 99.1798 137.752 99.1798 138.7ZM97.5598 138.7C97.5598 137.776 97.7158 136.924 98.0278 136.144C98.3518 135.352 98.8018 134.668 99.3778 134.092C99.9538 133.504 100.632 133.048 101.412 132.724C102.192 132.388 103.038 132.22 103.95 132.22C104.874 132.22 105.72 132.388 106.488 132.724C107.268 133.048 107.946 133.504 108.522 134.092C109.098 134.668 109.542 135.352 109.854 136.144C110.178 136.924 110.34 137.776 110.34 138.7C110.34 139.612 110.178 140.464 109.854 141.256C109.542 142.048 109.098 142.738 108.522 143.326C107.946 143.902 107.268 144.358 106.488 144.694C105.72 145.018 104.874 145.18 103.95 145.18C103.038 145.18 102.192 145.018 101.412 144.694C100.632 144.358 99.9538 143.902 99.3778 143.326C98.8018 142.738 98.3518 142.048 98.0278 141.256C97.7158 140.464 97.5598 139.612 97.5598 138.7ZM113.761 148.96H112.321V136.72H113.761V148.96ZM120.691 140.86C120.691 141.748 120.505 142.516 120.133 143.164C119.761 143.812 119.263 144.31 118.639 144.658C118.027 145.006 117.343 145.18 116.587 145.18C115.903 145.18 115.297 145.006 114.769 144.658C114.253 144.31 113.845 143.812 113.545 143.164C113.257 142.516 113.113 141.748 113.113 140.86C113.113 139.96 113.257 139.192 113.545 138.556C113.845 137.908 114.253 137.41 114.769 137.062C115.297 136.714 115.903 136.54 116.587 136.54C117.343 136.54 118.027 136.714 118.639 137.062C119.263 137.41 119.761 137.908 120.133 138.556C120.505 139.192 120.691 139.96 120.691 140.86ZM119.233 140.86C119.233 140.224 119.101 139.684 118.837 139.24C118.585 138.796 118.243 138.46 117.811 138.232C117.391 138.004 116.923 137.89 116.407 137.89C115.987 137.89 115.573 138.004 115.165 138.232C114.757 138.46 114.421 138.796 114.157 139.24C113.893 139.684 113.761 140.224 113.761 140.86C113.761 141.496 113.893 142.036 114.157 142.48C114.421 142.924 114.757 143.26 115.165 143.488C115.573 143.716 115.987 143.83 116.407 143.83C116.923 143.83 117.391 143.716 117.811 143.488C118.243 143.26 118.585 142.924 118.837 142.48C119.101 142.036 119.233 141.496 119.233 140.86ZM123.018 142.462C123.186 142.714 123.378 142.948 123.594 143.164C123.81 143.38 124.056 143.554 124.332 143.686C124.62 143.806 124.932 143.866 125.268 143.866C125.676 143.866 125.994 143.776 126.222 143.596C126.462 143.404 126.582 143.146 126.582 142.822C126.582 142.534 126.486 142.294 126.294 142.102C126.114 141.898 125.88 141.73 125.592 141.598C125.304 141.454 124.998 141.322 124.674 141.202C124.314 141.058 123.948 140.89 123.576 140.698C123.216 140.494 122.91 140.236 122.658 139.924C122.418 139.6 122.298 139.198 122.298 138.718C122.298 138.226 122.424 137.818 122.676 137.494C122.94 137.17 123.276 136.93 123.684 136.774C124.104 136.618 124.536 136.54 124.98 136.54C125.424 136.54 125.838 136.612 126.222 136.756C126.618 136.9 126.966 137.092 127.266 137.332C127.566 137.572 127.8 137.848 127.968 138.16L126.816 138.898C126.588 138.586 126.3 138.328 125.952 138.124C125.616 137.92 125.232 137.818 124.8 137.818C124.5 137.818 124.242 137.884 124.026 138.016C123.81 138.148 123.702 138.352 123.702 138.628C123.702 138.844 123.786 139.036 123.954 139.204C124.122 139.372 124.338 139.522 124.602 139.654C124.866 139.786 125.142 139.912 125.43 140.032C125.91 140.224 126.348 140.434 126.744 140.662C127.14 140.878 127.452 141.142 127.68 141.454C127.92 141.766 128.04 142.168 128.04 142.66C128.04 143.38 127.776 143.98 127.248 144.46C126.732 144.94 126.048 145.18 125.196 145.18C124.644 145.18 124.146 145.084 123.702 144.892C123.258 144.688 122.88 144.43 122.568 144.118C122.268 143.806 122.04 143.488 121.884 143.164L123.018 142.462Z" fill="#424254"/>
<path d="M80.2146 87.5656L87.5204 88.1037V94.3439C87.5204 94.3439 73.8696 107.789 53.9785 91.8702H60.7568L61.508 85.7383C61.508 85.7383 69.2436 93.5892 80.2146 87.5656Z" fill="#0D2C40"/>
<path d="M55.4738 58.7371C55.4738 58.7371 40.628 72.5591 52.7834 90.2559L59.5687 90.9023L60.2151 84.3407C60.2151 84.3407 53.9784 74.1209 62.0354 66.0534L54.8099 65.4944L55.4738 58.7371Z" fill="#0D2C40"/>
<path d="M57.088 57.7692C57.088 57.7692 75.6059 45.8303 89.683 60.2429L83.4428 59.8131L82.7964 66.801C82.7964 66.801 75.6967 58.1989 63.8662 64.8688L56.6582 64.5474L57.088 57.7692Z" fill="#0D2C40"/>
<path d="M84.4102 68.5271L84.8399 61.3191L91.4015 61.9655L111.195 84.0158H104.42L103.774 90.1476L84.4102 68.5271Z" fill="#0D2C40"/>
<path d="M82.0449 86.3847L107.107 58.7371L113.777 59.3834L113.347 66.1617L88.7149 93.5892L88.8197 86.4895L82.0449 86.3847Z" fill="#02D35F"/>
<path d="M108.075 57.7413L115.014 58.3073L114.532 64.9248C114.532 64.9248 124.776 58.3876 132.281 65.3266L139.619 65.6481L140.279 59.2052C140.279 59.2052 128.812 46.2776 108.075 57.7413Z" fill="#02D35F"/>
<path d="M133.329 66.3748L140.667 66.8045L141.233 60.3232C141.233 60.3232 157.287 78.2088 139.94 93.5891L132.844 93.0965L133.49 85.7592C133.49 85.7592 143.091 75.0083 133.329 66.3748Z" fill="#02D35F"/>
<path d="M112.917 85.7382L105.507 85.0918L105.091 91.629C105.091 91.629 118.242 106.796 138.088 94.6932L131.309 94.1446L131.956 87.1253C131.956 87.1253 123.322 94.0468 112.917 85.7382Z" fill="#02D35F"/>
<path d="M122.296 74.4389V76.8846C122.274 76.9798 122.264 77.0771 122.264 77.1746C122.264 77.2733 122.274 77.3717 122.296 77.4681V81.4093H120.465V74.4214L122.296 74.4389Z" fill="#0D2C40"/>
<path d="M123.906 74.4388C123.303 74.5169 122.74 74.7821 122.295 75.197C121.989 75.4347 121.735 75.7336 121.55 76.0747C121.366 76.4158 121.254 76.7915 121.222 77.1781C121.25 77.582 121.359 77.9763 121.543 78.3367C121.727 78.6971 121.983 79.0162 122.295 79.2744C122.684 79.6457 123.188 79.8736 123.724 79.9208C125.426 79.9627 126.264 78.4988 126.264 77.1816C126.264 75.8644 125.223 74.362 123.906 74.4388ZM123.35 78.3905C123.097 78.3793 122.855 78.2821 122.665 78.1151C122.474 77.9481 122.346 77.7211 122.302 77.4716C122.281 77.3752 122.27 77.2768 122.271 77.1781C122.27 77.0805 122.281 76.9833 122.302 76.8881C122.346 76.6386 122.474 76.4116 122.665 76.2445C122.855 76.0775 123.097 75.9804 123.35 75.9692C123.652 75.9973 123.932 76.137 124.136 76.3609C124.34 76.5848 124.453 76.8769 124.453 77.1798C124.453 77.4828 124.34 77.7748 124.136 77.9988C123.932 78.2227 123.652 78.3624 123.35 78.3905ZM129.905 76.5247C129.639 76.4409 128.658 76.2871 128.658 75.9168C128.658 75.7071 128.958 75.6827 129.105 75.6897C129.524 75.6897 130.153 76.1893 130.502 76.095C130.813 76.0146 131.086 75.211 131.201 74.9385C130.319 74.4348 129.291 74.2474 128.287 74.4074C128.039 74.4546 127.805 74.5551 127.599 74.7017C127.394 74.8484 127.223 75.0378 127.097 75.257C126.972 75.4761 126.896 75.7198 126.874 75.9712C126.852 76.2226 126.885 76.4758 126.97 76.7134C127.414 77.8629 128.776 77.4122 129.465 78.111C129.748 78.4045 129.164 78.5372 128.972 78.5302C128.381 78.4425 127.816 78.228 127.316 77.9013C127.145 78.1459 126.617 78.7294 126.68 79.0334C126.743 79.3373 127.438 79.5644 127.728 79.6553C128.7 79.9697 130.198 80.0885 130.929 79.2046C131.841 78.1424 131.044 76.8951 129.905 76.5247ZM115.688 72.5032C114.928 72.5032 114.185 72.7286 113.553 73.1509C112.921 73.5732 112.428 74.1735 112.137 74.8757C111.846 75.578 111.77 76.3508 111.919 77.0963C112.067 77.8418 112.433 78.5267 112.97 79.0642C113.508 79.6017 114.193 79.9677 114.938 80.116C115.684 80.2643 116.457 80.1882 117.159 79.8973C117.861 79.6064 118.461 79.1138 118.884 78.4818C119.306 77.8497 119.531 77.1067 119.531 76.3465C119.531 75.3272 119.126 74.3496 118.406 73.6289C117.685 72.9081 116.707 72.5032 115.688 72.5032ZM115.688 78.3066C115.298 78.3059 114.918 78.1898 114.594 77.9728C114.271 77.7559 114.019 77.4479 113.87 77.0877C113.721 76.7276 113.683 76.3315 113.759 75.9495C113.836 75.5674 114.024 75.2166 114.299 74.9414C114.575 74.6661 114.926 74.4788 115.308 74.4031C115.691 74.3273 116.087 74.3665 116.446 74.5158C116.806 74.665 117.114 74.9176 117.33 75.2416C117.547 75.5656 117.662 75.9464 117.662 76.336C117.662 76.5954 117.611 76.8522 117.511 77.0918C117.412 77.3313 117.266 77.5489 117.083 77.7319C116.899 77.915 116.681 78.06 116.441 78.1586C116.201 78.2572 115.944 78.3075 115.685 78.3066H115.688Z" fill="#0D2C40"/>
<path d="M79.2885 74.3514H77.0977L79.4142 80.4099H80.4135V77.8279L79.2885 74.3514ZM81.5421 74.3619H83.7328L81.4128 80.4204H80.4135V77.8383L81.5421 74.3619ZM68.6529 73.4989C67.9172 72.988 67.0634 72.6729 66.1722 72.5834C64.9912 72.4716 63.7264 72.6149 62.6328 72.6149V80.4029H62.6852C62.8949 80.4274 63.1045 80.4483 63.3176 80.4623C64.1574 80.5319 65.0018 80.5249 65.8403 80.4413C67.444 80.2631 68.4747 79.7425 69.1071 79.0647C69.6675 78.4339 69.9835 77.6233 69.9981 76.7797V76.5945V76.4967C69.9841 75.3891 69.6661 74.2745 68.6529 73.4989ZM66.871 78.2576C66.2106 78.628 65.407 78.5371 64.6803 78.5371V74.4807C65.4524 74.4807 66.3224 74.3793 67.0002 74.8545C68.1253 75.6476 68.0834 77.5728 66.8605 78.2576H66.871ZM76.1369 78.8656C75.9587 78.7153 75.7316 78.4603 75.4905 78.4183C75.1062 78.3659 74.6275 78.883 74.2013 78.925C73.5374 78.9913 73.0587 78.5336 72.8037 77.9816H76.8427C76.8427 76.8635 76.7484 75.6861 75.7945 74.9174C74.0231 73.4709 71.1161 74.5401 70.7912 76.8216C70.4418 79.2254 72.332 80.7768 74.6345 80.4763C75.2055 80.3956 75.7414 80.1531 76.1788 79.7775C76.3361 79.6377 76.5667 79.4456 76.4514 79.2184C76.369 79.0826 76.2624 78.963 76.1369 78.8656ZM74.8477 76.8845H72.7862C72.8308 76.6436 72.9582 76.426 73.1465 76.2693C73.3348 76.1127 73.572 76.0269 73.8169 76.0269C74.0619 76.0269 74.2991 76.1127 74.4874 76.2693C74.6756 76.426 74.8031 76.6436 74.8477 76.8845Z" fill="#02D35F"/>
<defs>
<filter id="filter0_d_3263_3109" x="5.12988" y="2.18823" width="185.74" height="199.624" filterUnits="userSpaceOnUse" color-interpolation-filters="sRGB">
<feFlood flood-opacity="0" result="BackgroundImageFix"/>
<feColorMatrix in="SourceAlpha" type="matrix" values="0 0 0 0 0 0 0 0 0 0 0 0 0 0 0 0 0 0 127 0" result="hardAlpha"/>
<feOffset dy="4"/>
<feGaussianBlur stdDeviation="4"/>
<feColorMatrix type="matrix" values="0 0 0 0 0.0627451 0 0 0 0 0.0941176 0 0 0 0 0.156863 0 0 0 0.04 0"/>
<feBlend mode="normal" in2="BackgroundImageFix" result="effect1_dropShadow_3263_3109"/>
<feBlend mode="normal" in="SourceGraphic" in2="effect1_dropShadow_3263_3109" result="shape"/>
</filter>
</defs>
</svg>
