<svg width="192" height="102" viewBox="0 0 192 102" fill="none" xmlns="http://www.w3.org/2000/svg">
<g opacity="0.8">
<path d="M94.5005 62.648C95.8489 63.9912 96.8437 65.7616 97.33 67.6773C97.8606 69.5842 97.896 71.6189 97.5202 73.5214C97.4759 73.746 97.4008 73.9618 97.3477 74.1864C97.2858 74.4066 97.2416 74.6268 97.1488 74.8514C96.9852 75.2962 96.8305 75.741 96.6182 76.1681C96.238 77.0401 95.7384 77.8593 95.199 78.652C94.0849 80.2198 92.7232 81.651 91.1669 82.8797C89.6195 84.1173 87.9174 85.1918 86.118 86.0991C85.2249 86.5659 84.2964 86.9666 83.3547 87.3453C82.4263 87.7549 81.4536 88.0544 80.4986 88.4023C78.5578 89.0012 76.5815 89.5077 74.5699 89.838C72.5582 90.1463 70.5289 90.3841 68.4819 90.4193C66.4393 90.4633 64.3923 90.4105 62.3542 90.1859L61.5893 90.111L60.8289 90.0054C60.3204 89.9305 59.812 89.8688 59.308 89.7895C58.3 89.6001 57.2875 89.4372 56.2883 89.195C55.8816 89.1025 55.4748 89.0012 55.0725 88.8823L53.8744 88.5036L53.9495 88.5168C51.5577 87.865 49.2012 87.0635 46.9022 86.1166C44.6076 85.1566 42.3749 84.0556 40.2085 82.8313C35.8714 80.3915 31.8525 77.388 28.236 73.9838C26.1492 72.0064 24.2039 69.8837 22.431 67.6245L19.8579 64.1453L17.497 60.5165C14.4862 55.5885 12.0413 50.317 10.0915 44.8605C6.19649 33.9343 4.26003 22.3475 3.49074 10.7255C3.40674 9.8183 3.38904 8.7481 3.3183 7.65592C3.26082 6.56374 3.17241 5.45399 3.11052 4.4587C2.96461 2.46812 2.69936 0.94431 2.19977 1.00156C1.18732 1.11606 0.484329 5.33505 0.886658 11.7912L1.09006 14.7155L1.3774 17.6397L1.52332 19.1018L1.71341 20.5595L2.09807 23.4749C2.71262 27.346 3.38907 31.2126 4.3573 35.0176C4.78615 36.9334 5.35648 38.8094 5.88701 40.6987L6.08595 41.4078L7.23544 44.9001C7.38576 45.3669 7.54053 45.8338 7.7218 46.2874C8.42477 48.1194 9.07024 49.969 9.88815 51.7526C10.2861 52.6466 10.6442 53.5627 11.0686 54.4435L12.3596 57.0814C14.9371 62.2032 18.1027 67.0211 21.7855 71.4603C25.5258 75.8598 29.9072 79.6913 34.6998 82.9105C39.4923 86.121 44.7137 88.7106 50.2092 90.5206C55.7003 92.3306 61.4832 93.3435 67.3059 93.3568C72.5273 93.3612 77.7841 92.5552 82.7225 90.7672C85.1851 89.882 87.6079 88.8162 89.8627 87.4246C92.1263 86.0506 94.2441 84.3903 96.0567 82.3865C96.9542 81.378 97.7721 80.2902 98.4795 79.1188C99.1648 77.9341 99.7352 76.6834 100.155 75.3666C100.978 72.667 100.982 69.8044 100.283 67.1224C99.9518 65.7748 99.3991 64.48 98.6829 63.269C98.3425 62.6524 97.9004 62.0975 97.4715 61.5338L96.742 60.7499C96.5077 60.4813 96.2071 60.2699 95.9418 60.0277C93.7356 58.1736 90.7027 57.1871 87.7671 57.6275C86.3965 57.8213 85.079 58.2881 83.9074 58.9531C82.7358 59.6181 81.6924 60.4637 80.7816 61.4105C78.9645 63.313 77.6558 65.6119 76.8689 68.0825C76.0907 70.5531 75.8432 73.2351 76.3649 75.8599C76.4312 76.1858 76.5019 76.5161 76.5992 76.8375L76.7362 77.322L76.9042 77.7756C77.1386 78.3745 77.3287 78.9955 77.6293 79.5636C77.9079 80.1449 78.1776 80.7306 78.5224 81.2723L79.0131 82.1002C79.19 82.3689 79.3801 82.6243 79.5614 82.8886C81.0425 84.976 82.8595 86.7772 84.827 88.323C86.7988 89.8732 88.921 91.1768 91.1095 92.313C93.2979 93.4448 95.5616 94.4093 97.8517 95.2416L101.305 96.3954L103.033 96.968C103.608 97.1617 104.205 97.2894 104.789 97.4524C112.857 99.7116 121.222 100.865 129.574 100.989C137.934 101.112 146.29 100.218 154.425 98.3904C154.907 98.2847 155.389 98.1791 155.875 98.0734C156.361 97.9765 156.848 97.8488 157.33 97.7123C158.298 97.448 159.271 97.1882 160.239 96.9372C162.193 96.488 164.072 95.8934 165.902 95.4882L165.845 95.5191C167.945 94.6427 170.231 93.7487 172.539 92.9119C173.701 92.52 174.798 91.9695 175.868 91.4542C176.933 90.9257 177.95 90.362 178.87 89.7411C180.205 88.9836 181.549 88.1689 182.875 87.4818C183.255 87.2837 183.618 87.0943 183.963 86.9138C184.303 86.7244 184.613 86.5218 184.909 86.3368C185.501 85.9669 186.028 85.6278 186.483 85.3195C187.394 84.7074 188.035 84.2273 188.406 83.8662C189.153 83.144 188.831 82.9017 187.557 83.0339C187 83.0911 187.301 82.5098 185.833 83.2365C185.829 83.2409 185.74 83.3157 185.74 83.3157L185.771 83.2761C184.701 83.7165 183.64 84.2758 182.539 84.8439C181.416 85.3768 180.284 85.9713 179.148 86.5923C178.578 86.8962 178.016 87.2353 177.437 87.5303C176.849 87.8166 176.261 88.1072 175.678 88.3935C174.506 88.9616 173.348 89.5605 172.189 90.067C160.752 94.8981 148.439 97.7431 136.011 98.1438C132.907 98.3244 129.799 98.1879 126.695 98.0954L122.053 97.721C121.275 97.677 120.51 97.5493 119.741 97.4436L117.433 97.1221C116.668 97.0032 115.89 96.9284 115.13 96.7786L112.848 96.3162C111.327 95.9991 109.798 95.7437 108.308 95.3033C106.813 94.8937 105.301 94.5326 103.816 94.0834L99.4036 92.6125C95.8224 91.3661 92.3695 89.7983 89.2172 87.8166C86.0649 85.848 83.2619 83.3509 81.3121 80.3254C81.0867 79.9379 80.8435 79.5591 80.6269 79.1672L80.0389 77.9649C79.7161 77.1326 79.3668 76.3002 79.1944 75.4811C78.8053 73.8164 78.8584 72.0372 79.1988 70.3241C79.5569 68.6066 80.2334 66.9463 81.1707 65.4665C82.1168 63.9956 83.3194 62.6876 84.7297 61.7716C86.2727 60.7587 88.0589 60.2743 89.7964 60.4681L90.4463 60.5649L91.0918 60.7191L91.7151 60.9393L92.0291 61.045C92.1308 61.089 92.228 61.1463 92.3253 61.1903L92.9221 61.481L93.4792 61.8465L93.7622 62.0271L94.023 62.2429L94.5491 62.6744C94.5314 62.6744 94.5137 62.6613 94.5005 62.648Z" fill="#FB8614"/>
<path d="M190.272 82.4528C190.382 82.0212 190.528 81.5456 190.599 81.1184L190.771 80.0306C189.498 80.3169 188.136 80.6736 186.934 80.8894C186.859 80.9026 186.784 80.8541 186.708 80.8365L186.717 80.8277L185.78 80.9862C185.55 81.0215 185.316 81.0479 185.081 81.0611C183.994 81.1184 182.928 81.1272 181.819 81.3782C181.646 81.4134 181.354 81.4002 181.275 82.3911C181.191 83.4261 181.359 84.0426 181.699 84.025C182.513 83.9765 183.313 83.7519 184.109 83.9061C184.697 84.0162 185.285 84.0073 185.868 83.9545C186.014 83.9413 186.16 83.9237 186.306 83.9061L186.655 83.8576C186.753 83.8444 186.81 83.8356 186.854 83.84C186.929 83.8488 187.005 83.8356 187.084 83.818C187.089 83.8885 187.058 84.0118 187.013 84.1043C186.991 84.1439 186.96 84.1835 186.929 84.21L186.916 84.2188L186.89 84.298L186.837 84.4654L186.731 84.8045C186.589 85.2537 186.461 85.7073 186.386 86.1653C186.257 86.9624 186.377 87.7992 186.337 88.6095C186.328 88.7989 186.346 89.0103 185.939 89.1204L185.926 89.116C186.337 89.4066 185.457 89.5167 186.085 89.8382C186.089 89.9131 186.143 90.0011 186.094 90.0672C185.873 90.3666 186.213 90.512 187.358 90.5913C187.61 90.6089 187.929 90.6926 188.114 90.6397L188.097 90.6309L188.114 90.6353C188.915 90.5428 188.596 90.2081 188.654 89.9659C188.937 88.768 189.153 87.5525 189.396 86.3459L189.6 85.2316C189.635 85.0423 189.675 84.875 189.724 84.668C189.794 84.3333 189.878 83.9941 189.971 83.6418C190.073 83.2675 190.303 82.8051 190.276 82.444L190.272 82.4528Z" fill="#FB8614"/>
<path d="M94.5005 62.648C95.8489 63.9912 96.8437 65.7616 97.33 67.6773C97.8606 69.5842 97.896 71.6189 97.5202 73.5214C97.4759 73.746 97.4008 73.9618 97.3477 74.1864C97.2858 74.4066 97.2416 74.6268 97.1488 74.8514C96.9852 75.2962 96.8305 75.741 96.6182 76.1681C96.238 77.0401 95.7384 77.8593 95.199 78.652C94.0849 80.2198 92.7232 81.651 91.1669 82.8797C89.6195 84.1173 87.9174 85.1918 86.118 86.0991C85.2249 86.5659 84.2964 86.9666 83.3547 87.3453C82.4263 87.7549 81.4536 88.0544 80.4986 88.4023C78.5578 89.0012 76.5815 89.5077 74.5699 89.838C72.5582 90.1463 70.5289 90.3841 68.4819 90.4193C66.4393 90.4633 64.3923 90.4105 62.3542 90.1859L61.5893 90.111L60.8289 90.0054C60.3204 89.9305 59.812 89.8688 59.308 89.7895C58.3 89.6001 57.2875 89.4372 56.2883 89.195C55.8816 89.1025 55.4748 89.0012 55.0725 88.8823L53.8744 88.5036L53.9495 88.5168C51.5577 87.865 49.2012 87.0635 46.9022 86.1166C44.6076 85.1566 42.3749 84.0556 40.2085 82.8313C35.8714 80.3915 31.8525 77.388 28.236 73.9838C26.1492 72.0064 24.2039 69.8837 22.431 67.6245L19.8579 64.1453L17.497 60.5165C14.4862 55.5885 12.0413 50.317 10.0915 44.8605C6.19649 33.9343 4.26003 22.3475 3.49074 10.7255C3.40674 9.8183 3.38904 8.7481 3.3183 7.65592C3.26082 6.56374 3.17241 5.45399 3.11052 4.4587C2.96461 2.46812 2.69936 0.94431 2.19977 1.00156C1.18732 1.11606 0.484329 5.33505 0.886658 11.7912L1.09006 14.7155L1.3774 17.6397L1.52332 19.1018L1.71341 20.5595L2.09807 23.4749C2.71262 27.346 3.38907 31.2126 4.3573 35.0176C4.78615 36.9334 5.35648 38.8094 5.88701 40.6987L6.08595 41.4078L7.23544 44.9001C7.38576 45.3669 7.54053 45.8338 7.7218 46.2874C8.42477 48.1194 9.07024 49.969 9.88815 51.7526C10.2861 52.6466 10.6442 53.5627 11.0686 54.4435L12.3596 57.0814C14.9371 62.2032 18.1027 67.0211 21.7855 71.4603C25.5258 75.8598 29.9072 79.6913 34.6998 82.9105C39.4923 86.121 44.7137 88.7106 50.2092 90.5206C55.7003 92.3306 61.4832 93.3435 67.3059 93.3568C72.5273 93.3612 77.7841 92.5552 82.7225 90.7672C85.1851 89.882 87.6079 88.8162 89.8627 87.4246C92.1263 86.0506 94.2441 84.3903 96.0567 82.3865C96.9542 81.378 97.7721 80.2902 98.4795 79.1188C99.1648 77.9341 99.7352 76.6834 100.155 75.3666C100.978 72.667 100.982 69.8044 100.283 67.1224C99.9518 65.7748 99.3991 64.48 98.6829 63.269C98.3425 62.6524 97.9004 62.0975 97.4715 61.5338L96.742 60.7499C96.5077 60.4813 96.2071 60.2699 95.9418 60.0277C93.7356 58.1736 90.7027 57.1871 87.7671 57.6275C86.3965 57.8213 85.079 58.2881 83.9074 58.9531C82.7358 59.6181 81.6924 60.4637 80.7816 61.4105C78.9645 63.313 77.6558 65.6119 76.8689 68.0825C76.0907 70.5531 75.8432 73.2351 76.3649 75.8599C76.4312 76.1858 76.5019 76.5161 76.5992 76.8375L76.7362 77.322L76.9042 77.7756C77.1386 78.3745 77.3287 78.9955 77.6293 79.5636C77.9079 80.1449 78.1776 80.7306 78.5224 81.2723L79.0131 82.1002C79.19 82.3689 79.3801 82.6243 79.5614 82.8886C81.0425 84.976 82.8595 86.7772 84.827 88.323C86.7988 89.8732 88.921 91.1768 91.1095 92.313C93.2979 93.4448 95.5616 94.4093 97.8517 95.2416L101.305 96.3954L103.033 96.968C103.608 97.1617 104.205 97.2894 104.789 97.4524C112.857 99.7116 121.222 100.865 129.574 100.989C137.934 101.112 146.29 100.218 154.425 98.3904C154.907 98.2847 155.389 98.1791 155.875 98.0734C156.361 97.9765 156.848 97.8488 157.33 97.7123C158.298 97.448 159.271 97.1882 160.239 96.9372C162.193 96.488 164.072 95.8934 165.902 95.4882L165.845 95.5191C167.945 94.6427 170.231 93.7487 172.539 92.9119C173.701 92.52 174.798 91.9695 175.868 91.4542C176.933 90.9257 177.95 90.362 178.87 89.7411C180.205 88.9836 181.549 88.1689 182.875 87.4818C183.255 87.2837 183.618 87.0943 183.963 86.9138C184.303 86.7244 184.613 86.5218 184.909 86.3368C185.501 85.9669 186.028 85.6278 186.483 85.3195C187.394 84.7074 188.035 84.2273 188.406 83.8662C189.153 83.144 188.831 82.9017 187.557 83.0339C187 83.0911 187.301 82.5098 185.833 83.2365C185.829 83.2409 185.74 83.3157 185.74 83.3157L185.771 83.2761C184.701 83.7165 183.64 84.2758 182.539 84.8439C181.416 85.3768 180.284 85.9713 179.148 86.5923C178.578 86.8962 178.016 87.2353 177.437 87.5303C176.849 87.8166 176.261 88.1072 175.678 88.3935C174.506 88.9616 173.348 89.5605 172.189 90.067C160.752 94.8981 148.439 97.7431 136.011 98.1438C132.907 98.3244 129.799 98.1879 126.695 98.0954L122.053 97.721C121.275 97.677 120.51 97.5493 119.741 97.4436L117.433 97.1221C116.668 97.0032 115.89 96.9284 115.13 96.7786L112.848 96.3162C111.327 95.9991 109.798 95.7437 108.308 95.3033C106.813 94.8937 105.301 94.5326 103.816 94.0834L99.4036 92.6125C95.8224 91.3661 92.3695 89.7983 89.2172 87.8166C86.0649 85.848 83.2619 83.3509 81.3121 80.3254C81.0867 79.9379 80.8435 79.5591 80.6269 79.1672L80.0389 77.9649C79.7161 77.1326 79.3668 76.3002 79.1944 75.4811C78.8053 73.8164 78.8584 72.0372 79.1988 70.3241C79.5569 68.6066 80.2334 66.9463 81.1707 65.4665C82.1168 63.9956 83.3194 62.6876 84.7297 61.7716C86.2727 60.7587 88.0589 60.2743 89.7964 60.4681L90.4463 60.5649L91.0918 60.7191L91.7151 60.9393L92.0291 61.045C92.1308 61.089 92.228 61.1463 92.3253 61.1903L92.9221 61.481L93.4792 61.8465L93.7622 62.0271L94.023 62.2429L94.5491 62.6744C94.5314 62.6744 94.5137 62.6613 94.5005 62.648Z" stroke="#FBBC04" stroke-linejoin="round"/>
<path d="M190.272 82.4528C190.382 82.0212 190.528 81.5456 190.599 81.1184L190.771 80.0306C189.498 80.3169 188.136 80.6736 186.934 80.8894C186.859 80.9026 186.784 80.8541 186.708 80.8365L186.717 80.8277L185.78 80.9862C185.55 81.0215 185.316 81.0479 185.081 81.0611C183.994 81.1184 182.928 81.1272 181.819 81.3782C181.646 81.4134 181.354 81.4002 181.275 82.3911C181.191 83.4261 181.359 84.0426 181.699 84.025C182.513 83.9765 183.313 83.7519 184.109 83.9061C184.697 84.0162 185.285 84.0073 185.868 83.9545C186.014 83.9413 186.16 83.9237 186.306 83.9061L186.655 83.8576C186.753 83.8444 186.81 83.8356 186.854 83.84C186.929 83.8488 187.005 83.8356 187.084 83.818C187.089 83.8885 187.058 84.0118 187.013 84.1043C186.991 84.1439 186.96 84.1835 186.929 84.21L186.916 84.2188L186.89 84.298L186.837 84.4654L186.731 84.8045C186.589 85.2537 186.461 85.7073 186.386 86.1653C186.257 86.9624 186.377 87.7992 186.337 88.6095C186.328 88.7989 186.346 89.0103 185.939 89.1204L185.926 89.116C186.337 89.4066 185.457 89.5167 186.085 89.8382C186.089 89.9131 186.143 90.0011 186.094 90.0672C185.873 90.3666 186.213 90.512 187.358 90.5913C187.61 90.6089 187.929 90.6926 188.114 90.6397L188.097 90.6309L188.114 90.6353C188.915 90.5428 188.596 90.2081 188.654 89.9659C188.937 88.768 189.153 87.5525 189.396 86.3459L189.6 85.2316C189.635 85.0423 189.675 84.875 189.724 84.668C189.794 84.3333 189.878 83.9941 189.971 83.6418C190.073 83.2675 190.303 82.8051 190.276 82.444L190.272 82.4528Z" stroke="#FBBC04" stroke-linejoin="round"/>
</g>
</svg>
