<svg width="197" height="203" viewBox="0 0 197 203" fill="none" xmlns="http://www.w3.org/2000/svg">
<g filter="url(#filter0_d_3345_2257)">
<path d="M78.5029 12.4462C90.879 5.30086 106.127 5.30086 118.503 12.4462L163.373 38.3522C175.749 45.4975 183.373 58.7026 183.373 72.9932V124.805C183.373 139.096 175.749 152.301 163.373 159.446L118.503 185.352C106.127 192.497 90.879 192.497 78.5029 185.352L33.6324 159.446C21.2564 152.301 13.6324 139.096 13.6324 124.805V72.9932C13.6324 58.7026 21.2564 45.4975 33.6324 38.3522L78.5029 12.4462Z" fill="white"/>
</g>
<path d="M51.1307 142.899V141.459H57.4847V142.899H51.1307ZM51.1307 131.739V130.299H57.4847V131.739H51.1307ZM51.1307 136.779V135.339H57.1247V136.779H51.1307ZM50.2847 130.299H51.8147V142.899H50.2847V130.299ZM60.0912 128.859H61.5312V142.899H60.0912V128.859ZM64.8876 140.343C64.8876 140.655 64.9596 140.925 65.1036 141.153C65.2596 141.381 65.4696 141.555 65.7336 141.675C66.0096 141.783 66.3216 141.837 66.6696 141.837C67.1136 141.837 67.5096 141.747 67.8576 141.567C68.2176 141.387 68.4996 141.135 68.7036 140.811C68.9196 140.475 69.0276 140.091 69.0276 139.659L69.3156 140.739C69.3156 141.267 69.1536 141.705 68.8296 142.053C68.5176 142.401 68.1276 142.659 67.6596 142.827C67.2036 142.995 66.7476 143.079 66.2916 143.079C65.7876 143.079 65.3136 142.977 64.8696 142.773C64.4376 142.557 64.0896 142.251 63.8256 141.855C63.5616 141.459 63.4296 140.979 63.4296 140.415C63.4296 139.611 63.7116 138.969 64.2756 138.489C64.8516 137.997 65.6496 137.751 66.6696 137.751C67.2696 137.751 67.7676 137.823 68.1636 137.967C68.5716 138.099 68.8956 138.255 69.1356 138.435C69.3756 138.603 69.5376 138.741 69.6216 138.849V139.695C69.2016 139.407 68.7696 139.203 68.3256 139.083C67.8816 138.951 67.4076 138.885 66.9036 138.885C66.4356 138.885 66.0516 138.945 65.7516 139.065C65.4636 139.185 65.2476 139.353 65.1036 139.569C64.9596 139.785 64.8876 140.043 64.8876 140.343ZM64.6716 136.527L63.9696 135.465C64.2816 135.237 64.7076 135.009 65.2476 134.781C65.7996 134.553 66.4596 134.439 67.2276 134.439C67.8756 134.439 68.4396 134.541 68.9196 134.745C69.4116 134.937 69.7896 135.219 70.0536 135.591C70.3296 135.963 70.4676 136.419 70.4676 136.959V142.899H69.0276V137.157C69.0276 136.869 68.9796 136.635 68.8836 136.455C68.7876 136.263 68.6496 136.113 68.4696 136.005C68.3016 135.897 68.1036 135.819 67.8756 135.771C67.6476 135.723 67.4076 135.699 67.1556 135.699C66.7476 135.699 66.3756 135.747 66.0396 135.843C65.7156 135.939 65.4396 136.053 65.2116 136.185C64.9836 136.317 64.8036 136.431 64.6716 136.527ZM73.2477 140.361C73.4157 140.613 73.6077 140.847 73.8237 141.063C74.0397 141.279 74.2857 141.453 74.5617 141.585C74.8497 141.705 75.1617 141.765 75.4977 141.765C75.9057 141.765 76.2237 141.675 76.4517 141.495C76.6917 141.303 76.8117 141.045 76.8117 140.721C76.8117 140.433 76.7157 140.193 76.5237 140.001C76.3437 139.797 76.1097 139.629 75.8217 139.497C75.5337 139.353 75.2277 139.221 74.9037 139.101C74.5437 138.957 74.1777 138.789 73.8057 138.597C73.4457 138.393 73.1397 138.135 72.8877 137.823C72.6477 137.499 72.5277 137.097 72.5277 136.617C72.5277 136.125 72.6537 135.717 72.9057 135.393C73.1697 135.069 73.5057 134.829 73.9137 134.673C74.3337 134.517 74.7657 134.439 75.2097 134.439C75.6537 134.439 76.0677 134.511 76.4517 134.655C76.8477 134.799 77.1957 134.991 77.4957 135.231C77.7957 135.471 78.0297 135.747 78.1977 136.059L77.0457 136.797C76.8177 136.485 76.5297 136.227 76.1817 136.023C75.8457 135.819 75.4617 135.717 75.0297 135.717C74.7297 135.717 74.4717 135.783 74.2557 135.915C74.0397 136.047 73.9317 136.251 73.9317 136.527C73.9317 136.743 74.0157 136.935 74.1837 137.103C74.3517 137.271 74.5677 137.421 74.8317 137.553C75.0957 137.685 75.3717 137.811 75.6597 137.931C76.1397 138.123 76.5777 138.333 76.9737 138.561C77.3697 138.777 77.6817 139.041 77.9097 139.353C78.1497 139.665 78.2697 140.067 78.2697 140.559C78.2697 141.279 78.0057 141.879 77.4777 142.359C76.9617 142.839 76.2777 143.079 75.4257 143.079C74.8737 143.079 74.3757 142.983 73.9317 142.791C73.4877 142.587 73.1097 142.329 72.7977 142.017C72.4977 141.705 72.2697 141.387 72.1137 141.063L73.2477 140.361ZM78.9054 134.619H83.0454V135.969H78.9054V134.619ZM80.2554 131.739H81.6954V142.899H80.2554V131.739ZM84.4896 131.199C84.4896 130.923 84.5856 130.689 84.7776 130.497C84.9816 130.305 85.2156 130.209 85.4796 130.209C85.7556 130.209 85.9896 130.305 86.1816 130.497C86.3736 130.689 86.4696 130.923 86.4696 131.199C86.4696 131.463 86.3736 131.697 86.1816 131.901C85.9896 132.093 85.7556 132.189 85.4796 132.189C85.2156 132.189 84.9816 132.093 84.7776 131.901C84.5856 131.697 84.4896 131.463 84.4896 131.199ZM84.7596 134.619H86.1996V142.899H84.7596V134.619ZM89.8134 138.759C89.8134 139.335 89.9334 139.845 90.1734 140.289C90.4254 140.733 90.7614 141.087 91.1814 141.351C91.6134 141.603 92.0994 141.729 92.6394 141.729C93.0834 141.729 93.4974 141.663 93.8814 141.531C94.2774 141.387 94.6194 141.201 94.9074 140.973C95.1954 140.733 95.3994 140.481 95.5194 140.217V142.017C95.2314 142.353 94.8174 142.617 94.2774 142.809C93.7494 142.989 93.2034 143.079 92.6394 143.079C91.8354 143.079 91.1094 142.893 90.4614 142.521C89.8134 142.149 89.2974 141.639 88.9134 140.991C88.5414 140.331 88.3554 139.587 88.3554 138.759C88.3554 137.919 88.5414 137.175 88.9134 136.527C89.2974 135.879 89.8134 135.369 90.4614 134.997C91.1094 134.625 91.8354 134.439 92.6394 134.439C93.2034 134.439 93.7494 134.535 94.2774 134.727C94.8174 134.907 95.2314 135.165 95.5194 135.501V137.301C95.3994 137.025 95.1954 136.773 94.9074 136.545C94.6194 136.317 94.2774 136.137 93.8814 136.005C93.4974 135.861 93.0834 135.789 92.6394 135.789C92.0994 135.789 91.6134 135.915 91.1814 136.167C90.7614 136.419 90.4254 136.773 90.1734 137.229C89.9334 137.673 89.8134 138.183 89.8134 138.759ZM98.3191 139.083C98.6071 139.587 98.9071 140.031 99.2191 140.415C99.5431 140.799 99.9031 141.099 100.299 141.315C100.695 141.531 101.145 141.639 101.649 141.639C102.321 141.639 102.861 141.453 103.269 141.081C103.677 140.709 103.881 140.235 103.881 139.659C103.881 139.095 103.749 138.645 103.485 138.309C103.221 137.973 102.873 137.703 102.441 137.499C102.021 137.283 101.571 137.091 101.091 136.923C100.779 136.815 100.431 136.677 100.047 136.509C99.6631 136.329 99.2971 136.107 98.9491 135.843C98.6011 135.567 98.3131 135.231 98.0851 134.835C97.8691 134.439 97.7611 133.953 97.7611 133.377C97.7611 132.753 97.9171 132.195 98.2291 131.703C98.5411 131.211 98.9731 130.827 99.5251 130.551C100.077 130.263 100.707 130.119 101.415 130.119C102.099 130.119 102.693 130.251 103.197 130.515C103.713 130.767 104.151 131.097 104.511 131.505C104.871 131.901 105.153 132.321 105.357 132.765L104.043 133.521C103.887 133.209 103.689 132.903 103.449 132.603C103.209 132.303 102.915 132.057 102.567 131.865C102.231 131.673 101.817 131.577 101.325 131.577C100.641 131.577 100.143 131.745 99.8311 132.081C99.5191 132.405 99.3631 132.771 99.3631 133.179C99.3631 133.527 99.4531 133.851 99.6331 134.151C99.8131 134.439 100.113 134.715 100.533 134.979C100.965 135.231 101.547 135.483 102.279 135.735C102.615 135.855 102.969 136.011 103.341 136.203C103.713 136.395 104.055 136.641 104.367 136.941C104.691 137.229 104.955 137.583 105.159 138.003C105.363 138.411 105.465 138.903 105.465 139.479C105.465 140.031 105.357 140.529 105.141 140.973C104.937 141.417 104.649 141.795 104.277 142.107C103.917 142.419 103.503 142.659 103.035 142.827C102.579 142.995 102.099 143.079 101.595 143.079C100.911 143.079 100.275 142.935 99.6871 142.647C99.1111 142.347 98.6011 141.957 98.1571 141.477C97.7251 140.985 97.3711 140.463 97.0951 139.911L98.3191 139.083ZM110.826 143.079C110.058 143.079 109.374 142.899 108.774 142.539C108.186 142.167 107.724 141.657 107.388 141.009C107.064 140.361 106.902 139.611 106.902 138.759C106.902 137.895 107.07 137.139 107.406 136.491C107.754 135.843 108.234 135.339 108.846 134.979C109.47 134.619 110.19 134.439 111.006 134.439C111.822 134.439 112.518 134.613 113.094 134.961C113.682 135.297 114.132 135.783 114.444 136.419C114.756 137.055 114.912 137.811 114.912 138.687C114.912 138.771 114.906 138.861 114.894 138.957C114.894 139.041 114.894 139.095 114.894 139.119H107.82V137.895H113.76L113.184 138.723C113.22 138.663 113.256 138.573 113.292 138.453C113.328 138.321 113.346 138.213 113.346 138.129C113.346 137.637 113.244 137.211 113.04 136.851C112.848 136.491 112.578 136.209 112.23 136.005C111.882 135.801 111.474 135.699 111.006 135.699C110.454 135.699 109.98 135.819 109.584 136.059C109.2 136.287 108.9 136.623 108.684 137.067C108.48 137.499 108.372 138.033 108.36 138.669C108.36 139.317 108.462 139.869 108.666 140.325C108.87 140.781 109.17 141.129 109.566 141.369C109.962 141.609 110.442 141.729 111.006 141.729C111.57 141.729 112.068 141.609 112.5 141.369C112.932 141.117 113.298 140.739 113.598 140.235L114.768 140.973C114.336 141.669 113.79 142.197 113.13 142.557C112.482 142.905 111.714 143.079 110.826 143.079ZM117.534 140.343C117.534 140.655 117.606 140.925 117.75 141.153C117.906 141.381 118.116 141.555 118.38 141.675C118.656 141.783 118.968 141.837 119.316 141.837C119.76 141.837 120.156 141.747 120.504 141.567C120.864 141.387 121.146 141.135 121.35 140.811C121.566 140.475 121.674 140.091 121.674 139.659L121.962 140.739C121.962 141.267 121.8 141.705 121.476 142.053C121.164 142.401 120.774 142.659 120.306 142.827C119.85 142.995 119.394 143.079 118.938 143.079C118.434 143.079 117.96 142.977 117.516 142.773C117.084 142.557 116.736 142.251 116.472 141.855C116.208 141.459 116.076 140.979 116.076 140.415C116.076 139.611 116.358 138.969 116.922 138.489C117.498 137.997 118.296 137.751 119.316 137.751C119.916 137.751 120.414 137.823 120.81 137.967C121.218 138.099 121.542 138.255 121.782 138.435C122.022 138.603 122.184 138.741 122.268 138.849V139.695C121.848 139.407 121.416 139.203 120.972 139.083C120.528 138.951 120.054 138.885 119.55 138.885C119.082 138.885 118.698 138.945 118.398 139.065C118.11 139.185 117.894 139.353 117.75 139.569C117.606 139.785 117.534 140.043 117.534 140.343ZM117.318 136.527L116.616 135.465C116.928 135.237 117.354 135.009 117.894 134.781C118.446 134.553 119.106 134.439 119.874 134.439C120.522 134.439 121.086 134.541 121.566 134.745C122.058 134.937 122.436 135.219 122.7 135.591C122.976 135.963 123.114 136.419 123.114 136.959V142.899H121.674V137.157C121.674 136.869 121.626 136.635 121.53 136.455C121.434 136.263 121.296 136.113 121.116 136.005C120.948 135.897 120.75 135.819 120.522 135.771C120.294 135.723 120.054 135.699 119.802 135.699C119.394 135.699 119.022 135.747 118.686 135.843C118.362 135.939 118.086 136.053 117.858 136.185C117.63 136.317 117.45 136.431 117.318 136.527ZM126.992 134.619V142.899H125.552V134.619H126.992ZM129.494 136.203C129.302 136.059 129.128 135.957 128.972 135.897C128.816 135.825 128.618 135.789 128.378 135.789C128.018 135.789 127.736 135.879 127.532 136.059C127.328 136.239 127.184 136.485 127.1 136.797C127.028 137.109 126.992 137.463 126.992 137.859H126.344C126.344 137.199 126.458 136.617 126.686 136.113C126.926 135.597 127.232 135.189 127.604 134.889C127.976 134.589 128.354 134.439 128.738 134.439C129.038 134.439 129.314 134.481 129.566 134.565C129.83 134.637 130.07 134.787 130.286 135.015L129.494 136.203ZM132.106 138.759C132.106 139.335 132.226 139.845 132.466 140.289C132.718 140.733 133.054 141.087 133.474 141.351C133.906 141.603 134.392 141.729 134.932 141.729C135.376 141.729 135.79 141.663 136.174 141.531C136.57 141.387 136.912 141.201 137.2 140.973C137.488 140.733 137.692 140.481 137.812 140.217V142.017C137.524 142.353 137.11 142.617 136.57 142.809C136.042 142.989 135.496 143.079 134.932 143.079C134.128 143.079 133.402 142.893 132.754 142.521C132.106 142.149 131.59 141.639 131.206 140.991C130.834 140.331 130.648 139.587 130.648 138.759C130.648 137.919 130.834 137.175 131.206 136.527C131.59 135.879 132.106 135.369 132.754 134.997C133.402 134.625 134.128 134.439 134.932 134.439C135.496 134.439 136.042 134.535 136.57 134.727C137.11 134.907 137.524 135.165 137.812 135.501V137.301C137.692 137.025 137.488 136.773 137.2 136.545C136.912 136.317 136.57 136.137 136.174 136.005C135.79 135.861 135.376 135.789 134.932 135.789C134.392 135.789 133.906 135.915 133.474 136.167C133.054 136.419 132.718 136.773 132.466 137.229C132.226 137.673 132.106 138.183 132.106 138.759ZM141.494 128.859V142.899H140.054V128.859H141.494ZM145.364 137.859C145.364 137.175 145.214 136.659 144.914 136.311C144.626 135.963 144.188 135.789 143.6 135.789C143.18 135.789 142.808 135.879 142.484 136.059C142.172 136.239 141.926 136.485 141.746 136.797C141.578 137.109 141.494 137.463 141.494 137.859H141.026C141.026 137.199 141.152 136.617 141.404 136.113C141.656 135.597 141.998 135.189 142.43 134.889C142.874 134.589 143.384 134.439 143.96 134.439C144.536 134.439 145.034 134.559 145.454 134.799C145.886 135.039 146.216 135.399 146.444 135.879C146.684 136.359 146.804 136.959 146.804 137.679V142.899H145.364V137.859Z" fill="#424254"/>
<path d="M128.629 82.586C128.634 80.1411 127.883 77.7545 126.479 75.7531C125.075 73.7517 123.086 72.2335 120.785 71.4067C121.257 68.9433 121.18 66.4062 120.559 63.9761C119.939 61.546 118.79 59.2825 117.195 57.347C115.6 55.4115 113.597 53.8514 111.331 52.7779C109.064 51.7044 106.588 51.1439 104.08 51.1362C101.385 51.133 98.7276 51.771 96.3277 52.9975C93.9277 54.2241 91.854 56.0039 90.2778 58.1901C88.9404 57.1572 87.3403 56.5198 85.659 56.3502C83.9777 56.1806 82.2825 56.4857 80.7658 57.2308C79.2491 57.9759 77.9715 59.1312 77.0782 60.5656C76.1848 62 75.7114 63.6561 75.7116 65.3459C75.7154 66.4229 75.9049 67.4911 76.2719 68.5036C73.9631 69.3296 71.9658 70.8483 70.5527 72.8522C69.1396 74.8561 68.3797 77.2474 68.377 79.6994C68.3742 82.1514 69.1286 84.5445 70.5371 86.5516C71.9456 88.5587 73.9396 90.0819 76.2464 90.9131C75.5053 94.7151 76.0867 98.6563 77.8943 102.082C79.7018 105.508 82.6267 108.213 86.1834 109.747C89.7401 111.282 93.7146 111.554 97.4471 110.518C101.18 109.482 104.446 107.201 106.703 104.053C108.274 105.302 110.222 105.984 112.229 105.989C114.626 105.988 116.925 105.035 118.621 103.34C120.316 101.645 121.268 99.3458 121.269 96.9484C121.265 95.8715 121.076 94.8032 120.709 93.7907C123.017 92.9579 125.014 91.437 126.43 89.4333C127.846 87.4296 128.614 85.0396 128.629 82.586Z" fill="white"/>
<path d="M92.0603 76.9835L105.251 82.9933L118.544 71.3302C118.741 70.3667 118.835 69.385 118.824 68.4017C118.827 65.2272 117.812 62.1355 115.93 59.5795C114.047 57.0235 111.395 55.1375 108.363 54.198C105.331 53.2584 102.078 53.3146 99.0797 54.3584C96.0817 55.4022 93.4969 57.3786 91.7038 59.9981L89.4883 71.483L92.0603 76.9835Z" fill="#FED10A"/>
<path d="M78.4108 90.9387C78.2143 91.9194 78.1204 92.9179 78.1306 93.9181C78.1345 97.1057 79.1594 100.208 81.0549 102.771C82.9505 105.334 85.6172 107.222 88.664 108.159C91.7108 109.096 94.9776 109.032 97.9856 107.977C100.994 106.922 103.584 104.931 105.379 102.296L107.569 90.8623L104.64 85.2599L91.3981 79.2246L78.4108 90.9387Z" fill="#24BBB1"/>
<path d="M78.3351 68.1217L87.3753 70.2608L89.3616 59.9982C88.1352 59.0593 86.6372 58.5439 85.0928 58.5296C83.5483 58.5153 82.041 59.0029 80.7976 59.919C79.5541 60.8351 78.6417 62.1302 78.1976 63.6094C77.7535 65.0887 77.8017 66.6722 78.3351 68.1217Z" fill="#EF5098"/>
<path d="M77.5448 70.2861C75.5889 70.928 73.88 72.1603 72.6533 73.8134C71.4267 75.4665 70.7425 77.4591 70.695 79.5171C70.6476 81.5751 71.2391 83.5972 72.3883 85.3051C73.5374 87.013 75.1877 88.3228 77.1119 89.0541L89.7936 77.5947L87.4763 72.6289L77.5448 70.2861Z" fill="#17A8E0"/>
<path d="M107.671 102.296C108.898 103.224 110.392 103.73 111.93 103.738C113.469 103.747 114.969 103.258 116.206 102.344C117.443 101.43 118.352 100.141 118.797 98.668C119.241 97.1954 119.197 95.6185 118.672 94.1727L109.657 92.0591L107.671 102.296Z" fill="#93C83E"/>
<path d="M109.504 89.6909L119.435 92.0082C121.391 91.3664 123.1 90.1341 124.327 88.481C125.553 86.8279 126.238 84.8352 126.285 82.7772C126.333 80.7193 125.741 78.6972 124.592 76.9892C123.443 75.2813 121.792 73.9716 119.868 73.2402L106.881 84.6233L109.504 89.6909Z" fill="#0779A1"/>
<defs>
<filter id="filter0_d_3345_2257" x="5.63281" y="3.08716" width="185.74" height="199.624" filterUnits="userSpaceOnUse" color-interpolation-filters="sRGB">
<feFlood flood-opacity="0" result="BackgroundImageFix"/>
<feColorMatrix in="SourceAlpha" type="matrix" values="0 0 0 0 0 0 0 0 0 0 0 0 0 0 0 0 0 0 127 0" result="hardAlpha"/>
<feOffset dy="4"/>
<feGaussianBlur stdDeviation="4"/>
<feColorMatrix type="matrix" values="0 0 0 0 0.0627451 0 0 0 0 0.0941176 0 0 0 0 0.156863 0 0 0 0.04 0"/>
<feBlend mode="normal" in2="BackgroundImageFix" result="effect1_dropShadow_3345_2257"/>
<feBlend mode="normal" in="SourceGraphic" in2="effect1_dropShadow_3345_2257" result="shape"/>
</filter>
</defs>
</svg>
