<svg width="196" height="202" viewBox="0 0 196 202" fill="none" xmlns="http://www.w3.org/2000/svg">
<g filter="url(#filter0_d_655_6573)">
<path d="M78 12.1915C90.376 5.04623 105.624 5.04623 118 12.1915L162.87 38.0975C175.247 45.2428 182.87 58.4479 182.87 72.7385V124.551C182.87 138.841 175.247 152.046 162.87 159.192L118 185.098C105.624 192.243 90.376 192.243 78 185.098L33.1295 159.192C20.7535 152.046 13.1295 138.841 13.1295 124.551V72.7385C13.1295 58.4479 20.7535 45.2428 33.1295 38.0975L78 12.1915Z" fill="white"/>
</g>
<path d="M76.4598 131.485H82.0938V130.045H76.4598V131.485ZM76.4598 136.525H81.9138V135.085H76.4598V136.525ZM75.6138 130.045V142.645H77.1438V130.045H75.6138ZM84.5238 130.945C84.5238 131.209 84.6198 131.443 84.8118 131.647C85.0158 131.839 85.2498 131.935 85.5138 131.935C85.7898 131.935 86.0238 131.839 86.2158 131.647C86.4078 131.443 86.5038 131.209 86.5038 130.945C86.5038 130.669 86.4078 130.435 86.2158 130.243C86.0238 130.051 85.7898 129.955 85.5138 129.955C85.2498 129.955 85.0158 130.051 84.8118 130.243C84.6198 130.435 84.5238 130.669 84.5238 130.945ZM84.7938 134.365V142.645H86.2338V134.365H84.7938ZM88.6416 143.185C88.6416 143.893 88.8156 144.517 89.1636 145.057C89.5116 145.609 89.9916 146.035 90.6036 146.335C91.2276 146.635 91.9416 146.785 92.7456 146.785C93.4416 146.785 94.1016 146.623 94.7256 146.299C95.3496 145.975 95.8596 145.489 96.2556 144.841C96.6516 144.205 96.8496 143.413 96.8496 142.465V134.365H95.4096V142.465C95.4096 143.161 95.2716 143.725 94.9956 144.157C94.7316 144.601 94.3956 144.925 93.9876 145.129C93.5796 145.333 93.1656 145.435 92.7456 145.435C92.2056 145.435 91.7376 145.327 91.3416 145.111C90.9456 144.907 90.6396 144.631 90.4236 144.283C90.2076 143.947 90.0996 143.581 90.0996 143.185H88.6416ZM88.4796 138.505C88.4796 139.393 88.6656 140.161 89.0376 140.809C89.4096 141.457 89.9076 141.955 90.5316 142.303C91.1556 142.651 91.8396 142.825 92.5836 142.825C93.2796 142.825 93.8856 142.651 94.4016 142.303C94.9176 141.955 95.3196 141.457 95.6076 140.809C95.9076 140.161 96.0576 139.393 96.0576 138.505C96.0576 137.605 95.9076 136.837 95.6076 136.201C95.3196 135.553 94.9176 135.055 94.4016 134.707C93.8856 134.359 93.2796 134.185 92.5836 134.185C91.8396 134.185 91.1556 134.359 90.5316 134.707C89.9076 135.055 89.4096 135.553 89.0376 136.201C88.6656 136.837 88.4796 137.605 88.4796 138.505ZM89.9376 138.505C89.9376 137.869 90.0636 137.329 90.3156 136.885C90.5796 136.441 90.9276 136.105 91.3596 135.877C91.7916 135.649 92.2596 135.535 92.7636 135.535C93.0756 135.535 93.3876 135.601 93.6996 135.733C94.0116 135.865 94.2936 136.057 94.5456 136.309C94.8096 136.561 95.0196 136.873 95.1756 137.245C95.3316 137.605 95.4096 138.025 95.4096 138.505C95.4096 139.141 95.2776 139.681 95.0136 140.125C94.7496 140.569 94.4136 140.905 94.0056 141.133C93.5976 141.361 93.1836 141.475 92.7636 141.475C92.2596 141.475 91.7916 141.361 91.3596 141.133C90.9276 140.905 90.5796 140.569 90.3156 140.125C90.0636 139.681 89.9376 139.141 89.9376 138.505ZM110.805 137.425C110.805 136.741 110.697 136.159 110.481 135.679C110.277 135.187 109.977 134.815 109.581 134.563C109.185 134.311 108.705 134.185 108.141 134.185C107.589 134.185 107.097 134.317 106.665 134.581C106.233 134.833 105.873 135.217 105.585 135.733C105.393 135.241 105.087 134.863 104.667 134.599C104.259 134.323 103.767 134.185 103.191 134.185C102.675 134.185 102.225 134.299 101.841 134.527C101.469 134.755 101.157 135.103 100.905 135.571V134.365H99.4652V142.645H100.905V137.605C100.905 137.173 100.983 136.801 101.139 136.489C101.295 136.177 101.517 135.943 101.805 135.787C102.093 135.619 102.435 135.535 102.831 135.535C103.371 135.535 103.767 135.703 104.019 136.039C104.283 136.375 104.415 136.897 104.415 137.605V142.645H105.855V137.605C105.855 137.173 105.933 136.801 106.089 136.489C106.245 136.177 106.467 135.943 106.755 135.787C107.043 135.619 107.385 135.535 107.781 135.535C108.321 135.535 108.717 135.703 108.969 136.039C109.233 136.375 109.365 136.897 109.365 137.605V142.645H110.805V137.425ZM114.158 140.089C114.158 139.789 114.23 139.531 114.374 139.315C114.518 139.099 114.734 138.931 115.022 138.811C115.322 138.691 115.706 138.631 116.174 138.631C116.678 138.631 117.152 138.697 117.596 138.829C118.04 138.949 118.472 139.153 118.892 139.441V138.595C118.808 138.487 118.646 138.349 118.406 138.181C118.166 138.001 117.842 137.845 117.434 137.713C117.038 137.569 116.54 137.497 115.94 137.497C114.92 137.497 114.122 137.743 113.546 138.235C112.982 138.715 112.7 139.357 112.7 140.161C112.7 140.725 112.832 141.205 113.096 141.601C113.36 141.997 113.708 142.303 114.14 142.519C114.584 142.723 115.058 142.825 115.562 142.825C116.018 142.825 116.474 142.741 116.93 142.573C117.398 142.405 117.788 142.147 118.1 141.799C118.424 141.451 118.586 141.013 118.586 140.485L118.298 139.405C118.298 139.837 118.19 140.221 117.974 140.557C117.77 140.881 117.488 141.133 117.128 141.313C116.78 141.493 116.384 141.583 115.94 141.583C115.592 141.583 115.28 141.529 115.004 141.421C114.74 141.301 114.53 141.127 114.374 140.899C114.23 140.671 114.158 140.401 114.158 140.089ZM113.942 136.273C114.074 136.177 114.254 136.063 114.482 135.931C114.71 135.799 114.986 135.685 115.31 135.589C115.646 135.493 116.018 135.445 116.426 135.445C116.678 135.445 116.918 135.469 117.146 135.517C117.374 135.565 117.572 135.643 117.74 135.751C117.92 135.859 118.058 136.009 118.154 136.201C118.25 136.381 118.298 136.615 118.298 136.903V142.645H119.738V136.705C119.738 136.165 119.6 135.709 119.324 135.337C119.06 134.965 118.682 134.683 118.19 134.491C117.71 134.287 117.146 134.185 116.498 134.185C115.73 134.185 115.07 134.299 114.518 134.527C113.978 134.755 113.552 134.983 113.24 135.211L113.942 136.273Z" fill="#424254"/>
<g clip-path="url(#clip0_655_6573)">
<path d="M87.5 110.645C93.296 110.645 98 106.277 98 100.895V91.1445H87.5C81.704 91.1445 77 95.5125 77 100.895C77 106.277 81.704 110.645 87.5 110.645Z" fill="#0ACF83"/>
<path d="M77 79.8945C77 74.5125 81.704 70.1445 87.5 70.1445H98V89.6445H87.5C81.704 89.6445 77 85.2765 77 79.8945Z" fill="#A259FF"/>
<path d="M77 60.3945C77 55.0125 81.704 50.6445 87.5 50.6445H98V70.1445H87.5C81.704 70.1445 77 65.7765 77 60.3945Z" fill="#F24E1E"/>
<path d="M98 50.6445H108.5C114.296 50.6445 119 55.0125 119 60.3945C119 65.7765 114.296 70.1445 108.5 70.1445H98V50.6445Z" fill="#FF7262"/>
<path d="M119 79.8945C119 85.2765 114.296 89.6445 108.5 89.6445C102.704 89.6445 98 85.2765 98 79.8945C98 74.5125 102.704 70.1445 108.5 70.1445C114.296 70.1445 119 74.5125 119 79.8945Z" fill="#1ABCFE"/>
</g>
<defs>
<filter id="filter0_d_655_6573" x="5.12952" y="2.83258" width="185.741" height="199.624" filterUnits="userSpaceOnUse" color-interpolation-filters="sRGB">
<feFlood flood-opacity="0" result="BackgroundImageFix"/>
<feColorMatrix in="SourceAlpha" type="matrix" values="0 0 0 0 0 0 0 0 0 0 0 0 0 0 0 0 0 0 127 0" result="hardAlpha"/>
<feOffset dy="4"/>
<feGaussianBlur stdDeviation="4"/>
<feColorMatrix type="matrix" values="0 0 0 0 0.0627451 0 0 0 0 0.0941176 0 0 0 0 0.156863 0 0 0 0.04 0"/>
<feBlend mode="normal" in2="BackgroundImageFix" result="effect1_dropShadow_655_6573"/>
<feBlend mode="normal" in="SourceGraphic" in2="effect1_dropShadow_655_6573" result="shape"/>
</filter>
<clipPath id="clip0_655_6573">
<rect width="42" height="60" fill="white" transform="translate(77 50.6445)"/>
</clipPath>
</defs>
</svg>
