<svg width="196" height="202" viewBox="0 0 196 202" fill="none" xmlns="http://www.w3.org/2000/svg">
<g filter="url(#filter0_d_655_6601)">
<path d="M78 12.1915C90.376 5.04623 105.624 5.04623 118 12.1915L162.87 38.0975C175.247 45.2428 182.87 58.4479 182.87 72.7385V124.551C182.87 138.841 175.247 152.046 162.87 159.192L118 185.098C105.624 192.243 90.376 192.243 78 185.098L33.1295 159.192C20.7535 152.046 13.1295 138.841 13.1295 124.551V72.7385C13.1295 58.4479 20.7535 45.2428 33.1295 38.0975L78 12.1915Z" fill="white"/>
</g>
<path d="M76.4423 131.485H82.0763V130.045H76.4423V131.485ZM76.4423 136.525H81.8963V135.085H76.4423V136.525ZM75.5963 130.045V142.645H77.1263V130.045H75.5963ZM84.5063 128.605V142.645H85.9463V128.605H84.5063ZM90.0947 139.405V134.365H88.6547V139.585C88.6547 140.569 88.9127 141.355 89.4287 141.943C89.9447 142.531 90.6347 142.825 91.4987 142.825C92.0507 142.825 92.5307 142.705 92.9387 142.465C93.3467 142.213 93.6887 141.841 93.9647 141.349V142.645H95.4047V134.365H93.9647V139.405C93.9647 139.813 93.8747 140.173 93.6947 140.485C93.5267 140.797 93.2807 141.043 92.9567 141.223C92.6447 141.391 92.2787 141.475 91.8587 141.475C91.2827 141.475 90.8447 141.295 90.5447 140.935C90.2447 140.575 90.0947 140.065 90.0947 139.405ZM96.8517 134.365V135.715H100.992V134.365H96.8517ZM98.2017 131.485V142.645H99.6417V131.485H98.2017ZM101.176 134.365V135.715H105.316V134.365H101.176ZM102.526 131.485V142.645H103.966V131.485H102.526ZM109.964 142.825C110.852 142.825 111.62 142.651 112.268 142.303C112.928 141.943 113.474 141.415 113.906 140.719L112.736 139.981C112.436 140.485 112.07 140.863 111.638 141.115C111.206 141.355 110.708 141.475 110.144 141.475C109.58 141.475 109.1 141.355 108.704 141.115C108.308 140.875 108.008 140.527 107.804 140.071C107.6 139.615 107.498 139.063 107.498 138.415C107.51 137.779 107.618 137.245 107.822 136.813C108.038 136.369 108.338 136.033 108.722 135.805C109.118 135.565 109.592 135.445 110.144 135.445C110.612 135.445 111.02 135.547 111.368 135.751C111.716 135.955 111.986 136.237 112.178 136.597C112.382 136.957 112.484 137.383 112.484 137.875C112.484 137.959 112.466 138.067 112.43 138.199C112.394 138.319 112.358 138.409 112.322 138.469L112.898 137.641H106.958V138.865H114.032C114.032 138.841 114.032 138.787 114.032 138.703C114.044 138.607 114.05 138.517 114.05 138.433C114.05 137.557 113.894 136.801 113.582 136.165C113.27 135.529 112.82 135.043 112.232 134.707C111.656 134.359 110.96 134.185 110.144 134.185C109.328 134.185 108.608 134.365 107.984 134.725C107.372 135.085 106.892 135.589 106.544 136.237C106.208 136.885 106.04 137.641 106.04 138.505C106.04 139.357 106.202 140.107 106.526 140.755C106.862 141.403 107.324 141.913 107.912 142.285C108.512 142.645 109.196 142.825 109.964 142.825ZM117.464 134.365H116.024V142.645H117.464V134.365ZM119.966 135.949L120.758 134.761C120.542 134.533 120.302 134.383 120.038 134.311C119.786 134.227 119.51 134.185 119.21 134.185C118.826 134.185 118.448 134.335 118.076 134.635C117.704 134.935 117.398 135.343 117.158 135.859C116.93 136.363 116.816 136.945 116.816 137.605H117.464C117.464 137.209 117.5 136.855 117.572 136.543C117.656 136.231 117.8 135.985 118.004 135.805C118.208 135.625 118.49 135.535 118.85 135.535C119.09 135.535 119.288 135.571 119.444 135.643C119.6 135.703 119.774 135.805 119.966 135.949Z" fill="#424254"/>
<g clip-path="url(#clip0_655_6601)">
<path fill-rule="evenodd" clip-rule="evenodd" d="M97.8055 70.1445H119V50.6445H77V50.8281L97.8055 70.1445Z" fill="#67DBFF"/>
<path fill-rule="evenodd" clip-rule="evenodd" d="M98.1959 70.1445H77V89.6445H119V89.461L98.1959 70.1445Z" fill="#01A3FF"/>
<path fill-rule="evenodd" clip-rule="evenodd" d="M77 91.1445H98V110.645L77 91.1445Z" fill="#0162FF"/>
</g>
<defs>
<filter id="filter0_d_655_6601" x="5.12939" y="2.83258" width="185.741" height="199.624" filterUnits="userSpaceOnUse" color-interpolation-filters="sRGB">
<feFlood flood-opacity="0" result="BackgroundImageFix"/>
<feColorMatrix in="SourceAlpha" type="matrix" values="0 0 0 0 0 0 0 0 0 0 0 0 0 0 0 0 0 0 127 0" result="hardAlpha"/>
<feOffset dy="4"/>
<feGaussianBlur stdDeviation="4"/>
<feColorMatrix type="matrix" values="0 0 0 0 0.0627451 0 0 0 0 0.0941176 0 0 0 0 0.156863 0 0 0 0.04 0"/>
<feBlend mode="normal" in2="BackgroundImageFix" result="effect1_dropShadow_655_6601"/>
<feBlend mode="normal" in="SourceGraphic" in2="effect1_dropShadow_655_6601" result="shape"/>
</filter>
<clipPath id="clip0_655_6601">
<rect width="42" height="60" fill="white" transform="translate(77 50.6445)"/>
</clipPath>
</defs>
</svg>
