<svg width="208" height="73" viewBox="0 0 208 73" fill="none" xmlns="http://www.w3.org/2000/svg">
<g opacity="0.8">
<path d="M97.2585 27.2636C95.4561 27.8751 93.783 29.0259 92.5022 30.5313C91.1856 32.0092 90.2573 33.8201 89.7562 35.6935C89.6969 35.9146 89.6693 36.1414 89.618 36.3664C89.5765 36.5914 89.5191 36.8085 89.5035 37.051C89.4543 37.5224 89.3972 37.9899 89.3995 38.4669C89.3565 39.4172 89.444 40.3726 89.5789 41.3219C89.8881 43.2203 90.4798 45.1051 91.3353 46.8939C92.179 48.6867 93.2335 50.4014 94.4489 52.0087C95.0449 52.8213 95.7018 53.5902 96.3802 54.3452C97.0331 55.122 97.7743 55.8194 98.4782 56.5526C99.9566 57.9455 101.507 59.271 103.168 60.454C104.838 61.6172 106.554 62.7249 108.376 63.6586C110.191 64.5982 112.051 65.4529 113.98 66.1494L114.7 66.4193L115.429 66.6595C115.918 66.8164 116.402 66.985 116.889 67.136C117.877 67.4102 118.858 67.7101 119.862 67.933C120.268 68.0292 120.677 68.1175 121.091 68.1881L122.333 68.3761L122.26 68.3549C124.694 68.8238 127.163 69.1427 129.644 69.3059C132.127 69.4552 134.616 69.4508 137.1 69.3065C142.069 69.0276 147 68.1025 151.747 66.6403C154.491 65.7849 157.173 64.7366 159.76 63.4899L163.603 61.5007L167.321 59.2836C172.196 56.1866 176.713 52.532 180.868 48.4931C189.179 40.4015 196.024 30.8537 201.836 20.76C202.311 19.9827 202.799 19.0298 203.343 18.0806C203.876 17.1255 204.445 16.1682 204.939 15.3021C205.947 13.5795 206.857 12.3285 207.28 12.6001C208.138 13.149 206.91 17.246 203.704 22.8642L202.233 25.3996L200.686 27.898L199.911 29.1462L199.098 30.3709L197.468 32.8185C195.21 36.0226 192.899 39.1955 190.353 42.1844C189.124 43.7151 187.785 45.1479 186.476 46.61L185.985 47.1588L183.414 49.7873C183.074 50.1401 182.729 50.4909 182.367 50.8182C180.928 52.153 179.534 53.5289 178.014 54.7696C177.262 55.3967 176.537 56.0612 175.768 56.6648L173.447 58.464C168.876 61.9258 163.911 64.8556 158.649 67.2176C153.353 69.5187 147.731 71.0273 142.01 71.8052C136.294 72.5751 130.465 72.5988 124.735 71.8018C119.008 71.0068 113.37 69.3678 108.138 66.8137C103.449 64.5167 99.0849 61.4767 95.4398 57.6955C93.6193 55.8157 91.9141 53.7913 90.5033 51.5484C89.0768 49.3175 87.9074 46.8939 87.1633 44.2963C86.802 42.9955 86.5472 41.6586 86.4284 40.2953C86.3353 38.9299 86.3745 37.5558 86.5777 36.1887C87.0292 33.403 88.2867 30.8314 90.0956 28.7317C90.9871 27.6681 92.0538 26.7494 93.2304 25.9778C93.8077 25.5744 94.4491 25.2711 95.0825 24.9541L96.0828 24.5719C96.4115 24.434 96.7745 24.3767 97.1194 24.2762C99.9168 23.584 103.074 24.0351 105.515 25.7241C106.66 26.502 107.637 27.5016 108.396 28.6149C109.154 29.7281 109.719 30.9469 110.119 32.1982C110.912 34.7068 111.073 37.3471 110.691 39.9117C110.301 42.4724 109.341 44.989 107.716 47.1153C107.513 47.3786 107.304 47.6439 107.075 47.8896L106.738 48.2641L106.388 48.5973C105.913 49.0316 105.469 49.5053 104.949 49.8827C104.443 50.2818 103.943 50.6888 103.394 51.0231L102.589 51.55C102.312 51.7132 102.029 51.8588 101.749 52.0161C99.4999 53.2373 97.0751 54.0534 94.6278 54.574C92.1746 55.0966 89.6951 55.3316 87.2299 55.3872C84.7666 55.4388 82.3096 55.307 79.887 55.0449L76.279 54.559L74.4749 54.3112C73.8736 54.2319 73.2815 54.0835 72.6859 53.9726C64.4473 52.445 56.43 49.7946 48.8787 46.2249C41.3195 42.6514 34.2125 38.1666 27.7155 32.9411C27.3294 32.6339 26.9434 32.3267 26.5534 32.0175C26.1596 31.7162 25.7793 31.3872 25.4068 31.0523C24.6541 30.3885 23.8955 29.7266 23.137 29.0746C21.5808 27.8102 20.1561 26.4485 18.6915 25.2782L18.7296 25.3312C17.2306 23.619 15.5727 21.8093 13.8698 20.0411C12.9987 19.1769 12.2571 18.1995 11.5237 17.2655C10.8001 16.3216 10.1357 15.3674 9.58387 14.4048C8.71911 13.1364 7.87165 11.8128 6.98377 10.6116C6.7298 10.2661 6.48778 9.93641 6.25779 9.62236C6.03565 9.30235 5.84713 8.9841 5.66273 8.68753C5.29394 8.09438 4.97108 7.55816 4.69815 7.08075C4.15035 6.1299 3.78642 5.41648 3.61219 4.92864C3.25975 3.95105 3.65621 3.87584 4.74099 4.55555C5.21582 4.85243 5.2021 4.19814 6.1995 5.49727C6.20153 5.50317 6.24793 5.60931 6.24793 5.60931L6.2376 5.5601C7.00397 6.42692 7.71001 7.39655 8.44787 8.39164C9.22111 9.36485 9.97509 10.3974 10.7214 11.4555C11.0995 11.9796 11.4541 12.5314 11.8439 13.0515C12.2456 13.5676 12.6454 14.0876 13.0431 14.6018C13.8445 15.628 14.6204 16.6761 15.437 17.6412C23.5752 27.0182 33.3744 34.998 44.3539 40.8344C47.0604 42.3642 49.9106 43.6113 52.7374 44.896L57.0696 46.6056C57.7875 46.909 58.5303 47.1314 59.2675 47.3755L61.4808 48.104C62.2198 48.3343 62.9513 48.61 63.6999 48.8107L65.9515 49.4009C67.4565 49.7865 68.9423 50.2313 70.4738 50.4925C71.9957 50.7834 73.5122 51.1256 75.0436 51.3769L79.6526 52.001C83.4165 52.4603 87.207 52.5745 90.91 52.1847C94.6072 51.8067 98.2238 50.8004 101.307 48.9437C101.68 48.6952 102.066 48.4624 102.433 48.206L103.49 47.3859C104.147 46.7809 104.827 46.1877 105.343 45.5284C106.426 44.2055 107.162 42.585 107.612 40.8971C108.047 39.1975 108.171 37.4091 107.982 35.6677C107.781 33.9304 107.278 32.2263 106.416 30.7825C105.477 29.1933 104.087 27.9714 102.442 27.3796L101.816 27.1802L101.168 27.0341L100.512 26.9571L100.183 26.9136C100.073 26.9084 99.9602 26.9169 99.8535 26.9135L99.1896 26.9115L98.5285 26.9941L98.1949 27.0315L97.8657 27.1102L97.2032 27.2658C97.2191 27.2736 97.2408 27.2696 97.2585 27.2636Z" fill="#FBBC04"/>
<path d="M2.5602 2.83765C2.65117 2.40152 2.72981 1.91027 2.85455 1.49563L3.17912 0.44319C4.19597 1.26127 5.26115 2.18154 6.24555 2.90518C6.3072 2.95016 6.39602 2.9398 6.47125 2.95711L6.4672 2.9453L7.23871 3.50064C7.42956 3.63358 7.62824 3.76058 7.83276 3.8757C8.78384 4.40637 9.73643 4.88381 10.622 5.59816C10.7612 5.70577 11.029 5.82252 10.6638 6.74708C10.2831 7.71312 9.86059 8.19253 9.56276 8.0267C8.85387 7.62473 8.2345 7.07046 7.4522 6.85813C6.87584 6.69784 6.35188 6.4308 5.85129 6.12619C5.72615 6.05003 5.60294 5.96993 5.47974 5.88983L5.18755 5.69243C5.10606 5.6377 5.05834 5.60451 5.01671 5.58898C4.94536 5.56377 4.88372 5.51876 4.82004 5.46788C4.78502 5.52918 4.75846 5.65352 4.75739 5.75603C4.75977 5.80135 4.77009 5.85056 4.78622 5.88792L4.79425 5.90167L4.78314 5.98449L4.75701 6.1581L4.70283 6.50928C4.63188 6.97486 4.54709 7.43853 4.41272 7.8828C4.17655 8.65484 3.70064 9.35337 3.37927 10.0983C3.30376 10.2722 3.19472 10.4542 3.51133 10.7322L3.52517 10.7341C3.028 10.8139 3.76926 11.3004 3.06403 11.3123C3.02707 11.3776 2.94065 11.4333 2.9552 11.514C3.02167 11.8802 2.65202 11.8607 1.58918 11.4272C1.3552 11.332 1.03258 11.2668 0.889182 11.1376L0.908944 11.1374L0.891125 11.1336C0.213539 10.6979 0.646782 10.5378 0.701927 10.295C0.975801 9.09501 1.31696 7.90846 1.63044 6.7181L1.93887 5.62828C1.99057 5.4427 2.02858 5.27499 2.07614 5.06775C2.16013 4.73613 2.23418 4.39468 2.30609 4.0375C2.37977 3.65666 2.37716 3.14026 2.56011 2.82779L2.5602 2.83765Z" fill="#FBBC04"/>
</g>
</svg>
