<svg width="162" height="26" viewBox="0 0 162 26" fill="none" xmlns="http://www.w3.org/2000/svg">
<path d="M18.0722 11.9163C18.0722 13.7722 17.7204 15.3511 17.0168 16.6529C16.3188 17.9548 15.3659 18.9492 14.1582 19.6362C12.956 20.3176 11.6043 20.6583 10.103 20.6583C8.59055 20.6583 7.23326 20.3148 6.03109 19.6279C4.82893 18.9409 3.87883 17.9465 3.18079 16.6446C2.48276 15.3427 2.13374 13.7666 2.13374 11.9163C2.13374 10.0604 2.48276 8.48152 3.18079 7.17964C3.87883 5.87775 4.82893 4.8861 6.03109 4.20469C7.23326 3.51773 8.59055 3.17426 10.103 3.17426C11.6043 3.17426 12.956 3.51773 14.1582 4.20469C15.3659 4.8861 16.3188 5.87775 17.0168 7.17964C17.7204 8.48152 18.0722 10.0604 18.0722 11.9163ZM14.4241 11.9163C14.4241 10.7141 14.2441 9.70031 13.884 8.87486C13.5294 8.04941 13.028 7.4234 12.3799 6.99682C11.7317 6.57024 10.9727 6.35696 10.103 6.35696C9.23318 6.35696 8.47421 6.57024 7.82604 6.99682C7.17786 7.4234 6.67373 8.04941 6.31363 8.87486C5.95908 9.70031 5.7818 10.7141 5.7818 11.9163C5.7818 13.1185 5.95908 14.1323 6.31363 14.9577C6.67373 15.7832 7.17786 16.4092 7.82604 16.8358C8.47421 17.2623 9.23318 17.4756 10.103 17.4756C10.9727 17.4756 11.7317 17.2623 12.3799 16.8358C13.028 16.4092 13.5294 15.7832 13.884 14.9577C14.2441 14.1323 14.4241 13.1185 14.4241 11.9163ZM20.6711 25.2122V7.66161H24.1613V9.80557H24.3191C24.4743 9.46209 24.6986 9.11308 24.9922 8.75852C25.2914 8.39842 25.6792 8.09927 26.1556 7.86105C26.6376 7.61729 27.2359 7.49541 27.9506 7.49541C28.8813 7.49541 29.74 7.73917 30.5267 8.22669C31.3133 8.70866 31.9421 9.43716 32.413 10.4122C32.8839 11.3817 33.1193 12.5977 33.1193 14.0602C33.1193 15.484 32.8894 16.6862 32.4296 17.6668C31.9753 18.6418 31.3549 19.3814 30.5682 19.8855C29.7871 20.3841 28.9118 20.6334 27.9423 20.6334C27.2553 20.6334 26.6708 20.5198 26.1889 20.2927C25.7124 20.0655 25.3219 19.7802 25.0172 19.4368C24.7125 19.0877 24.4798 18.736 24.3191 18.3814H24.2111V25.2122H20.6711ZM24.1363 14.0436C24.1363 14.8026 24.2416 15.4646 24.4521 16.0297C24.6626 16.5948 24.9673 17.0352 25.3662 17.351C25.7651 17.6612 26.2498 17.8163 26.8204 17.8163C27.3966 17.8163 27.8841 17.6584 28.283 17.3427C28.6818 17.0213 28.9838 16.5782 29.1888 16.0131C29.3993 15.4425 29.5045 14.786 29.5045 14.0436C29.5045 13.3068 29.402 12.6586 29.1971 12.0991C28.9921 11.5396 28.6902 11.1019 28.2913 10.7861C27.8924 10.4704 27.4021 10.3125 26.8204 10.3125C26.2443 10.3125 25.7568 10.4648 25.3579 10.7695C24.9645 11.0742 24.6626 11.5063 24.4521 12.0659C24.2416 12.6254 24.1363 13.2847 24.1363 14.0436ZM41.2963 20.6749C39.9833 20.6749 38.8532 20.409 37.9059 19.8772C36.9641 19.3398 36.2383 18.5808 35.7287 17.6003C35.219 16.6142 34.9641 15.448 34.9641 14.1018C34.9641 12.7888 35.219 11.6365 35.7287 10.6449C36.2383 9.65322 36.9558 8.8804 37.8809 8.3264C38.8116 7.77241 39.903 7.49541 41.155 7.49541C41.9971 7.49541 42.781 7.63114 43.5067 7.9026C44.238 8.16852 44.8751 8.57016 45.418 9.10754C45.9665 9.64491 46.393 10.3208 46.6977 11.1352C47.0024 11.944 47.1548 12.8913 47.1548 13.9771V14.9494H36.3768V12.7556H43.8225C43.8225 12.2459 43.7117 11.7944 43.4901 11.4011C43.2685 11.0077 42.9611 10.7003 42.5677 10.4787C42.1799 10.2515 41.7284 10.138 41.2132 10.138C40.6758 10.138 40.1994 10.2626 39.7839 10.5119C39.3739 10.7557 39.0526 11.0853 38.8199 11.5008C38.5873 11.9107 38.4682 12.3678 38.4626 12.8719V14.9577C38.4626 15.5893 38.579 16.135 38.8116 16.5948C39.0499 17.0546 39.385 17.4091 39.8171 17.6584C40.2493 17.9077 40.7617 18.0324 41.3545 18.0324C41.7478 18.0324 42.1079 17.977 42.4348 17.8662C42.7616 17.7554 43.0414 17.5892 43.2741 17.3676C43.5067 17.146 43.684 16.8745 43.8059 16.5532L47.08 16.7693C46.9138 17.556 46.5731 18.2429 46.0579 18.8301C45.5482 19.4118 44.889 19.8661 44.0801 20.193C43.2768 20.5143 42.3489 20.6749 41.2963 20.6749ZM53.005 13.0464V20.4256H49.4649V7.66161H52.8388V9.9136H52.9884C53.2709 9.17125 53.7446 8.58401 54.4093 8.1519C55.0741 7.71424 55.8802 7.49541 56.8275 7.49541C57.7139 7.49541 58.4867 7.68931 59.146 8.07711C59.8053 8.4649 60.3177 9.0189 60.6833 9.73909C61.049 10.4537 61.2318 11.3069 61.2318 12.2985V20.4256H57.6918V12.9301C57.6973 12.149 57.4979 11.5396 57.0935 11.1019C56.689 10.6587 56.1323 10.4371 55.4232 10.4371C54.9467 10.4371 54.5257 10.5396 54.1601 10.7446C53.8 10.9496 53.5174 11.2487 53.3124 11.6421C53.113 12.0299 53.0105 12.498 53.005 13.0464Z" fill="white"/>
<path d="M73.9771 7.66161C73.8774 6.81954 73.473 6.16583 72.7639 5.70047C72.0548 5.23512 71.185 5.00244 70.1546 5.00244C69.4011 5.00244 68.7419 5.12432 68.1768 5.36807C67.6173 5.61183 67.1796 5.947 66.8638 6.37357C66.5536 6.80015 66.3985 7.2849 66.3985 7.82781C66.3985 8.28209 66.5065 8.67265 66.7226 8.99951C66.9442 9.32083 67.2267 9.58951 67.5702 9.80557C67.9137 10.0161 68.2738 10.1906 68.6505 10.3291C69.0272 10.4621 69.3734 10.5701 69.6892 10.6532L71.4177 11.1185C71.8609 11.2349 72.3539 11.3955 72.8968 11.6005C73.4453 11.8055 73.9688 12.0853 74.4674 12.4398C74.9715 12.7888 75.387 13.2376 75.7139 13.786C76.0408 14.3345 76.2042 15.0076 76.2042 15.8053C76.2042 16.725 75.9632 17.556 75.4812 18.2983C75.0048 19.0407 74.3068 19.6307 73.3871 20.0683C72.473 20.506 71.3623 20.7248 70.0548 20.7248C68.8361 20.7248 67.7807 20.5281 66.8888 20.1348C66.0024 19.7415 65.3043 19.193 64.7947 18.4894C64.2905 17.7859 64.0052 16.9687 63.9387 16.038H66.0661C66.1215 16.6806 66.3375 17.2125 66.7143 17.6335C67.0965 18.049 67.5785 18.3592 68.1602 18.5642C68.7474 18.7637 69.379 18.8634 70.0548 18.8634C70.8415 18.8634 71.5479 18.736 72.1739 18.4811C72.7999 18.2207 73.2957 17.8606 73.6614 17.4008C74.027 16.9355 74.2098 16.3926 74.2098 15.7721C74.2098 15.207 74.0519 14.7472 73.7361 14.3926C73.4204 14.0381 73.0049 13.75 72.4897 13.5284C71.9744 13.3068 71.4177 13.1129 70.8194 12.9467L68.7253 12.3484C67.3957 11.9661 66.3431 11.4205 65.5675 10.7114C64.7919 10.0022 64.4041 9.0743 64.4041 7.92753C64.4041 6.97466 64.6617 6.14367 65.1769 5.43455C65.6977 4.7199 66.3957 4.16591 67.271 3.77257C68.1519 3.3737 69.1352 3.17426 70.221 3.17426C71.318 3.17426 72.293 3.37092 73.1461 3.76426C73.9993 4.15206 74.6752 4.68389 75.1738 5.35976C75.6779 6.03564 75.9438 6.80292 75.9715 7.66161H73.9771ZM98.9734 7.66161V9.3236H92.0927V7.66161H98.9734ZM94.1536 20.4256V5.89991C94.1536 5.16864 94.3253 4.55924 94.6688 4.07173C95.0123 3.58421 95.4583 3.21858 96.0067 2.97482C96.5552 2.73106 97.1341 2.60918 97.7435 2.60918C98.2255 2.60918 98.6188 2.64796 98.9235 2.72552C99.2282 2.80308 99.4553 2.8751 99.6049 2.94158L99.0398 4.6368C98.9401 4.60356 98.8016 4.56201 98.6243 4.51215C98.4526 4.46229 98.2255 4.43736 97.9429 4.43736C97.2948 4.43736 96.8266 4.60079 96.5385 4.92765C96.256 5.25451 96.1147 5.73371 96.1147 6.36526V20.4256H94.1536ZM107.273 7.66161V9.3236H100.658V7.66161H107.273ZM102.586 4.60356H104.547V16.7693C104.547 17.3233 104.628 17.7388 104.788 18.0158C104.954 18.2872 105.165 18.47 105.42 18.5642C105.68 18.6529 105.954 18.6972 106.242 18.6972C106.459 18.6972 106.636 18.6861 106.774 18.6639C106.913 18.6362 107.024 18.6141 107.107 18.5975L107.506 20.3592C107.373 20.409 107.187 20.4589 106.949 20.5087C106.711 20.5641 106.409 20.5918 106.043 20.5918C105.489 20.5918 104.946 20.4727 104.414 20.2345C103.888 19.9963 103.45 19.6334 103.101 19.1459C102.758 18.6584 102.586 18.0435 102.586 17.3011V4.60356ZM108.758 5.23512V3.40693H121.522V5.23512H116.171V20.4256H114.11V5.23512H108.758ZM127.938 20.6916C126.708 20.6916 125.647 20.4201 124.755 19.8772C123.868 19.3287 123.184 18.5642 122.702 17.5837C122.226 16.5975 121.988 15.4508 121.988 14.1433C121.988 12.8359 122.226 11.6836 122.702 10.6864C123.184 9.68369 123.855 8.90256 124.713 8.34303C125.578 7.77795 126.586 7.49541 127.738 7.49541C128.403 7.49541 129.059 7.60621 129.708 7.82781C130.356 8.04941 130.946 8.4095 131.478 8.9081C132.009 9.40115 132.433 10.0549 132.749 10.8692C133.065 11.6836 133.223 12.6863 133.223 13.8774V14.7084H123.384V13.0132H131.228C131.228 12.293 131.084 11.6504 130.796 11.0853C130.514 10.5202 130.109 10.0743 129.583 9.7474C129.062 9.42054 128.447 9.25712 127.738 9.25712C126.957 9.25712 126.281 9.45101 125.711 9.83881C125.145 10.2211 124.711 10.7197 124.406 11.3346C124.101 11.9495 123.949 12.6088 123.949 13.3124V14.4425C123.949 15.4065 124.115 16.2236 124.447 16.8939C124.785 17.5587 125.253 18.0656 125.852 18.4146C126.45 18.7581 127.145 18.9299 127.938 18.9299C128.453 18.9299 128.918 18.8578 129.334 18.7138C129.755 18.5642 130.118 18.3426 130.422 18.049C130.727 17.7499 130.962 17.3787 131.129 16.9355L133.023 17.4673C132.824 18.1099 132.489 18.675 132.018 19.1625C131.547 19.6445 130.965 20.0212 130.273 20.2927C129.58 20.5586 128.802 20.6916 127.938 20.6916ZM141.391 20.6916C140.195 20.6916 139.164 20.409 138.3 19.8439C137.436 19.2789 136.771 18.5005 136.306 17.5089C135.84 16.5172 135.608 15.3843 135.608 14.1101C135.608 12.8138 135.846 11.6698 136.322 10.6781C136.804 9.68092 137.475 8.90256 138.333 8.34303C139.198 7.77795 140.206 7.49541 141.358 7.49541C142.256 7.49541 143.064 7.66161 143.785 7.99401C144.505 8.32641 145.095 8.79176 145.555 9.39007C146.014 9.98839 146.3 10.6864 146.411 11.4842H144.449C144.3 10.9025 143.967 10.3873 143.452 9.93853C142.943 9.48425 142.256 9.25712 141.391 9.25712C140.627 9.25712 139.956 9.45655 139.38 9.85543C138.81 10.2488 138.364 10.8055 138.042 11.5257C137.727 12.2404 137.569 13.0797 137.569 14.0436C137.569 15.0297 137.724 15.8884 138.034 16.6197C138.35 17.351 138.793 17.9188 139.364 18.3232C139.94 18.7277 140.616 18.9299 141.391 18.9299C141.901 18.9299 142.364 18.8412 142.779 18.6639C143.195 18.4867 143.546 18.2318 143.834 17.8994C144.123 17.567 144.327 17.1682 144.449 16.7028H146.411C146.3 17.4562 146.025 18.1349 145.588 18.7387C145.156 19.337 144.582 19.8135 143.868 20.168C143.159 20.5171 142.333 20.6916 141.391 20.6916ZM151.239 12.7473V20.4256H149.277V3.40693H151.239V9.65599H151.405C151.704 8.99674 152.153 8.47321 152.751 8.08542C153.355 7.69208 154.158 7.49541 155.161 7.49541C156.031 7.49541 156.792 7.66992 157.446 8.01894C158.1 8.36241 158.607 8.89148 158.967 9.60613C159.332 10.3152 159.515 11.2183 159.515 12.3152V20.4256H157.554V12.4481C157.554 11.4343 157.291 10.6504 156.765 10.0964C156.244 9.53688 155.521 9.25712 154.596 9.25712C153.953 9.25712 153.377 9.39284 152.867 9.6643C152.363 9.93576 151.964 10.3319 151.671 10.8526C151.383 11.3734 151.239 12.0049 151.239 12.7473Z" fill="#FB8614"/>
<path d="M84.512 20.6916C83.3597 20.6916 82.3487 20.4173 81.4789 19.8689C80.6147 19.3204 79.9388 18.5531 79.4513 17.567C78.9693 16.5809 78.7283 15.4286 78.7283 14.1101C78.7283 12.7805 78.9693 11.6199 79.4513 10.6283C79.9388 9.6366 80.6147 8.86655 81.4789 8.3181C82.3487 7.76964 83.3597 7.49541 84.512 7.49541C85.6643 7.49541 86.6726 7.76964 87.5368 8.3181C88.4066 8.86655 89.0825 9.6366 89.5645 10.6283C90.052 11.6199 90.2957 12.7805 90.2957 14.1101C90.2957 15.4286 90.052 16.5809 89.5645 17.567C89.0825 18.5531 88.4066 19.3204 87.5368 19.8689C86.6726 20.4173 85.6643 20.6916 84.512 20.6916ZM84.512 18.9299C85.3873 18.9299 86.1075 18.7055 86.6726 18.2568C87.2377 17.808 87.6559 17.218 87.9274 16.4867C88.1989 15.7555 88.3346 14.9633 88.3346 14.1101C88.3346 13.257 88.1989 12.462 87.9274 11.7252C87.6559 10.9883 87.2377 10.3928 86.6726 9.93853C86.1075 9.48425 85.3873 9.25712 84.512 9.25712C83.6367 9.25712 82.9165 9.48425 82.3514 9.93853C81.7864 10.3928 81.3681 10.9883 81.0966 11.7252C80.8252 12.462 80.6895 13.257 80.6895 14.1101C80.6895 14.9633 80.8252 15.7555 81.0966 16.4867C81.3681 17.218 81.7864 17.808 82.3514 18.2568C82.9165 18.7055 83.6367 18.9299 84.512 18.9299Z" fill="black"/>
<path d="M91.0867 14.3198C91.0867 17.9547 88.1401 20.9013 84.5053 20.9013C80.8704 20.9013 77.9238 17.9547 77.9238 14.3198C77.9238 10.685 80.8704 7.73837 84.5053 7.73837C88.1401 7.73837 91.0867 10.685 91.0867 14.3198Z" fill="url(#paint0_linear_203_5)"/>
<path d="M87.796 12.3454C87.796 14.1628 86.3227 15.6361 84.5053 15.6361C82.6879 15.6361 81.2146 14.1628 81.2146 12.3454C81.2146 10.528 82.6879 9.05466 84.5053 9.05466C86.3227 9.05466 87.796 10.528 87.796 12.3454Z" fill="white"/>
<path d="M86.1506 11.3582C86.1506 12.2669 85.414 13.0035 84.5053 13.0035C83.5966 13.0035 82.8599 12.2669 82.8599 11.3582C82.8599 10.4495 83.5966 9.71281 84.5053 9.71281C85.414 9.71281 86.1506 10.4495 86.1506 11.3582Z" fill="#3081ED"/>
<defs>
<linearGradient id="paint0_linear_203_5" x1="77.9238" y1="14.3198" x2="91.0867" y2="14.3198" gradientUnits="userSpaceOnUse">
<stop stop-color="#FB8614"/>
<stop offset="1" stop-color="#2F80ED"/>
</linearGradient>
</defs>
</svg>
