<svg width="197" height="203" viewBox="0 0 197 203" fill="none" xmlns="http://www.w3.org/2000/svg">
<g filter="url(#filter0_d_3345_2218)">
<path d="M78.5029 12.4462C90.879 5.30086 106.127 5.30086 118.503 12.4462L163.373 38.3522C175.749 45.4975 183.373 58.7026 183.373 72.9932V124.805C183.373 139.096 175.749 152.301 163.373 159.446L118.503 185.352C106.127 192.497 90.879 192.497 78.5029 185.352L33.6324 159.446C21.2564 152.301 13.6324 139.096 13.6324 124.805V72.9932C13.6324 58.7026 21.2564 45.4975 33.6324 38.3522L78.5029 12.4462Z" fill="white"/>
</g>
<path d="M50.9414 137.949V136.509H56.7914C56.7914 137.385 56.6594 138.219 56.3954 139.011C56.1314 139.791 55.7414 140.487 55.2254 141.099C54.7094 141.711 54.0734 142.197 53.3174 142.557C52.5734 142.905 51.7214 143.079 50.7614 143.079C49.8494 143.079 49.0034 142.923 48.2234 142.611C47.4434 142.287 46.7654 141.837 46.1894 141.261C45.6134 140.673 45.1634 139.983 44.8394 139.191C44.5274 138.399 44.3714 137.535 44.3714 136.599C44.3714 135.663 44.5274 134.799 44.8394 134.007C45.1634 133.215 45.6134 132.531 46.1894 131.955C46.7654 131.367 47.4434 130.917 48.2234 130.605C49.0034 130.281 49.8494 130.119 50.7614 130.119C51.5414 130.119 52.2554 130.221 52.9034 130.425C53.5634 130.629 54.1514 130.929 54.6674 131.325C55.1954 131.721 55.6394 132.213 55.9994 132.801L54.9194 133.791C54.5234 133.119 53.9714 132.597 53.2634 132.225C52.5554 131.841 51.7214 131.649 50.7614 131.649C49.8734 131.649 49.0694 131.859 48.3494 132.279C47.6294 132.699 47.0534 133.281 46.6214 134.025C46.2014 134.757 45.9914 135.615 45.9914 136.599C45.9914 137.571 46.2014 138.429 46.6214 139.173C47.0534 139.917 47.6294 140.499 48.3494 140.919C49.0694 141.339 49.8734 141.549 50.7614 141.549C51.3854 141.549 51.9434 141.459 52.4354 141.279C52.9394 141.087 53.3714 140.823 53.7314 140.487C54.0914 140.151 54.3854 139.767 54.6134 139.335C54.8534 138.903 55.0274 138.441 55.1354 137.949H50.9414ZM58.2384 138.759C58.2384 137.919 58.4244 137.175 58.7964 136.527C59.1804 135.879 59.6964 135.369 60.3444 134.997C60.9924 134.625 61.7184 134.439 62.5224 134.439C63.3384 134.439 64.0644 134.625 64.7004 134.997C65.3484 135.369 65.8584 135.879 66.2304 136.527C66.6144 137.175 66.8064 137.919 66.8064 138.759C66.8064 139.587 66.6144 140.331 66.2304 140.991C65.8584 141.639 65.3484 142.149 64.7004 142.521C64.0644 142.893 63.3384 143.079 62.5224 143.079C61.7184 143.079 60.9924 142.893 60.3444 142.521C59.6964 142.149 59.1804 141.639 58.7964 140.991C58.4244 140.331 58.2384 139.587 58.2384 138.759ZM59.6964 138.759C59.6964 139.335 59.8164 139.845 60.0564 140.289C60.3084 140.733 60.6444 141.087 61.0644 141.351C61.4964 141.603 61.9824 141.729 62.5224 141.729C63.0624 141.729 63.5424 141.603 63.9624 141.351C64.3944 141.087 64.7304 140.733 64.9704 140.289C65.2224 139.845 65.3484 139.335 65.3484 138.759C65.3484 138.183 65.2224 137.673 64.9704 137.229C64.7304 136.773 64.3944 136.419 63.9624 136.167C63.5424 135.915 63.0624 135.789 62.5224 135.789C61.9824 135.789 61.4964 135.915 61.0644 136.167C60.6444 136.419 60.3084 136.773 60.0564 137.229C59.8164 137.673 59.6964 138.183 59.6964 138.759ZM68.0646 138.759C68.0646 137.919 68.2506 137.175 68.6226 136.527C69.0066 135.879 69.5226 135.369 70.1706 134.997C70.8186 134.625 71.5446 134.439 72.3486 134.439C73.1646 134.439 73.8906 134.625 74.5266 134.997C75.1746 135.369 75.6846 135.879 76.0566 136.527C76.4406 137.175 76.6326 137.919 76.6326 138.759C76.6326 139.587 76.4406 140.331 76.0566 140.991C75.6846 141.639 75.1746 142.149 74.5266 142.521C73.8906 142.893 73.1646 143.079 72.3486 143.079C71.5446 143.079 70.8186 142.893 70.1706 142.521C69.5226 142.149 69.0066 141.639 68.6226 140.991C68.2506 140.331 68.0646 139.587 68.0646 138.759ZM69.5226 138.759C69.5226 139.335 69.6426 139.845 69.8826 140.289C70.1346 140.733 70.4706 141.087 70.8906 141.351C71.3226 141.603 71.8086 141.729 72.3486 141.729C72.8886 141.729 73.3686 141.603 73.7886 141.351C74.2206 141.087 74.5566 140.733 74.7966 140.289C75.0486 139.845 75.1746 139.335 75.1746 138.759C75.1746 138.183 75.0486 137.673 74.7966 137.229C74.5566 136.773 74.2206 136.419 73.7886 136.167C73.3686 135.915 72.8886 135.789 72.3486 135.789C71.8086 135.789 71.3226 135.915 70.8906 136.167C70.4706 136.419 70.1346 136.773 69.8826 137.229C69.6426 137.673 69.5226 138.183 69.5226 138.759ZM78.0527 143.439H79.5107C79.5107 143.835 79.6187 144.201 79.8347 144.537C80.0507 144.885 80.3567 145.161 80.7527 145.365C81.1487 145.581 81.6167 145.689 82.1567 145.689C82.5767 145.689 82.9907 145.587 83.3987 145.383C83.8067 145.179 84.1427 144.855 84.4067 144.411C84.6827 143.979 84.8207 143.415 84.8207 142.719V134.619H86.2607V142.719C86.2607 143.667 86.0627 144.459 85.6667 145.095C85.2707 145.743 84.7607 146.229 84.1367 146.553C83.5127 146.877 82.8527 147.039 82.1567 147.039C81.3527 147.039 80.6387 146.889 80.0147 146.589C79.4027 146.289 78.9227 145.863 78.5747 145.311C78.2267 144.771 78.0527 144.147 78.0527 143.439ZM77.8907 138.759C77.8907 137.859 78.0767 137.091 78.4487 136.455C78.8207 135.807 79.3187 135.309 79.9427 134.961C80.5667 134.613 81.2507 134.439 81.9947 134.439C82.6907 134.439 83.2967 134.613 83.8127 134.961C84.3287 135.309 84.7307 135.807 85.0187 136.455C85.3187 137.091 85.4687 137.859 85.4687 138.759C85.4687 139.647 85.3187 140.415 85.0187 141.063C84.7307 141.711 84.3287 142.209 83.8127 142.557C83.2967 142.905 82.6907 143.079 81.9947 143.079C81.2507 143.079 80.5667 142.905 79.9427 142.557C79.3187 142.209 78.8207 141.711 78.4487 141.063C78.0767 140.415 77.8907 139.647 77.8907 138.759ZM79.3487 138.759C79.3487 139.395 79.4747 139.935 79.7267 140.379C79.9907 140.823 80.3387 141.159 80.7707 141.387C81.2027 141.615 81.6707 141.729 82.1747 141.729C82.5947 141.729 83.0087 141.615 83.4167 141.387C83.8247 141.159 84.1607 140.823 84.4247 140.379C84.6887 139.935 84.8207 139.395 84.8207 138.759C84.8207 138.279 84.7427 137.859 84.5867 137.499C84.4307 137.127 84.2207 136.815 83.9567 136.563C83.7047 136.311 83.4227 136.119 83.1107 135.987C82.7987 135.855 82.4867 135.789 82.1747 135.789C81.6707 135.789 81.2027 135.903 80.7707 136.131C80.3387 136.359 79.9907 136.695 79.7267 137.139C79.4747 137.583 79.3487 138.123 79.3487 138.759ZM88.8764 128.859H90.3164V142.899H88.8764V128.859ZM96.2288 143.079C95.4608 143.079 94.7768 142.899 94.1768 142.539C93.5888 142.167 93.1268 141.657 92.7908 141.009C92.4668 140.361 92.3048 139.611 92.3048 138.759C92.3048 137.895 92.4728 137.139 92.8088 136.491C93.1568 135.843 93.6368 135.339 94.2488 134.979C94.8728 134.619 95.5928 134.439 96.4088 134.439C97.2248 134.439 97.9208 134.613 98.4968 134.961C99.0848 135.297 99.5348 135.783 99.8468 136.419C100.159 137.055 100.315 137.811 100.315 138.687C100.315 138.771 100.309 138.861 100.297 138.957C100.297 139.041 100.297 139.095 100.297 139.119H93.2228V137.895H99.1628L98.5868 138.723C98.6228 138.663 98.6588 138.573 98.6948 138.453C98.7308 138.321 98.7488 138.213 98.7488 138.129C98.7488 137.637 98.6468 137.211 98.4428 136.851C98.2508 136.491 97.9808 136.209 97.6328 136.005C97.2848 135.801 96.8768 135.699 96.4088 135.699C95.8568 135.699 95.3828 135.819 94.9868 136.059C94.6028 136.287 94.3028 136.623 94.0868 137.067C93.8828 137.499 93.7748 138.033 93.7628 138.669C93.7628 139.317 93.8648 139.869 94.0688 140.325C94.2728 140.781 94.5728 141.129 94.9688 141.369C95.3648 141.609 95.8448 141.729 96.4088 141.729C96.9728 141.729 97.4708 141.609 97.9028 141.369C98.3348 141.117 98.7008 140.739 99.0008 140.235L100.171 140.973C99.7388 141.669 99.1928 142.197 98.5328 142.557C97.8848 142.905 97.1168 143.079 96.2288 143.079ZM108.675 136.599C108.675 137.571 108.891 138.429 109.323 139.173C109.767 139.917 110.343 140.499 111.051 140.919C111.759 141.339 112.527 141.549 113.355 141.549C113.955 141.549 114.501 141.471 114.993 141.315C115.497 141.159 115.953 140.943 116.361 140.667C116.769 140.379 117.117 140.049 117.405 139.677V141.693C116.877 142.161 116.301 142.509 115.677 142.737C115.053 142.965 114.279 143.079 113.355 143.079C112.479 143.079 111.657 142.923 110.889 142.611C110.133 142.287 109.467 141.837 108.891 141.261C108.315 140.673 107.865 139.983 107.541 139.191C107.217 138.399 107.055 137.535 107.055 136.599C107.055 135.663 107.217 134.799 107.541 134.007C107.865 133.215 108.315 132.531 108.891 131.955C109.467 131.367 110.133 130.917 110.889 130.605C111.657 130.281 112.479 130.119 113.355 130.119C114.279 130.119 115.053 130.233 115.677 130.461C116.301 130.689 116.877 131.037 117.405 131.505V133.521C117.117 133.149 116.769 132.825 116.361 132.549C115.953 132.261 115.497 132.039 114.993 131.883C114.501 131.727 113.955 131.649 113.355 131.649C112.527 131.649 111.759 131.859 111.051 132.279C110.343 132.699 109.767 133.281 109.323 134.025C108.891 134.757 108.675 135.615 108.675 136.599ZM120.007 128.859H121.447V142.899H120.007V128.859ZM123.436 138.759C123.436 137.919 123.622 137.175 123.994 136.527C124.378 135.879 124.894 135.369 125.542 134.997C126.19 134.625 126.916 134.439 127.72 134.439C128.536 134.439 129.262 134.625 129.898 134.997C130.546 135.369 131.056 135.879 131.428 136.527C131.812 137.175 132.004 137.919 132.004 138.759C132.004 139.587 131.812 140.331 131.428 140.991C131.056 141.639 130.546 142.149 129.898 142.521C129.262 142.893 128.536 143.079 127.72 143.079C126.916 143.079 126.19 142.893 125.542 142.521C124.894 142.149 124.378 141.639 123.994 140.991C123.622 140.331 123.436 139.587 123.436 138.759ZM124.894 138.759C124.894 139.335 125.014 139.845 125.254 140.289C125.506 140.733 125.842 141.087 126.262 141.351C126.694 141.603 127.18 141.729 127.72 141.729C128.26 141.729 128.74 141.603 129.16 141.351C129.592 141.087 129.928 140.733 130.168 140.289C130.42 139.845 130.546 139.335 130.546 138.759C130.546 138.183 130.42 137.673 130.168 137.229C129.928 136.773 129.592 136.419 129.16 136.167C128.74 135.915 128.26 135.789 127.72 135.789C127.18 135.789 126.694 135.915 126.262 136.167C125.842 136.419 125.506 136.773 125.254 137.229C125.014 137.673 124.894 138.183 124.894 138.759ZM135.422 139.659C135.422 140.319 135.572 140.829 135.872 141.189C136.172 141.549 136.61 141.729 137.186 141.729C137.606 141.729 137.972 141.645 138.284 141.477C138.608 141.297 138.854 141.051 139.022 140.739C139.202 140.427 139.292 140.067 139.292 139.659V134.619H140.732V142.899H139.292V141.603C139.016 142.095 138.674 142.467 138.266 142.719C137.858 142.959 137.378 143.079 136.826 143.079C135.962 143.079 135.272 142.785 134.756 142.197C134.24 141.609 133.982 140.823 133.982 139.839V134.619H135.422V139.659ZM149.649 128.859H151.089V142.899H149.649V128.859ZM142.719 138.759C142.719 137.859 142.905 137.091 143.277 136.455C143.649 135.807 144.147 135.309 144.771 134.961C145.395 134.613 146.079 134.439 146.823 134.439C147.519 134.439 148.125 134.613 148.641 134.961C149.157 135.309 149.559 135.807 149.847 136.455C150.147 137.091 150.297 137.859 150.297 138.759C150.297 139.647 150.147 140.415 149.847 141.063C149.559 141.711 149.157 142.209 148.641 142.557C148.125 142.905 147.519 143.079 146.823 143.079C146.079 143.079 145.395 142.905 144.771 142.557C144.147 142.209 143.649 141.711 143.277 141.063C142.905 140.415 142.719 139.647 142.719 138.759ZM144.177 138.759C144.177 139.395 144.303 139.935 144.555 140.379C144.819 140.823 145.167 141.159 145.599 141.387C146.031 141.615 146.499 141.729 147.003 141.729C147.423 141.729 147.837 141.615 148.245 141.387C148.653 141.159 148.989 140.823 149.253 140.379C149.517 139.935 149.649 139.395 149.649 138.759C149.649 138.123 149.517 137.583 149.253 137.139C148.989 136.695 148.653 136.359 148.245 136.131C147.837 135.903 147.423 135.789 147.003 135.789C146.499 135.789 146.031 135.903 145.599 136.131C145.167 136.359 144.819 136.695 144.555 137.139C144.303 137.583 144.177 138.123 144.177 138.759Z" fill="#424254"/>
<g clip-path="url(#clip0_3345_2218)">
<path d="M108.31 67.5228H110.585L117.066 61.0412L117.385 58.291C105.325 47.6467 86.9147 48.7937 76.2704 60.8537C73.3109 64.2038 71.1639 68.1884 69.9951 72.5011C70.717 72.2043 71.5171 72.1574 72.2702 72.3636L85.2303 70.226C85.2303 70.226 85.8897 69.1353 86.2303 69.2041C91.9963 62.8725 101.7 62.135 108.356 67.5228H108.31Z" fill="#EA4335"/>
<path d="M126.297 72.5012C124.807 67.0166 121.75 62.0851 117.497 58.313L108.403 67.4072C112.244 70.5449 114.431 75.2732 114.337 80.2329V81.8486C118.81 81.8486 122.432 85.4738 122.432 89.9428C122.432 94.4149 118.806 98.0369 114.337 98.0369H98.146L96.5303 99.6745V109.384L98.146 111H114.337C123.619 111.072 131.854 105.056 134.61 96.1931C137.361 87.327 133.985 77.7015 126.297 72.5012Z" fill="#4285F4"/>
<path d="M81.9329 110.909H98.1244V97.9494H81.9329C80.7797 97.9494 79.639 97.7025 78.589 97.2212L76.3138 97.9244L69.7885 104.406L69.2197 106.681C72.8793 109.444 77.3451 110.928 81.9329 110.909Z" fill="#34A853"/>
<path d="M81.9328 68.8634C72.9386 68.9165 64.9725 74.6762 62.1036 83.1985C59.2347 91.7208 62.0943 101.128 69.2228 106.609L78.6139 97.218C74.5387 95.3773 72.7292 90.5833 74.5699 86.5081C76.4106 82.4329 81.2046 80.6234 85.2798 82.4641C87.0737 83.2766 88.5113 84.7142 89.3238 86.5081L98.7149 77.117C94.7178 71.8948 88.5081 68.8415 81.9328 68.8634Z" fill="#FBBC05"/>
</g>
<defs>
<filter id="filter0_d_3345_2218" x="5.63281" y="3.08716" width="185.74" height="199.624" filterUnits="userSpaceOnUse" color-interpolation-filters="sRGB">
<feFlood flood-opacity="0" result="BackgroundImageFix"/>
<feColorMatrix in="SourceAlpha" type="matrix" values="0 0 0 0 0 0 0 0 0 0 0 0 0 0 0 0 0 0 127 0" result="hardAlpha"/>
<feOffset dy="4"/>
<feGaussianBlur stdDeviation="4"/>
<feColorMatrix type="matrix" values="0 0 0 0 0.0627451 0 0 0 0 0.0941176 0 0 0 0 0.156863 0 0 0 0.04 0"/>
<feBlend mode="normal" in2="BackgroundImageFix" result="effect1_dropShadow_3345_2218"/>
<feBlend mode="normal" in="SourceGraphic" in2="effect1_dropShadow_3345_2218" result="shape"/>
</filter>
<clipPath id="clip0_3345_2218">
<rect width="74.557" height="60" fill="white" transform="translate(61 51)"/>
</clipPath>
</defs>
</svg>
