<svg width="196" height="202" viewBox="0 0 196 202" fill="none" xmlns="http://www.w3.org/2000/svg">
<g filter="url(#filter0_d_655_6652)">
<path d="M78 12.1915C90.376 5.04623 105.624 5.04623 118 12.1915L162.87 38.0975C175.247 45.2428 182.87 58.4479 182.87 72.7385V124.551C182.87 138.841 175.247 152.046 162.87 159.192L118 185.098C105.624 192.243 90.376 192.243 78 185.098L33.1295 159.192C20.7535 152.046 13.1295 138.841 13.1295 124.551V72.7385C13.1295 58.4479 20.7535 45.2428 33.1295 38.0975L78 12.1915Z" fill="white"/>
</g>
<path d="M72.6431 130.045V142.645H79.1231V141.205H74.1731V130.045H72.6431ZM81.3046 140.089C81.3046 139.789 81.3766 139.531 81.5206 139.315C81.6646 139.099 81.8806 138.931 82.1686 138.811C82.4686 138.691 82.8526 138.631 83.3206 138.631C83.8246 138.631 84.2986 138.697 84.7426 138.829C85.1866 138.949 85.6186 139.153 86.0386 139.441V138.595C85.9546 138.487 85.7926 138.349 85.5526 138.181C85.3126 138.001 84.9886 137.845 84.5806 137.713C84.1846 137.569 83.6866 137.497 83.0866 137.497C82.0666 137.497 81.2686 137.743 80.6926 138.235C80.1286 138.715 79.8466 139.357 79.8466 140.161C79.8466 140.725 79.9786 141.205 80.2426 141.601C80.5066 141.997 80.8546 142.303 81.2866 142.519C81.7306 142.723 82.2046 142.825 82.7086 142.825C83.1646 142.825 83.6206 142.741 84.0766 142.573C84.5446 142.405 84.9346 142.147 85.2466 141.799C85.5706 141.451 85.7326 141.013 85.7326 140.485L85.4446 139.405C85.4446 139.837 85.3366 140.221 85.1206 140.557C84.9166 140.881 84.6346 141.133 84.2746 141.313C83.9266 141.493 83.5306 141.583 83.0866 141.583C82.7386 141.583 82.4266 141.529 82.1506 141.421C81.8866 141.301 81.6766 141.127 81.5206 140.899C81.3766 140.671 81.3046 140.401 81.3046 140.089ZM81.0886 136.273C81.2206 136.177 81.4006 136.063 81.6286 135.931C81.8566 135.799 82.1326 135.685 82.4566 135.589C82.7926 135.493 83.1646 135.445 83.5726 135.445C83.8246 135.445 84.0646 135.469 84.2926 135.517C84.5206 135.565 84.7186 135.643 84.8866 135.751C85.0666 135.859 85.2046 136.009 85.3006 136.201C85.3966 136.381 85.4446 136.615 85.4446 136.903V142.645H86.8846V136.705C86.8846 136.165 86.7466 135.709 86.4706 135.337C86.2066 134.965 85.8286 134.683 85.3366 134.491C84.8566 134.287 84.2926 134.185 83.6446 134.185C82.8766 134.185 82.2166 134.299 81.6646 134.527C81.1246 134.755 80.6986 134.983 80.3866 135.211L81.0886 136.273ZM90.7627 134.365H89.3227V142.645H90.7627V134.365ZM93.2647 135.949L94.0567 134.761C93.8407 134.533 93.6007 134.383 93.3367 134.311C93.0847 134.227 92.8087 134.185 92.5087 134.185C92.1247 134.185 91.7467 134.335 91.3747 134.635C91.0027 134.935 90.6967 135.343 90.4567 135.859C90.2287 136.363 90.1147 136.945 90.1147 137.605H90.7627C90.7627 137.209 90.7987 136.855 90.8707 136.543C90.9547 136.231 91.0987 135.985 91.3027 135.805C91.5067 135.625 91.7887 135.535 92.1487 135.535C92.3887 135.535 92.5867 135.571 92.7427 135.643C92.8987 135.703 93.0727 135.805 93.2647 135.949ZM96.1406 140.089C96.1406 139.789 96.2126 139.531 96.3566 139.315C96.5006 139.099 96.7166 138.931 97.0046 138.811C97.3046 138.691 97.6886 138.631 98.1566 138.631C98.6606 138.631 99.1346 138.697 99.5786 138.829C100.023 138.949 100.455 139.153 100.875 139.441V138.595C100.791 138.487 100.629 138.349 100.389 138.181C100.149 138.001 99.8246 137.845 99.4166 137.713C99.0206 137.569 98.5226 137.497 97.9226 137.497C96.9026 137.497 96.1046 137.743 95.5286 138.235C94.9646 138.715 94.6826 139.357 94.6826 140.161C94.6826 140.725 94.8146 141.205 95.0786 141.601C95.3426 141.997 95.6906 142.303 96.1226 142.519C96.5666 142.723 97.0406 142.825 97.5446 142.825C98.0006 142.825 98.4566 142.741 98.9126 142.573C99.3806 142.405 99.7706 142.147 100.083 141.799C100.407 141.451 100.569 141.013 100.569 140.485L100.281 139.405C100.281 139.837 100.173 140.221 99.9566 140.557C99.7526 140.881 99.4706 141.133 99.1106 141.313C98.7626 141.493 98.3666 141.583 97.9226 141.583C97.5746 141.583 97.2626 141.529 96.9866 141.421C96.7226 141.301 96.5126 141.127 96.3566 140.899C96.2126 140.671 96.1406 140.401 96.1406 140.089ZM95.9246 136.273C96.0566 136.177 96.2366 136.063 96.4646 135.931C96.6926 135.799 96.9686 135.685 97.2926 135.589C97.6286 135.493 98.0006 135.445 98.4086 135.445C98.6606 135.445 98.9006 135.469 99.1286 135.517C99.3566 135.565 99.5546 135.643 99.7226 135.751C99.9026 135.859 100.041 136.009 100.137 136.201C100.233 136.381 100.281 136.615 100.281 136.903V142.645H101.721V136.705C101.721 136.165 101.583 135.709 101.307 135.337C101.043 134.965 100.665 134.683 100.173 134.491C99.6926 134.287 99.1286 134.185 98.4806 134.185C97.7126 134.185 97.0526 134.299 96.5006 134.527C95.9606 134.755 95.5346 134.983 95.2226 135.211L95.9246 136.273ZM102.721 134.365L106.681 143.275L110.641 134.365H109.021L106.681 140.215L104.341 134.365H102.721ZM114.939 142.825C115.827 142.825 116.595 142.651 117.243 142.303C117.903 141.943 118.449 141.415 118.881 140.719L117.711 139.981C117.411 140.485 117.045 140.863 116.613 141.115C116.181 141.355 115.683 141.475 115.119 141.475C114.555 141.475 114.075 141.355 113.679 141.115C113.283 140.875 112.983 140.527 112.779 140.071C112.575 139.615 112.473 139.063 112.473 138.415C112.485 137.779 112.593 137.245 112.797 136.813C113.013 136.369 113.313 136.033 113.697 135.805C114.093 135.565 114.567 135.445 115.119 135.445C115.587 135.445 115.995 135.547 116.343 135.751C116.691 135.955 116.961 136.237 117.153 136.597C117.357 136.957 117.459 137.383 117.459 137.875C117.459 137.959 117.441 138.067 117.405 138.199C117.369 138.319 117.333 138.409 117.297 138.469L117.873 137.641H111.933V138.865H119.007C119.007 138.841 119.007 138.787 119.007 138.703C119.019 138.607 119.025 138.517 119.025 138.433C119.025 137.557 118.869 136.801 118.557 136.165C118.245 135.529 117.795 135.043 117.207 134.707C116.631 134.359 115.935 134.185 115.119 134.185C114.303 134.185 113.583 134.365 112.959 134.725C112.347 135.085 111.867 135.589 111.519 136.237C111.183 136.885 111.015 137.641 111.015 138.505C111.015 139.357 111.177 140.107 111.501 140.755C111.837 141.403 112.299 141.913 112.887 142.285C113.487 142.645 114.171 142.825 114.939 142.825ZM120.998 128.605V142.645H122.438V128.605H120.998Z" fill="#424254"/>
<g clip-path="url(#clip0_655_6652)">
<path fill-rule="evenodd" clip-rule="evenodd" d="M127.107 64.2196C127.119 64.3016 127.119 64.385 127.107 64.4671V77.3446C127.108 77.5093 127.064 77.6711 126.981 77.8135C126.898 77.9558 126.778 78.0735 126.635 78.1546L115.857 84.3946V96.7171C115.859 96.8812 115.817 97.0429 115.735 97.1852C115.653 97.3276 115.535 97.4456 115.392 97.5271L92.825 110.517C92.7734 110.547 92.7179 110.57 92.66 110.585H92.6C92.4422 110.622 92.2778 110.622 92.12 110.585H92.045C91.9912 110.565 91.9386 110.543 91.8875 110.517L69.3275 97.5271C69.184 97.446 69.0647 97.3283 68.9817 97.186C68.8986 97.0436 68.8549 96.8818 68.855 96.7171V58.0771C68.8564 57.9933 68.8691 57.91 68.8925 57.8296C68.8937 57.8046 68.8937 57.7795 68.8925 57.7545C68.8925 57.7021 68.93 57.6571 68.9525 57.6121L69.02 57.5221C69.0509 57.4742 69.0888 57.4312 69.1325 57.3946L69.2225 57.3196L69.3275 57.2446L80.5775 50.7496C80.7192 50.665 80.8812 50.6204 81.0462 50.6204C81.2113 50.6204 81.3732 50.665 81.515 50.7496L92.765 57.2446L92.87 57.3196L92.96 57.3946C92.9893 57.4281 93.0168 57.4631 93.0425 57.4996C93.0667 57.5265 93.0869 57.5568 93.1025 57.5896C93.1294 57.6348 93.152 57.6825 93.17 57.7321V57.8146C93.1815 57.8941 93.1815 57.975 93.17 58.0546V82.2121L102.575 76.7971V64.4596C102.563 64.38 102.563 64.2991 102.575 64.2196V64.1371C102.594 64.0881 102.617 64.0405 102.642 63.9946C102.658 63.9641 102.678 63.9363 102.702 63.9121C102.702 63.8746 102.755 63.8296 102.785 63.7996L102.875 63.7321L102.98 63.6496L114.23 57.1546C114.373 57.0737 114.534 57.0312 114.699 57.0312C114.863 57.0312 115.024 57.0737 115.167 57.1546L126.417 63.6496L126.522 63.7321C126.554 63.7521 126.584 63.7747 126.612 63.7996C126.612 63.7996 126.665 63.8746 126.695 63.9121L126.762 63.9946C126.762 64.0396 126.762 64.0921 126.822 64.1371C126.882 64.1821 127.1 64.1896 127.107 64.2196ZM125.262 76.7971V66.0871L121.317 68.3371L115.857 71.4796V82.2121L125.262 76.7971ZM114.012 96.1696V85.452L108.62 88.5196L93.2975 97.2645V108.08L114.012 96.1696ZM70.7375 59.7046V96.1696L91.415 108.08V97.2645L80.615 91.1446L80.51 91.0696C80.51 91.0696 80.45 91.0246 80.4275 90.9946C80.4002 90.9639 80.3751 90.9313 80.3525 90.897C80.3276 90.8689 80.305 90.8388 80.285 90.8071L80.24 90.6946C80.2218 90.6584 80.2067 90.6208 80.195 90.5821C80.1914 90.5371 80.1914 90.492 80.195 90.4471V65.1196L74.6825 61.9771L70.7375 59.7271V59.7046ZM81.08 52.6696L71.6825 58.0771L81.08 63.4921L90.5 58.0771L81.08 52.6696ZM85.97 86.4196L91.4225 83.2771V59.7046L87.47 61.9546L82.0175 65.1196V88.7071L85.97 86.4196ZM114.92 59.0371L105.5 64.4671L114.897 69.8745L124.295 64.4596L114.92 59.0371ZM113.982 71.4871L108.5 68.3596L104.547 66.1096V76.7971L110 79.9396L113.952 82.1896L113.982 71.4871ZM92.36 95.6446L106.145 87.7696L113 83.8321L103.64 78.3946L92.8325 84.6196L83 90.327L92.36 95.6446Z" fill="#FF2D20"/>
</g>
<defs>
<filter id="filter0_d_655_6652" x="5.12939" y="2.83258" width="185.741" height="199.624" filterUnits="userSpaceOnUse" color-interpolation-filters="sRGB">
<feFlood flood-opacity="0" result="BackgroundImageFix"/>
<feColorMatrix in="SourceAlpha" type="matrix" values="0 0 0 0 0 0 0 0 0 0 0 0 0 0 0 0 0 0 127 0" result="hardAlpha"/>
<feOffset dy="4"/>
<feGaussianBlur stdDeviation="4"/>
<feColorMatrix type="matrix" values="0 0 0 0 0.0627451 0 0 0 0 0.0941176 0 0 0 0 0.156863 0 0 0 0.04 0"/>
<feBlend mode="normal" in2="BackgroundImageFix" result="effect1_dropShadow_655_6652"/>
<feBlend mode="normal" in="SourceGraphic" in2="effect1_dropShadow_655_6652" result="shape"/>
</filter>
<clipPath id="clip0_655_6652">
<rect width="60" height="60" fill="white" transform="translate(68 50.6445)"/>
</clipPath>
</defs>
</svg>
