<svg width="161" height="26" viewBox="0 0 161 26" fill="none" xmlns="http://www.w3.org/2000/svg">
<path d="M17.1184 11.9163C17.1184 13.7722 16.7666 15.3511 16.0631 16.6529C15.365 17.9548 14.4122 18.9492 13.2045 19.6362C12.0023 20.3176 10.6505 20.6583 9.14922 20.6583C7.63681 20.6583 6.27953 20.3148 5.07736 19.6279C3.87519 18.9409 2.92509 17.9465 2.22706 16.6446C1.52902 15.3427 1.18001 13.7666 1.18001 11.9163C1.18001 10.0604 1.52902 8.48152 2.22706 7.17964C2.92509 5.87775 3.87519 4.8861 5.07736 4.20469C6.27953 3.51773 7.63681 3.17426 9.14922 3.17426C10.6505 3.17426 12.0023 3.51773 13.2045 4.20469C14.4122 4.8861 15.365 5.87775 16.0631 7.17964C16.7666 8.48152 17.1184 10.0604 17.1184 11.9163ZM13.4704 11.9163C13.4704 10.7141 13.2903 9.70031 12.9302 8.87486C12.5757 8.04941 12.0743 7.4234 11.4261 6.99682C10.778 6.57024 10.019 6.35696 9.14922 6.35696C8.27945 6.35696 7.52047 6.57024 6.8723 6.99682C6.22413 7.4234 5.71999 8.04941 5.3599 8.87486C5.00534 9.70031 4.82806 10.7141 4.82806 11.9163C4.82806 13.1185 5.00534 14.1323 5.3599 14.9577C5.71999 15.7832 6.22413 16.4092 6.8723 16.8358C7.52047 17.2623 8.27945 17.4756 9.14922 17.4756C10.019 17.4756 10.778 17.2623 11.4261 16.8358C12.0743 16.4092 12.5757 15.7832 12.9302 14.9577C13.2903 14.1323 13.4704 13.1185 13.4704 11.9163ZM19.7174 25.2122V7.66161H23.2075V9.80557H23.3654C23.5205 9.46209 23.7449 9.11308 24.0385 8.75852C24.3377 8.39842 24.7255 8.09927 25.2019 7.86105C25.6839 7.61729 26.2822 7.49541 26.9968 7.49541C27.9276 7.49541 28.7862 7.73917 29.5729 8.22669C30.3596 8.70866 30.9884 9.43716 31.4593 10.4122C31.9302 11.3817 32.1656 12.5977 32.1656 14.0602C32.1656 15.484 31.9357 16.6862 31.4759 17.6668C31.0216 18.6418 30.4011 19.3814 29.6145 19.8855C28.8333 20.3841 27.958 20.6334 26.9885 20.6334C26.3016 20.6334 25.7171 20.5198 25.2351 20.2927C24.7587 20.0655 24.3681 19.7802 24.0634 19.4368C23.7587 19.0877 23.5261 18.736 23.3654 18.3814H23.2574V25.2122H19.7174ZM23.1826 14.0436C23.1826 14.8026 23.2878 15.4646 23.4984 16.0297C23.7089 16.5948 24.0136 17.0352 24.4125 17.351C24.8113 17.6612 25.2961 17.8163 25.8667 17.8163C26.4428 17.8163 26.9304 17.6584 27.3292 17.3427C27.7281 17.0213 28.03 16.5782 28.235 16.0131C28.4455 15.4425 28.5508 14.786 28.5508 14.0436C28.5508 13.3068 28.4483 12.6586 28.2433 12.0991C28.0384 11.5396 27.7364 11.1019 27.3375 10.7861C26.9387 10.4704 26.4484 10.3125 25.8667 10.3125C25.2905 10.3125 24.803 10.4648 24.4041 10.7695C24.0108 11.0742 23.7089 11.5063 23.4984 12.0659C23.2878 12.6254 23.1826 13.2847 23.1826 14.0436ZM40.3426 20.6749C39.0296 20.6749 37.8994 20.409 36.9521 19.8772C36.0103 19.3398 35.2846 18.5808 34.7749 17.6003C34.2652 16.6142 34.0104 15.448 34.0104 14.1018C34.0104 12.7888 34.2652 11.6365 34.7749 10.6449C35.2846 9.65322 36.002 8.8804 36.9272 8.3264C37.8579 7.77241 38.9493 7.49541 40.2013 7.49541C41.0434 7.49541 41.8273 7.63114 42.553 7.9026C43.2843 8.16852 43.9214 8.57016 44.4643 9.10754C45.0127 9.64491 45.4393 10.3208 45.744 11.1352C46.0487 11.944 46.2011 12.8913 46.2011 13.9771V14.9494H35.4231V12.7556H42.8688C42.8688 12.2459 42.758 11.7944 42.5364 11.4011C42.3148 11.0077 42.0073 10.7003 41.614 10.4787C41.2262 10.2515 40.7747 10.138 40.2595 10.138C39.7221 10.138 39.2457 10.2626 38.8302 10.5119C38.4202 10.7557 38.0989 11.0853 37.8662 11.5008C37.6335 11.9107 37.5144 12.3678 37.5089 12.8719V14.9577C37.5089 15.5893 37.6252 16.135 37.8579 16.5948C38.0961 17.0546 38.4313 17.4091 38.8634 17.6584C39.2955 17.9077 39.808 18.0324 40.4007 18.0324C40.7941 18.0324 41.1542 17.977 41.481 17.8662C41.8079 17.7554 42.0876 17.5892 42.3203 17.3676C42.553 17.146 42.7303 16.8745 42.8522 16.5532L46.1263 16.7693C45.9601 17.556 45.6194 18.2429 45.1041 18.8301C44.5945 19.4118 43.9352 19.8661 43.1264 20.193C42.3231 20.5143 41.3952 20.6749 40.3426 20.6749ZM52.0512 13.0464V20.4256H48.5112V7.66161H51.885V9.9136H52.0346C52.3172 9.17125 52.7908 8.58401 53.4556 8.1519C54.1204 7.71424 54.9265 7.49541 55.8738 7.49541C56.7602 7.49541 57.533 7.68931 58.1923 8.07711C58.8515 8.4649 59.364 9.0189 59.7296 9.73909C60.0952 10.4537 60.2781 11.3069 60.2781 12.2985V20.4256H56.738V12.9301C56.7436 12.149 56.5441 11.5396 56.1397 11.1019C55.7353 10.6587 55.1785 10.4371 54.4694 10.4371C53.993 10.4371 53.572 10.5396 53.2063 10.7446C52.8462 10.9496 52.5637 11.2487 52.3587 11.6421C52.1593 12.0299 52.0568 12.498 52.0512 13.0464Z" fill="#2F80ED"/>
<path d="M73.0234 7.66161C72.9237 6.81954 72.5193 6.16583 71.8101 5.70047C71.101 5.23512 70.2313 5.00244 69.2008 5.00244C68.4474 5.00244 67.7881 5.12432 67.2231 5.36807C66.6635 5.61183 66.2259 5.947 65.9101 6.37357C65.5999 6.80015 65.4447 7.2849 65.4447 7.82781C65.4447 8.28209 65.5528 8.67265 65.7688 8.99951C65.9904 9.32083 66.273 9.58951 66.6164 9.80557C66.9599 10.0161 67.32 10.1906 67.6967 10.3291C68.0735 10.4621 68.4197 10.5701 68.7355 10.6532L70.4639 11.1185C70.9071 11.2349 71.4002 11.3955 71.9431 11.6005C72.4916 11.8055 73.0151 12.0853 73.5137 12.4398C74.0178 12.7888 74.4333 13.2376 74.7602 13.786C75.087 14.3345 75.2504 15.0076 75.2504 15.8053C75.2504 16.725 75.0095 17.556 74.5275 18.2983C74.0511 19.0407 73.353 19.6307 72.4334 20.0683C71.5193 20.506 70.4085 20.7248 69.1011 20.7248C67.8823 20.7248 66.827 20.5281 65.935 20.1348C65.0486 19.7415 64.3506 19.193 63.8409 18.4894C63.3368 17.7859 63.0515 16.9687 62.985 16.038H65.1124C65.1678 16.6806 65.3838 17.2125 65.7605 17.6335C66.1428 18.049 66.6248 18.3592 67.2065 18.5642C67.7937 18.7637 68.4252 18.8634 69.1011 18.8634C69.8878 18.8634 70.5941 18.736 71.2201 18.4811C71.8462 18.2207 72.342 17.8606 72.7076 17.4008C73.0733 16.9355 73.2561 16.3926 73.2561 15.7721C73.2561 15.207 73.0982 14.7472 72.7824 14.3926C72.4666 14.0381 72.0511 13.75 71.5359 13.5284C71.0207 13.3068 70.4639 13.1129 69.8656 12.9467L67.7715 12.3484C66.4419 11.9661 65.3893 11.4205 64.6138 10.7114C63.8382 10.0022 63.4504 9.0743 63.4504 7.92753C63.4504 6.97466 63.708 6.14367 64.2232 5.43455C64.7439 4.7199 65.442 4.16591 66.3173 3.77257C67.1981 3.3737 68.1815 3.17426 69.2673 3.17426C70.3642 3.17426 71.3392 3.37092 72.1924 3.76426C73.0456 4.15206 73.7214 4.68389 74.22 5.35976C74.7242 6.03564 74.9901 6.80292 75.0178 7.66161H73.0234ZM98.0196 7.66161V9.3236H91.139V7.66161H98.0196ZM93.1999 20.4256V5.89991C93.1999 5.16864 93.3716 4.55924 93.7151 4.07173C94.0586 3.58421 94.5045 3.21858 95.053 2.97482C95.6014 2.73106 96.1804 2.60918 96.7898 2.60918C97.2717 2.60918 97.6651 2.64796 97.9698 2.72552C98.2745 2.80308 98.5016 2.8751 98.6512 2.94158L98.0861 4.6368C97.9864 4.60356 97.8479 4.56201 97.6706 4.51215C97.4989 4.46229 97.2717 4.43736 96.9892 4.43736C96.341 4.43736 95.8729 4.60079 95.5848 4.92765C95.3023 5.25451 95.161 5.73371 95.161 6.36526V20.4256H93.1999ZM106.319 7.66161V9.3236H99.7045V7.66161H106.319ZM101.632 4.60356H103.593V16.7693C103.593 17.3233 103.674 17.7388 103.834 18.0158C104.001 18.2872 104.211 18.47 104.466 18.5642C104.726 18.6529 105.001 18.6972 105.289 18.6972C105.505 18.6972 105.682 18.6861 105.821 18.6639C105.959 18.6362 106.07 18.6141 106.153 18.5975L106.552 20.3592C106.419 20.409 106.233 20.4589 105.995 20.5087C105.757 20.5641 105.455 20.5918 105.089 20.5918C104.535 20.5918 103.992 20.4727 103.461 20.2345C102.934 19.9963 102.497 19.6334 102.148 19.1459C101.804 18.6584 101.632 18.0435 101.632 17.3011V4.60356ZM107.805 5.23512V3.40693H120.569V5.23512H115.217V20.4256H113.156V5.23512H107.805ZM126.984 20.6916C125.754 20.6916 124.693 20.4201 123.801 19.8772C122.915 19.3287 122.231 18.5642 121.749 17.5837C121.272 16.5975 121.034 15.4508 121.034 14.1433C121.034 12.8359 121.272 11.6836 121.749 10.6864C122.231 9.68369 122.901 8.90256 123.76 8.34303C124.624 7.77795 125.632 7.49541 126.784 7.49541C127.449 7.49541 128.106 7.60621 128.754 7.82781C129.402 8.04941 129.992 8.4095 130.524 8.9081C131.056 9.40115 131.479 10.0549 131.795 10.8692C132.111 11.6836 132.269 12.6863 132.269 13.8774V14.7084H122.43V13.0132H130.275C130.275 12.293 130.131 11.6504 129.842 11.0853C129.56 10.5202 129.155 10.0743 128.629 9.7474C128.108 9.42054 127.494 9.25712 126.784 9.25712C126.003 9.25712 125.327 9.45101 124.757 9.83881C124.192 10.2211 123.757 10.7197 123.452 11.3346C123.147 11.9495 122.995 12.6088 122.995 13.3124V14.4425C122.995 15.4065 123.161 16.2236 123.494 16.8939C123.832 17.5587 124.3 18.0656 124.898 18.4146C125.496 18.7581 126.192 18.9299 126.984 18.9299C127.499 18.9299 127.964 18.8578 128.38 18.7138C128.801 18.5642 129.164 18.3426 129.468 18.049C129.773 17.7499 130.009 17.3787 130.175 16.9355L132.07 17.4673C131.87 18.1099 131.535 18.675 131.064 19.1625C130.593 19.6445 130.011 20.0212 129.319 20.2927C128.626 20.5586 127.848 20.6916 126.984 20.6916ZM140.438 20.6916C139.241 20.6916 138.211 20.409 137.346 19.8439C136.482 19.2789 135.817 18.5005 135.352 17.5089C134.887 16.5172 134.654 15.3843 134.654 14.1101C134.654 12.8138 134.892 11.6698 135.369 10.6781C135.851 9.68092 136.521 8.90256 137.38 8.34303C138.244 7.77795 139.252 7.49541 140.404 7.49541C141.302 7.49541 142.111 7.66161 142.831 7.99401C143.551 8.32641 144.141 8.79176 144.601 9.39007C145.061 9.98839 145.346 10.6864 145.457 11.4842H143.496C143.346 10.9025 143.014 10.3873 142.498 9.93853C141.989 9.48425 141.302 9.25712 140.438 9.25712C139.673 9.25712 139.003 9.45655 138.427 9.85543C137.856 10.2488 137.41 10.8055 137.089 11.5257C136.773 12.2404 136.615 13.0797 136.615 14.0436C136.615 15.0297 136.77 15.8884 137.08 16.6197C137.396 17.351 137.839 17.9188 138.41 18.3232C138.986 18.7277 139.662 18.9299 140.438 18.9299C140.947 18.9299 141.41 18.8412 141.825 18.6639C142.241 18.4867 142.593 18.2318 142.881 17.8994C143.169 17.567 143.374 17.1682 143.496 16.7028H145.457C145.346 17.4562 145.072 18.1349 144.634 18.7387C144.202 19.337 143.629 19.8135 142.914 20.168C142.205 20.5171 141.379 20.6916 140.438 20.6916ZM150.285 12.7473V20.4256H148.324V3.40693H150.285V9.65599H150.451C150.75 8.99674 151.199 8.47321 151.797 8.08542C152.401 7.69208 153.204 7.49541 154.207 7.49541C155.077 7.49541 155.839 7.66992 156.492 8.01894C157.146 8.36241 157.653 8.89148 158.013 9.60613C158.379 10.3152 158.562 11.2183 158.562 12.3152V20.4256H156.6V12.4481C156.6 11.4343 156.337 10.6504 155.811 10.0964C155.29 9.53688 154.567 9.25712 153.642 9.25712C152.999 9.25712 152.423 9.39284 151.914 9.6643C151.409 9.93576 151.011 10.3319 150.717 10.8526C150.429 11.3734 150.285 12.0049 150.285 12.7473Z" fill="#FB8614"/>
<path d="M83.5583 20.6916C82.406 20.6916 81.3949 20.4173 80.5252 19.8689C79.6609 19.3204 78.9851 18.5531 78.4975 17.567C78.0156 16.5809 77.7746 15.4286 77.7746 14.1101C77.7746 12.7805 78.0156 11.6199 78.4975 10.6283C78.9851 9.6366 79.6609 8.86655 80.5252 8.3181C81.3949 7.76964 82.406 7.49541 83.5583 7.49541C84.7106 7.49541 85.7189 7.76964 86.5831 8.3181C87.4529 8.86655 88.1287 9.6366 88.6107 10.6283C89.0982 11.6199 89.342 12.7805 89.342 14.1101C89.342 15.4286 89.0982 16.5809 88.6107 17.567C88.1287 18.5531 87.4529 19.3204 86.5831 19.8689C85.7189 20.4173 84.7106 20.6916 83.5583 20.6916ZM83.5583 18.9299C84.4336 18.9299 85.1538 18.7055 85.7189 18.2568C86.2839 17.808 86.7022 17.218 86.9737 16.4867C87.2451 15.7555 87.3808 14.9633 87.3808 14.1101C87.3808 13.257 87.2451 12.462 86.9737 11.7252C86.7022 10.9883 86.2839 10.3928 85.7189 9.93853C85.1538 9.48425 84.4336 9.25712 83.5583 9.25712C82.683 9.25712 81.9628 9.48425 81.3977 9.93853C80.8326 10.3928 80.4144 10.9883 80.1429 11.7252C79.8715 12.462 79.7357 13.257 79.7357 14.1101C79.7357 14.9633 79.8715 15.7555 80.1429 16.4867C80.4144 17.218 80.8326 17.808 81.3977 18.2568C81.9628 18.7055 82.683 18.9299 83.5583 18.9299Z" fill="white"/>
<path d="M90.1329 14.3198C90.1329 17.9547 87.1863 20.9013 83.5514 20.9013C79.9166 20.9013 76.97 17.9547 76.97 14.3198C76.97 10.685 79.9166 7.73837 83.5514 7.73837C87.1863 7.73837 90.1329 10.685 90.1329 14.3198Z" fill="url(#paint0_linear_203_2)"/>
<path d="M86.8422 12.3454C86.8422 14.1628 85.3688 15.6361 83.5514 15.6361C81.734 15.6361 80.2607 14.1628 80.2607 12.3454C80.2607 10.528 81.734 9.05466 83.5514 9.05466C85.3688 9.05466 86.8422 10.528 86.8422 12.3454Z" fill="white"/>
<path d="M85.1968 11.3582C85.1968 12.2669 84.4601 13.0035 83.5514 13.0035C82.6427 13.0035 81.9061 12.2669 81.9061 11.3582C81.9061 10.4495 82.6427 9.71281 83.5514 9.71281C84.4601 9.71281 85.1968 10.4495 85.1968 11.3582Z" fill="#3081ED"/>
<defs>
<linearGradient id="paint0_linear_203_2" x1="76.97" y1="14.3198" x2="90.1329" y2="14.3198" gradientUnits="userSpaceOnUse">
<stop stop-color="#FB8614"/>
<stop offset="1" stop-color="#2F80ED"/>
</linearGradient>
</defs>
</svg>
