<svg width="50" height="50" viewBox="0 0 50 50" fill="none" xmlns="http://www.w3.org/2000/svg">
<path d="M50 45.8006C50 46.5495 50 47.2983 50 48.0472C49.94 48.1751 49.8749 48.3016 49.8214 48.4321C49.4213 49.4028 48.556 49.999 47.5095 49.999C32.5196 50.0003 17.531 50.0003 2.5411 49.999C1.47244 49.999 0.454624 49.3532 0.212221 48.3343C-0.0692793 47.1483 -0.16183 45.9324 0.517159 44.7921C1.32256 43.4391 2.0915 42.064 2.88778 40.6784C1.5272 39.606 0.867756 38.1995 0.867756 36.4839C0.866453 32.7238 0.866453 28.9651 0.867756 25.205C0.867756 23.7046 1.29391 22.3478 2.2948 21.214C2.66753 20.7926 3.11192 20.4338 3.51984 20.0515C0.49501 18.3176 -0.494136 14.9607 0.342545 12.217C1.16228 9.53064 3.63452 7.60364 6.45343 7.51362C9.40919 7.41968 11.9831 9.15098 12.9944 11.8947C13.9328 14.4401 13.2837 18.0997 9.8901 20.092C11.2989 21.064 12.1734 22.3791 12.4901 24.1404C13.7073 22.8814 15.249 23.5167 16.6904 23.2963C16.6904 23.1214 16.6904 22.9466 16.6904 22.7705C16.6904 21.0783 16.6787 19.3848 16.693 17.6927C16.7152 15.0599 18.1214 12.9567 20.4359 12.0552C20.5623 12.0056 20.6874 11.9521 20.8517 11.8843C20.7148 11.7603 20.6184 11.6755 20.5232 11.5881C17.114 8.43993 17.8333 2.89116 21.9568 0.75932C22.6358 0.408363 23.4138 0.247888 24.1463 0C24.7314 0 25.3166 0 25.9017 0C25.9916 0.0326168 26.079 0.0782806 26.1715 0.0939367C30.9909 0.934147 33.3002 6.54685 30.4514 10.5235C30.0995 11.0141 29.6603 11.4407 29.2472 11.9117C29.3632 11.956 29.4687 11.9939 29.5717 12.0382C31.8315 13.005 33.1777 14.6828 33.3146 17.163C33.4162 19.013 33.3511 20.8722 33.3602 22.7261C33.3615 22.9179 33.3602 23.1084 33.3602 23.2976C34.8042 23.5141 36.3446 22.8853 37.5644 24.1391C37.8681 22.3699 38.7595 21.0666 40.184 20.075C40.0315 19.9759 39.9142 19.8976 39.7943 19.8232C37.5201 18.3985 36.3068 15.7083 36.7512 13.0728C37.2464 10.1321 39.7813 7.74063 42.6262 7.52797C45.9143 7.28269 48.7397 9.13663 49.695 12.1739C49.8097 12.5392 49.8983 12.9137 49.9987 13.2829C49.9987 13.8687 49.9987 14.4545 49.9987 15.0403C49.9492 15.2242 49.8944 15.4082 49.8501 15.5935C49.3888 17.5727 48.2549 19.0469 46.4982 20.0581C46.5399 20.105 46.5659 20.1494 46.6037 20.1755C48.3957 21.4371 49.1894 23.1919 49.1855 25.355C49.179 29.0159 49.1881 32.6769 49.1789 36.3365C49.1776 36.7892 49.1425 37.2484 49.0564 37.692C48.8167 38.921 48.1533 39.9008 47.2045 40.6484C48.1455 42.381 49.0721 44.0902 50 45.8006ZM41.5758 34.3651C40.8173 34.5934 40.1501 34.9457 39.4711 34.9718C37.3781 35.0488 35.2786 35.0409 33.1843 34.9874C32.0165 34.9574 31.1642 34.3064 30.6977 33.23C29.8584 31.2952 31.2946 29.2064 33.4879 29.1686C34.8368 29.1451 36.1856 29.166 37.5358 29.1621C38.0975 29.1608 38.3425 28.7433 38.0675 28.2605C37.5592 27.3721 37.0366 26.4927 36.5375 25.6003C36.3068 25.188 35.9888 24.9989 35.5144 24.9989C28.5251 25.0041 21.5359 25.0041 14.5453 24.9989C14.0722 24.9989 13.749 25.1802 13.5196 25.5951C13.0387 26.4614 12.5357 27.3147 12.0431 28.1744C11.6886 28.7929 11.9023 29.1595 12.6139 29.1634C14.0761 29.1725 15.541 29.1347 17.0006 29.209C18.3508 29.2782 19.5054 30.545 19.5758 31.8954C19.6683 33.6541 18.4042 34.9874 16.5822 35.0148C15.1852 35.037 13.7868 35.0227 12.3884 35.0188C11.0669 35.0161 9.71415 35.174 8.5712 34.202C6.48602 37.8225 4.44123 41.3725 2.37689 44.9578C17.514 44.9578 32.5678 44.9578 47.6828 44.9578C45.6002 41.3477 43.5515 37.7938 41.5758 34.3651ZM3.73619 39.1833C3.85609 38.9863 3.95121 38.8375 4.03983 38.6849C4.87521 37.2367 5.71061 35.7872 6.54208 34.3364C6.84052 33.8158 7.35661 33.2901 7.35791 32.7656C7.35921 32.2411 6.84441 31.714 6.54857 31.1921C5.92432 30.091 5.28834 28.9951 4.6693 27.8913C4.39562 27.4034 4.52856 26.9141 4.96645 26.6714C5.3887 26.4379 5.82266 26.5788 6.12502 27.0485C6.19539 27.1581 6.25403 27.2729 6.3192 27.3864C7.2458 29.0068 8.17242 30.6285 9.09902 32.2489C9.50433 32.9587 10.0999 33.3214 10.9301 33.3175C12.7989 33.307 14.6678 33.3188 16.5366 33.3122C17.3446 33.3096 17.8972 32.8126 17.905 32.108C17.9129 31.3996 17.3186 30.8581 16.5119 30.8555C15.4067 30.8503 14.2937 30.7681 13.199 30.8751C11.6977 31.0225 10.7502 30.4707 10.1169 29.0942C9.57602 27.9187 8.84488 26.8319 8.21281 25.6969C7.95347 25.2311 8.0812 24.7601 8.49303 24.5148C8.90485 24.2695 9.37923 24.3987 9.66464 24.8553C9.86274 25.1711 10.0335 25.5038 10.2211 25.8273C10.4088 26.1509 10.6017 26.4705 10.7932 26.7928C10.8323 26.7784 10.8714 26.7654 10.9105 26.751C10.874 25.9591 10.8753 25.1619 10.7919 24.3752C10.5964 22.5409 8.82795 20.6556 6.26578 20.8774C4.27833 21.0496 2.59063 22.837 2.58281 24.9258C2.56717 28.862 2.57499 32.7995 2.5802 36.7357C2.58281 37.7012 2.98162 38.4918 3.73619 39.1833ZM39.101 26.7445C39.1596 26.7576 39.2183 26.7706 39.2769 26.7837C39.6314 26.1665 39.9637 25.5338 40.3534 24.9401C40.4994 24.7184 40.7704 24.4705 41.0063 24.447C41.2618 24.4209 41.6019 24.5788 41.8 24.7666C42.0932 25.0445 42.0085 25.4137 41.8143 25.753C41.022 27.1333 40.2361 28.5176 39.4503 29.9031C39.0671 30.579 38.4845 30.866 37.7169 30.8581C36.3355 30.8438 34.9528 30.8516 33.5713 30.8555C32.7516 30.8581 32.1612 31.3709 32.1495 32.0806C32.1365 32.8021 32.7021 33.3122 33.5387 33.3135C35.3919 33.3188 37.2451 33.307 39.0997 33.3188C39.9507 33.324 40.5554 32.9548 40.9685 32.2254C41.4077 31.4479 41.8547 30.6742 42.2978 29.8979C42.8374 28.9533 43.3665 28.0022 43.9204 27.0655C44.2905 26.4405 45.0359 26.3922 45.3917 26.9559C45.6068 27.2964 45.5364 27.6291 45.3435 27.9657C44.5016 29.4308 43.6767 30.9051 42.8269 32.365C42.6627 32.6482 42.6419 32.8569 42.8139 33.1505C43.9164 35.0279 44.9968 36.9171 46.0864 38.8023C46.1567 38.9236 46.2375 39.0398 46.3274 39.1781C47.082 38.4918 47.4769 37.6855 47.4769 36.7018C47.4795 32.7786 47.4886 28.8568 47.473 24.9336C47.4652 22.9205 45.9104 21.1501 43.9855 20.9009C41.8326 20.6217 39.8712 21.8481 39.376 23.9082C39.1518 24.8214 39.1831 25.796 39.101 26.7445ZM31.6438 23.3132C31.6542 23.2141 31.6647 23.1671 31.6647 23.1188C31.666 21.231 31.6764 19.3444 31.6634 17.4565C31.6477 15.2086 29.8558 13.3977 27.6116 13.3703C25.8887 13.3494 24.1658 13.3494 22.4429 13.3703C20.1961 13.3977 18.4055 15.2086 18.3898 17.4552C18.3768 19.2935 18.3859 21.1331 18.3872 22.9714C18.3872 23.081 18.3976 23.1893 18.4055 23.3145C18.9528 23.3145 19.465 23.3145 20.0319 23.3145C20.0319 23.1175 20.0319 22.9427 20.0319 22.7679C20.0319 21.1736 20.0319 19.5792 20.0319 17.9836C20.0319 17.8375 20.028 17.6901 20.0358 17.544C20.0645 16.9973 20.3838 16.6685 20.8777 16.6724C21.3665 16.6776 21.7027 17.0195 21.7053 17.5622C21.7131 19.3027 21.7079 21.0444 21.7092 22.7848C21.7092 22.957 21.7092 23.1306 21.7092 23.3028C23.9547 23.3028 26.1376 23.3028 28.3479 23.3028C28.3479 21.4162 28.3466 19.5623 28.3479 17.7096C28.3492 17.043 28.6438 16.6776 29.1755 16.6724C29.7111 16.6659 30.0187 17.0247 30.0213 17.6888C30.0265 19.3809 30.0226 21.0731 30.0239 22.7653C30.0239 22.9401 30.0239 23.1136 30.0239 23.3132C30.5882 23.3132 31.0991 23.3132 31.6438 23.3132ZM25.052 11.6429C27.8201 11.6299 30.0108 9.41322 30.0043 6.63296C29.9978 3.91924 27.7445 1.67781 25.0246 1.68042C22.2631 1.68303 20.0345 3.94403 20.0476 6.73342C20.0606 9.45367 22.3048 11.656 25.052 11.6429ZM38.3712 14.1648C38.3699 16.9438 40.571 19.1513 43.343 19.1487C46.0903 19.1461 48.3462 16.8838 48.3266 14.1505C48.3071 11.4263 46.0681 9.18752 43.3548 9.17838C40.6023 9.16794 38.3725 11.3989 38.3712 14.1648ZM11.6808 14.187C11.6886 11.4185 9.47305 9.18099 6.72061 9.17708C3.98901 9.17316 1.71745 11.4472 1.72657 14.1753C1.7357 16.9047 3.96425 19.1383 6.68672 19.1474C9.46393 19.1565 11.6729 16.9634 11.6808 14.187ZM48.3305 46.7165C32.762 46.7165 17.2521 46.7165 1.74614 46.7165C1.65231 48.1007 1.86864 48.3343 3.20837 48.3343C17.7708 48.3343 32.3345 48.3343 46.897 48.3343C47.0429 48.3343 47.1902 48.3382 47.3361 48.333C48.0008 48.3147 48.3097 48.0042 48.3305 47.3349C48.3358 47.1418 48.3305 46.9474 48.3305 46.7165Z" fill="#4285F4"/>
</svg>
