<svg width="81" height="80" viewBox="0 0 81 80" fill="none" xmlns="http://www.w3.org/2000/svg">
<circle cx="40.8584" cy="40" r="40" fill="#4285F4"/>
<path d="M49.8057 36.2289C50.1807 36.141 50.4812 36.062 50.7862 36.0052C50.9208 35.9796 51.0633 36.0008 51.2024 36.0008C52.1317 36.0008 52.1895 36.0464 52.3987 36.9488C52.7003 38.2519 52.6992 38.2552 53.9579 38.6814C54.0503 38.7125 54.1938 38.6736 54.284 38.6191C54.6646 38.3921 55.033 38.1439 55.4102 37.9103C55.8209 37.6554 56.0757 37.6766 56.4141 38.0082C56.9004 38.4844 57.3745 38.9718 57.8597 39.4492C58.1624 39.7485 58.1914 40.0701 57.9688 40.4228C57.9098 40.5163 57.8486 40.6098 57.7885 40.7021C57.0729 41.8193 57.0685 41.8216 57.6405 43.02C57.6894 43.1224 57.8286 43.2158 57.9432 43.247C58.3839 43.3649 58.8324 43.4529 59.2764 43.5563C59.6682 43.6476 59.8629 43.889 59.8585 44.2985C59.8518 44.9929 59.854 45.6873 59.8574 46.3816C59.8596 46.77 59.6782 47.0092 59.3009 47.0993C58.8702 47.2017 58.4395 47.303 58.0077 47.4031C57.9677 47.412 57.9243 47.4087 57.8842 47.4198C57.6116 47.4977 57.0863 48.8552 57.2387 49.0967C57.4758 49.4717 57.715 49.8456 57.9577 50.2173C58.1869 50.5678 58.1691 50.8927 57.8697 51.1931C57.3801 51.685 56.8893 52.1757 56.4018 52.6698C56.1025 52.9735 55.7797 52.9991 55.428 52.7699C55.3579 52.7243 55.2878 52.6798 55.2177 52.6353C54.8415 52.4005 54.4799 52.0099 54.0859 51.9754C53.6953 51.9398 53.2668 52.2491 52.8684 52.4372C52.7549 52.4906 52.6447 52.6364 52.6113 52.761C52.5011 53.1749 52.431 53.5989 52.3353 54.0173C52.2274 54.4913 52.0081 54.6616 51.5173 54.6649C51.2402 54.6671 50.9575 54.6938 50.686 54.6571C50.4167 54.6204 50.1574 54.5169 49.8569 54.4323C49.8569 54.8185 49.8669 55.2925 49.8547 55.7654C49.8402 56.3051 49.8714 56.8559 49.769 57.38C49.4652 58.9178 48.1174 59.9961 46.556 59.9972C41.6415 60.0005 36.7269 60.0017 31.8124 59.9961C30.0095 59.9939 28.5338 58.5117 28.5305 56.7057C28.5249 53.61 28.5282 50.5132 28.5294 47.4176C28.5294 46.9881 28.7419 46.7177 29.0947 46.6709C29.4275 46.6264 29.7558 46.8245 29.8348 47.1394C29.8682 47.2707 29.8582 47.4153 29.8582 47.5533C29.8593 50.4966 29.8582 53.4398 29.8593 56.3841C29.8593 57.8663 30.665 58.6675 32.1541 58.6675C36.846 58.6686 41.5391 58.6686 46.2311 58.6675C47.7168 58.6675 48.5236 57.8629 48.5236 56.3819C48.5248 48.981 48.5236 41.5812 48.5248 34.1803C48.5248 33.6685 48.7062 33.3958 49.0801 33.3402C49.5163 33.2745 49.848 33.5683 49.8547 34.0423C49.8658 34.7912 49.8647 35.5412 49.8691 36.2901C49.8725 36.2968 49.8881 36.3046 49.8057 36.2289ZM49.8803 41.3353C50.0505 41.3353 50.1997 41.3375 50.3488 41.3353C52.8049 41.3019 54.6101 43.0968 54.511 45.5582C54.4487 47.0938 53.6485 48.2154 52.2875 48.9287C52.007 49.0756 51.6831 49.1001 51.4906 48.8374C51.3548 48.6516 51.2725 48.3434 51.3237 48.1275C51.3682 47.9439 51.6175 47.7803 51.8111 47.6679C52.993 46.9792 53.4927 45.5704 52.9797 44.3275C52.4722 43.099 51.169 42.4458 49.8858 42.7819C49.8858 46.4039 49.8858 50.027 49.8858 53.5366C50.2854 53.442 50.6815 53.3485 51.1145 53.2473C51.1924 52.8834 51.2936 52.4661 51.366 52.0444C51.4405 51.6149 51.6587 51.3612 52.0938 51.2465C52.4922 51.1408 52.9185 51.0284 53.2479 50.7992C53.89 50.3519 54.4443 50.3953 55.0029 50.8994C55.023 50.9172 55.0508 50.9272 55.0742 50.9417C55.8098 51.4112 55.8176 51.4168 56.3829 50.7592C56.4575 50.6724 56.4742 50.4565 56.4196 50.3519C56.246 50.0225 56.0357 49.7098 55.8198 49.4038C55.5916 49.0811 55.6094 48.7863 55.7875 48.4369C56.0368 47.9461 56.2672 47.4376 56.4285 46.9124C56.561 46.484 56.7913 46.2548 57.2198 46.1757C57.6505 46.0967 58.0767 45.9921 58.5063 45.8976C58.5063 45.507 58.5063 45.1487 58.5063 44.7681C58.0523 44.6702 57.6082 44.5712 57.1642 44.4788C56.8091 44.4054 56.5843 44.2173 56.4564 43.8601C56.2516 43.2893 56.0223 42.7262 55.7597 42.1799C55.6028 41.8527 55.6061 41.5801 55.8042 41.2863C56.0212 40.9647 56.2293 40.6365 56.4319 40.306C56.4786 40.2292 56.5432 40.0868 56.5109 40.0512C56.2916 39.8019 56.0724 39.5404 55.802 39.359C55.7218 39.3056 55.4703 39.4848 55.309 39.5783C55.0575 39.724 54.8104 39.8809 54.5722 40.0467C54.2628 40.2615 53.9757 40.2415 53.6407 40.0757C53.1344 39.8253 52.6135 39.5961 52.0771 39.4191C51.672 39.2856 51.4439 39.0631 51.3682 38.6491C51.2903 38.2163 51.189 37.7867 51.1122 37.4251C50.6571 37.3116 50.2542 37.2114 49.8769 37.118C49.8803 38.4655 49.8803 39.8909 49.8803 41.3353Z" fill="white"/>
<path d="M31.179 45.3324C26.0741 45.4013 21.8351 41.0839 21.8585 36.0053C21.8819 30.8199 26.033 26.6649 31.2324 26.6682C36.3829 26.6716 40.5195 30.8555 40.5307 36.0387C40.5407 41.0928 36.3083 45.4191 31.179 45.3324ZM37.3055 41.1017C39.8941 38.1184 39.933 33.2023 36.5899 30.1111C33.3425 27.1078 28.2031 27.3603 25.2484 30.6697C22.2825 33.9912 22.8301 38.6414 25.0926 41.0783C25.1393 41.0071 25.1849 40.9381 25.2295 40.8691C26.1776 39.4303 27.502 38.6748 29.2348 38.6681C30.5947 38.6625 31.9558 38.6581 33.3158 38.6737C33.6585 38.677 34.008 38.726 34.3418 38.8083C35.6484 39.1343 36.6166 39.9166 37.3055 41.1017ZM36.2794 42.1098C35.7686 40.9581 34.9339 40.1592 33.6864 40.0802C32.0582 39.9767 30.4144 39.9689 28.7852 40.0624C27.4964 40.1369 26.6172 40.9281 26.1142 42.1132C28.7918 44.5145 33.594 44.5156 36.2794 42.1098Z" fill="white"/>
<path d="M49.849 31.9993C48.5302 31.9993 47.2103 32.0015 45.8915 31.9982C44.3624 31.9948 43.1916 30.8309 43.1939 29.322C43.1961 27.8365 44.3668 26.6692 45.8692 26.667C48.5357 26.6637 51.2011 26.6625 53.8676 26.667C55.3611 26.6692 56.5252 27.8487 56.5241 29.3409C56.5219 30.8265 55.35 31.9926 53.8476 31.9971C52.5155 32.0026 51.1822 31.9993 49.849 31.9993ZM49.8601 30.6662C51.1789 30.6662 52.4965 30.6762 53.8153 30.6618C54.5932 30.6529 55.1909 30.0553 55.1898 29.332C55.1886 28.6221 54.6077 28.0101 53.8554 28.0067C51.1911 27.9923 48.5257 27.9956 45.8615 28.0056C45.2794 28.0079 44.7964 28.3773 44.6161 28.8869C44.299 29.7849 44.9389 30.654 45.946 30.664C47.2504 30.6762 48.5558 30.6673 49.8601 30.6662Z" fill="white"/>
<path d="M39.205 20.0017C41.6211 20.0017 44.0372 20.0006 46.4533 20.0017C48.4231 20.0028 49.8554 21.4427 49.8588 23.4223C49.8599 23.7561 49.8588 24.0888 49.8588 24.4226C49.8577 25.0436 49.654 25.3273 49.2022 25.334C48.747 25.3395 48.5278 25.0513 48.5266 24.4427C48.5266 24.1233 48.5289 23.8039 48.5266 23.4846C48.5155 22.1927 47.6753 21.3414 46.3899 21.3359C44.8764 21.3292 43.3628 21.3348 41.8493 21.3348C38.6141 21.3348 35.3789 21.3336 32.1437 21.3348C30.6647 21.3348 29.8634 22.1426 29.8623 23.6304C29.8623 23.9642 29.8678 24.2969 29.86 24.6296C29.85 25.0569 29.593 25.3273 29.2057 25.3329C28.8139 25.3384 28.529 25.0703 28.5346 24.6508C28.5424 23.9731 28.499 23.2798 28.6214 22.62C28.9085 21.0799 30.2707 20.0061 31.8321 20.0028C34.2894 19.9972 36.7467 20.0017 39.205 20.0017Z" fill="white"/>
<path d="M39.2297 47.9995C41.1861 47.9995 43.1426 47.9873 45.098 48.0151C45.3295 48.0184 45.6255 48.1887 45.7657 48.3767C45.8692 48.5158 45.8414 48.8563 45.7346 49.0188C45.6288 49.1801 45.3539 49.3181 45.1525 49.3192C41.1839 49.3359 37.2164 49.3337 33.2479 49.3304C32.796 49.3304 32.5223 49.0588 32.5289 48.6516C32.5367 48.2499 32.8116 48.0017 33.2757 48.0017C35.2611 47.9984 37.2454 47.9995 39.2297 47.9995Z" fill="white"/>
<path d="M37.9064 53.3331C39.4322 53.3331 40.958 53.3308 42.4838 53.3353C42.8789 53.3364 43.1482 53.5579 43.1882 53.8995C43.2283 54.2444 43.0825 54.497 42.7609 54.625C42.6507 54.6684 42.5161 54.665 42.3936 54.665C39.3699 54.6673 36.345 54.6673 33.3213 54.6662C32.8183 54.6662 32.5389 54.4325 32.53 54.0174C32.52 53.5801 32.8016 53.3353 33.3291 53.3353C34.8549 53.332 36.3807 53.3331 37.9064 53.3331Z" fill="white"/>
<path d="M35.8307 51.9987C34.9994 51.9987 34.1669 51.9998 33.3356 51.9976C32.8059 51.9964 32.5243 51.7572 32.5299 51.3221C32.5354 50.9059 32.8148 50.6678 33.3133 50.6667C35.0183 50.6645 36.7233 50.6645 38.4293 50.6667C38.9212 50.6678 39.1995 50.9193 39.1939 51.341C39.1883 51.7572 38.9079 51.9953 38.4104 51.9976C37.549 52.0009 36.6899 51.9987 35.8307 51.9987Z" fill="white"/>
<path d="M39.1663 23.9998C38.5286 23.9998 37.8909 24.0043 37.2543 23.9987C36.7991 23.9943 36.5265 23.7339 36.5298 23.3266C36.5343 22.9238 36.8092 22.6712 37.2688 22.6701C38.5575 22.6656 39.8462 22.6656 41.135 22.6701C41.5902 22.6723 41.8639 22.9349 41.8595 23.3411C41.855 23.7428 41.579 23.9954 41.1205 23.9987C40.4684 24.0043 39.8173 23.9998 39.1663 23.9998Z" fill="white"/>
<path d="M25.177 47.8505C25.5265 47.8382 25.8426 48.1342 25.8615 48.4936C25.8826 48.902 25.5977 49.2403 25.2138 49.2592C24.8109 49.2792 24.5483 49.0467 24.5305 48.6561C24.5093 48.2021 24.7797 47.8649 25.177 47.8505Z" fill="white"/>
<path d="M24.5308 51.2521C24.533 50.8271 24.8246 50.5099 25.2063 50.5177C25.5602 50.5244 25.8551 50.8282 25.8618 51.1898C25.8685 51.6015 25.5747 51.9209 25.1852 51.9265C24.7678 51.9331 24.5275 51.685 24.5308 51.2521Z" fill="white"/>
<path d="M25.2107 53.1838C25.5813 53.1938 25.8762 53.5188 25.8617 53.9016C25.8461 54.3122 25.5367 54.6082 25.1394 54.5926C24.731 54.577 24.514 54.32 24.5307 53.8726C24.5463 53.4765 24.8445 53.1738 25.2107 53.1838Z" fill="white"/>
<path d="M34.5278 34.0213C34.5245 35.8629 33.0377 37.3351 31.1847 37.3329C29.3228 37.3306 27.856 35.8407 27.8638 33.9579C27.8705 32.1241 29.3651 30.663 31.2281 30.6675C33.0655 30.6731 34.5312 32.163 34.5278 34.0213ZM31.2003 32.0017C30.1285 31.9983 29.2093 32.9075 29.197 33.9835C29.1859 35.0528 30.0907 35.9764 31.168 35.9976C32.2475 36.0176 33.1957 35.0784 33.1912 33.9946C33.189 32.9197 32.2753 32.0061 31.2003 32.0017Z" fill="white"/>
</svg>
