<svg width="197" height="203" viewBox="0 0 197 203" fill="none" xmlns="http://www.w3.org/2000/svg">
<g filter="url(#filter0_d_3345_2227)">
<path d="M78.5029 12.4462C90.879 5.30086 106.127 5.30086 118.503 12.4462L163.373 38.3522C175.749 45.4975 183.373 58.7026 183.373 72.9932V124.805C183.373 139.096 175.749 152.301 163.373 159.446L118.503 185.352C106.127 192.497 90.879 192.497 78.5029 185.352L33.6324 159.446C21.2564 152.301 13.6324 139.096 13.6324 124.805V72.9932C13.6324 58.7026 21.2564 45.4975 33.6324 38.3522L78.5029 12.4462Z" fill="white"/>
</g>
<path d="M63.5796 134.385L62.6436 142.899H61.1136L62.6436 129.669L67.6836 138.795L72.7236 129.669L74.2536 142.899H72.7236L71.7876 134.385L67.6836 141.729L63.5796 134.385ZM75.5958 138.759C75.5958 137.919 75.7818 137.175 76.1538 136.527C76.5378 135.879 77.0538 135.369 77.7018 134.997C78.3498 134.625 79.0758 134.439 79.8798 134.439C80.6958 134.439 81.4218 134.625 82.0578 134.997C82.7058 135.369 83.2158 135.879 83.5878 136.527C83.9718 137.175 84.1638 137.919 84.1638 138.759C84.1638 139.587 83.9718 140.331 83.5878 140.991C83.2158 141.639 82.7058 142.149 82.0578 142.521C81.4218 142.893 80.6958 143.079 79.8798 143.079C79.0758 143.079 78.3498 142.893 77.7018 142.521C77.0538 142.149 76.5378 141.639 76.1538 140.991C75.7818 140.331 75.5958 139.587 75.5958 138.759ZM77.0538 138.759C77.0538 139.335 77.1738 139.845 77.4138 140.289C77.6658 140.733 78.0018 141.087 78.4218 141.351C78.8538 141.603 79.3398 141.729 79.8798 141.729C80.4198 141.729 80.8998 141.603 81.3198 141.351C81.7518 141.087 82.0878 140.733 82.3278 140.289C82.5798 139.845 82.7058 139.335 82.7058 138.759C82.7058 138.183 82.5798 137.673 82.3278 137.229C82.0878 136.773 81.7518 136.419 81.3198 136.167C80.8998 135.915 80.4198 135.789 79.8798 135.789C79.3398 135.789 78.8538 135.915 78.4218 136.167C78.0018 136.419 77.6658 136.773 77.4138 137.229C77.1738 137.673 77.0538 138.183 77.0538 138.759ZM91.452 137.859C91.452 137.175 91.302 136.659 91.002 136.311C90.702 135.963 90.264 135.789 89.688 135.789C89.268 135.789 88.896 135.879 88.572 136.059C88.26 136.227 88.014 136.467 87.834 136.779C87.666 137.091 87.582 137.451 87.582 137.859V142.899H86.142V134.619H87.582V135.915C87.858 135.411 88.2 135.039 88.608 134.799C89.028 134.559 89.508 134.439 90.048 134.439C90.924 134.439 91.614 134.733 92.118 135.321C92.634 135.897 92.892 136.683 92.892 137.679V142.899H91.452V137.859ZM95.041 143.439H96.499C96.499 143.835 96.607 144.201 96.823 144.537C97.039 144.885 97.345 145.161 97.741 145.365C98.137 145.581 98.605 145.689 99.145 145.689C99.565 145.689 99.979 145.587 100.387 145.383C100.795 145.179 101.131 144.855 101.395 144.411C101.671 143.979 101.809 143.415 101.809 142.719V134.619H103.249V142.719C103.249 143.667 103.051 144.459 102.655 145.095C102.259 145.743 101.749 146.229 101.125 146.553C100.501 146.877 99.841 147.039 99.145 147.039C98.341 147.039 97.627 146.889 97.003 146.589C96.391 146.289 95.911 145.863 95.563 145.311C95.215 144.771 95.041 144.147 95.041 143.439ZM94.879 138.759C94.879 137.859 95.065 137.091 95.437 136.455C95.809 135.807 96.307 135.309 96.931 134.961C97.555 134.613 98.239 134.439 98.983 134.439C99.679 134.439 100.285 134.613 100.801 134.961C101.317 135.309 101.719 135.807 102.007 136.455C102.307 137.091 102.457 137.859 102.457 138.759C102.457 139.647 102.307 140.415 102.007 141.063C101.719 141.711 101.317 142.209 100.801 142.557C100.285 142.905 99.679 143.079 98.983 143.079C98.239 143.079 97.555 142.905 96.931 142.557C96.307 142.209 95.809 141.711 95.437 141.063C95.065 140.415 94.879 139.647 94.879 138.759ZM96.337 138.759C96.337 139.395 96.463 139.935 96.715 140.379C96.979 140.823 97.327 141.159 97.759 141.387C98.191 141.615 98.659 141.729 99.163 141.729C99.583 141.729 99.997 141.615 100.405 141.387C100.813 141.159 101.149 140.823 101.413 140.379C101.677 139.935 101.809 139.395 101.809 138.759C101.809 138.279 101.731 137.859 101.575 137.499C101.419 137.127 101.209 136.815 100.945 136.563C100.693 136.311 100.411 136.119 100.099 135.987C99.787 135.855 99.475 135.789 99.163 135.789C98.659 135.789 98.191 135.903 97.759 136.131C97.327 136.359 96.979 136.695 96.715 137.139C96.463 137.583 96.337 138.123 96.337 138.759ZM105.145 138.759C105.145 137.919 105.331 137.175 105.703 136.527C106.087 135.879 106.603 135.369 107.251 134.997C107.899 134.625 108.625 134.439 109.429 134.439C110.245 134.439 110.971 134.625 111.607 134.997C112.255 135.369 112.765 135.879 113.137 136.527C113.521 137.175 113.713 137.919 113.713 138.759C113.713 139.587 113.521 140.331 113.137 140.991C112.765 141.639 112.255 142.149 111.607 142.521C110.971 142.893 110.245 143.079 109.429 143.079C108.625 143.079 107.899 142.893 107.251 142.521C106.603 142.149 106.087 141.639 105.703 140.991C105.331 140.331 105.145 139.587 105.145 138.759ZM106.603 138.759C106.603 139.335 106.723 139.845 106.963 140.289C107.215 140.733 107.551 141.087 107.971 141.351C108.403 141.603 108.889 141.729 109.429 141.729C109.969 141.729 110.449 141.603 110.869 141.351C111.301 141.087 111.637 140.733 111.877 140.289C112.129 139.845 112.255 139.335 112.255 138.759C112.255 138.183 112.129 137.673 111.877 137.229C111.637 136.773 111.301 136.419 110.869 136.167C110.449 135.915 109.969 135.789 109.429 135.789C108.889 135.789 108.403 135.915 107.971 136.167C107.551 136.419 107.215 136.773 106.963 137.229C106.723 137.673 106.603 138.183 106.603 138.759ZM115.781 130.299H117.311V142.899H115.781V130.299ZM119.561 142.899H116.627V141.369H119.561C120.269 141.369 120.917 141.261 121.505 141.045C122.093 140.817 122.597 140.499 123.017 140.091C123.437 139.671 123.761 139.167 123.989 138.579C124.217 137.991 124.331 137.331 124.331 136.599C124.331 135.867 124.217 135.207 123.989 134.619C123.761 134.031 123.437 133.533 123.017 133.125C122.597 132.705 122.093 132.387 121.505 132.171C120.917 131.943 120.269 131.829 119.561 131.829H116.627V130.299H119.561C120.785 130.299 121.871 130.563 122.819 131.091C123.767 131.619 124.511 132.357 125.051 133.305C125.591 134.241 125.861 135.339 125.861 136.599C125.861 137.859 125.591 138.963 125.051 139.911C124.511 140.847 123.767 141.579 122.819 142.107C121.871 142.635 120.785 142.899 119.561 142.899ZM129.221 136.239V135.393H131.255C131.675 135.393 132.053 135.321 132.389 135.177C132.725 135.033 132.989 134.823 133.181 134.547C133.373 134.271 133.469 133.935 133.469 133.539C133.469 132.939 133.259 132.477 132.839 132.153C132.419 131.817 131.891 131.649 131.255 131.649H129.545V141.549H131.435C131.975 141.549 132.449 141.453 132.857 141.261C133.277 141.069 133.601 140.793 133.829 140.433C134.069 140.073 134.189 139.635 134.189 139.119C134.189 138.735 134.123 138.393 133.991 138.093C133.859 137.793 133.667 137.541 133.415 137.337C133.175 137.133 132.887 136.983 132.551 136.887C132.215 136.779 131.843 136.725 131.435 136.725H129.221V135.879H131.435C132.047 135.879 132.611 135.945 133.127 136.077C133.643 136.209 134.093 136.413 134.477 136.689C134.873 136.953 135.179 137.295 135.395 137.715C135.611 138.135 135.719 138.633 135.719 139.209C135.719 140.037 135.527 140.727 135.143 141.279C134.771 141.819 134.261 142.227 133.613 142.503C132.977 142.767 132.251 142.899 131.435 142.899H128.015V130.299H131.255C132.011 130.299 132.665 130.413 133.217 130.641C133.781 130.869 134.219 131.217 134.531 131.685C134.843 132.141 134.999 132.729 134.999 133.449C134.999 134.037 134.843 134.541 134.531 134.961C134.219 135.381 133.781 135.699 133.217 135.915C132.665 136.131 132.011 136.239 131.255 136.239H129.221Z" fill="#424254"/>
<path d="M98.3143 51.063L99.9154 54.0703C100.275 54.6252 100.665 55.1164 101.125 55.5739C102.471 56.9038 103.727 58.3232 104.882 59.8223C107.595 63.3846 109.425 67.3405 110.731 71.6189C111.515 74.2325 111.941 76.9135 111.973 79.6246C112.104 87.7296 109.325 94.6891 103.723 100.473C102.812 101.39 101.828 102.232 100.78 102.989C100.225 102.989 99.9623 102.563 99.7335 102.172C99.317 101.445 99.0398 100.647 98.9161 99.8187C98.7192 98.8382 98.5899 97.8576 98.6536 96.8452V96.3877C98.6086 96.2902 98.1193 51.2936 98.3143 51.063Z" fill="#599636"/>
<path d="M98.3146 50.9637C98.249 50.8324 98.1834 50.9318 98.1178 50.9955C98.1496 51.6517 97.9209 52.2367 97.5628 52.7954C97.1691 53.3504 96.6479 53.776 96.1248 54.2334C93.2187 56.7495 90.9314 59.7886 89.0997 63.1878C86.6624 67.7624 85.4062 72.6652 85.05 77.8267C84.8869 79.6884 85.6387 86.2579 86.2255 88.1534C87.8267 93.1855 90.7027 97.4021 94.428 101.062C95.343 101.943 96.3216 102.76 97.3341 103.546C97.6284 103.546 97.6603 103.283 97.7278 103.089C97.8568 102.671 97.9552 102.245 98.0221 101.814L98.6783 96.9127L98.3146 50.9637Z" fill="#6CAC48"/>
<path d="M99.9157 104.98C99.9813 104.23 100.341 103.608 100.733 102.987C100.339 102.824 100.047 102.5 99.8182 102.138C99.6209 101.795 99.4577 101.434 99.3307 101.06C98.8732 99.6874 98.7758 98.2476 98.6445 96.8452V95.9958C98.4814 96.1271 98.4477 97.237 98.4477 97.402C98.3522 98.8842 98.1556 100.358 97.8589 101.814C97.7615 102.402 97.6958 102.989 97.334 103.512C97.334 103.578 97.334 103.643 97.3659 103.741C97.9546 105.473 98.1158 107.238 98.2152 109.035V109.692C98.2152 110.475 98.1833 110.31 98.8339 110.573C99.0964 110.67 99.3888 110.704 99.6513 110.899C99.8482 110.899 99.88 110.736 99.88 110.605L99.7826 109.527V106.519C99.7507 105.994 99.8482 105.473 99.9138 104.982L99.9157 104.98Z" fill="#C2BFBF"/>
<defs>
<filter id="filter0_d_3345_2227" x="5.63281" y="3.08716" width="185.74" height="199.624" filterUnits="userSpaceOnUse" color-interpolation-filters="sRGB">
<feFlood flood-opacity="0" result="BackgroundImageFix"/>
<feColorMatrix in="SourceAlpha" type="matrix" values="0 0 0 0 0 0 0 0 0 0 0 0 0 0 0 0 0 0 127 0" result="hardAlpha"/>
<feOffset dy="4"/>
<feGaussianBlur stdDeviation="4"/>
<feColorMatrix type="matrix" values="0 0 0 0 0.0627451 0 0 0 0 0.0941176 0 0 0 0 0.156863 0 0 0 0.04 0"/>
<feBlend mode="normal" in2="BackgroundImageFix" result="effect1_dropShadow_3345_2227"/>
<feBlend mode="normal" in="SourceGraphic" in2="effect1_dropShadow_3345_2227" result="shape"/>
</filter>
</defs>
</svg>
