<svg width="196" height="203" viewBox="0 0 196 203" fill="none" xmlns="http://www.w3.org/2000/svg">
<g filter="url(#filter0_d_655_6538)">
<path d="M78 12.1915C90.376 5.04622 105.624 5.04623 118 12.1915L162.87 38.0975C175.247 45.2428 182.87 58.4479 182.87 72.7385V124.551C182.87 138.841 175.247 152.046 162.87 159.192L118 185.098C105.624 192.243 90.376 192.243 78 185.098L33.1295 159.192C20.7535 152.046 13.1295 138.841 13.1295 124.551V72.7385C13.1295 58.4479 20.7535 45.2428 33.1295 38.0975L78 12.1915Z" fill="white"/>
</g>
<path d="M79.1939 133.045V142.423L69.6539 132.415V145.645H71.1839V136.267L80.7239 146.275V133.045H79.1939ZM82.8009 141.505C82.8009 142.333 82.9869 143.077 83.3589 143.737C83.7429 144.385 84.2589 144.895 84.9069 145.267C85.5549 145.639 86.2809 145.825 87.0849 145.825C87.9009 145.825 88.6269 145.639 89.2629 145.267C89.9109 144.895 90.4209 144.385 90.7929 143.737C91.1769 143.077 91.3689 142.333 91.3689 141.505C91.3689 140.665 91.1769 139.921 90.7929 139.273C90.4209 138.625 89.9109 138.115 89.2629 137.743C88.6269 137.371 87.9009 137.185 87.0849 137.185C86.2809 137.185 85.5549 137.371 84.9069 137.743C84.2589 138.115 83.7429 138.625 83.3589 139.273C82.9869 139.921 82.8009 140.665 82.8009 141.505ZM84.2589 141.505C84.2589 140.929 84.3789 140.419 84.6189 139.975C84.8709 139.519 85.2069 139.165 85.6269 138.913C86.0589 138.661 86.5449 138.535 87.0849 138.535C87.6249 138.535 88.1049 138.661 88.5249 138.913C88.9569 139.165 89.2929 139.519 89.5329 139.975C89.7849 140.419 89.9109 140.929 89.9109 141.505C89.9109 142.081 89.7849 142.591 89.5329 143.035C89.2929 143.479 88.9569 143.833 88.5249 144.097C88.1049 144.349 87.6249 144.475 87.0849 144.475C86.5449 144.475 86.0589 144.349 85.6269 144.097C85.2069 143.833 84.8709 143.479 84.6189 143.035C84.3789 142.591 84.2589 142.081 84.2589 141.505ZM99.5571 131.605V145.645H100.997V131.605H99.5571ZM92.6271 141.505C92.6271 142.393 92.8131 143.161 93.1851 143.809C93.5571 144.457 94.0551 144.955 94.6791 145.303C95.3031 145.651 95.9871 145.825 96.7311 145.825C97.4271 145.825 98.0331 145.651 98.5491 145.303C99.0651 144.955 99.4671 144.457 99.7551 143.809C100.055 143.161 100.205 142.393 100.205 141.505C100.205 140.605 100.055 139.837 99.7551 139.201C99.4671 138.553 99.0651 138.055 98.5491 137.707C98.0331 137.359 97.4271 137.185 96.7311 137.185C95.9871 137.185 95.3031 137.359 94.6791 137.707C94.0551 138.055 93.5571 138.553 93.1851 139.201C92.8131 139.837 92.6271 140.605 92.6271 141.505ZM94.0851 141.505C94.0851 140.869 94.2111 140.329 94.4631 139.885C94.7271 139.441 95.0751 139.105 95.5071 138.877C95.9391 138.649 96.4071 138.535 96.9111 138.535C97.3311 138.535 97.7451 138.649 98.1531 138.877C98.5611 139.105 98.8971 139.441 99.1611 139.885C99.4251 140.329 99.5571 140.869 99.5571 141.505C99.5571 142.141 99.4251 142.681 99.1611 143.125C98.8971 143.569 98.5611 143.905 98.1531 144.133C97.7451 144.361 97.3311 144.475 96.9111 144.475C96.4071 144.475 95.9391 144.361 95.5071 144.133C95.0751 143.905 94.7271 143.569 94.4631 143.125C94.2111 142.681 94.0851 142.141 94.0851 141.505ZM106.817 145.825C107.705 145.825 108.473 145.651 109.121 145.303C109.781 144.943 110.327 144.415 110.759 143.719L109.589 142.981C109.289 143.485 108.923 143.863 108.491 144.115C108.059 144.355 107.561 144.475 106.997 144.475C106.433 144.475 105.953 144.355 105.557 144.115C105.161 143.875 104.861 143.527 104.657 143.071C104.453 142.615 104.351 142.063 104.351 141.415C104.363 140.779 104.471 140.245 104.675 139.813C104.891 139.369 105.191 139.033 105.575 138.805C105.971 138.565 106.445 138.445 106.997 138.445C107.465 138.445 107.873 138.547 108.221 138.751C108.569 138.955 108.839 139.237 109.031 139.597C109.235 139.957 109.337 140.383 109.337 140.875C109.337 140.959 109.319 141.067 109.283 141.199C109.247 141.319 109.211 141.409 109.175 141.469L109.751 140.641H103.811V141.865H110.885C110.885 141.841 110.885 141.787 110.885 141.703C110.897 141.607 110.903 141.517 110.903 141.433C110.903 140.557 110.747 139.801 110.435 139.165C110.123 138.529 109.673 138.043 109.085 137.707C108.509 137.359 107.813 137.185 106.997 137.185C106.181 137.185 105.461 137.365 104.837 137.725C104.225 138.085 103.745 138.589 103.397 139.237C103.061 139.885 102.893 140.641 102.893 141.505C102.893 142.357 103.055 143.107 103.379 143.755C103.715 144.403 104.177 144.913 104.765 145.285C105.365 145.645 106.049 145.825 106.817 145.825ZM112.34 144.925C112.34 145.189 112.436 145.423 112.628 145.627C112.832 145.819 113.066 145.915 113.33 145.915C113.606 145.915 113.84 145.819 114.032 145.627C114.224 145.423 114.32 145.189 114.32 144.925C114.32 144.649 114.224 144.415 114.032 144.223C113.84 144.031 113.606 143.935 113.33 143.935C113.066 143.935 112.832 144.031 112.628 144.223C112.436 144.415 112.34 144.649 112.34 144.925ZM117.142 133.945C117.142 134.209 117.238 134.437 117.43 134.629C117.622 134.821 117.85 134.917 118.114 134.917C118.39 134.917 118.618 134.821 118.798 134.629C118.99 134.437 119.086 134.209 119.086 133.945C119.086 133.669 118.99 133.441 118.798 133.261C118.618 133.069 118.39 132.973 118.114 132.973C117.85 132.973 117.622 133.069 117.43 133.261C117.238 133.441 117.142 133.669 117.142 133.945ZM115.72 147.697L114.928 148.885C115.048 149.041 115.186 149.173 115.342 149.281C115.498 149.389 115.672 149.467 115.864 149.515C116.056 149.575 116.272 149.605 116.512 149.605C117.016 149.605 117.448 149.491 117.808 149.263C118.168 149.035 118.438 148.705 118.618 148.273C118.81 147.841 118.906 147.325 118.906 146.725V137.365H117.466V146.545C117.466 146.929 117.436 147.241 117.376 147.481C117.316 147.721 117.22 147.895 117.088 148.003C116.968 148.111 116.806 148.165 116.602 148.165C116.41 148.165 116.236 148.123 116.08 148.039C115.936 147.955 115.816 147.841 115.72 147.697ZM122.218 143.107L121.084 143.809C121.24 144.133 121.468 144.451 121.768 144.763C122.08 145.075 122.458 145.333 122.902 145.537C123.346 145.729 123.844 145.825 124.396 145.825C125.248 145.825 125.932 145.585 126.448 145.105C126.976 144.625 127.24 144.025 127.24 143.305C127.24 142.813 127.12 142.411 126.88 142.099C126.652 141.787 126.34 141.523 125.944 141.307C125.548 141.079 125.11 140.869 124.63 140.677C124.342 140.557 124.066 140.431 123.802 140.299C123.538 140.167 123.322 140.017 123.154 139.849C122.986 139.681 122.902 139.489 122.902 139.273C122.902 138.997 123.01 138.793 123.226 138.661C123.442 138.529 123.7 138.463 124 138.463C124.432 138.463 124.816 138.565 125.152 138.769C125.5 138.973 125.788 139.231 126.016 139.543L127.168 138.805C127 138.493 126.766 138.217 126.466 137.977C126.166 137.737 125.818 137.545 125.422 137.401C125.038 137.257 124.624 137.185 124.18 137.185C123.736 137.185 123.304 137.263 122.884 137.419C122.476 137.575 122.14 137.815 121.876 138.139C121.624 138.463 121.498 138.871 121.498 139.363C121.498 139.843 121.618 140.245 121.858 140.569C122.11 140.881 122.416 141.139 122.776 141.343C123.148 141.535 123.514 141.703 123.874 141.847C124.198 141.967 124.504 142.099 124.792 142.243C125.08 142.375 125.314 142.543 125.494 142.747C125.686 142.939 125.782 143.179 125.782 143.467C125.782 143.791 125.662 144.049 125.422 144.241C125.194 144.421 124.876 144.511 124.468 144.511C124.132 144.511 123.82 144.451 123.532 144.331C123.256 144.199 123.01 144.025 122.794 143.809C122.578 143.593 122.386 143.359 122.218 143.107Z" fill="#424254"/>
<g clip-path="url(#clip0_655_6538)">
<path d="M97.655 102.02C97.4542 102.02 97.2573 101.965 97.085 101.862L95.2775 100.797C95.0075 100.647 95.1425 100.587 95.2325 100.557C95.5196 100.47 95.7944 100.347 96.05 100.19C96.0707 100.178 96.0939 100.173 96.1175 100.173C96.1411 100.173 96.1642 100.178 96.185 100.19L97.5725 101.015C97.5976 101.029 97.626 101.037 97.655 101.037C97.684 101.037 97.7124 101.029 97.7375 101.015L103.16 97.8945C103.184 97.879 103.204 97.858 103.218 97.8332C103.233 97.8085 103.241 97.7806 103.242 97.752V91.497C103.241 91.4674 103.233 91.4385 103.219 91.4125C103.204 91.3865 103.184 91.3641 103.16 91.347L97.7375 88.2195C97.7124 88.205 97.684 88.1974 97.655 88.1974C97.626 88.1974 97.5976 88.205 97.5725 88.2195L92.1575 91.347C92.1319 91.3627 92.1108 91.3847 92.0963 91.4111C92.0819 91.4374 92.0745 91.467 92.075 91.497V97.752C92.0743 97.7811 92.0816 97.8097 92.0961 97.8349C92.1107 97.86 92.1319 97.8807 92.1575 97.8945L93.6575 98.7495C94.46 99.1545 94.955 98.682 94.955 98.202V92.0295C94.955 91.9877 94.9716 91.9477 95.0011 91.9181C95.0307 91.8886 95.0707 91.872 95.1125 91.872H95.8025C95.8232 91.872 95.8437 91.8761 95.8628 91.884C95.8819 91.8919 95.8992 91.9035 95.9139 91.9181C95.9285 91.9328 95.9401 91.9501 95.948 91.9692C95.9559 91.9883 95.96 92.0088 95.96 92.0295V98.202C95.9898 98.4239 95.9696 98.6496 95.9008 98.8626C95.832 99.0756 95.7164 99.2705 95.5625 99.433C95.4086 99.5956 95.2203 99.7216 95.0113 99.8019C94.8024 99.8822 94.5781 99.9147 94.355 99.897C93.913 99.9046 93.4782 99.7848 93.1025 99.552L91.685 98.7345C91.5119 98.6354 91.368 98.4924 91.2679 98.3199C91.1678 98.1474 91.1151 97.9515 91.115 97.752V91.497C91.1153 91.2966 91.168 91.0997 91.268 90.926C91.368 90.7523 91.5118 90.6079 91.685 90.507L97.085 87.3945C97.2597 87.2987 97.4557 87.2484 97.655 87.2484C97.8543 87.2484 98.0503 87.2987 98.225 87.3945L103.647 90.522C103.819 90.6244 103.961 90.7694 104.059 90.9429C104.158 91.1164 104.21 91.3125 104.21 91.512V97.767C104.21 97.9656 104.158 98.1607 104.059 98.333C103.961 98.5053 103.819 98.6489 103.647 98.7495L98.225 101.862C98.0532 101.966 97.8559 102.021 97.655 102.02V102.02Z" fill="#679E63"/>
<path d="M99.3275 97.7071C96.9575 97.7071 96.4625 96.6196 96.4625 95.7121C96.4625 95.6703 96.4791 95.6302 96.5087 95.6007C96.5382 95.5711 96.5783 95.5546 96.62 95.5546H97.3175C97.3546 95.5539 97.3907 95.5663 97.4195 95.5896C97.4483 95.6129 97.468 95.6457 97.475 95.682C97.58 96.432 97.895 96.7545 99.3275 96.7545C100.468 96.7545 100.955 96.4996 100.955 95.8921C100.955 95.5471 100.82 95.2846 99.0425 95.1421C97.5425 94.9921 96.6425 94.6695 96.6425 93.4845C96.6425 92.2995 97.565 91.7371 99.11 91.7371C100.85 91.7371 101.705 92.3371 101.818 93.6346C101.817 93.6786 101.801 93.7211 101.773 93.7545C101.758 93.7695 101.74 93.7812 101.721 93.7889C101.702 93.7967 101.681 93.8003 101.66 93.7996H100.955C100.92 93.8003 100.886 93.7886 100.858 93.7667C100.831 93.7448 100.812 93.7139 100.805 93.6796C100.633 92.9296 100.228 92.6896 99.11 92.6896C97.865 92.6896 97.7225 93.1246 97.7225 93.4396C97.7225 93.7546 97.895 93.9496 99.575 94.1896C101.255 94.4296 102.028 94.7221 102.028 95.8921C102.028 97.0621 101.045 97.7071 99.3275 97.7071V97.7071ZM107.143 91.1446C107.143 91.3507 107.081 91.5523 106.967 91.7237C106.852 91.8952 106.689 92.0288 106.499 92.1077C106.308 92.1866 106.099 92.2072 105.897 92.167C105.694 92.1268 105.509 92.0275 105.363 91.8817C105.217 91.7359 105.118 91.5502 105.078 91.3479C105.037 91.1457 105.058 90.9361 105.137 90.7456C105.216 90.5551 105.349 90.3923 105.521 90.2777C105.692 90.1632 105.894 90.1021 106.1 90.1021C106.377 90.1021 106.642 90.2119 106.837 90.4074C107.033 90.6029 107.143 90.8681 107.143 91.1446ZM105.223 91.1446C105.223 91.376 105.314 91.5981 105.477 91.7624C105.64 91.9267 105.861 92.0201 106.093 92.022C106.21 92.024 106.326 92.0029 106.435 91.9599C106.544 91.9169 106.644 91.8528 106.728 91.7713C106.812 91.6898 106.88 91.5925 106.926 91.485C106.973 91.3774 106.998 91.2618 107 91.1446C107 90.9118 106.908 90.6886 106.743 90.5241C106.578 90.3595 106.355 90.2671 106.123 90.2671C105.89 90.2671 105.667 90.3595 105.502 90.5241C105.337 90.6886 105.245 90.9118 105.245 91.1446H105.223ZM105.703 90.5596H106.108C106.25 90.5596 106.52 90.5596 106.52 90.8671C106.526 90.9344 106.507 91.0016 106.465 91.0547C106.423 91.1078 106.362 91.1427 106.295 91.152C106.46 91.152 106.468 91.272 106.49 91.422C106.499 91.5264 106.519 91.6294 106.55 91.7295H106.303C106.303 91.677 106.258 91.3771 106.258 91.3621C106.258 91.3471 106.258 91.2571 106.138 91.2571H105.935V91.7295H105.703V90.5596ZM105.928 91.0696H106.108C106.131 91.0729 106.154 91.0711 106.177 91.0642C106.199 91.0574 106.219 91.0456 106.237 91.0298C106.254 91.014 106.267 90.9946 106.276 90.9729C106.285 90.9512 106.289 90.9279 106.288 90.9046C106.288 90.7471 106.175 90.7471 106.115 90.7471H105.928V91.0696Z" fill="#679E63"/>
<path fill-rule="evenodd" clip-rule="evenodd" d="M80.8775 77.5545C80.8778 77.432 80.8461 77.3116 80.7856 77.2051C80.7251 77.0985 80.6379 77.0096 80.5325 76.947L74.7875 73.647C74.6895 73.589 74.5788 73.5555 74.465 73.5495H74.4125C74.2987 73.5555 74.1881 73.589 74.09 73.647L68.345 76.947C68.2397 77.0096 68.1525 77.0985 68.092 77.2051C68.0315 77.3116 67.9998 77.432 68 77.5545V86.457C67.999 86.518 68.0145 86.578 68.0449 86.6308C68.0753 86.6837 68.1194 86.7273 68.1725 86.757C68.2252 86.7866 68.2846 86.8021 68.345 86.8021C68.4055 86.8021 68.4649 86.7866 68.5175 86.757L71.93 84.7995C72.0353 84.7388 72.1226 84.6513 72.1832 84.5459C72.2438 84.4406 72.2755 84.3211 72.275 84.1995V80.037C72.2761 79.9158 72.3084 79.7969 72.3688 79.6918C72.4293 79.5867 72.5158 79.4989 72.62 79.437L74.075 78.597C74.1834 78.5386 74.3044 78.5077 74.4275 78.507C74.5481 78.5089 74.6665 78.5397 74.7725 78.597L76.25 79.437C76.3562 79.4974 76.4446 79.5846 76.5065 79.6899C76.5683 79.7952 76.6015 79.9149 76.6025 80.037V84.1995C76.6021 84.3211 76.6338 84.4406 76.6944 84.5459C76.755 84.6513 76.8423 84.7388 76.9475 84.7995L80.36 86.757C80.4126 86.7874 80.4722 86.8033 80.5329 86.8033C80.5935 86.8032 80.6531 86.7872 80.7056 86.7567C80.7581 86.7263 80.8016 86.6826 80.8318 86.63C80.862 86.5774 80.8778 86.5177 80.8775 86.457V77.5545ZM108.5 65.3145C108.448 65.286 108.389 65.2716 108.329 65.2726C108.27 65.2736 108.211 65.2899 108.16 65.3202C108.109 65.3504 108.066 65.3934 108.036 65.4449C108.006 65.4965 107.991 65.555 107.99 65.6145V74.4345C107.989 74.4776 107.977 74.5196 107.954 74.5565C107.932 74.5933 107.9 74.6237 107.863 74.6445C107.826 74.6664 107.785 74.6779 107.743 74.6779C107.7 74.6779 107.659 74.6664 107.623 74.6445L106.183 73.812C106.078 73.7515 105.959 73.7196 105.838 73.7196C105.716 73.7196 105.597 73.7515 105.493 73.812L99.74 77.127C99.6353 77.1884 99.5484 77.276 99.4879 77.3812C99.4274 77.4865 99.3954 77.6057 99.395 77.727V84.3945C99.3948 84.5171 99.4265 84.6375 99.487 84.744C99.5475 84.8506 99.6347 84.9395 99.74 85.002L105.5 88.287C105.604 88.3499 105.723 88.3831 105.845 88.3831C105.967 88.3831 106.086 88.3499 106.19 88.287L111.943 84.972C112.048 84.9095 112.135 84.8206 112.196 84.714C112.256 84.6075 112.288 84.4871 112.288 84.3645V67.8645C112.287 67.7414 112.254 67.6205 112.19 67.5149C112.127 67.4093 112.036 67.3228 111.928 67.2645L108.5 65.3145ZM107.968 82.1895C107.968 82.2196 107.961 82.2492 107.946 82.2755C107.932 82.3018 107.911 82.3239 107.885 82.3395L105.913 83.472C105.887 83.4898 105.857 83.4993 105.826 83.4993C105.795 83.4993 105.765 83.4898 105.74 83.472L103.775 82.3395C103.749 82.3239 103.728 82.3018 103.714 82.2755C103.699 82.2492 103.692 82.2196 103.693 82.1895V79.8945C103.692 79.8645 103.699 79.8349 103.714 79.8086C103.728 79.7823 103.749 79.7602 103.775 79.7445L105.755 78.6045C105.781 78.5901 105.811 78.5825 105.841 78.5825C105.871 78.5825 105.901 78.5901 105.928 78.6045L107.9 79.7445C107.926 79.7602 107.947 79.7823 107.961 79.8086C107.976 79.8349 107.983 79.8645 107.983 79.8945L107.968 82.1895ZM127.655 79.8495C127.76 79.7882 127.847 79.7006 127.907 79.5954C127.968 79.4901 128 79.3709 128 79.2495V77.6445C128 77.5232 127.968 77.404 127.907 77.2987C127.847 77.1935 127.76 77.1059 127.655 77.0445L121.948 73.7295C121.842 73.6668 121.722 73.6337 121.599 73.6337C121.476 73.6337 121.356 73.6668 121.25 73.7295L115.505 77.0445C115.399 77.1047 115.312 77.1921 115.251 77.2976C115.19 77.4031 115.159 77.5229 115.16 77.6445V84.2745C115.16 84.3971 115.192 84.5175 115.252 84.624C115.313 84.7306 115.4 84.8195 115.505 84.882L121.25 88.1445C121.353 88.2038 121.469 88.235 121.588 88.235C121.706 88.235 121.822 88.2038 121.925 88.1445L125.383 86.2245C125.435 86.1934 125.479 86.1497 125.511 86.0973C125.542 86.045 125.56 85.9856 125.563 85.9245C125.563 85.8619 125.546 85.8004 125.514 85.7464C125.483 85.6923 125.437 85.6477 125.383 85.617L119.57 82.2945C119.518 82.2636 119.475 82.2197 119.444 82.1672C119.414 82.1146 119.398 82.0552 119.398 81.9945V79.8945C119.397 79.8338 119.413 79.774 119.443 79.7214C119.474 79.6687 119.517 79.6249 119.57 79.5945L121.37 78.552C121.423 78.5225 121.482 78.507 121.543 78.507C121.603 78.507 121.662 78.5225 121.715 78.552L123.5 79.617C123.555 79.6458 123.6 79.689 123.632 79.7419C123.664 79.7948 123.68 79.8554 123.68 79.917V81.552C123.68 81.6127 123.696 81.6724 123.726 81.725C123.756 81.7776 123.8 81.8213 123.852 81.8517C123.904 81.8822 123.964 81.8982 124.025 81.8983C124.085 81.8983 124.145 81.8824 124.198 81.852L127.655 79.8495Z" fill="#333333"/>
<path fill-rule="evenodd" clip-rule="evenodd" d="M121.513 79.542C121.532 79.5274 121.556 79.5195 121.58 79.5195C121.604 79.5195 121.628 79.5274 121.648 79.542L122.75 80.172C122.769 80.186 122.785 80.2039 122.797 80.2247C122.809 80.2454 122.816 80.2683 122.818 80.292V81.567C122.816 81.5898 122.809 81.6119 122.797 81.6315C122.786 81.6511 122.769 81.6676 122.75 81.6795L121.648 82.317C121.627 82.3282 121.604 82.334 121.58 82.334C121.556 82.334 121.533 82.3282 121.513 82.317L120.41 81.6795C120.391 81.6676 120.374 81.6511 120.363 81.6315C120.351 81.6119 120.344 81.5898 120.343 81.567V80.292C120.344 80.2683 120.352 80.2454 120.363 80.2247C120.375 80.2039 120.391 80.186 120.41 80.172L121.513 79.542Z" fill="#679E63"/>
<path fill-rule="evenodd" clip-rule="evenodd" d="M90.5 73.7596C90.3947 73.7004 90.2759 73.6694 90.155 73.6694C90.0342 73.6694 89.9154 73.7004 89.81 73.7596L84.095 77.0596C83.9915 77.1185 83.9051 77.2035 83.8446 77.3061C83.7841 77.4087 83.7515 77.5254 83.75 77.6446V84.2446C83.7486 84.3653 83.7799 84.4841 83.8407 84.5885C83.9014 84.6928 83.9893 84.7787 84.095 84.8371L89.8025 88.1446C89.9075 88.2089 90.0282 88.2429 90.1513 88.2429C90.2744 88.2429 90.3951 88.2089 90.5 88.1446L96.2075 84.8446C96.3133 84.7862 96.4012 84.7003 96.4619 84.596C96.5227 84.4916 96.554 84.3728 96.5525 84.2521V77.6446C96.5538 77.5229 96.5224 77.4031 96.4617 77.2976C96.4011 77.1921 96.3133 77.1047 96.2075 77.0446L90.5 73.7596Z" fill="url(#paint0_linear_655_6538)"/>
<path d="M96.215 77.0596L90.5 73.7596C90.4426 73.7306 90.3823 73.7079 90.32 73.6921L83.87 84.6946C83.9223 84.7611 83.989 84.8149 84.065 84.8521L89.8025 88.1446C89.8817 88.1921 89.97 88.2226 90.0617 88.2342C90.1533 88.2458 90.2464 88.2383 90.335 88.2121L96.335 77.1721C96.2992 77.1303 96.259 77.0926 96.215 77.0596V77.0596Z" fill="url(#paint1_linear_655_6538)"/>
<path d="M89.6075 72.5446L89.5325 72.5971H89.6375L89.6075 72.5446Z" fill="url(#paint2_linear_655_6538)"/>
<path d="M96.215 84.8521C96.2986 84.8074 96.3719 84.7455 96.4301 84.6706C96.4882 84.5956 96.5299 84.5092 96.5525 84.4171L90.275 73.6846C90.1088 73.6487 89.9352 73.6754 89.7875 73.7596L84.095 77.0371L90.245 88.2421C90.335 88.2245 90.4212 88.1915 90.5 88.1446L96.215 84.8521Z" fill="url(#paint3_linear_655_6538)"/>
<path d="M96.7475 84.7471L96.71 84.6871V84.7696L96.7475 84.7471Z" fill="url(#paint4_linear_655_6538)"/>
<path d="M96.215 84.852L90.5 88.1445C90.4208 88.1889 90.3345 88.2193 90.245 88.2345L90.3575 88.4445L96.71 84.762V84.6795L96.5525 84.3945C96.5329 84.4907 96.4926 84.5815 96.4343 84.6605C96.376 84.7396 96.3011 84.8049 96.215 84.852V84.852Z" fill="url(#paint5_linear_655_6538)"/>
<path d="M96.215 84.852L90.5 88.1445C90.4208 88.1889 90.3345 88.2193 90.245 88.2345L90.3575 88.4445L96.71 84.762V84.6795L96.5525 84.3945C96.5329 84.4907 96.4926 84.5815 96.4343 84.6605C96.376 84.7396 96.3011 84.8049 96.215 84.852V84.852Z" fill="url(#paint6_linear_655_6538)"/>
</g>
<defs>
<filter id="filter0_d_655_6538" x="5.12952" y="2.83258" width="185.741" height="199.624" filterUnits="userSpaceOnUse" color-interpolation-filters="sRGB">
<feFlood flood-opacity="0" result="BackgroundImageFix"/>
<feColorMatrix in="SourceAlpha" type="matrix" values="0 0 0 0 0 0 0 0 0 0 0 0 0 0 0 0 0 0 127 0" result="hardAlpha"/>
<feOffset dy="4"/>
<feGaussianBlur stdDeviation="4"/>
<feColorMatrix type="matrix" values="0 0 0 0 0.0627451 0 0 0 0 0.0941176 0 0 0 0 0.156863 0 0 0 0.04 0"/>
<feBlend mode="normal" in2="BackgroundImageFix" result="effect1_dropShadow_655_6538"/>
<feBlend mode="normal" in="SourceGraphic" in2="effect1_dropShadow_655_6538" result="shape"/>
</filter>
<linearGradient id="paint0_linear_655_6538" x1="92.465" y1="76.2196" x2="87.3051" y2="86.7496" gradientUnits="userSpaceOnUse">
<stop stop-color="#3F873F"/>
<stop offset="0.33" stop-color="#3F8B3D"/>
<stop offset="0.64" stop-color="#3E9637"/>
<stop offset="0.93" stop-color="#3DA92E"/>
<stop offset="1" stop-color="#3DAE2B"/>
</linearGradient>
<linearGradient id="paint1_linear_655_6538" x1="89.2775" y1="81.7321" x2="103.76" y2="71.0221" gradientUnits="userSpaceOnUse">
<stop offset="0.14" stop-color="#3F873F"/>
<stop offset="0.4" stop-color="#529F44"/>
<stop offset="0.71" stop-color="#63B649"/>
<stop offset="0.91" stop-color="#6ABF4B"/>
</linearGradient>
<linearGradient id="paint2_linear_655_6538" x1="83.5399" y1="72.5671" x2="96.7475" y2="72.5671" gradientUnits="userSpaceOnUse">
<stop offset="0.09" stop-color="#6ABF4B"/>
<stop offset="0.29" stop-color="#63B649"/>
<stop offset="0.6" stop-color="#529F44"/>
<stop offset="0.86" stop-color="#3F873F"/>
</linearGradient>
<linearGradient id="paint3_linear_655_6538" x1="83.54" y1="80.9521" x2="96.7475" y2="80.9521" gradientUnits="userSpaceOnUse">
<stop offset="0.09" stop-color="#6ABF4B"/>
<stop offset="0.29" stop-color="#63B649"/>
<stop offset="0.6" stop-color="#529F44"/>
<stop offset="0.86" stop-color="#3F873F"/>
</linearGradient>
<linearGradient id="paint4_linear_655_6538" x1="83.5392" y1="84.7246" x2="96.7475" y2="84.7246" gradientUnits="userSpaceOnUse">
<stop offset="0.09" stop-color="#6ABF4B"/>
<stop offset="0.29" stop-color="#63B649"/>
<stop offset="0.6" stop-color="#529F44"/>
<stop offset="0.86" stop-color="#3F873F"/>
</linearGradient>
<linearGradient id="paint5_linear_655_6538" x1="83.54" y1="86.4345" x2="96.7475" y2="86.4345" gradientUnits="userSpaceOnUse">
<stop offset="0.09" stop-color="#6ABF4B"/>
<stop offset="0.29" stop-color="#63B649"/>
<stop offset="0.6" stop-color="#529F44"/>
<stop offset="0.86" stop-color="#3F873F"/>
</linearGradient>
<linearGradient id="paint6_linear_655_6538" x1="98.675" y1="75.9045" x2="90.53" y2="92.5245" gradientUnits="userSpaceOnUse">
<stop stop-color="#3F873F"/>
<stop offset="0.33" stop-color="#3F8B3D"/>
<stop offset="0.64" stop-color="#3E9637"/>
<stop offset="0.93" stop-color="#3DA92E"/>
<stop offset="1" stop-color="#3DAE2B"/>
</linearGradient>
<clipPath id="clip0_655_6538">
<rect width="60" height="60" fill="white" transform="translate(68 53.6445)"/>
</clipPath>
</defs>
</svg>
