<svg width="81" height="80" viewBox="0 0 81 80" fill="none" xmlns="http://www.w3.org/2000/svg">
<circle cx="40.8584" cy="40" r="40" fill="#4285F4"/>
<path d="M40.3106 60C39.7792 59.7287 39.179 59.5398 38.7323 59.1693C37.7753 58.3752 37.4853 57.3056 37.7563 56.1034C37.8082 55.8738 37.7626 55.758 37.5551 55.6411C34.6293 53.984 31.7056 52.3226 28.7882 50.6509C28.5564 50.5184 28.4346 50.5653 28.2525 50.7281C26.3905 52.3978 23.506 51.5045 22.9375 49.0897C22.5691 47.5223 23.5197 45.8934 25.1118 45.4133C25.3923 45.3288 25.477 45.2192 25.477 44.9364C25.4675 41.643 25.4675 38.3506 25.4759 35.0572C25.477 34.7995 25.4219 34.6732 25.1435 34.596C23.905 34.2495 22.7523 33.0296 22.8729 31.2869C22.964 29.9783 24.0395 28.7386 25.441 28.4777C26.4837 28.2825 27.4385 28.5298 28.2282 29.2509C28.4336 29.4388 28.5669 29.4836 28.8273 29.3334C31.7204 27.672 34.6208 26.0222 37.5255 24.3818C37.769 24.244 37.806 24.1167 37.7425 23.86C37.4313 22.6077 37.9712 21.2783 39.0615 20.5499C40.1687 19.81 41.6073 19.8173 42.704 20.5686C43.7604 21.2918 44.2834 22.6317 43.9912 23.8631C43.9668 23.9633 43.9457 24.0645 43.915 24.2002C44.2844 24.4151 44.6549 24.6332 45.0286 24.8461C47.6422 26.3342 50.2579 27.8171 52.8672 29.3125C53.1202 29.4576 53.2684 29.469 53.5024 29.2541C54.4826 28.3535 55.8799 28.1698 57.0676 28.7427C58.2934 29.3344 58.9592 30.5366 58.846 31.9527C58.7518 33.1225 57.8181 34.2307 56.5838 34.5991C56.3382 34.6721 56.2514 34.7671 56.2525 35.0217C56.261 38.3412 56.261 41.6597 56.2525 44.9792C56.2514 45.2318 56.3308 45.3309 56.5796 45.405C58.0774 45.8558 58.9423 47.1446 58.8491 48.7485C58.7729 50.0592 57.6561 51.2854 56.2536 51.5316C55.1929 51.7174 54.2338 51.4482 53.4463 50.702C53.2822 50.5476 53.17 50.5236 52.9752 50.6363C49.989 52.3446 46.9986 54.0466 44.0092 55.7507C43.9869 55.7632 43.969 55.7841 43.9965 55.7601C43.9965 56.3789 44.096 56.9769 43.9764 57.5289C43.7033 58.7926 42.8691 59.5899 41.5936 59.9228C41.5332 59.9384 41.4771 59.9739 41.4189 60C41.0505 60 40.68 60 40.3106 60ZM43.4037 25.2928C42.74 25.6747 42.1355 26.0222 41.4803 26.3989C41.4803 26.5482 41.4803 26.7819 41.4803 27.0157C41.4792 27.5103 41.493 28.006 41.4718 28.4996C41.4559 28.8596 41.1913 29.1069 40.8748 29.1132C40.5583 29.1194 40.2979 28.8732 40.2566 28.5194C40.2428 28.4036 40.2502 28.2857 40.2502 28.1688C40.2502 27.5458 40.2502 26.9217 40.2502 26.401C39.5802 26.0149 38.9768 25.6664 38.3311 25.2938C35.3788 26.9729 32.3523 28.6905 29.3344 30.4207C29.2412 30.474 29.1851 30.6576 29.182 30.7829C29.1661 31.3088 29.2052 31.8379 29.165 32.3617C29.1491 32.5663 29.1714 32.6623 29.3492 32.7593C29.8795 33.0484 30.4014 33.3541 30.9243 33.6557C31.3531 33.903 31.4854 34.2213 31.3001 34.5438C31.1085 34.8777 30.7708 34.933 30.34 34.693C29.8012 34.3914 29.2688 34.0784 28.7278 33.782C28.641 33.734 28.4886 33.6975 28.4198 33.7392C27.8598 34.0846 27.3125 34.4509 26.6954 34.8537C26.6954 38.2473 26.6954 41.7714 26.6954 45.19C27.3496 45.5667 27.9445 45.909 28.6082 46.291C29.1047 46.0082 29.6954 45.6701 30.2881 45.3351C30.7571 45.07 31.0831 45.1076 31.2885 45.4446C31.4917 45.7765 31.3573 46.0989 30.9042 46.3588C30.3802 46.6604 29.8488 46.9484 29.3365 47.2677C29.2433 47.3262 29.1841 47.5025 29.182 47.6246C29.1735 48.1255 29.2529 48.6358 29.182 49.1263C29.1375 49.4299 29.219 49.5364 29.4487 49.6637C30.2299 50.0968 31.0027 50.5444 31.7797 50.9859C33.9931 52.2444 36.2076 53.5029 38.3321 54.7113C38.9937 54.3315 39.5971 53.984 40.2534 53.6073C40.2534 53.457 40.2534 53.2232 40.2534 52.9905C40.2545 52.4959 40.2407 52.0012 40.2619 51.5066C40.2767 51.1476 40.5403 50.8993 40.8578 50.893C41.1744 50.8867 41.4337 51.1309 41.4771 51.4857C41.4909 51.6016 41.4845 51.7195 41.4845 51.8364C41.4856 52.4594 41.4845 53.0834 41.4845 53.6041C42.1546 53.9902 42.758 54.3377 43.4079 54.7124C46.3571 53.0354 49.3835 51.3167 52.4014 49.5854C52.4946 49.5322 52.5507 49.3475 52.5528 49.2233C52.5613 48.7214 52.483 48.2121 52.5539 47.7206C52.5973 47.419 52.5253 47.3095 52.2903 47.1832C51.7695 46.9046 51.2519 46.6165 50.7512 46.3035C50.5977 46.2075 50.4188 46.0301 50.4018 45.8746C50.3807 45.6867 50.4632 45.3914 50.604 45.3059C50.7797 45.1994 51.1026 45.1733 51.2857 45.2641C51.9537 45.5918 52.5899 45.9831 53.1244 46.2857C53.8062 45.8975 54.4021 45.5584 55.0415 45.1942C55.0415 41.7578 55.0415 38.2338 55.0415 34.812C54.3778 34.43 53.7733 34.0815 53.1287 33.711C52.5899 34.0158 51.9865 34.3612 51.3789 34.6993C50.9618 34.932 50.6485 34.8808 50.4473 34.5605C50.2483 34.2432 50.3732 33.9093 50.7935 33.6662C51.3164 33.3635 51.8383 33.0599 52.3686 32.7708C52.5581 32.6675 52.5899 32.5704 52.5655 32.345C52.5105 31.8483 52.4967 31.337 52.5592 30.8423C52.593 30.5762 52.5327 30.4802 52.3242 30.3633C51.1216 29.6882 49.9265 29.0005 48.7272 28.318C46.9192 27.2922 45.1164 26.2664 43.4037 25.2928ZM42.8554 23.1671C42.8575 22.064 41.9577 21.1708 40.8526 21.1791C39.758 21.1875 38.8762 22.0661 38.8741 23.1514C38.872 24.2555 39.7697 25.1456 40.8759 25.1341C41.9768 25.1237 42.8543 24.2524 42.8554 23.1671ZM38.8752 56.8308C38.872 57.9369 39.7654 58.8302 40.8706 58.826C41.9619 58.8218 42.8511 57.9411 42.8554 56.86C42.8596 55.7528 41.9704 54.8668 40.86 54.872C39.7612 54.8762 38.8783 55.7476 38.8752 56.8308ZM26.0518 33.5368C27.1813 33.5441 28.0631 32.6821 28.0609 31.5728C28.0588 30.4834 27.1823 29.613 26.0836 29.6099C24.9668 29.6057 24.0649 30.4865 24.0659 31.5812C24.067 32.6602 24.9498 33.5295 26.0518 33.5368ZM55.6428 33.5378C56.7659 33.543 57.6646 32.6717 57.6646 31.5759C57.6646 30.5001 56.7722 29.6162 55.6809 29.6099C54.5567 29.6036 53.6675 30.474 53.6685 31.577C53.6696 32.6717 54.5355 33.5315 55.6428 33.5378ZM26.0867 46.4652C24.9636 46.459 24.0649 47.3314 24.0659 48.4261C24.068 49.5009 24.9625 50.389 26.0497 50.3952C27.1696 50.4015 28.062 49.527 28.062 48.424C28.0609 47.3303 27.1961 46.4715 26.0867 46.4652ZM55.6576 46.4652C54.545 46.4663 53.6791 47.3136 53.6685 48.4104C53.659 49.5113 54.5493 50.3973 55.666 50.3952C56.7553 50.3942 57.6561 49.5124 57.6646 48.4407C57.672 47.3449 56.7775 46.4642 55.6576 46.4652Z" fill="white"/>
<path d="M47.7237 36.637C48.2445 37.1557 48.8056 37.6326 49.265 38.1909C49.9213 38.9892 50.205 39.9524 50.2791 40.9729C50.2886 41.1013 50.2918 41.238 50.2547 41.3591C50.1669 41.6523 49.9637 41.8182 49.6387 41.7984C49.3349 41.7796 49.1464 41.6158 49.0967 41.3246C49.0374 40.9792 49.0311 40.6234 48.9474 40.2842C48.6447 39.0633 47.9069 38.17 46.7636 37.6169C46.6091 37.5418 46.3931 37.5606 46.21 37.5773C45.7019 37.6211 45.1959 37.7108 44.6878 37.7338C44.4517 37.7442 44.3173 37.7734 44.2008 38.0051C44.0177 38.3724 43.7679 38.7074 43.5678 39.0226C44.0061 39.4254 44.4941 39.8073 44.8974 40.2612C45.6881 41.1514 46.0777 42.2148 46.1253 43.3992C46.1443 43.8625 45.9517 44.1276 45.5748 44.1505C45.1747 44.1756 44.9397 43.9241 44.9143 43.4514C44.8286 41.8756 44.0707 40.7194 42.6554 39.9962C42.4828 39.9075 42.2235 39.8877 42.035 39.943C41.2506 40.1715 40.4832 40.1715 39.6998 39.944C39.5125 39.8897 39.2542 39.9064 39.0817 39.9941C37.66 40.71 36.9 41.8641 36.8174 43.442C36.7941 43.8886 36.6025 44.1307 36.2458 44.1526C35.8245 44.1787 35.5789 43.9011 35.6032 43.4117C35.6921 41.6439 36.4765 40.256 37.9511 39.2469C38.0358 39.1885 38.1226 39.1321 38.1882 39.0883C37.9342 38.6667 37.6971 38.2545 37.4356 37.858C37.388 37.786 37.2429 37.7578 37.1381 37.7432C36.5686 37.668 35.9981 37.5981 35.4265 37.5407C35.292 37.5272 35.1332 37.5345 35.0168 37.5919C33.6502 38.2618 32.8573 39.3377 32.6901 40.8435C32.6752 40.9729 32.6721 41.1034 32.652 41.2317C32.5927 41.6179 32.3778 41.812 32.0295 41.7994C31.6813 41.7869 31.441 41.5385 31.4494 41.1462C31.4748 40.0651 31.7723 39.0528 32.4551 38.2055C32.9081 37.643 33.4734 37.1682 33.9688 36.6725C33.7296 36.2217 33.3813 35.7375 33.2014 35.198C32.5969 33.3822 33.5666 31.436 35.3703 30.7295C37.1572 30.0303 39.2203 30.8245 40.046 32.5536C40.1773 32.8291 40.3032 32.898 40.6007 32.8458C40.8928 32.7947 41.2009 32.8343 41.5174 32.8343C42.5813 30.3977 45.2361 29.9636 46.9796 31.0342C48.5547 32.0037 49.5815 34.5155 47.7237 36.637ZM43.3424 36.4627C43.335 35.0957 42.2319 34.0177 40.8495 34.0292C39.4606 34.0407 38.3819 35.1207 38.3883 36.493C38.3947 37.8611 39.485 38.9245 40.8802 38.9203C42.2669 38.9161 43.3498 37.8361 43.3424 36.4627ZM39.0404 33.3008C38.5937 32.0392 37.2334 31.3849 35.9568 31.7908C34.6728 32.1988 33.9497 33.5387 34.3298 34.8046C34.6971 36.0265 35.9928 36.8144 37.1466 36.5014C37.2112 35.126 37.8167 34.0449 39.0404 33.3008ZM44.5841 36.5306C45.9803 36.708 47.2019 35.8836 47.4432 34.6449C47.7026 33.3144 46.9055 32.0496 45.6119 31.7386C44.367 31.4391 43.0714 32.1258 42.6966 33.3019C43.9055 34.0334 44.5227 35.1228 44.5841 36.5306Z" fill="white"/>
<path d="M40.8377 49.5301C39.2414 49.5301 37.6451 49.5406 36.0488 49.5187C35.8286 49.5155 35.547 49.407 35.4041 49.2494C35.1194 48.9353 35.3586 48.4281 35.7863 48.3634C35.9154 48.3436 36.0498 48.3509 36.1811 48.3509C39.3081 48.3499 42.434 48.3509 45.561 48.3509C45.6531 48.3509 45.7462 48.3488 45.8383 48.3541C46.2088 48.3781 46.4407 48.6076 46.4364 48.9437C46.4333 49.2713 46.1877 49.5176 45.8246 49.526C45.2837 49.5374 44.7427 49.5301 44.2018 49.5301C43.0808 49.5301 41.9598 49.5301 40.8377 49.5301Z" fill="white"/>
<path d="M44.9491 47.2437C44.6728 47.2447 44.3955 47.2572 44.1203 47.2416C43.7169 47.2186 43.4819 46.9891 43.4819 46.6426C43.4809 46.2982 43.7159 46.054 44.1171 46.0405C44.6823 46.0217 45.2497 46.0206 45.815 46.0415C46.2098 46.0561 46.4449 46.3139 46.4353 46.6582C46.4258 46.987 46.1971 47.2155 45.8182 47.2385C45.5292 47.2572 45.2381 47.2437 44.9491 47.2437Z" fill="white"/>
<path d="M35.8742 46.0435C36.1918 46.0331 36.4882 46.3086 36.4998 46.6227C36.5104 46.9347 36.232 47.2269 35.9112 47.2394C35.5884 47.2519 35.3036 46.9848 35.2952 46.6592C35.2856 46.3326 35.5471 46.0539 35.8742 46.0435Z" fill="white"/>
<path d="M38.5586 46.6237C38.5691 46.9347 38.2886 47.2279 37.969 47.2404C37.6461 47.253 37.3613 46.9837 37.3518 46.6592C37.3423 46.3336 37.6069 46.0539 37.933 46.0435C38.2495 46.0331 38.548 46.3096 38.5586 46.6237Z" fill="white"/>
<path d="M40.01 47.2396C39.6861 47.2417 39.4087 46.9662 39.4087 46.6427C39.4087 46.3202 39.6861 46.0427 40.0089 46.0437C40.3265 46.0447 40.6176 46.3296 40.6186 46.6417C40.6186 46.9526 40.3286 47.2386 40.01 47.2396Z" fill="white"/>
</svg>
