<svg width="196" height="202" viewBox="0 0 196 202" fill="none" xmlns="http://www.w3.org/2000/svg">
<g filter="url(#filter0_d_655_6615)">
<path d="M78 12.1915C90.376 5.04623 105.624 5.04623 118 12.1915L162.87 38.0975C175.247 45.2428 182.87 58.4479 182.87 72.7385V124.551C182.87 138.841 175.247 152.046 162.87 159.192L118 185.098C105.624 192.243 90.376 192.243 78 185.098L33.1295 159.192C20.7535 152.046 13.1295 138.841 13.1295 124.551V72.7385C13.1295 58.4479 20.7535 45.2428 33.1295 38.0975L78 12.1915Z" fill="white"/>
</g>
<path d="M82.6451 133.045V145.645H84.1751V133.045H82.6451ZM83.4911 134.485H86.0651C86.8811 134.485 87.5411 134.683 88.0451 135.079C88.5611 135.463 88.8191 136.045 88.8191 136.825C88.8191 137.593 88.5611 138.175 88.0451 138.571C87.5411 138.967 86.8811 139.165 86.0651 139.165H83.4911V140.605H86.0651C86.8811 140.605 87.6071 140.455 88.2431 140.155C88.8911 139.843 89.4011 139.405 89.7731 138.841C90.1571 138.265 90.3491 137.593 90.3491 136.825C90.3491 136.045 90.1571 135.373 89.7731 134.809C89.4011 134.245 88.8911 133.813 88.2431 133.513C87.6071 133.201 86.8811 133.045 86.0651 133.045H83.4911V134.485ZM93.3524 139.525H101.992V138.085H93.3524V139.525ZM100.966 133.045V145.645H102.496V133.045H100.966ZM92.5064 133.045V145.645H94.0364V133.045H92.5064ZM105.374 133.045V145.645H106.904V133.045H105.374ZM106.22 134.485H108.794C109.61 134.485 110.27 134.683 110.774 135.079C111.29 135.463 111.548 136.045 111.548 136.825C111.548 137.593 111.29 138.175 110.774 138.571C110.27 138.967 109.61 139.165 108.794 139.165H106.22V140.605H108.794C109.61 140.605 110.336 140.455 110.972 140.155C111.62 139.843 112.13 139.405 112.502 138.841C112.886 138.265 113.078 137.593 113.078 136.825C113.078 136.045 112.886 135.373 112.502 134.809C112.13 134.245 111.62 133.813 110.972 133.513C110.336 133.201 109.61 133.045 108.794 133.045H106.22V134.485Z" fill="#424254"/>
<g clip-path="url(#clip0_655_6615)">
<path d="M68 53.6445H128V113.645H68V53.6445Z" fill="#8892BF"/>
<path d="M78.2976 75.702H85.4151C87.5101 75.702 89.0251 76.2995 89.9601 77.4945C90.8951 78.6895 91.2051 80.302 90.8901 82.332C90.7596 83.2868 90.4813 84.2154 90.0651 85.0845C89.653 85.993 89.0757 86.8169 88.3626 87.5145C87.6015 88.3567 86.6151 88.9631 85.5201 89.262C84.4938 89.5105 83.4411 89.6339 82.3851 89.6295H79.1976L78.1926 94.6545H74.4951L78.2976 75.702ZM81.4026 78.702L79.8126 86.6445C79.9175 86.6519 80.0227 86.6519 80.1276 86.6445H80.5026C81.9376 86.6975 83.372 86.528 84.7551 86.142C85.8876 85.7745 86.6451 84.4845 87.0051 82.287C87.3276 80.4345 87.0051 79.3695 86.0526 79.0845C84.9007 78.7811 83.7107 78.6472 82.5201 78.687C82.3153 78.6977 82.11 78.6977 81.9051 78.687H81.3501M95.0976 70.6545H98.7501L97.7151 75.702H101C102.432 75.624 103.851 76.0136 105.043 76.812C105.943 77.517 106.213 78.852 105.838 80.832L104.075 89.6445H100.325L102.028 81.237C102.129 80.9297 102.167 80.6049 102.139 80.2825C102.11 79.9601 102.016 79.6469 101.863 79.362C101.617 79.1408 101.326 78.9764 101.01 78.8805C100.693 78.7845 100.36 78.7595 100.033 78.807H97.0851L94.9326 89.6445H91.2501L95.0751 70.6695M109.79 75.702H116.908C119.003 75.702 120.518 76.2995 121.453 77.4945C122.388 78.6895 122.698 80.302 122.383 82.332C122.252 83.2868 121.974 84.2154 121.558 85.0845C121.145 85.993 120.568 86.8169 119.855 87.5145C119.094 88.3567 118.108 88.9631 117.013 89.262C115.986 89.5105 114.934 89.6339 113.878 89.6295H110.69L109.685 94.6545H105.988L109.79 75.702ZM112.895 78.702L111.305 86.6445C111.41 86.6519 111.515 86.6519 111.62 86.6445H111.995C113.43 86.6975 114.865 86.528 116.248 86.142C117.38 85.7745 118.138 84.4845 118.498 82.287C118.82 80.4345 118.498 79.3695 117.545 79.0845C116.393 78.7801 115.203 78.6462 114.013 78.687C113.808 78.6977 113.602 78.6977 113.398 78.687H112.843" fill="white"/>
</g>
<defs>
<filter id="filter0_d_655_6615" x="5.12939" y="2.83258" width="185.741" height="199.624" filterUnits="userSpaceOnUse" color-interpolation-filters="sRGB">
<feFlood flood-opacity="0" result="BackgroundImageFix"/>
<feColorMatrix in="SourceAlpha" type="matrix" values="0 0 0 0 0 0 0 0 0 0 0 0 0 0 0 0 0 0 127 0" result="hardAlpha"/>
<feOffset dy="4"/>
<feGaussianBlur stdDeviation="4"/>
<feColorMatrix type="matrix" values="0 0 0 0 0.0627451 0 0 0 0 0.0941176 0 0 0 0 0.156863 0 0 0 0.04 0"/>
<feBlend mode="normal" in2="BackgroundImageFix" result="effect1_dropShadow_655_6615"/>
<feBlend mode="normal" in="SourceGraphic" in2="effect1_dropShadow_655_6615" result="shape"/>
</filter>
<clipPath id="clip0_655_6615">
<rect width="60" height="60" fill="white" transform="translate(68 53.6445)"/>
</clipPath>
</defs>
</svg>
