<svg width="196" height="202" viewBox="0 0 196 202" fill="none" xmlns="http://www.w3.org/2000/svg">
<g filter="url(#filter0_d_713_1697)">
<path d="M78 12.1915C90.376 5.04623 105.624 5.04623 118 12.1915L162.87 38.0975C175.247 45.2428 182.87 58.4479 182.87 72.7385V124.551C182.87 138.841 175.247 152.046 162.87 159.192L118 185.098C105.624 192.243 90.376 192.243 78 185.098L33.1295 159.192C20.7535 152.046 13.1295 138.841 13.1295 124.551V72.7385C13.1295 58.4479 20.7535 45.2428 33.1295 38.0975L78 12.1915Z" fill="white"/>
</g>
<path d="M74.5132 133.045V145.645H76.0432V133.045H74.5132ZM75.3592 134.485H77.9332C78.7492 134.485 79.4092 134.683 79.9132 135.079C80.4292 135.463 80.6872 136.045 80.6872 136.825C80.6872 137.593 80.4292 138.175 79.9132 138.571C79.4092 138.967 78.7492 139.165 77.9332 139.165H75.3592V140.605H77.9332C78.7492 140.605 79.4752 140.455 80.1112 140.155C80.7592 139.843 81.2692 139.405 81.6412 138.841C82.0252 138.265 82.2172 137.593 82.2172 136.825C82.2172 136.045 82.0252 135.373 81.6412 134.809C81.2692 134.245 80.7592 133.813 80.1112 133.513C79.4752 133.201 78.7492 133.045 77.9332 133.045H75.3592V134.485ZM90.8546 137.365H89.2346L86.6786 143.773L87.2726 143.845L84.6446 137.365H82.9346L86.1026 144.475L83.8346 149.605H85.4546L90.8546 137.365ZM90.9523 137.365V138.715H95.0923V137.365H90.9523ZM92.3023 134.485V145.645H93.7423V134.485H92.3023ZM97.9765 131.605H96.5365V145.645H97.9765V131.605ZM101.847 140.605V145.645H103.287V140.425C103.287 139.705 103.167 139.105 102.927 138.625C102.699 138.145 102.369 137.785 101.937 137.545C101.517 137.305 101.019 137.185 100.443 137.185C99.8665 137.185 99.3565 137.335 98.9125 137.635C98.4805 137.935 98.1385 138.343 97.8865 138.859C97.6345 139.363 97.5085 139.945 97.5085 140.605H97.9765C97.9765 140.209 98.0605 139.855 98.2285 139.543C98.4085 139.231 98.6545 138.985 98.9665 138.805C99.2905 138.625 99.6625 138.535 100.083 138.535C100.671 138.535 101.109 138.709 101.397 139.057C101.697 139.405 101.847 139.921 101.847 140.605ZM105.274 141.505C105.274 142.333 105.46 143.077 105.832 143.737C106.216 144.385 106.732 144.895 107.38 145.267C108.028 145.639 108.754 145.825 109.558 145.825C110.374 145.825 111.1 145.639 111.736 145.267C112.384 144.895 112.894 144.385 113.266 143.737C113.65 143.077 113.842 142.333 113.842 141.505C113.842 140.665 113.65 139.921 113.266 139.273C112.894 138.625 112.384 138.115 111.736 137.743C111.1 137.371 110.374 137.185 109.558 137.185C108.754 137.185 108.028 137.371 107.38 137.743C106.732 138.115 106.216 138.625 105.832 139.273C105.46 139.921 105.274 140.665 105.274 141.505ZM106.732 141.505C106.732 140.929 106.852 140.419 107.092 139.975C107.344 139.519 107.68 139.165 108.1 138.913C108.532 138.661 109.018 138.535 109.558 138.535C110.098 138.535 110.578 138.661 110.998 138.913C111.43 139.165 111.766 139.519 112.006 139.975C112.258 140.419 112.384 140.929 112.384 141.505C112.384 142.081 112.258 142.591 112.006 143.035C111.766 143.479 111.43 143.833 110.998 144.097C110.578 144.349 110.098 144.475 109.558 144.475C109.018 144.475 108.532 144.349 108.1 144.097C107.68 143.833 107.344 143.479 107.092 143.035C106.852 142.591 106.732 142.081 106.732 141.505ZM121.13 140.605V145.645H122.57V140.425C122.57 139.429 122.312 138.643 121.796 138.067C121.292 137.479 120.602 137.185 119.726 137.185C119.186 137.185 118.706 137.305 118.286 137.545C117.878 137.785 117.536 138.157 117.26 138.661V137.365H115.82V145.645H117.26V140.605C117.26 140.197 117.344 139.837 117.512 139.525C117.692 139.213 117.938 138.973 118.25 138.805C118.574 138.625 118.946 138.535 119.366 138.535C119.942 138.535 120.38 138.709 120.68 139.057C120.98 139.405 121.13 139.921 121.13 140.605Z" fill="#424254"/>
<g clip-path="url(#clip0_713_1697)">
<path d="M97.6475 54C95.3551 54.0028 93.067 54.1985 90.8075 54.585C84.7475 55.6575 83.6525 57.8925 83.6525 62.025V67.5H98V69.3H78.275C74.12 69.3 70.475 71.7975 69.335 76.5525C68 82.005 68 85.41 69.335 91.1025C70.355 95.34 72.785 98.3625 76.94 98.3625H81.8675V91.8225C81.9195 89.472 82.8794 87.2328 84.5461 85.5746C86.2128 83.9163 88.4567 82.9676 90.8075 82.9275H105.102C106.05 82.9197 106.986 82.7252 107.858 82.3553C108.73 81.9853 109.52 81.4471 110.184 80.7715C110.848 80.0958 111.372 79.2959 111.727 78.4176C112.081 77.5392 112.259 76.5996 112.25 75.6525V62.025C112.25 58.1475 108.98 55.23 105.095 54.585C102.633 54.1826 100.142 53.987 97.6475 54ZM89.9075 58.3875C90.4489 58.3786 90.9808 58.5309 91.4355 58.825C91.8901 59.1192 92.247 59.542 92.4608 60.0395C92.6745 60.5371 92.7355 61.0869 92.6359 61.6192C92.5363 62.1515 92.2807 62.6421 91.9015 63.0288C91.5223 63.4154 91.0367 63.6805 90.5064 63.7903C89.9762 63.9002 89.4252 63.8499 88.9236 63.6458C88.422 63.4417 87.9925 63.0931 87.6895 62.6442C87.3866 62.1953 87.2241 61.6665 87.2225 61.125C87.2165 60.4062 87.4958 59.7144 87.9991 59.2012C88.5024 58.688 89.1887 58.3954 89.9075 58.3875Z" fill="url(#paint0_linear_713_1697)"/>
<path d="M114.043 69.3V75.6525C114.022 78.0319 113.078 80.3103 111.411 82.0074C109.743 83.7046 107.481 84.6879 105.103 84.75H90.8076C88.9015 84.7891 87.0862 85.5719 85.7493 86.9312C84.4125 88.2904 83.66 90.1185 83.6526 92.025V105.637C83.6526 109.515 87.0201 111.795 90.8076 112.905C95.461 114.363 100.449 114.363 105.103 112.905C108.71 111.862 112.25 109.762 112.25 105.637V100.177H98.0001V98.3625H119.42C123.575 98.3625 125.128 95.46 126.575 91.1025C128.075 86.6025 128.008 82.305 126.575 76.5525C125.548 72.4125 123.575 69.3 119.42 69.3H114.043ZM106.003 103.8C106.545 103.791 107.077 103.944 107.532 104.239C107.987 104.533 108.344 104.957 108.557 105.455C108.771 105.954 108.831 106.505 108.73 107.037C108.629 107.57 108.372 108.061 107.991 108.447C107.611 108.833 107.124 109.097 106.592 109.205C106.061 109.313 105.51 109.26 105.008 109.054C104.507 108.848 104.078 108.497 103.777 108.046C103.476 107.595 103.316 107.065 103.318 106.522C103.316 105.808 103.597 105.121 104.1 104.614C104.604 104.106 105.288 103.819 106.003 103.815V103.8Z" fill="url(#paint1_linear_713_1697)"/>
</g>
<defs>
<filter id="filter0_d_713_1697" x="5.12939" y="2.83258" width="185.741" height="199.624" filterUnits="userSpaceOnUse" color-interpolation-filters="sRGB">
<feFlood flood-opacity="0" result="BackgroundImageFix"/>
<feColorMatrix in="SourceAlpha" type="matrix" values="0 0 0 0 0 0 0 0 0 0 0 0 0 0 0 0 0 0 127 0" result="hardAlpha"/>
<feOffset dy="4"/>
<feGaussianBlur stdDeviation="4"/>
<feColorMatrix type="matrix" values="0 0 0 0 0.0627451 0 0 0 0 0.0941176 0 0 0 0 0.156863 0 0 0 0.04 0"/>
<feBlend mode="normal" in2="BackgroundImageFix" result="effect1_dropShadow_713_1697"/>
<feBlend mode="normal" in="SourceGraphic" in2="effect1_dropShadow_713_1697" result="shape"/>
</filter>
<linearGradient id="paint0_linear_713_1697" x1="66.6146" y1="56.0637" x2="99.696" y2="84.0246" gradientUnits="userSpaceOnUse">
<stop stop-color="#5A9FD4"/>
<stop offset="1" stop-color="#306998"/>
</linearGradient>
<linearGradient id="paint1_linear_713_1697" x1="111.807" y1="101.879" x2="99.8922" y2="85.3197" gradientUnits="userSpaceOnUse">
<stop stop-color="#FFD43B"/>
<stop offset="1" stop-color="#FFE873"/>
</linearGradient>
<clipPath id="clip0_713_1697">
<rect width="60" height="60" fill="white" transform="translate(68 54)"/>
</clipPath>
</defs>
</svg>
