<svg width="196" height="202" viewBox="0 0 196 202" fill="none" xmlns="http://www.w3.org/2000/svg">
<g filter="url(#filter0_d_655_6643)">
<path d="M78 12.1915C90.376 5.04623 105.624 5.04623 118 12.1915L162.87 38.0975C175.247 45.2428 182.87 58.4479 182.87 72.7385V124.551C182.87 138.841 175.247 152.046 162.87 159.192L118 185.098C105.624 192.243 90.376 192.243 78 185.098L33.1295 159.192C20.7535 152.046 13.1295 138.841 13.1295 124.551V72.7385C13.1295 58.4479 20.7535 45.2428 33.1295 38.0975L78 12.1915Z" fill="white"/>
</g>
<path d="M80.7291 136.435L85.0491 142.645H86.9391L82.4391 136.435H80.7291ZM78.4791 130.045V142.645H80.0091V130.045H78.4791ZM79.3251 131.395H81.8991C82.4391 131.395 82.9131 131.491 83.3211 131.683C83.7411 131.875 84.0651 132.151 84.2931 132.511C84.5331 132.871 84.6531 133.309 84.6531 133.825C84.6531 134.341 84.5331 134.779 84.2931 135.139C84.0651 135.499 83.7411 135.775 83.3211 135.967C82.9131 136.159 82.4391 136.255 81.8991 136.255H79.3251V137.605H81.8991C82.7151 137.605 83.4411 137.455 84.0771 137.155C84.7251 136.843 85.2351 136.405 85.6071 135.841C85.9911 135.265 86.1831 134.593 86.1831 133.825C86.1831 133.045 85.9911 132.373 85.6071 131.809C85.2351 131.245 84.7251 130.813 84.0771 130.513C83.4411 130.201 82.7151 130.045 81.8991 130.045H79.3251V131.395ZM91.6653 142.825C92.5533 142.825 93.3213 142.651 93.9693 142.303C94.6293 141.943 95.1753 141.415 95.6073 140.719L94.4373 139.981C94.1373 140.485 93.7713 140.863 93.3393 141.115C92.9073 141.355 92.4093 141.475 91.8453 141.475C91.2813 141.475 90.8013 141.355 90.4053 141.115C90.0093 140.875 89.7093 140.527 89.5053 140.071C89.3013 139.615 89.1993 139.063 89.1993 138.415C89.2113 137.779 89.3193 137.245 89.5233 136.813C89.7393 136.369 90.0393 136.033 90.4233 135.805C90.8193 135.565 91.2933 135.445 91.8453 135.445C92.3133 135.445 92.7213 135.547 93.0693 135.751C93.4173 135.955 93.6873 136.237 93.8793 136.597C94.0833 136.957 94.1853 137.383 94.1853 137.875C94.1853 137.959 94.1673 138.067 94.1313 138.199C94.0953 138.319 94.0593 138.409 94.0233 138.469L94.5993 137.641H88.6593V138.865H95.7333C95.7333 138.841 95.7333 138.787 95.7333 138.703C95.7453 138.607 95.7513 138.517 95.7513 138.433C95.7513 137.557 95.5953 136.801 95.2833 136.165C94.9713 135.529 94.5213 135.043 93.9333 134.707C93.3573 134.359 92.6613 134.185 91.8453 134.185C91.0293 134.185 90.3093 134.365 89.6853 134.725C89.0733 135.085 88.5933 135.589 88.2453 136.237C87.9093 136.885 87.7413 137.641 87.7413 138.505C87.7413 139.357 87.9033 140.107 88.2273 140.755C88.5633 141.403 89.0253 141.913 89.6133 142.285C90.2133 142.645 90.8973 142.825 91.6653 142.825ZM98.373 140.089C98.373 139.789 98.445 139.531 98.589 139.315C98.733 139.099 98.949 138.931 99.237 138.811C99.537 138.691 99.921 138.631 100.389 138.631C100.893 138.631 101.367 138.697 101.811 138.829C102.255 138.949 102.687 139.153 103.107 139.441V138.595C103.023 138.487 102.861 138.349 102.621 138.181C102.381 138.001 102.057 137.845 101.649 137.713C101.253 137.569 100.755 137.497 100.155 137.497C99.135 137.497 98.337 137.743 97.761 138.235C97.197 138.715 96.915 139.357 96.915 140.161C96.915 140.725 97.047 141.205 97.311 141.601C97.575 141.997 97.923 142.303 98.355 142.519C98.799 142.723 99.273 142.825 99.777 142.825C100.233 142.825 100.689 142.741 101.145 142.573C101.613 142.405 102.003 142.147 102.315 141.799C102.639 141.451 102.801 141.013 102.801 140.485L102.513 139.405C102.513 139.837 102.405 140.221 102.189 140.557C101.985 140.881 101.703 141.133 101.343 141.313C100.995 141.493 100.599 141.583 100.155 141.583C99.807 141.583 99.495 141.529 99.219 141.421C98.955 141.301 98.745 141.127 98.589 140.899C98.445 140.671 98.373 140.401 98.373 140.089ZM98.157 136.273C98.289 136.177 98.469 136.063 98.697 135.931C98.925 135.799 99.201 135.685 99.525 135.589C99.861 135.493 100.233 135.445 100.641 135.445C100.893 135.445 101.133 135.469 101.361 135.517C101.589 135.565 101.787 135.643 101.955 135.751C102.135 135.859 102.273 136.009 102.369 136.201C102.465 136.381 102.513 136.615 102.513 136.903V142.645H103.953V136.705C103.953 136.165 103.815 135.709 103.539 135.337C103.275 134.965 102.897 134.683 102.405 134.491C101.925 134.287 101.361 134.185 100.713 134.185C99.945 134.185 99.285 134.299 98.733 134.527C98.193 134.755 97.767 134.983 97.455 135.211L98.157 136.273ZM107.039 138.505C107.039 137.929 107.159 137.419 107.399 136.975C107.651 136.519 107.987 136.165 108.407 135.913C108.839 135.661 109.325 135.535 109.865 135.535C110.309 135.535 110.723 135.607 111.107 135.751C111.503 135.883 111.845 136.063 112.133 136.291C112.421 136.519 112.625 136.771 112.745 137.047V135.247C112.457 134.911 112.043 134.653 111.503 134.473C110.975 134.281 110.429 134.185 109.865 134.185C109.061 134.185 108.335 134.371 107.687 134.743C107.039 135.115 106.523 135.625 106.139 136.273C105.767 136.921 105.581 137.665 105.581 138.505C105.581 139.333 105.767 140.077 106.139 140.737C106.523 141.385 107.039 141.895 107.687 142.267C108.335 142.639 109.061 142.825 109.865 142.825C110.429 142.825 110.975 142.735 111.503 142.555C112.043 142.363 112.457 142.099 112.745 141.763V139.963C112.625 140.227 112.421 140.479 112.133 140.719C111.845 140.947 111.503 141.133 111.107 141.277C110.723 141.409 110.309 141.475 109.865 141.475C109.325 141.475 108.839 141.349 108.407 141.097C107.987 140.833 107.651 140.479 107.399 140.035C107.159 139.591 107.039 139.081 107.039 138.505ZM113.727 134.365V135.715H117.867V134.365H113.727ZM115.077 131.485V142.645H116.517V131.485H115.077Z" fill="#424254"/>
<g clip-path="url(#clip0_655_6643)">
<path d="M68 56.6445C68 53.3308 70.6863 50.6445 74 50.6445H122C125.314 50.6445 128 53.3308 128 56.6445V104.645C128 107.958 125.314 110.645 122 110.645H74C70.6863 110.645 68 107.958 68 104.645V56.6445Z" fill="#20232A"/>
<path d="M98 85.542C100.705 85.542 102.898 83.3493 102.898 80.6445C102.898 77.9397 100.705 75.747 98 75.747C95.2952 75.747 93.1025 77.9397 93.1025 80.6445C93.1025 83.3493 95.2952 85.542 98 85.542Z" fill="#61DAFB"/>
<path d="M97.9999 91.8945C82.6024 91.8945 70.5349 86.937 70.5349 80.6445C70.5349 74.352 82.6024 69.3945 97.9999 69.3945C113.397 69.3945 125.465 74.322 125.465 80.6445C125.465 86.967 113.397 91.8945 97.9999 91.8945ZM97.9999 71.832C83.2249 71.8095 72.9274 76.467 72.9274 80.6445C72.9274 84.822 83.2249 89.4795 97.9999 89.4795C112.775 89.4795 123.072 84.822 123.072 80.6445C123.072 76.467 112.775 71.8095 97.9999 71.8095V71.832Z" fill="#61DAFB"/>
<path d="M108.965 105.14C106.528 105.14 103.588 103.805 100.393 101.21C96.1626 97.767 91.8576 92.457 88.2501 86.2545C80.5476 72.9195 78.7851 60.0045 84.2376 56.862C87.0126 55.257 91.0401 56.397 95.5776 60.087C99.8376 63.522 104.143 68.832 107.75 75.0345C115.453 88.3695 117.215 101.285 111.763 104.427C110.911 104.912 109.945 105.158 108.965 105.14ZM87.0726 58.5345C86.5091 58.5189 85.9518 58.6563 85.4601 58.932C81.8451 61.017 83.0001 72.267 90.3501 85.062C93.7851 91.017 97.8876 96.0945 101.9 99.312C105.553 102.312 108.703 103.385 110.54 102.312C114.155 100.22 113.038 88.9695 105.65 76.1745C102.215 70.2195 98.1126 65.1495 94.1001 61.9245C91.3551 59.712 88.9026 58.5345 87.0726 58.5345Z" fill="#61DAFB"/>
<path d="M87.035 105.14C86.0616 105.145 85.1051 104.885 84.2675 104.39C78.815 101.285 80.5775 88.3695 88.25 75.0345C91.8275 68.832 96.1325 63.522 100.362 60.087C104.9 56.397 108.927 55.2495 111.702 56.862C117.155 60.012 115.392 72.9195 107.69 86.2545C104.112 92.457 99.8075 97.767 95.5775 101.21C92.4125 103.805 89.4725 105.14 87.035 105.14ZM108.927 58.5345C107.097 58.5345 104.645 59.712 101.9 61.9395C97.8875 65.202 93.785 70.272 90.35 76.1895C83 89.022 81.845 100.272 85.46 102.395C87.2975 103.445 90.4475 102.35 94.1 99.3945C98.1125 96.1395 102.215 91.062 105.65 85.1445C113.037 72.3495 114.155 61.0995 110.54 59.0145C110.057 58.7099 109.499 58.5439 108.927 58.5345Z" fill="#61DAFB"/>
</g>
<defs>
<filter id="filter0_d_655_6643" x="5.12939" y="2.83258" width="185.741" height="199.624" filterUnits="userSpaceOnUse" color-interpolation-filters="sRGB">
<feFlood flood-opacity="0" result="BackgroundImageFix"/>
<feColorMatrix in="SourceAlpha" type="matrix" values="0 0 0 0 0 0 0 0 0 0 0 0 0 0 0 0 0 0 127 0" result="hardAlpha"/>
<feOffset dy="4"/>
<feGaussianBlur stdDeviation="4"/>
<feColorMatrix type="matrix" values="0 0 0 0 0.0627451 0 0 0 0 0.0941176 0 0 0 0 0.156863 0 0 0 0.04 0"/>
<feBlend mode="normal" in2="BackgroundImageFix" result="effect1_dropShadow_655_6643"/>
<feBlend mode="normal" in="SourceGraphic" in2="effect1_dropShadow_655_6643" result="shape"/>
</filter>
<clipPath id="clip0_655_6643">
<rect width="60" height="60" fill="white" transform="translate(68 50.6445)"/>
</clipPath>
</defs>
</svg>
