<svg width="81" height="80" viewBox="0 0 81 80" fill="none" xmlns="http://www.w3.org/2000/svg">
<circle cx="40.8584" cy="40" r="40" fill="#4285F4"/>
<path d="M24.9491 27.2437C24.6728 27.2447 24.3955 27.2572 24.1203 27.2416C23.7169 27.2186 23.4819 26.9891 23.4819 26.6426C23.4809 26.2982 23.7159 26.054 24.1171 26.0405C24.6823 26.0217 25.2497 26.0206 25.815 26.0415C26.2098 26.0561 26.4449 26.3139 26.4353 26.6582C26.4258 26.987 26.1971 27.2155 25.8182 27.2385C25.5292 27.2572 25.2381 27.2437 24.9491 27.2437Z" fill="white"/>
<path d="M64.8572 32.9377C64.3027 33.8192 63.3866 33.9252 62.4807 34.0519C61.6162 34.1729 61.4107 34.355 61.2707 35.2007C61.2466 35.3459 61.3258 35.5349 61.413 35.6651C61.6863 36.0684 61.9951 36.4475 62.2764 36.845C62.9032 37.7322 62.7161 38.8661 61.8482 39.5067C61.5715 39.7107 61.2971 39.9181 61.025 40.1278C60.3316 40.6613 59.5015 40.6774 58.8023 40.1543C58.4235 39.8708 58.0515 39.5781 57.6921 39.2705C57.4729 39.0815 57.2685 38.9905 57.0136 39.1875C56.9803 39.2129 56.9379 39.2279 56.8965 39.2394C56.4109 39.3823 56.1308 39.6634 56.117 40.2153C56.1078 40.6129 56.0033 41.0081 55.9287 41.4022C55.7565 42.3159 55.1641 42.8863 54.2502 42.9727C53.8105 43.0142 53.3616 43.0142 52.9219 42.9738C51.992 42.8897 51.3502 42.256 51.2067 41.3273C51.139 40.8883 51.0816 40.4481 51.0115 40.0091C50.9048 39.3465 49.9748 38.9674 49.4387 39.365C49.0931 39.6208 48.7544 39.8858 48.4077 40.1381C47.5857 40.735 46.6328 40.6716 45.9061 39.9745C45.6478 39.7268 45.3917 39.4744 45.1461 39.214C44.4641 38.4927 44.401 37.5479 44.9807 36.739C45.2482 36.3657 45.5192 35.9946 45.8062 35.6386C45.983 35.4197 46.022 35.2146 45.8693 34.9726C45.8165 34.8885 45.7775 34.7928 45.7488 34.6983C45.6397 34.3365 45.4446 34.1245 45.0278 34.098C44.5743 34.0692 44.1266 33.9563 43.6754 33.8791C42.7902 33.727 42.1806 33.0091 42.1714 32.1046C42.1668 31.6875 42.1668 31.2715 42.1714 30.8544C42.1817 30.0144 42.7087 29.3288 43.525 29.141C44.0255 29.0258 44.5364 28.9613 45.0439 28.8772C45.7763 28.755 46.1552 27.8056 45.7086 27.2121C45.4583 26.8803 45.2184 26.5392 44.9612 26.2131C44.4825 25.6059 44.378 24.8973 44.7821 24.2877C45.1897 23.6701 45.7373 23.1044 46.3332 22.6665C46.9037 22.2471 47.5937 22.3681 48.1781 22.7921C48.5719 23.0779 48.9588 23.3774 49.3227 23.7001C49.565 23.9144 49.7843 23.949 50.0518 23.7761C50.147 23.715 50.2538 23.6678 50.3617 23.6309C50.7406 23.5019 50.9323 23.2645 50.9587 22.8405C50.9863 22.4003 51.077 21.959 51.178 21.5281C51.395 20.6017 52.1619 20.0048 53.0999 20.0013C53.4431 20.0002 53.7876 19.999 54.1308 20.0013C55.0252 20.0094 55.7531 20.6132 55.9184 21.4947C56.0137 22.0016 56.094 22.5109 56.1721 23.0214C56.2594 23.5975 57.2008 23.9927 57.6761 23.6448C58.0572 23.3659 58.4315 23.0755 58.8127 22.7967C59.5853 22.2309 60.4888 22.2816 61.1972 22.9384C61.4704 23.1919 61.7299 23.4604 61.9882 23.7289C62.6966 24.4606 62.7643 25.4434 62.1604 26.2742C61.8987 26.6337 61.6335 26.9909 61.3591 27.34C61.1938 27.5509 61.1938 27.7249 61.2776 27.998C61.475 28.6386 61.8596 28.9313 62.5106 28.9417C62.7218 28.9451 62.9308 29.0316 63.1432 29.0454C63.8998 29.0938 64.4715 29.4371 64.8584 30.0916C64.8572 31.0411 64.8572 31.9894 64.8572 32.9377ZM47.1919 23.7554C47.0932 23.8245 46.9922 23.8775 46.9129 23.9536C46.6845 24.1713 46.4744 24.4087 46.2402 24.6196C45.9761 24.8569 45.9532 25.0816 46.1816 25.3616C46.4709 25.7177 46.7384 26.091 47.0105 26.4609C47.4629 27.0762 47.5604 27.7376 47.2539 28.4485C47.1575 28.672 47.0622 28.8956 46.9646 29.1191C46.7063 29.7102 46.2838 30.1032 45.6363 30.2184C45.3688 30.2656 45.099 30.299 44.8338 30.352C43.5089 30.6182 43.727 30.3048 43.7052 31.6345C43.7041 31.7347 43.7098 31.8361 43.7052 31.9364C43.6949 32.1979 43.8086 32.3282 44.0772 32.357C44.3883 32.3904 44.6949 32.486 45.006 32.5091C46.0657 32.5886 46.8337 33.0333 47.1184 34.1268C47.1357 34.1948 47.1793 34.2559 47.2114 34.3204C47.5409 34.9991 47.503 35.6536 47.0668 36.2712C46.7855 36.6699 46.4893 37.057 46.1988 37.4488C45.8556 37.912 45.8567 37.9754 46.2677 38.3833C47.2057 39.312 46.9887 39.3454 47.9933 38.51C48.9944 37.6769 49.9634 37.4269 51.1619 38.1056C51.8634 38.5031 52.2836 38.9997 52.3961 39.7855C52.465 40.2683 52.5442 40.7488 52.6429 41.2259C52.6682 41.3469 52.7865 41.537 52.8703 41.5416C53.3249 41.5669 53.8036 41.6222 54.225 41.4978C54.3846 41.4506 54.4167 40.9528 54.4959 40.6578C54.5292 40.5345 54.5396 40.4043 54.5545 40.2753C54.7749 38.3879 55.3501 38.3729 56.8621 37.8186C57.66 37.526 58.2891 38.1113 58.9068 38.5665C60.1295 39.4664 59.7127 39.5309 60.8918 38.389C61.1203 38.1678 61.1341 37.9719 60.932 37.7184C60.6002 37.3047 60.2879 36.875 59.9802 36.4429C59.2329 35.3943 59.8712 33.3548 61.0824 32.9123C61.1616 32.8835 61.2466 32.864 61.3304 32.849C61.7104 32.7821 62.0915 32.7234 62.4704 32.6519C63.3234 32.4906 63.3223 32.4883 63.3223 31.6034C63.3223 30.7208 63.3257 30.6781 62.4589 30.6159C61.1455 30.5203 60.1685 30.0617 59.7679 28.6709C59.5635 27.96 59.5291 27.3228 59.9447 26.7028C60.1685 26.3698 60.4188 26.0553 60.6599 25.7338C61.1295 25.107 61.1295 25.1081 60.5922 24.5643C59.7633 23.7277 59.9148 23.8095 59.0572 24.4663C58.6508 24.7774 58.2432 25.1173 57.7828 25.3213C57.0676 25.6382 56.427 25.228 55.7852 24.9537C55.2318 24.7175 54.8782 24.3096 54.7221 23.7381C54.636 23.4224 54.6061 23.0905 54.5441 22.7667C54.2732 21.3414 54.5878 21.5603 53.0723 21.5373C52.7968 21.5327 52.6487 21.6249 52.6177 21.9187C52.5637 22.4314 52.4845 22.9419 52.4133 23.4535C52.318 24.1333 51.9059 24.555 51.3031 24.8178C51.1332 24.8915 50.9495 24.9387 50.7877 25.0252C50.0334 25.4319 49.3319 25.3294 48.6637 24.8304C48.2734 24.5389 47.8853 24.2439 47.495 23.9524C47.4066 23.8867 47.309 23.8314 47.1919 23.7554Z" fill="white"/>
<path d="M22.2329 33.0253C22.443 33.0253 22.6118 33.0253 22.7794 33.0253C28.6219 33.0253 34.4656 33.0276 40.3081 33.0207C40.6743 33.0207 40.974 33.1175 41.1014 33.4713C41.2243 33.8112 41.1393 34.1476 40.8305 34.3458C40.6652 34.4518 40.4298 34.4841 40.2254 34.4841C36.702 34.4922 33.1798 34.4899 29.6563 34.4899C27.351 34.4899 25.0445 34.4899 22.7392 34.4899C22.5854 34.4899 22.4315 34.4899 22.2329 34.4899C22.2329 34.6535 22.2329 34.7779 22.2329 34.9035C22.2329 41.9899 22.2318 49.0751 22.2341 56.1615C22.2341 57.3402 22.807 58.148 23.8402 58.4153C24.0446 58.4683 24.2639 58.4787 24.4762 58.4787C35.1452 58.4821 45.8142 58.4821 56.4832 58.4798C57.8827 58.4798 58.7357 57.5857 58.7369 56.1223C58.7403 51.7529 58.738 47.3836 58.738 43.0142C58.738 42.8564 58.7335 42.6974 58.7461 42.5407C58.7771 42.1524 59.0434 41.8804 59.3959 41.8677C59.7277 41.8562 60.0583 42.1362 60.118 42.4877C60.1341 42.5856 60.1272 42.6881 60.1272 42.7884C60.1272 47.2868 60.1307 51.7864 60.1261 56.2848C60.1238 58.0592 58.9768 59.5007 57.257 59.8763C56.8988 59.9547 56.5177 59.9501 56.1469 59.9501C45.75 59.9535 35.353 59.9524 24.9561 59.9547C24.5589 59.9547 24.1502 60.0411 23.7656 59.9754C22.0584 59.6828 20.8621 58.2344 20.861 56.4899C20.8575 47.4343 20.8575 38.3799 20.861 29.3243C20.861 27.453 22.4155 25.8042 24.273 25.7961C30.4164 25.7707 36.5608 25.7834 42.7041 25.7857C43.1783 25.7857 43.4687 26.06 43.4699 26.4725C43.471 26.8781 43.176 27.1661 42.7122 27.1742C42.0107 27.1857 41.3092 27.1788 40.6066 27.1788C35.322 27.1788 30.0375 27.1788 24.7529 27.1788C23.0538 27.1788 22.2318 28.0073 22.2318 29.7195C22.2318 30.8084 22.2329 31.8961 22.2329 33.0253Z" fill="white"/>
<path d="M32.715 46.9928C31.0973 46.9928 29.4786 46.9951 27.8609 46.9917C26.5131 46.9894 25.5935 46.071 25.5901 44.7229C25.5866 42.8113 25.5878 40.8997 25.5901 38.9881C25.5912 37.64 26.4511 36.6986 27.784 36.6882C31.0916 36.664 34.3992 36.664 37.7068 36.6871C39.0374 36.6963 39.9168 37.6377 39.9214 38.9766C39.9283 40.8732 39.9271 42.771 39.9214 44.6676C39.918 46.0733 39.0041 46.9894 37.6115 46.9917C35.9801 46.994 34.3475 46.9928 32.715 46.9928ZM32.7161 38.1009C31.0985 38.1009 29.4809 38.0986 27.8621 38.102C27.3145 38.1032 27.0504 38.3406 27.0481 38.8706C27.0401 40.8248 27.0401 42.779 27.0481 44.7333C27.0504 45.2518 27.3305 45.5283 27.8541 45.5295C31.118 45.5341 34.3831 45.5341 37.6471 45.5295C38.174 45.5283 38.4473 45.2645 38.4507 44.7321C38.4611 42.8067 38.4611 40.8813 38.4507 38.9559C38.4473 38.3567 38.1672 38.1032 37.5702 38.102C35.9525 38.0986 34.3338 38.0997 32.7161 38.1009Z" fill="white"/>
<path d="M40.5043 56.3851C35.765 56.3851 31.0247 56.3851 26.2854 56.3851C25.6115 56.3851 25.251 56.142 25.2476 55.688C25.2441 55.2351 25.6241 54.9644 26.2717 54.9644C35.765 54.9644 45.2584 54.9644 54.7518 54.9644C55.4406 54.9644 55.7862 55.1983 55.7885 55.6603C55.7908 56.1224 55.4062 56.3851 54.7219 56.3851C49.9827 56.3851 45.2435 56.3851 40.5043 56.3851Z" fill="white"/>
<path d="M40.5433 50.4277C45.24 50.4277 49.9356 50.4277 54.6324 50.4277C54.7896 50.4277 54.9481 50.4231 55.1042 50.4346C55.4969 50.4622 55.7644 50.718 55.7862 51.0741C55.8068 51.4255 55.5164 51.7666 55.1433 51.8161C55.017 51.8334 54.8861 51.823 54.7575 51.823C45.2653 51.823 35.7719 51.823 26.2797 51.823C26.2372 51.823 26.1936 51.823 26.1511 51.823C25.5885 51.8196 25.2476 51.5557 25.251 51.1271C25.2544 50.7042 25.6023 50.43 26.1568 50.4288C30.95 50.4265 35.7466 50.4277 40.5433 50.4277Z" fill="white"/>
<path d="M49.6741 45.8765C51.4192 45.8765 53.1642 45.8765 54.9093 45.8765C55.4581 45.8765 55.7761 46.1162 55.7864 46.5367C55.7956 46.8859 55.4673 47.2696 54.9093 47.2661C51.4054 47.2442 47.9004 47.2557 44.3964 47.2546C43.8442 47.2546 43.5457 47.0126 43.5469 46.5736C43.548 46.1473 43.8729 45.8776 44.3953 45.8765C46.1553 45.8753 47.9141 45.8765 49.6741 45.8765Z" fill="white"/>
<path d="M26.2489 30.8509C26.0067 30.8509 25.7621 30.8682 25.521 30.8474C25.1307 30.814 24.8299 30.4972 24.8311 30.1526C24.8322 29.8335 25.1169 29.4843 25.4797 29.4613C26.0193 29.4267 26.5646 29.4267 27.1054 29.459C27.4957 29.482 27.7334 29.7828 27.7334 30.1446C27.7334 30.5179 27.4693 30.8106 27.0641 30.8451C26.7931 30.8693 26.5199 30.8497 26.2489 30.8509Z" fill="white"/>
<path d="M29.6368 30.8521C29.3946 30.8521 29.1512 30.867 28.9089 30.8486C28.5002 30.8175 28.2201 30.5352 28.2097 30.1711C28.1994 29.8242 28.4841 29.4786 28.8722 29.4544C29.398 29.4221 29.9284 29.4221 30.4542 29.4544C30.8698 29.4797 31.1075 29.7816 31.0948 30.1688C31.0822 30.5479 30.8216 30.8163 30.406 30.8474C30.1511 30.867 29.8928 30.8521 29.6368 30.8521Z" fill="white"/>
<path d="M33.0004 30.8532C32.772 30.8532 32.5435 30.8648 32.3162 30.8509C31.8719 30.8256 31.5952 30.5571 31.5894 30.1653C31.5837 29.8001 31.8478 29.4774 32.2484 29.4533C32.7743 29.421 33.3047 29.4233 33.8305 29.4556C34.2208 29.4798 34.4722 29.7782 34.478 30.1308C34.4849 30.4949 34.2105 30.8072 33.8144 30.844C33.5458 30.8694 33.2725 30.8486 33.0016 30.8486C33.0004 30.8509 33.0004 30.8521 33.0004 30.8532Z" fill="white"/>
<path d="M44.5905 42.6995C44.4757 42.6995 44.3609 42.7064 44.2472 42.6984C43.8259 42.6719 43.5561 42.4149 43.5481 42.0381C43.5389 41.666 43.8466 41.3387 44.2484 41.3122C44.4906 41.2972 44.7352 41.2984 44.9774 41.3111C45.3769 41.3318 45.6743 41.6199 45.6869 41.9805C45.6995 42.3492 45.3896 42.665 44.9774 42.6961C44.8477 42.7076 44.7191 42.6995 44.5905 42.6995Z" fill="white"/>
<path d="M58.187 31.267C58.3052 33.795 56.3133 35.9521 53.7681 36.0892C51.3916 36.2171 49.1643 34.2778 48.9737 31.812C48.7774 29.2851 50.7016 27.0301 53.2239 26.8285C55.8151 26.6223 57.9849 28.5615 58.187 31.267ZM56.7209 31.4387C56.7117 29.7172 55.2732 28.2757 53.5695 28.2827C51.8554 28.2896 50.4284 29.7241 50.4215 31.4479C50.4146 33.1959 51.8451 34.6177 53.6005 34.6051C55.3306 34.5924 56.7301 33.1728 56.7209 31.4387Z" fill="white"/>
</svg>
