<svg width="73" height="71" viewBox="0 0 73 71" fill="none" xmlns="http://www.w3.org/2000/svg">
<path d="M0.120064 62.9201C0.71447 63.744 1.24303 64.6299 1.92021 65.3786C3.22752 66.8232 4.61197 68.1983 5.9776 69.5883C7.60658 71.2455 9.58918 71.2681 11.252 69.6542C14.7752 66.2363 18.2871 62.8091 21.8159 59.3969C23.0687 58.1855 23.4035 56.803 22.7715 55.1683C22.7037 54.9934 22.7733 54.6605 22.9069 54.5288C24.8933 52.565 26.9022 50.6219 28.9281 48.6506C35.269 53.451 42.3568 55.3113 50.1781 53.9457C56.9461 52.7644 62.4669 49.3766 66.6748 43.931C74.8385 33.369 73.8998 18.4731 64.5022 8.78583C55.3735 -0.623102 40.5284 -1.8138 29.7313 5.99813C19.1166 13.6765 14.9294 29.195 23.0367 42.1911C22.5777 42.635 22.1056 43.0883 21.6353 43.5436C20.0515 45.0822 18.4639 46.6172 16.8913 48.1653C16.6318 48.4211 16.4512 48.5189 16.0637 48.3308C14.6698 47.6517 13.2403 47.8944 12.1135 48.9835C8.48313 52.4935 4.85462 56.0035 1.26373 59.553C0.76902 60.0421 0.496269 60.7569 0.121941 61.3682C0.120064 61.8855 0.120064 62.4028 0.120064 62.9201ZM45.4379 52.0722C31.8587 52.0214 21.0597 41.1208 21.0861 27.4946C21.1143 14.032 32.1127 3.03739 45.5282 3.11639C58.9889 3.19728 69.9007 13.8966 69.9271 27.6225C69.9534 41.228 58.9625 52.123 45.4379 52.0722ZM2.26444 62.0962C2.49957 61.7388 2.66133 61.3663 2.93032 61.103C6.46854 57.6419 10.0218 54.1958 13.5751 50.7517C14.2861 50.0613 14.8674 50.0764 15.569 50.7968C17.1585 52.4258 18.7404 54.0604 20.3186 55.6988C20.9864 56.3929 20.9976 56.9929 20.3224 57.6513C16.7446 61.1387 13.1613 64.6205 9.57225 68.0967C8.91578 68.7325 8.32513 68.7155 7.67805 68.0553C6.05284 66.3962 4.43703 64.7278 2.83627 63.0461C2.60867 62.8016 2.48264 62.4611 2.26444 62.0962ZM21.1707 52.9995C20.123 52.0477 19.1185 51.1354 18.0764 50.1892C20.2151 48.1126 22.2805 46.1055 24.3534 44.0928C25.3052 45.1349 26.2175 46.1319 27.1674 47.1721C25.1303 49.1509 23.1006 51.1241 21.1707 52.9995Z" fill="#4583E6"/>
<path d="M45.541 5.84204C33.4704 5.91164 24.2157 15.3431 23.7925 26.746C23.3297 39.2548 33.0904 48.944 44.6475 49.3673C56.9175 49.8187 67.1089 40.1728 67.2236 27.8144C67.3365 15.678 57.683 5.93233 45.541 5.84204ZM45.5222 8.16136C56.2102 8.15947 64.8949 16.8423 64.9043 27.5398C64.9137 38.3689 56.2196 47.11 45.4526 47.0987C34.7852 47.0875 26.0328 38.3011 26.0365 27.6112C26.0384 16.8555 34.7495 8.16136 45.5222 8.16136Z" fill="#4583E6"/>
<path d="M32.0844 27.5959C32.0844 29.8757 32.0994 32.1556 32.075 34.4354C32.0674 35.1013 32.3195 35.5301 32.8913 35.8593C36.8302 38.1241 40.7635 40.402 44.6911 42.6875C45.261 43.0185 45.767 43.0016 46.3351 42.6705C50.242 40.3945 54.1545 38.1278 58.0765 35.8781C58.7047 35.5188 58.953 35.0335 58.9512 34.33C58.9399 29.8419 58.9399 25.3519 58.9512 20.8637C58.953 20.1508 58.669 19.6843 58.052 19.3307C54.1696 17.1054 50.2928 14.8726 46.4329 12.6097C45.7576 12.2147 45.2065 12.2354 44.5443 12.6229C40.724 14.8595 36.8923 17.0791 33.0493 19.2761C32.3571 19.6711 32.0562 20.1565 32.0731 20.9691C32.1145 23.1774 32.0844 25.3876 32.0844 27.5959ZM46.6379 39.8377C46.6379 39.4747 46.6379 39.2677 46.6379 39.0608C46.6379 35.7013 46.653 32.3399 46.6229 28.9804C46.6172 28.4198 46.826 28.1508 47.2812 27.8913C49.6852 26.5256 52.0703 25.1299 54.463 23.7473C55.1458 23.3523 55.8305 22.9667 56.5434 22.5604C56.5792 22.694 56.6093 22.7579 56.6093 22.82C56.613 26.4391 56.6224 30.0563 56.598 33.6754C56.5961 33.888 56.3817 34.1758 56.186 34.2981C55.3546 34.8229 54.495 35.3006 53.6429 35.7935C51.3537 37.1177 49.0626 38.4382 46.6379 39.8377ZM34.3435 22.5284C34.5504 22.6281 34.635 22.662 34.7141 22.7071C37.7971 24.4885 40.8857 26.2623 43.9537 28.0718C44.1644 28.196 44.328 28.5835 44.3299 28.8506C44.3543 32.306 44.3468 35.7615 44.3449 39.217C44.3449 39.3881 44.3186 39.5593 44.3036 39.7587C44.1738 39.7079 44.1079 39.6891 44.0496 39.6552C40.944 37.8626 37.8347 36.0794 34.746 34.2586C34.5335 34.1325 34.3679 33.745 34.3623 33.476C34.3303 31.5254 34.3454 29.5748 34.3454 27.6223C34.3435 25.9613 34.3435 24.2985 34.3435 22.5284ZM55.4261 20.4762C55.3697 20.5421 55.349 20.5834 55.3151 20.6023C52.155 22.4344 48.9986 24.2703 45.8272 26.0779C45.641 26.1833 45.2836 26.1475 45.0804 26.0366C44.0101 25.4572 42.9643 24.8327 41.9109 24.2214C39.806 23.0006 37.7011 21.7798 35.5925 20.5552C35.6433 20.4838 35.6602 20.433 35.696 20.4123C38.8542 18.5764 42.0087 16.7386 45.1801 14.9272C45.3532 14.8294 45.6824 14.8613 45.8723 14.9629C46.7 15.4012 47.5013 15.8846 48.312 16.3549C50.6821 17.728 53.0485 19.0993 55.4261 20.4762Z" fill="#4583E6"/>
</svg>
