<svg width="71" height="71" viewBox="0 0 71 71" fill="none" xmlns="http://www.w3.org/2000/svg">
<path d="M31.7331 58.4214C29.8123 58.4214 28.0046 58.4251 26.195 58.4195C24.7473 58.4157 23.8369 57.4916 23.8312 56.0312C23.8274 55.2577 23.8312 54.4841 23.8312 53.6843C22.6361 53.3775 21.4863 53.0707 20.3308 52.7922C19.7992 52.6642 19.426 52.3951 19.3279 51.8436C19.2299 51.2941 19.4957 50.9083 19.9292 50.5902C21.0848 49.7414 22.2139 48.8587 23.3788 48.0212C23.7256 47.7709 23.8576 47.5055 23.8406 47.0877C23.8105 46.3368 23.8237 45.5821 23.835 44.8293C23.8538 43.5683 24.8095 42.6123 26.08 42.6104C29.8425 42.601 33.6031 42.6028 37.3655 42.6104C38.6832 42.6123 39.6219 43.5608 39.6351 44.8782C39.6445 45.9773 39.637 47.0783 39.637 48.2565C41.5691 48.2565 43.4428 48.249 45.3146 48.2602C46.3268 48.2659 47.1807 48.9133 47.456 49.8807C47.5257 50.1235 47.5276 50.3888 47.5351 50.6467C47.5483 51.0438 47.5389 51.4409 47.5389 51.8662C48.7114 52.1655 49.8367 52.4685 50.9715 52.7376C51.5219 52.8675 51.9366 53.1159 52.0422 53.7031C52.1477 54.2903 51.8348 54.6742 51.3881 55.0036C50.2345 55.8543 49.0771 56.7031 47.9555 57.5914C47.7406 57.7608 47.5691 58.1146 47.5578 58.3894C47.5144 59.5167 47.5464 60.6478 47.537 61.7752C47.5257 63.1302 46.587 64.0656 45.2203 64.0675C41.505 64.0731 37.7915 64.0731 34.0762 64.0675C32.67 64.0656 31.7426 63.1321 31.7369 61.7262C31.7294 60.6497 31.7331 59.5732 31.7331 58.4214ZM26.0857 56.114C29.8953 56.114 33.6163 56.114 37.3222 56.114C37.3222 52.3405 37.3222 48.616 37.3222 44.9027C33.5597 44.9027 29.8538 44.9027 26.0857 44.9027C26.0857 45.4278 26.0932 45.9152 26.0838 46.4046C26.031 49.3142 26.5041 48.4823 24.1347 50.306C23.818 50.5488 23.5145 50.8085 23.13 51.1209C23.8651 51.3148 24.4476 51.4898 25.0395 51.6178C25.7784 51.7778 26.1064 52.2088 26.0913 52.9635C26.0706 53.9967 26.0857 55.0299 26.0857 56.114ZM39.6351 50.5469C39.6351 52.0093 39.5672 53.4208 39.6483 54.8248C39.816 57.7307 38.8962 58.6209 36.0743 58.4289C35.4032 58.3837 34.7246 58.4214 34.0347 58.4214C34.0347 59.5863 34.0347 60.676 34.0347 61.7582C37.8047 61.7582 41.5276 61.7582 45.2807 61.7582C45.2807 60.3881 45.3221 59.0707 45.2656 57.757C45.2317 56.9816 45.5069 56.4735 46.1365 56.0519C46.8414 55.5814 47.4937 55.0337 48.2835 54.4333C47.4729 54.2244 46.8415 54.0644 46.2137 53.8988C45.586 53.7332 45.2694 53.3361 45.2807 52.6736C45.292 51.9754 45.2826 51.2753 45.2826 50.545C43.3844 50.5469 41.5597 50.5469 39.6351 50.5469Z" fill="#4583E6"/>
<path d="M14.1101 54.1174C16.7152 54.9605 18.2779 57.2942 18.2044 59.9272C18.1158 63.1003 18.1855 66.2791 18.1818 69.456C18.1818 70.4798 17.8104 70.8468 16.7774 70.8468C11.6992 70.8487 6.61914 70.8487 1.54094 70.8468C0.474027 70.8468 0.121531 70.4873 0.121531 69.4014C0.119646 66.2019 0.119646 63.0025 0.121531 59.803C0.121531 57.1173 1.43915 55.1864 3.93301 54.2115C4.01406 54.1795 4.097 54.1512 4.1856 54.1192C1.66723 50.039 1.8727 46.6438 4.77183 44.2028C7.37314 42.0102 11.1168 42.0629 13.6766 44.3251C16.4664 46.7944 16.6304 50.2404 14.1101 54.1174ZM2.37788 68.5507C6.91886 68.5507 11.3939 68.5507 15.9273 68.5507C15.9273 68.3531 15.9273 68.1931 15.9273 68.035C15.9273 65.2835 15.9367 62.5319 15.9235 59.7804C15.9141 57.6048 14.4702 56.1744 12.2836 56.165C10.1912 56.1556 8.09887 56.1556 6.0084 56.165C3.82557 56.1744 2.39108 57.6104 2.37977 59.7917C2.37034 61.6737 2.37788 63.5539 2.37788 65.4359C2.37788 66.4635 2.37788 67.4911 2.37788 68.5507ZM9.15447 48.2586C7.70301 48.2567 6.10076 48.9587 5.11679 49.9882C4.83781 50.2799 4.78126 50.5396 4.92264 50.9235C5.55788 52.6531 7.30717 53.9009 9.1507 53.9028C10.9942 53.9047 12.7435 52.6607 13.3788 50.9273C13.5164 50.5509 13.4824 50.2837 13.1903 49.9938C12.0706 48.8759 10.7228 48.3169 9.15447 48.2586ZM5.55034 46.832C7.96692 45.7065 10.3175 45.7178 12.7624 46.8264C10.9207 44.263 7.24119 44.2762 5.55034 46.832Z" fill="#4583E6"/>
<path d="M56.1453 54.1058C53.135 50.5507 54.2226 46.3895 56.5167 44.3569C59.1689 42.0081 63.0049 42.0006 65.6382 44.3475C67.97 46.4271 69.0218 50.5657 66.0737 54.0419C66.0925 54.0776 66.1019 54.1378 66.1302 54.1473C68.8559 55.1955 70.1189 57.0343 70.1189 59.9627C70.1189 63.1152 70.1208 66.2676 70.1189 69.42C70.1189 70.4871 69.7588 70.8428 68.675 70.8428C63.6194 70.8447 58.5638 70.8447 53.5082 70.8428C52.3979 70.8428 52.0568 70.4946 52.0568 69.3579C52.0549 66.2525 52.134 63.1434 52.0341 60.0418C51.938 57.134 53.6421 54.9264 56.1453 54.1058ZM54.3244 68.5354C58.8824 68.5354 63.3574 68.5354 67.855 68.5354C67.855 65.4734 67.8983 62.464 67.8399 59.4565C67.8041 57.5876 66.3394 56.2006 64.4601 56.1723C62.2037 56.1366 59.9474 56.1347 57.691 56.1742C55.8701 56.2043 54.3979 57.5255 54.347 59.3379C54.2603 62.3887 54.3244 65.4432 54.3244 68.5354ZM61.1048 53.9007C62.9521 53.8894 64.7202 52.6454 65.2933 50.897C65.3743 50.6504 65.3046 50.2345 65.1368 50.0463C63.0633 47.7145 59.1425 47.7032 57.0558 50.0218C56.8843 50.2119 56.7938 50.6222 56.8692 50.8669C57.429 52.6397 59.2386 53.912 61.1048 53.9007ZM64.6033 46.7264C63.7042 45.4654 62.4695 44.865 60.9577 44.8839C59.5176 44.9027 58.117 45.7138 57.561 46.7998C59.9172 45.7044 62.2509 45.7233 64.6033 46.7264Z" fill="#4583E6"/>
<path d="M35.096 32.4381C33.6162 32.4381 32.1346 32.4438 30.6549 32.4362C29.292 32.4287 28.3609 31.4933 28.3477 30.1345C28.342 29.617 28.3458 29.0994 28.3477 28.5818C28.3514 27.4978 27.9725 26.6038 27.2035 25.8058C24.1347 22.6271 23.0357 18.8442 24.3006 14.6002C25.5786 10.3167 28.555 7.64606 32.9207 6.66552C39.0847 5.27846 45.3806 9.7163 46.2778 16.0061C46.8188 19.7984 45.7199 23.0656 43.0582 25.7908C42.2646 26.6038 41.8782 27.5147 41.8933 28.627C41.9008 29.1671 41.9046 29.7092 41.8914 30.2493C41.8632 31.467 40.9074 32.4212 39.6803 32.4325C38.1516 32.4494 36.6247 32.4381 35.096 32.4381ZM39.637 30.1477C39.637 29.807 39.6558 29.5454 39.6332 29.2895C39.4541 27.1345 40.1874 25.4031 41.7218 23.841C43.669 21.8592 44.3966 19.3711 44.0422 16.5857C43.3466 11.1241 37.9065 7.53878 32.6511 9.09334C26.0612 11.0413 23.9122 19.1754 28.7228 24.0875C30.0234 25.4162 30.6945 26.9125 30.604 28.7644C30.5814 29.2236 30.6002 29.6847 30.6002 30.1496C33.6558 30.1477 36.6096 30.1477 39.637 30.1477Z" fill="#4583E6"/>
<path d="M35.1205 35.8277C34.0404 35.8277 32.9603 35.8333 31.8821 35.8258C31.0621 35.8202 30.5889 35.3798 30.6059 34.6646C30.6229 33.9852 31.0885 33.5749 31.8783 33.5711C34.0385 33.5655 36.1968 33.5655 38.3571 33.5711C39.1789 33.573 39.652 34.0153 39.6332 34.7305C39.6162 35.4099 39.1487 35.8183 38.3589 35.8239C37.2807 35.8333 36.2006 35.8277 35.1205 35.8277Z" fill="#4583E6"/>
<path d="M31.782 36.9888C34.0044 36.9888 36.2287 36.9888 38.4549 36.9888C38.4983 38.1406 37.5973 39.1588 36.4625 39.2058C35.5709 39.2434 34.6774 39.2096 33.7839 39.2152C32.9074 39.219 31.6105 38.182 31.782 36.9888Z" fill="#4583E6"/>
<path d="M23.9673 3.94434C24.7363 4.71597 25.5111 5.48949 26.3065 6.28559C25.8051 6.77116 25.2868 7.27366 24.8061 7.7404C24.0389 6.96312 23.2604 6.17643 22.4668 5.3728C22.9192 4.9437 23.4376 4.4506 23.9673 3.94434Z" fill="#4583E6"/>
<path d="M45.3823 7.71753C44.9752 7.28843 44.4643 6.75205 43.9912 6.25519C44.7414 5.49485 45.5105 4.71569 46.2796 3.93652C46.7603 4.44091 47.2523 4.96035 47.6821 5.41204C46.9695 6.12533 46.1835 6.91202 45.3823 7.71753Z" fill="#4583E6"/>
<path d="M36.217 0.848145C36.217 1.95666 36.217 3.02754 36.217 4.14735C35.4988 4.14735 34.7882 4.14735 34.0342 4.14735C34.0342 3.05954 34.0342 1.97172 34.0342 0.848145C34.7467 0.848145 35.4423 0.848145 36.217 0.848145Z" fill="#4583E6"/>
<path d="M18.2139 17.7186C18.2139 16.9808 18.2139 16.2864 18.2139 15.543C19.3109 15.543 20.3986 15.543 21.5277 15.543C21.5277 16.26 21.5277 16.9714 21.5277 17.7186C20.4344 17.7186 19.3656 17.7186 18.2139 17.7186Z" fill="#4583E6"/>
<path d="M52.0382 15.5542C52.0382 16.292 52.0382 16.9695 52.0382 17.6997C50.9373 17.6997 49.8516 17.6997 48.7168 17.6997C48.7168 16.9996 48.7168 16.2882 48.7168 15.5542C49.8271 15.5542 50.9298 15.5542 52.0382 15.5542Z" fill="#4583E6"/>
<path d="M38.7717 14.751C39.3862 15.2648 39.9235 15.7146 40.5229 16.2152C39.686 17.2259 38.8679 18.212 38.0479 19.1982C37.0564 20.3896 36.0686 21.5847 35.0734 22.7722C34.374 23.606 33.7557 23.6417 32.998 22.8964C31.9273 21.8463 30.8623 20.7904 29.7803 19.7214C30.359 19.1512 30.8736 18.6449 31.407 18.1198C32.2025 18.9385 33.0017 19.7591 33.8575 20.6399C35.5333 18.6299 37.1318 16.7139 38.7717 14.751Z" fill="#4583E6"/>
</svg>
