<svg width="71" height="71" viewBox="0 0 71 71" fill="none" xmlns="http://www.w3.org/2000/svg">
<path d="M2.44816 45.1527C24.2519 45.1527 45.9679 45.1527 67.7833 45.1527C67.7833 44.8782 67.7833 44.6211 67.7833 44.3641C67.7833 33.5508 67.7833 22.7375 67.7833 11.9223C67.7833 10.5066 67.4482 10.1795 66.0144 10.1776C65.4066 10.1776 64.7987 10.1951 64.1929 10.1717C63.4993 10.1444 63.0922 9.68294 63.1039 8.98387C63.1155 8.31984 63.513 7.87197 64.1773 7.85444C65.1241 7.83107 66.0748 7.80576 67.0196 7.86418C68.6347 7.96349 70.0568 9.48432 70.1152 11.1084C70.123 11.3031 70.1191 11.4978 70.1191 11.6906C70.1191 25.4696 70.1191 39.2466 70.1191 53.0256C70.1191 55.4169 68.7067 56.8442 66.3339 56.8442C45.5315 56.8442 24.7311 56.8442 3.92875 56.8442C1.54616 56.8442 0.120117 55.4208 0.120117 53.047C0.120117 39.2447 0.120117 25.4423 0.120117 11.638C0.120117 9.26038 1.54032 7.84665 3.92681 7.8447C4.60671 7.8447 5.28856 7.83302 5.96847 7.8486C6.72435 7.86612 7.1432 8.30816 7.13151 9.03839C7.11982 9.73357 6.71071 10.1542 5.986 10.1717C5.32947 10.1892 4.67295 10.1737 4.01837 10.1776C2.84753 10.1834 2.454 10.5787 2.45205 11.7607C2.45011 17.0573 2.45205 22.3559 2.45011 27.6525C2.45011 33.1925 2.45011 38.7345 2.45011 44.2745C2.44816 44.5432 2.44816 44.81 2.44816 45.1527ZM2.44816 47.5265C2.44816 49.3297 2.44621 51.0725 2.44816 52.8172C2.45011 54.1472 2.80272 54.5055 4.12746 54.5055C9.35241 54.5075 14.5773 54.5055 19.8023 54.5055C35.2589 54.5055 50.7136 54.5055 66.1702 54.5055C67.4015 54.5055 67.7794 54.1258 67.7814 52.8971C67.7853 51.6333 67.7814 50.3695 67.7814 49.1057C67.7814 48.5838 67.7814 48.06 67.7814 47.5265C45.966 47.5265 24.2675 47.5265 2.44816 47.5265Z" fill="#4583E6"/>
<path d="M58.4461 12.5435C42.857 12.5435 27.3634 12.5435 11.782 12.5435C11.782 12.8551 11.782 13.1375 11.782 13.4218C11.782 22.7531 11.782 32.0845 11.7801 41.4159C11.7801 42.4051 11.3671 42.8783 10.5547 42.8452C9.93909 42.8199 9.50855 42.4188 9.454 41.8054C9.43646 41.6126 9.44815 41.4159 9.44815 41.2231C9.44815 29.0234 9.44815 16.8256 9.44815 4.62588C9.4501 2.28135 10.8723 0.848145 13.1964 0.848145C27.8017 0.848145 42.407 0.848145 57.0123 0.848145C59.3442 0.848145 60.78 2.2794 60.78 4.6064C60.7819 16.8782 60.78 29.15 60.78 41.4218C60.78 42.4441 60.3514 42.9212 59.4923 42.8511C58.8747 42.8004 58.5143 42.4616 58.4558 41.8404C58.4305 41.5756 58.4461 41.3069 58.4461 41.0381C58.4461 31.8528 58.4461 22.6675 58.4461 13.4802C58.4461 13.1939 58.4461 12.9057 58.4461 12.5435ZM58.4461 10.164C58.4461 8.27703 58.452 6.46022 58.4442 4.6434C58.4383 3.60939 58.0156 3.18294 56.9791 3.18294C42.3972 3.17904 27.8173 3.17904 13.2354 3.18294C12.2067 3.18294 11.7898 3.61329 11.7859 4.65898C11.7781 6.31222 11.782 7.96352 11.7859 9.61677C11.7859 9.79981 11.821 9.98285 11.8405 10.1659C27.3809 10.164 42.8589 10.164 58.4461 10.164Z" fill="#4583E6"/>
<path d="M27.6926 63.8196C32.6448 63.8196 37.5872 63.8196 42.5414 63.8196C41.9355 62.8712 41.3121 61.9599 40.7686 61.0057C40.5932 60.6981 40.4627 60.1937 40.5971 59.923C40.7764 59.5647 41.1991 59.2123 41.5868 59.1032C42.1264 58.9514 42.5492 59.3252 42.7946 59.8276C43.4901 61.2453 44.4642 62.4467 45.6662 63.4535C45.9312 63.6774 46.3383 63.7923 46.6948 63.8351C47.4118 63.9228 48.1657 63.8196 48.8592 63.987C50.4431 64.3706 51.4347 65.726 51.4503 67.3442C51.4561 68.0724 51.46 68.8007 51.4503 69.5309C51.4405 70.4131 51.0334 70.8454 50.1723 70.8454C40.1413 70.8493 30.1102 70.8493 20.0792 70.8454C19.2142 70.8454 18.7993 70.4131 18.7876 69.5407C18.7778 68.7871 18.7778 68.0354 18.7876 67.2818C18.8129 65.393 20.3578 63.7125 22.2183 63.8955C23.9482 64.0649 25.0275 63.3172 25.9431 62.0651C26.4574 61.364 26.9445 60.6377 27.3926 59.8938C27.8426 59.148 28.4192 58.8774 29.0602 59.1987C29.7284 59.5336 29.9252 60.219 29.4771 60.9999C28.9355 61.9404 28.3179 62.8381 27.6926 63.8196ZM49.056 68.4755C49.28 66.5867 48.9333 66.1797 47.1449 66.1797C39.0776 66.1797 31.0083 66.1797 22.941 66.1797C22.7228 66.1797 22.5027 66.166 22.2845 66.1875C21.6124 66.2498 21.213 66.6237 21.137 67.2916C21.0942 67.6693 21.1293 68.0569 21.1293 68.4775C30.457 68.4755 39.7322 68.4755 49.056 68.4755Z" fill="#4583E6"/>
<path d="M30.4506 39.1709C30.474 39.0891 30.5246 38.8788 30.5948 38.6743C32.8585 31.8763 35.1262 25.0803 37.388 18.2823C37.573 17.7254 37.8088 17.2405 38.4809 17.1763C39.4433 17.0848 40.0063 17.8617 39.6751 18.8763C38.9406 21.1332 38.1867 23.3823 37.4367 25.6333C35.923 30.1822 34.4092 34.7291 32.8936 39.276C32.5624 40.2711 32.2371 40.5612 31.5318 40.5125C30.8597 40.4638 30.4214 39.977 30.4506 39.1709Z" fill="#4583E6"/>
<path d="M20.6538 28.8659C22.5942 30.4802 24.478 32.0127 26.3113 33.6036C26.6541 33.8996 26.999 34.441 26.9814 34.8538C26.9386 35.8722 25.8067 36.2266 24.9709 35.5373C22.9293 33.8509 20.9324 32.1101 18.8557 30.4704C17.2426 29.1969 17.1744 28.5524 18.8401 27.2418C20.8818 25.6353 22.8416 23.9237 24.8424 22.2646C25.5339 21.6901 26.2431 21.6979 26.6989 22.2587C27.1509 22.8157 27.0204 23.5206 26.3385 24.0911C24.5501 25.5886 22.7578 27.0783 20.9675 28.5718C20.8779 28.6478 20.796 28.7315 20.6538 28.8659Z" fill="#4583E6"/>
<path d="M49.5836 28.8344C47.6764 27.2435 45.81 25.6993 43.9632 24.1337C43.6963 23.9078 43.4216 23.6118 43.3183 23.2925C43.1566 22.7979 43.33 22.3188 43.7995 22.0287C44.3119 21.7132 44.8145 21.7736 45.2782 22.1591C46.6964 23.3411 48.1147 24.5231 49.5329 25.7051C50.3531 26.3886 51.1791 27.0682 51.9954 27.7595C52.8584 28.4917 52.8584 29.2142 51.9857 29.9424C49.7862 31.7807 47.5809 33.6131 45.3756 35.4416C44.6587 36.0355 44.0138 36.0335 43.5249 35.4571C43.0359 34.8846 43.1469 34.2284 43.8521 33.6384C45.6035 32.1721 47.3608 30.7136 49.1141 29.2512C49.2563 29.1324 49.3927 29.0038 49.5836 28.8344Z" fill="#4583E6"/>
<path d="M35.138 52.1788C34.386 52.1788 33.6321 52.1885 32.8801 52.1749C32.1261 52.1613 31.6469 51.7173 31.6313 51.0435C31.6138 50.3483 32.1183 49.8557 32.8996 49.8498C34.4288 49.8382 35.9581 49.8382 37.4894 49.8518C38.2316 49.8576 38.7206 50.3269 38.7382 50.9948C38.7557 51.7017 38.2648 52.1652 37.4719 52.1749C36.6926 52.1846 35.9153 52.1788 35.138 52.1788Z" fill="#4583E6"/>
<path d="M47.9141 7.84652C45.6582 7.84652 43.4003 7.84847 41.1443 7.84652C40.2034 7.84457 39.7475 7.44733 39.7631 6.65673C39.7787 5.90703 40.2365 5.51757 41.1365 5.51757C45.6738 5.51367 50.211 5.51367 54.7502 5.51757C55.621 5.51757 56.1061 5.94208 56.1081 6.67815C56.11 7.41422 55.623 7.84457 54.758 7.84652C52.4748 7.84847 50.1954 7.84652 47.9141 7.84652Z" fill="#4583E6"/>
<path d="M15.2887 7.8446C14.6361 7.84849 14.1393 7.36946 14.1179 6.72102C14.0964 6.03557 14.5932 5.51954 15.2751 5.51565C15.9589 5.51175 16.4615 6.02584 16.4459 6.70739C16.4323 7.35583 15.9374 7.8407 15.2887 7.8446Z" fill="#4583E6"/>
<path d="M19.9326 7.84463C19.2565 7.83684 18.7578 7.31108 18.7831 6.62758C18.8065 5.97719 19.3053 5.50984 19.9618 5.51568C20.6417 5.52347 21.1385 6.04729 21.1112 6.72884C21.0878 7.37534 20.5832 7.85242 19.9326 7.84463Z" fill="#4583E6"/>
<path d="M24.5846 7.84487C23.9086 7.82929 23.4177 7.29574 23.4508 6.61224C23.482 5.96379 23.9846 5.50229 24.645 5.51592C25.323 5.5315 25.8139 6.06116 25.7788 6.74466C25.7477 7.38921 25.2353 7.8585 24.5846 7.84487Z" fill="#4583E6"/>
</svg>
