<svg width="69" height="71" viewBox="0 0 69 71" fill="none" xmlns="http://www.w3.org/2000/svg">
<path d="M35.0641 0.848145C35.8662 1.23461 36.7332 1.52629 37.4559 2.02761C38.5284 2.77138 39.1232 3.90343 39.435 5.22508C39.8027 5.22508 40.1614 5.22508 40.5183 5.22508C44.7233 5.22508 48.9284 5.21961 53.1334 5.2342C53.539 5.23602 53.7607 5.13576 53.9643 4.74564C54.6673 3.4003 56.1633 2.74949 57.5566 3.11409C59.049 3.5042 60.0241 4.75294 60.0313 6.28423C60.0385 7.85927 59.0706 9.12258 57.5512 9.51999C56.1579 9.88458 54.6979 9.21556 53.9373 7.89573C53.8219 7.6952 53.5804 7.43269 53.3966 7.43087C50.884 7.39988 48.3714 7.41082 45.666 7.41082C56.3489 12.3055 62.6142 20.4833 64.6491 32.0227C65.4259 32.0227 66.1884 32.0135 66.9508 32.0245C67.7168 32.0354 68.1097 32.4274 68.1134 33.2076C68.1224 35.3259 68.1224 37.446 68.1134 39.5643C68.1097 40.3755 67.7168 40.7583 66.9003 40.7674C66.1595 40.7747 65.4187 40.7692 64.7212 40.7692C61.7634 55.5298 53.0451 64.3712 38.4329 67.4137C38.4329 67.9861 38.3986 68.6661 38.4419 69.3387C38.4833 69.9877 38.3085 70.4945 37.7588 70.8481C35.3309 70.8481 32.9012 70.8481 30.4734 70.8481C29.9597 70.5073 29.7434 70.0461 29.7884 69.408C29.8371 68.7299 29.7993 68.0444 29.7993 67.4064C15.2375 64.4113 6.51016 55.579 3.51092 40.7711C2.87647 40.7711 2.14108 40.7747 1.4075 40.7692C0.500879 40.7638 0.125975 40.3992 0.124173 39.5023C0.118765 37.4296 0.118765 35.355 0.124173 33.2823C0.125975 32.4128 0.500879 32.0336 1.34802 32.0245C2.08881 32.0172 2.82781 32.0227 3.58663 32.0227C5.61976 20.4961 11.8742 12.3328 22.4328 7.47463C22.2705 7.45093 22.1408 7.41447 22.011 7.41447C19.6949 7.41082 17.3788 7.42176 15.0627 7.40353C14.6715 7.39988 14.4769 7.53113 14.2894 7.87932C13.5468 9.2593 12.0652 9.89917 10.6395 9.50359C9.1489 9.08977 8.21164 7.85015 8.21525 6.29699C8.21885 4.7657 9.18856 3.51515 10.681 3.11956C12.0977 2.74403 13.5432 3.42217 14.3381 4.7821C14.457 4.98628 14.7544 5.20686 14.9707 5.20686C19.4894 5.23056 24.0099 5.22508 28.5285 5.22326C28.6169 5.22326 28.7052 5.20321 28.8079 5.19045C29.3811 2.82789 30.9276 1.47342 33.1752 0.849969C33.8042 0.848146 34.4351 0.848145 35.0641 0.848145ZM38.4365 65.0293C44.6206 64.0357 49.8945 61.3833 54.2798 56.9717C58.7173 52.5073 61.3777 47.1095 62.3762 40.7711C61.74 40.7711 61.1812 40.782 60.6243 40.7692C59.8961 40.7528 59.4942 40.3609 59.4906 39.6262C59.4798 37.4843 59.4816 35.3441 59.4906 33.2021C59.4942 32.4255 59.8871 32.0391 60.6585 32.0263C61.2101 32.0154 61.7616 32.0245 62.3853 32.0245C61.284 25.3725 58.4109 19.7888 53.6345 15.2459C49.579 11.3885 44.7918 8.96945 39.3377 7.92124C38.395 10.2692 36.8161 11.6839 34.345 11.7695C31.6612 11.8643 29.9272 10.4333 28.898 7.91761C23.1988 9.02779 18.2511 11.6073 14.1074 15.7363C9.61213 20.2171 6.90308 25.6386 5.86128 32.0227C6.47231 32.0227 7.00762 32.0172 7.54294 32.0245C8.35764 32.0354 8.75057 32.4146 8.75417 33.2276C8.76138 35.3459 8.76318 37.4642 8.75417 39.5843C8.75057 40.3609 8.35584 40.7547 7.59341 40.7692C7.04007 40.7802 6.48672 40.7711 5.86128 40.7711C6.98059 47.7001 10.0231 53.4571 15.1185 58.0655C19.302 61.8482 24.1919 64.1378 29.7109 65.0074C29.7668 64.9016 29.7866 64.8816 29.7866 64.8615C29.7957 64.3383 29.7975 63.8152 29.8083 63.292C29.8263 62.5099 30.203 62.1089 30.9672 62.1052C33.0797 62.0961 35.1939 62.0943 37.3064 62.1052C38.0327 62.1089 38.4202 62.5136 38.4383 63.25C38.4455 63.8152 38.4365 64.3803 38.4365 65.0293ZM30.8861 6.31157C30.8987 8.08714 32.3587 9.5765 34.098 9.58926C35.859 9.60202 37.3748 8.06161 37.3478 6.2824C37.3208 4.5123 35.85 3.043 34.1016 3.03935C32.3803 3.03753 30.8735 4.57064 30.8861 6.31157ZM2.31051 38.547C3.74164 38.547 5.14212 38.547 6.55341 38.547C6.55341 37.0905 6.55341 35.6704 6.55341 34.2594C5.10967 34.2594 3.70919 34.2594 2.31051 34.2594C2.31051 35.7123 2.31051 37.1142 2.31051 38.547ZM65.9234 38.5525C65.9234 37.1014 65.9234 35.6832 65.9234 34.2521C64.4851 34.2521 63.0846 34.2521 61.6931 34.2521C61.6931 35.716 61.6931 37.1343 61.6931 38.5525C63.1261 38.5525 64.5103 38.5525 65.9234 38.5525ZM36.2231 68.6497C36.2231 67.2113 36.2231 65.7767 36.2231 64.3329C34.801 64.3329 33.4005 64.3329 32.0126 64.3329C32.0126 65.7985 32.0126 67.2168 32.0126 68.6497C33.4311 68.6497 34.7974 68.6497 36.2231 68.6497ZM11.4758 5.22873C10.9243 5.21233 10.3854 5.74645 10.38 6.30975C10.3764 6.84388 10.863 7.36707 11.3947 7.4017C11.9409 7.43634 12.496 6.92227 12.523 6.35715C12.5519 5.80114 12.0346 5.24514 11.4758 5.22873ZM56.7869 5.23237C56.2282 5.23419 55.7055 5.77015 55.7145 6.33527C55.7235 6.90039 56.266 7.42723 56.8194 7.40535C57.3511 7.3853 57.8468 6.87486 57.8576 6.33709C57.8684 5.77379 57.3421 5.23055 56.7869 5.23237Z" fill="#4583E6"/>
<path d="M34.0785 55.5375C30.9748 55.5375 27.8728 55.5375 24.769 55.5375C23.4857 55.5375 23.0765 54.9524 23.4893 53.7C24.0552 51.9773 24.6519 50.2637 25.1836 48.5301C25.2899 48.1837 25.2683 47.717 25.1259 47.3834C23.9165 44.5469 22.6764 41.7231 21.4165 38.9085C21.1552 38.3233 21.1389 37.8165 21.3913 37.2204C24.5221 29.8538 27.6457 22.4836 30.7368 15.1006C31.0901 14.2584 31.5641 13.9102 32.469 13.9594C33.6802 14.0268 34.8968 13.994 36.1099 13.9685C36.7353 13.9557 37.1174 14.2274 37.3571 14.7961C40.5402 22.3377 43.7377 29.8739 46.8955 37.4264C47.0542 37.8056 47.0055 38.3853 46.8397 38.7772C45.6302 41.6393 44.3776 44.4831 43.1069 47.316C42.9014 47.7735 42.9014 48.1564 43.0564 48.6121C43.6476 50.3512 44.2171 52.0976 44.7831 53.844C45.1346 54.9287 44.7038 55.5339 43.5899 55.5339C40.4194 55.5394 37.249 55.5375 34.0785 55.5375ZM33.0025 16.1962C32.9538 16.1688 32.9069 16.1433 32.8583 16.116C32.7375 16.2873 32.5789 16.4423 32.4996 16.63C29.5346 23.6211 26.5732 30.6122 23.6299 37.6123C23.5307 37.8475 23.5271 38.1993 23.6263 38.4309C24.7654 41.076 25.9406 43.7029 27.0815 46.3462C27.2347 46.6998 27.4186 46.7964 27.7827 46.7964C32.0093 46.7837 36.2342 46.7837 40.4609 46.7964C40.8268 46.7983 41.0088 46.6962 41.1602 46.3443C42.3012 43.701 43.4746 41.0742 44.6173 38.4309C44.711 38.2139 44.7236 37.8894 44.6335 37.6761C41.6757 30.6359 38.6999 23.601 35.7205 16.5699C35.6484 16.4003 35.4916 16.2691 35.3727 16.1196C35.3294 16.1433 35.2843 16.1688 35.2411 16.1925C35.2411 21.4864 35.2411 26.7803 35.2411 32.0742C38.8405 33.1297 39.8138 36.1029 39.4696 38.3142C39.0424 41.0669 36.7894 42.9664 34.0569 42.9573C31.4326 42.9463 29.1849 41.0122 28.774 38.3215C28.4171 35.9844 29.5004 33.1005 33.0061 32.0796C33.0025 26.7876 33.0025 21.4919 33.0025 16.1962ZM25.9478 53.2789C31.4218 53.2789 36.8326 53.2789 42.294 53.2789C41.8452 51.9062 41.436 50.6101 40.9818 49.3285C40.9241 49.1663 40.6303 48.9895 40.4465 48.9876C36.2198 48.9676 31.9913 48.9694 27.7646 48.984C27.6006 48.984 27.3339 49.1007 27.2906 49.2246C26.8238 50.57 26.3912 51.9281 25.9478 53.2789ZM30.8864 37.4884C30.9008 39.2639 32.3626 40.7533 34.102 40.7643C35.8647 40.7752 37.3788 39.233 37.3499 37.4556C37.3211 35.6836 35.8503 34.2162 34.1002 34.2143C32.377 34.2125 30.872 35.7456 30.8864 37.4884Z" fill="#4583E6"/>
</svg>
