<svg width="50" height="52" viewBox="0 0 50 52" fill="none" xmlns="http://www.w3.org/2000/svg">
<path d="M34.7993 0C35.6835 0.414816 35.7484 0.514101 35.6227 1.78983C35.3975 4.09512 35.1516 6.39769 34.8988 8.70026C34.8325 9.30821 34.3324 9.67406 33.7481 9.5979C33.1969 9.52582 32.8059 9.05252 32.8653 8.47585C33.1126 6.07128 33.3861 3.66806 33.6141 1.26213C33.6762 0.603864 33.9567 0.190408 34.5907 0C34.6612 0 34.7303 0 34.7993 0Z" fill="#4285F4"/>
<path d="M18.3184 36.0537C19.3642 37.5743 20.3657 39.0309 21.3686 40.4889C22.5373 42.1862 23.7309 43.8686 24.8678 45.5863C26.4081 47.9134 25.419 50.8144 22.7984 51.7583C20.9887 52.4097 18.9774 51.7175 17.7949 50.0106C15.4672 46.6499 13.1519 43.2824 10.8297 39.9176C10.7137 39.7504 10.5962 39.5844 10.523 39.4797C9.68587 39.7694 8.90537 40.1475 8.08203 40.3066C4.03582 41.0846 0.938644 38.3536 0.177475 35.1221C-0.453839 32.4428 0.62921 29.8573 2.94725 28.2919C4.32454 27.3616 5.72117 26.4599 7.08878 25.5174C7.36921 25.3243 7.62754 25.0386 7.77812 24.7381C10.3987 19.5386 13.0013 14.3296 15.6081 9.1233C16.4079 7.52523 18.0532 6.67928 19.8546 6.87105C22.0925 7.1077 24.0155 8.07877 25.7326 9.40891C31.3923 13.791 35.223 19.3876 36.9995 26.2858C37.4513 28.0403 37.5922 29.8383 37.0562 31.6118C36.5616 33.2479 35.5642 34.4516 33.7794 34.7739C32.8704 34.9385 31.9297 34.9371 31.0027 35.0119C28.1377 35.2418 25.2739 35.4743 22.4089 35.7015C21.1739 35.7994 19.9375 35.8837 18.7011 35.9776C18.5989 35.9857 18.4994 36.017 18.3184 36.0537ZM16.8445 12.5629C16.8099 12.5738 16.774 12.5846 16.7395 12.5955C16.995 13.8345 17.1442 15.1048 17.5227 16.3057C19.2095 21.6657 22.2956 26.1512 26.5449 29.8628C27.9152 31.0596 29.4251 32.0769 31.2072 32.6033C31.7059 32.7502 32.2654 32.8862 32.7627 32.81C34.0018 32.6223 34.6981 31.7736 35.0103 30.6271C35.4717 28.9338 35.2451 27.246 34.7298 25.618C32.9243 19.914 29.6116 15.1919 24.9466 11.3919C23.5872 10.2834 22.0815 9.39667 20.327 9.00497C18.6072 8.62144 17.3114 9.45107 16.9992 11.1511C16.9135 11.6149 16.8942 12.0909 16.8445 12.5629ZM27.603 33.2466C21.1379 28.6006 16.9481 22.5293 14.9726 14.9226C13.1864 18.5117 11.414 22.0656 9.65963 25.6276C9.60022 25.75 9.66101 25.9852 9.74804 26.1131C11.5356 28.7271 13.3329 31.3371 15.1439 33.9361C15.2365 34.0694 15.4644 34.1796 15.6302 34.1796C16.093 34.1809 16.5571 34.1184 17.0199 34.083C19.5424 33.8872 22.0649 33.6927 24.5874 33.4941C25.5779 33.4166 26.567 33.3323 27.603 33.2466ZM8.0696 27.3167C6.58732 28.3177 5.13267 29.229 3.76091 30.2463C1.84625 31.6675 1.552 34.3319 2.99974 36.4005C4.45024 38.4705 7.07082 39.0785 9.17336 37.7769C10.5424 36.9296 11.8589 35.9993 13.1961 35.103C13.2472 35.069 13.2804 35.0078 13.3315 34.9453C11.584 32.4101 9.84474 29.89 8.0696 27.3167ZM12.1876 38.2434C12.2968 38.4161 12.3797 38.5603 12.4736 38.6977C13.1284 39.6511 13.786 40.6031 14.4421 41.5565C16.1316 44.0073 17.8239 46.4581 19.5106 48.9103C20.0508 49.6951 20.7801 50.1221 21.7458 49.944C23.3772 49.642 24.0279 47.9637 23.0678 46.5629C20.7884 43.2375 18.4966 39.9217 16.209 36.6018C15.941 36.2142 15.4699 36.0687 15.0721 36.323C14.1078 36.9378 13.1671 37.5879 12.1876 38.2434Z" fill="#4285F4"/>
<path d="M47.2961 8.63352C47.0392 8.97761 46.8996 9.31627 46.6454 9.48355C44.3302 11.0095 41.9983 12.5124 39.6637 14.0085C39.118 14.358 38.4839 14.2274 38.1565 13.7487C37.8278 13.2686 37.9645 12.6634 38.524 12.3002C40.8351 10.796 43.1421 9.28771 45.4795 7.82565C45.7586 7.65156 46.2655 7.63524 46.5777 7.76037C46.8609 7.87733 47.024 8.28399 47.2961 8.63352Z" fill="#4285F4"/>
<path d="M40.9165 18.8325C42.0962 19.0379 43.4003 19.2623 44.7016 19.4921C46.1217 19.7437 47.539 20.0089 48.9605 20.2551C49.6609 20.3762 50.074 20.8223 49.9897 21.4016C49.9027 22.0014 49.3183 22.3877 48.6359 22.268C47.079 21.9973 45.5249 21.7117 43.9694 21.4356C42.8712 21.2398 41.7702 21.0494 40.6719 20.8563C40.0075 20.7393 39.6082 20.285 39.6704 19.7125C39.7284 19.1616 40.1732 18.8107 40.9165 18.8325Z" fill="#4285F4"/>
<path d="M24.2126 16.6919C26.6647 16.696 28.7672 18.1648 29.5187 20.3994C30.2757 22.6476 29.4855 25.112 27.5584 26.5101C27.0736 26.8624 26.5707 26.9018 26.1798 26.608C25.793 26.3183 25.6562 25.9171 25.8275 25.4833C25.9201 25.2493 26.1314 25.0372 26.3373 24.8726C27.4783 23.9641 27.9328 22.7822 27.6303 21.3963C27.3208 19.9819 26.3732 19.0883 24.9254 18.7809C24.0372 18.5919 23.2028 18.7823 22.3933 19.2121C22.0811 19.378 21.61 19.4542 21.2923 19.344C21.0229 19.2502 20.7231 18.8381 20.7079 18.5524C20.6913 18.2437 20.9082 17.8099 21.1666 17.6222C22.0576 16.9721 23.0937 16.6715 24.2126 16.6919Z" fill="#4285F4"/>
</svg>
