<svg width="197" height="203" viewBox="0 0 197 203" fill="none" xmlns="http://www.w3.org/2000/svg">
<g filter="url(#filter0_d_3345_2267)">
<path d="M78.5029 12.4462C90.879 5.30086 106.127 5.30086 118.503 12.4462L163.373 38.3522C175.749 45.4975 183.373 58.7026 183.373 72.9932V124.805C183.373 139.096 175.749 152.301 163.373 159.446L118.503 185.352C106.127 192.497 90.879 192.497 78.5029 185.352L33.6324 159.446C21.2564 152.301 13.6324 139.096 13.6324 124.805V72.9932C13.6324 58.7026 21.2564 45.4975 33.6324 38.3522L78.5029 12.4462Z" fill="white"/>
</g>
<path d="M78.1482 139.083C78.4362 139.587 78.7362 140.031 79.0482 140.415C79.3722 140.799 79.7322 141.099 80.1282 141.315C80.5242 141.531 80.9742 141.639 81.4782 141.639C82.1502 141.639 82.6902 141.453 83.0982 141.081C83.5062 140.709 83.7102 140.235 83.7102 139.659C83.7102 139.095 83.5782 138.645 83.3142 138.309C83.0502 137.973 82.7022 137.703 82.2702 137.499C81.8502 137.283 81.4002 137.091 80.9202 136.923C80.6082 136.815 80.2602 136.677 79.8762 136.509C79.4922 136.329 79.1262 136.107 78.7782 135.843C78.4302 135.567 78.1422 135.231 77.9142 134.835C77.6982 134.439 77.5902 133.953 77.5902 133.377C77.5902 132.753 77.7462 132.195 78.0582 131.703C78.3702 131.211 78.8022 130.827 79.3542 130.551C79.9062 130.263 80.5362 130.119 81.2442 130.119C81.9282 130.119 82.5222 130.251 83.0262 130.515C83.5422 130.767 83.9802 131.097 84.3402 131.505C84.7002 131.901 84.9822 132.321 85.1862 132.765L83.8722 133.521C83.7162 133.209 83.5182 132.903 83.2782 132.603C83.0382 132.303 82.7442 132.057 82.3962 131.865C82.0602 131.673 81.6462 131.577 81.1542 131.577C80.4702 131.577 79.9722 131.745 79.6602 132.081C79.3482 132.405 79.1922 132.771 79.1922 133.179C79.1922 133.527 79.2822 133.851 79.4622 134.151C79.6422 134.439 79.9422 134.715 80.3622 134.979C80.7942 135.231 81.3762 135.483 82.1082 135.735C82.4442 135.855 82.7982 136.011 83.1702 136.203C83.5422 136.395 83.8842 136.641 84.1962 136.941C84.5202 137.229 84.7842 137.583 84.9882 138.003C85.1922 138.411 85.2942 138.903 85.2942 139.479C85.2942 140.031 85.1862 140.529 84.9702 140.973C84.7662 141.417 84.4782 141.795 84.1062 142.107C83.7462 142.419 83.3322 142.659 82.8642 142.827C82.4082 142.995 81.9282 143.079 81.4242 143.079C80.7402 143.079 80.1042 142.935 79.5162 142.647C78.9402 142.347 78.4302 141.957 77.9862 141.477C77.5542 140.985 77.2002 140.463 76.9242 139.911L78.1482 139.083ZM86.1016 134.619H87.7216L90.0616 140.469L92.4016 134.619H94.0216L90.0616 143.529L86.1016 134.619ZM98.3196 143.079C97.5516 143.079 96.8676 142.899 96.2676 142.539C95.6796 142.167 95.2176 141.657 94.8816 141.009C94.5576 140.361 94.3956 139.611 94.3956 138.759C94.3956 137.895 94.5636 137.139 94.8996 136.491C95.2476 135.843 95.7276 135.339 96.3396 134.979C96.9636 134.619 97.6836 134.439 98.4996 134.439C99.3156 134.439 100.012 134.613 100.588 134.961C101.176 135.297 101.626 135.783 101.938 136.419C102.25 137.055 102.406 137.811 102.406 138.687C102.406 138.771 102.4 138.861 102.388 138.957C102.388 139.041 102.388 139.095 102.388 139.119H95.3136V137.895H101.254L100.678 138.723C100.714 138.663 100.75 138.573 100.786 138.453C100.822 138.321 100.84 138.213 100.84 138.129C100.84 137.637 100.738 137.211 100.534 136.851C100.342 136.491 100.072 136.209 99.7236 136.005C99.3756 135.801 98.9676 135.699 98.4996 135.699C97.9476 135.699 97.4736 135.819 97.0776 136.059C96.6936 136.287 96.3936 136.623 96.1776 137.067C95.9736 137.499 95.8656 138.033 95.8536 138.669C95.8536 139.317 95.9556 139.869 96.1596 140.325C96.3636 140.781 96.6636 141.129 97.0596 141.369C97.4556 141.609 97.9356 141.729 98.4996 141.729C99.0636 141.729 99.5616 141.609 99.9936 141.369C100.426 141.117 100.792 140.739 101.092 140.235L102.262 140.973C101.83 141.669 101.284 142.197 100.624 142.557C99.9756 142.905 99.2076 143.079 98.3196 143.079ZM104.379 128.859H105.819V142.899H104.379V128.859ZM107.268 134.619H111.408V135.969H107.268V134.619ZM108.618 131.739H110.058V142.899H108.618V131.739ZM116.056 143.079C115.288 143.079 114.604 142.899 114.004 142.539C113.416 142.167 112.954 141.657 112.618 141.009C112.294 140.361 112.132 139.611 112.132 138.759C112.132 137.895 112.3 137.139 112.636 136.491C112.984 135.843 113.464 135.339 114.076 134.979C114.7 134.619 115.42 134.439 116.236 134.439C117.052 134.439 117.748 134.613 118.324 134.961C118.912 135.297 119.362 135.783 119.674 136.419C119.986 137.055 120.142 137.811 120.142 138.687C120.142 138.771 120.136 138.861 120.124 138.957C120.124 139.041 120.124 139.095 120.124 139.119H113.05V137.895H118.99L118.414 138.723C118.45 138.663 118.486 138.573 118.522 138.453C118.558 138.321 118.576 138.213 118.576 138.129C118.576 137.637 118.474 137.211 118.27 136.851C118.078 136.491 117.808 136.209 117.46 136.005C117.112 135.801 116.704 135.699 116.236 135.699C115.684 135.699 115.21 135.819 114.814 136.059C114.43 136.287 114.13 136.623 113.914 137.067C113.71 137.499 113.602 138.033 113.59 138.669C113.59 139.317 113.692 139.869 113.896 140.325C114.1 140.781 114.4 141.129 114.796 141.369C115.192 141.609 115.672 141.729 116.236 141.729C116.8 141.729 117.298 141.609 117.73 141.369C118.162 141.117 118.528 140.739 118.828 140.235L119.998 140.973C119.566 141.669 119.02 142.197 118.36 142.557C117.712 142.905 116.944 143.079 116.056 143.079Z" fill="#424254"/>
<path d="M120.296 58.8377C114.721 50.8635 103.711 48.5 95.7507 53.5697L81.7714 62.4762C80.831 63.0671 79.9537 63.7541 79.1555 64.5263C78.3563 65.2985 77.6402 66.1518 77.0182 67.0722C76.3963 67.9926 75.8715 68.9751 75.4518 70.0036C75.0332 71.0327 74.7224 72.1023 74.5244 73.1955C74.3592 74.1119 74.269 75.0413 74.257 75.9727C74.244 76.9051 74.3091 77.8365 74.4503 78.7569C74.5915 79.6783 74.8089 80.5867 75.0993 81.472C75.3898 82.3574 75.7533 83.2167 76.186 84.0419C75.8883 84.4943 75.6136 84.9612 75.3627 85.4411C75.1113 85.9208 74.885 86.4135 74.6837 86.9163C74.4824 87.4191 74.3071 87.9319 74.1579 88.4526C74.0087 88.9734 73.8865 89.5012 73.7903 90.034C73.3908 92.2746 73.4436 94.5725 73.9456 96.7923C74.1959 97.899 74.5555 98.9786 75.0202 100.014C75.4849 101.05 76.0508 102.037 76.7118 102.961C82.2862 110.935 93.2959 113.298 101.256 108.229L115.235 99.3592C116.176 98.7673 117.051 98.0793 117.849 97.3061C118.647 96.5335 119.363 95.6803 119.985 94.7602C120.607 93.8408 121.132 92.8583 121.552 91.8298C121.972 90.8022 122.283 89.7326 122.482 88.6399C122.648 87.7235 122.737 86.7951 122.749 85.8637C122.761 84.9323 122.696 84.0009 122.553 83.0805C122.412 82.1601 122.195 81.2527 121.903 80.3674C121.612 79.483 121.248 78.6237 120.816 77.7985C121.113 77.3468 121.389 76.8791 121.64 76.3993C121.89 75.9196 122.118 75.4269 122.319 74.9241C122.52 74.4213 122.697 73.9086 122.847 73.3878C122.996 72.868 123.12 72.3402 123.217 71.8074C123.416 70.6897 123.502 69.5549 123.476 68.4202C123.45 67.2855 123.311 66.1568 123.06 65.0491C122.81 63.9424 122.45 62.8628 121.986 61.8272C121.521 60.7915 120.955 59.8044 120.296 58.8807" fill="#FF3E00"/>
<path d="M94.3843 103.732C93.2902 104.016 92.1592 104.132 91.0302 104.074C89.9015 104.016 88.7878 103.788 87.7282 103.394C86.6685 103.001 85.675 102.449 84.7817 101.757C83.8892 101.064 83.1074 100.239 82.4632 99.3111C82.0656 98.7553 81.7251 98.1624 81.4466 97.5394C81.1674 96.9169 80.951 96.268 80.8007 95.6025C80.6514 94.9365 80.5673 94.2574 80.5523 93.5754C80.5373 92.8934 80.5903 92.2113 80.7105 91.5393C80.7296 91.4301 80.7516 91.321 80.7756 91.2128C80.7987 91.1036 80.8247 90.9955 80.8527 90.8883C80.8798 90.7801 80.9098 90.673 80.9419 90.5658C80.9729 90.4597 81.007 90.3535 81.042 90.2483L81.3054 89.4441L82.0235 89.9799C82.4352 90.2804 82.8598 90.5638 83.2955 90.8282C83.7311 91.0936 84.1778 91.34 84.6345 91.5663C85.0902 91.7937 85.5569 92.002 86.0306 92.1893C86.5043 92.3776 86.9861 92.5448 87.4748 92.692L88.0106 92.8473L87.9625 93.3831C87.9367 93.7478 87.9747 94.1141 88.0747 94.4657C88.1238 94.642 88.1889 94.8123 88.268 94.9765C88.3471 95.1408 88.4403 95.298 88.5464 95.4462C88.741 95.7258 88.977 95.974 89.2465 96.1823C89.5149 96.3907 89.8144 96.5569 90.1338 96.6751C90.4533 96.7933 90.7878 96.8614 91.1284 96.8784C91.4679 96.8964 91.8084 96.8614 92.1379 96.7752C92.214 96.7552 92.2881 96.7322 92.3622 96.7061C92.4363 96.6801 92.5095 96.6521 92.5806 96.62C92.6527 96.589 92.7228 96.5549 92.7929 96.5179C92.862 96.4818 92.9291 96.4427 92.9952 96.4007L106.953 87.4932C107.125 87.3859 107.284 87.261 107.429 87.1206C107.574 86.9794 107.704 86.8241 107.817 86.6569C107.93 86.4896 108.024 86.3104 108.1 86.1231C108.175 85.9358 108.231 85.7415 108.267 85.5432C108.302 85.3399 108.317 85.1346 108.312 84.9283C108.307 84.7229 108.281 84.5186 108.235 84.3173C108.19 84.117 108.124 83.9217 108.039 83.7334C107.955 83.5462 107.851 83.3679 107.731 83.2006C107.536 82.9212 107.301 82.6738 107.032 82.4655C106.762 82.2572 106.463 82.0909 106.144 81.9728C105.825 81.8546 105.49 81.7857 105.15 81.7685C104.809 81.7514 104.469 81.7865 104.139 81.8716C104.064 81.8916 103.989 81.9147 103.915 81.9407C103.841 81.9668 103.769 81.9948 103.696 82.0258C103.624 82.0579 103.554 82.0919 103.485 82.129C103.416 82.1651 103.348 82.2051 103.282 82.2472L97.9217 85.6503C97.7033 85.7886 97.479 85.9188 97.2507 86.0409C97.0213 86.1621 96.789 86.2753 96.5516 86.3795C96.3142 86.4836 96.0729 86.5788 95.8285 86.6639C95.5841 86.75 95.3367 86.8261 95.0864 86.8932C93.9937 87.1757 92.865 87.2898 91.7383 87.2318C90.6116 87.1737 89.5009 86.9443 88.4433 86.5527C87.3857 86.1601 86.3942 85.6083 85.5028 84.9172C84.6115 84.2262 83.8303 83.4039 83.1863 82.4775C82.7907 81.9217 82.4512 81.3278 82.1738 80.7048C81.8953 80.0819 81.68 79.4329 81.5308 78.7679C81.3816 78.1019 81.2994 77.4229 81.2854 76.7408C81.2704 76.0598 81.3235 75.3777 81.4446 74.7067C81.6814 73.3856 82.191 72.1283 82.9409 71.0151C83.6913 69.9019 84.6659 68.9577 85.8023 68.2429L99.8035 59.3364C100.021 59.1982 100.243 59.068 100.471 58.9458C100.698 58.8246 100.93 58.7114 101.166 58.6073C101.401 58.5031 101.641 58.4082 101.885 58.3228C102.127 58.2367 102.373 58.1596 102.623 58.0925C103.716 57.8091 104.847 57.6929 105.975 57.75C107.104 57.8081 108.216 58.0364 109.276 58.43C110.336 58.8226 111.328 59.3754 112.221 60.0675C113.114 60.7607 113.895 61.5857 114.539 62.5142C114.936 63.0691 115.277 63.662 115.556 64.2849C115.836 64.9078 116.052 65.5558 116.203 66.2218C116.354 66.8879 116.438 67.5669 116.453 68.2489C116.469 68.931 116.417 69.613 116.297 70.285C116.276 70.3952 116.254 70.5053 116.228 70.6145C116.204 70.7237 116.178 70.8328 116.15 70.941C116.123 71.0502 116.093 71.1583 116.062 71.2655C116.031 71.3737 115.999 71.4808 115.964 71.587L115.697 72.3912L114.984 71.8554C114.571 71.5519 114.145 71.2675 113.709 71.0001C113.272 70.7337 112.823 70.4853 112.366 70.256C111.449 69.7989 110.496 69.4196 109.516 69.1222L108.979 68.967L109.029 68.4312C109.044 68.2479 109.043 68.0636 109.026 67.8814C109.01 67.6991 108.976 67.5178 108.928 67.3405C108.879 67.1643 108.816 66.991 108.737 66.8258C108.659 66.6595 108.566 66.5013 108.46 66.351C108.264 66.0765 108.028 65.8334 107.76 65.6299C107.491 65.4256 107.194 65.2634 106.876 65.1492C106.239 64.9179 105.546 64.8868 104.89 65.0601C104.814 65.0801 104.739 65.1031 104.666 65.1282C104.592 65.1542 104.519 65.1833 104.447 65.2143C104.375 65.2454 104.304 65.2804 104.235 65.3165C104.166 65.3535 104.098 65.3926 104.032 65.4346L90.0477 74.3262C89.8775 74.4333 89.7182 74.5585 89.574 74.6987C89.4298 74.8389 89.2996 74.9942 89.1864 75.1604C89.0742 75.3276 88.9792 75.5058 88.903 75.6922C88.8269 75.8795 88.7708 76.0728 88.7347 76.2711C88.6997 76.4744 88.6846 76.6807 88.6896 76.887C88.7017 77.3 88.7946 77.7066 88.9631 78.0839C89.048 78.2716 89.151 78.4508 89.2705 78.6187C89.4638 78.8951 89.6982 79.1415 89.9656 79.3478C90.2324 79.5551 90.5293 79.7205 90.8459 79.8385C91.4826 80.0752 92.1762 80.1133 92.8349 79.9477C92.9101 79.9267 92.9852 79.9036 93.0593 79.8776C93.1324 79.8515 93.2055 79.8225 93.2776 79.7915C93.3494 79.7602 93.4199 79.7262 93.4889 79.6893C93.558 79.6532 93.6262 79.6142 93.6923 79.5721L99.0524 76.175C99.2717 76.0347 99.4951 75.9025 99.7244 75.7804C99.9528 75.6572 100.186 75.544 100.424 75.4388C100.662 75.3346 100.904 75.2397 101.149 75.1544C101.394 75.0683 101.642 74.9922 101.894 74.9261C102.987 74.6416 104.117 74.5255 105.246 74.5815C106.375 74.6386 107.487 74.867 108.547 75.2596C109.605 75.6522 110.599 76.204 111.491 76.8971C112.385 77.5891 113.166 78.4134 113.81 79.3418C114.206 79.8976 114.547 80.4905 114.826 81.1135C115.106 81.736 115.322 82.3849 115.473 83.0504C115.624 83.7154 115.708 84.3944 115.724 85.0765C115.74 85.7595 115.687 86.4416 115.567 87.1126C115.449 87.7714 115.263 88.4162 115.012 89.0365C114.76 89.657 114.445 90.2494 114.07 90.8042C113.697 91.359 113.266 91.8738 112.785 92.3395C112.305 92.8052 111.777 93.2198 111.21 93.5764L97.2246 102.483C97.0053 102.622 96.7809 102.753 96.5526 102.876C96.3232 102.998 96.0899 103.111 95.8515 103.215C95.6142 103.32 95.3728 103.415 95.1274 103.501C94.8831 103.588 94.6347 103.665 94.3843 103.732Z" fill="white"/>
<defs>
<filter id="filter0_d_3345_2267" x="5.63281" y="3.08716" width="185.74" height="199.624" filterUnits="userSpaceOnUse" color-interpolation-filters="sRGB">
<feFlood flood-opacity="0" result="BackgroundImageFix"/>
<feColorMatrix in="SourceAlpha" type="matrix" values="0 0 0 0 0 0 0 0 0 0 0 0 0 0 0 0 0 0 127 0" result="hardAlpha"/>
<feOffset dy="4"/>
<feGaussianBlur stdDeviation="4"/>
<feColorMatrix type="matrix" values="0 0 0 0 0.0627451 0 0 0 0 0.0941176 0 0 0 0 0.156863 0 0 0 0.04 0"/>
<feBlend mode="normal" in2="BackgroundImageFix" result="effect1_dropShadow_3345_2267"/>
<feBlend mode="normal" in="SourceGraphic" in2="effect1_dropShadow_3345_2267" result="shape"/>
</filter>
</defs>
</svg>
