<svg width="196" height="202" viewBox="0 0 196 202" fill="none" xmlns="http://www.w3.org/2000/svg">
<g filter="url(#filter0_d_3263_3174)">
<path d="M78 11.5472C90.376 4.40194 105.624 4.40194 118 11.5472L162.87 37.4532C175.247 44.5986 182.87 57.8036 182.87 72.0943V123.906C182.87 138.197 175.247 151.402 162.87 158.547L118 184.453C105.624 191.599 90.376 191.599 78 184.453L33.1295 158.547C20.7535 151.402 13.1295 138.197 13.1295 123.906V72.0943C13.1295 57.8036 20.7535 44.5985 33.1295 37.4532L78 11.5472Z" fill="white"/>
</g>
<path d="M83.9791 139.156L88.1191 129.4H89.8291L83.9791 142.63L78.1291 129.4H79.8391L83.9791 139.156ZM91.4463 138.76C91.4463 139.42 91.5963 139.93 91.8963 140.29C92.1963 140.65 92.6343 140.83 93.2103 140.83C93.6303 140.83 93.9963 140.746 94.3083 140.578C94.6323 140.398 94.8783 140.152 95.0463 139.84C95.2263 139.528 95.3163 139.168 95.3163 138.76V133.72H96.7563V142H95.3163V140.704C95.0403 141.196 94.6983 141.568 94.2903 141.82C93.8823 142.06 93.4023 142.18 92.8503 142.18C91.9863 142.18 91.2963 141.886 90.7803 141.298C90.2643 140.71 90.0063 139.924 90.0063 138.94V133.72H91.4463V138.76ZM102.667 142.18C101.899 142.18 101.215 142 100.615 141.64C100.027 141.268 99.5653 140.758 99.2293 140.11C98.9053 139.462 98.7433 138.712 98.7433 137.86C98.7433 136.996 98.9113 136.24 99.2473 135.592C99.5953 134.944 100.075 134.44 100.687 134.08C101.311 133.72 102.031 133.54 102.847 133.54C103.663 133.54 104.359 133.714 104.935 134.062C105.523 134.398 105.973 134.884 106.285 135.52C106.597 136.156 106.753 136.912 106.753 137.788C106.753 137.872 106.747 137.962 106.735 138.058C106.735 138.142 106.735 138.196 106.735 138.22H99.6613V136.996H105.601L105.025 137.824C105.061 137.764 105.097 137.674 105.133 137.554C105.169 137.422 105.187 137.314 105.187 137.23C105.187 136.738 105.085 136.312 104.881 135.952C104.689 135.592 104.419 135.31 104.071 135.106C103.723 134.902 103.315 134.8 102.847 134.8C102.295 134.8 101.821 134.92 101.425 135.16C101.041 135.388 100.741 135.724 100.525 136.168C100.321 136.6 100.213 137.134 100.201 137.77C100.201 138.418 100.303 138.97 100.507 139.426C100.711 139.882 101.011 140.23 101.407 140.47C101.803 140.71 102.283 140.83 102.847 140.83C103.411 140.83 103.909 140.71 104.341 140.47C104.773 140.218 105.139 139.84 105.439 139.336L106.609 140.074C106.177 140.77 105.631 141.298 104.971 141.658C104.323 142.006 103.555 142.18 102.667 142.18ZM106.171 143.872C106.303 144.076 106.495 144.232 106.747 144.34C106.987 144.46 107.269 144.52 107.593 144.52C107.869 144.52 108.139 144.394 108.403 144.142C108.679 143.902 108.817 143.488 108.817 142.9V129.4H110.257V143.08C110.257 143.572 110.191 143.998 110.059 144.358C109.939 144.718 109.759 145.018 109.519 145.258C109.279 145.498 108.985 145.672 108.637 145.78C108.301 145.9 107.923 145.96 107.503 145.96C107.191 145.96 106.891 145.906 106.603 145.798C106.303 145.702 106.051 145.582 105.847 145.438C105.631 145.306 105.475 145.18 105.379 145.06L106.171 143.872ZM113.393 139.462C113.561 139.714 113.753 139.948 113.969 140.164C114.185 140.38 114.431 140.554 114.707 140.686C114.995 140.806 115.307 140.866 115.643 140.866C116.051 140.866 116.369 140.776 116.597 140.596C116.837 140.404 116.957 140.146 116.957 139.822C116.957 139.534 116.861 139.294 116.669 139.102C116.489 138.898 116.255 138.73 115.967 138.598C115.679 138.454 115.373 138.322 115.049 138.202C114.689 138.058 114.323 137.89 113.951 137.698C113.591 137.494 113.285 137.236 113.033 136.924C112.793 136.6 112.673 136.198 112.673 135.718C112.673 135.226 112.799 134.818 113.051 134.494C113.315 134.17 113.651 133.93 114.059 133.774C114.479 133.618 114.911 133.54 115.355 133.54C115.799 133.54 116.213 133.612 116.597 133.756C116.993 133.9 117.341 134.092 117.641 134.332C117.941 134.572 118.175 134.848 118.343 135.16L117.191 135.898C116.963 135.586 116.675 135.328 116.327 135.124C115.991 134.92 115.607 134.818 115.175 134.818C114.875 134.818 114.617 134.884 114.401 135.016C114.185 135.148 114.077 135.352 114.077 135.628C114.077 135.844 114.161 136.036 114.329 136.204C114.497 136.372 114.713 136.522 114.977 136.654C115.241 136.786 115.517 136.912 115.805 137.032C116.285 137.224 116.723 137.434 117.119 137.662C117.515 137.878 117.827 138.142 118.055 138.454C118.295 138.766 118.415 139.168 118.415 139.66C118.415 140.38 118.151 140.98 117.623 141.46C117.107 141.94 116.423 142.18 115.571 142.18C115.019 142.18 114.521 142.084 114.077 141.892C113.633 141.688 113.255 141.43 112.943 141.118C112.643 140.806 112.415 140.488 112.259 140.164L113.393 139.462Z" fill="#424254"/>
<g clip-path="url(#clip0_3263_3174)">
<path d="M110.36 50L102.359 63.8562L94.3586 50H67.7188L102.359 110L137 50H110.36Z" fill="#4DBA87"/>
<path d="M110.36 50L102.359 63.8562L94.3589 50H81.5752L102.359 85.9983L123.144 50H110.36Z" fill="#435466"/>
</g>
<defs>
<filter id="filter0_d_3263_3174" x="5.12988" y="2.18823" width="185.74" height="199.624" filterUnits="userSpaceOnUse" color-interpolation-filters="sRGB">
<feFlood flood-opacity="0" result="BackgroundImageFix"/>
<feColorMatrix in="SourceAlpha" type="matrix" values="0 0 0 0 0 0 0 0 0 0 0 0 0 0 0 0 0 0 127 0" result="hardAlpha"/>
<feOffset dy="4"/>
<feGaussianBlur stdDeviation="4"/>
<feColorMatrix type="matrix" values="0 0 0 0 0.0627451 0 0 0 0 0.0941176 0 0 0 0 0.156863 0 0 0 0.04 0"/>
<feBlend mode="normal" in2="BackgroundImageFix" result="effect1_dropShadow_3263_3174"/>
<feBlend mode="normal" in="SourceGraphic" in2="effect1_dropShadow_3263_3174" result="shape"/>
</filter>
<clipPath id="clip0_3263_3174">
<rect width="69.2809" height="60" fill="white" transform="translate(67.7188 50)"/>
</clipPath>
</defs>
</svg>
